<?xml version="1.0" encoding="UTF-8" standalone="no"?>
<!DOCTYPE svg PUBLIC "-//W3C//DTD SVG 1.1//EN"
 "http://www.w3.org/Graphics/SVG/1.1/DTD/svg11.dtd">
<!-- Generated by graphviz version 2.38.0 (20140413.2041)
 -->
<!-- Title: FiftyOne.Pipeline.Engines.FlowElements.CloudPipelineBuilderBase&lt; TBuilder &gt; Pages: 1 -->
<svg width="179pt" height="264pt"
 viewBox="0.00 0.00 179.00 264.00" xmlns="http://www.w3.org/2000/svg" xmlns:xlink="http://www.w3.org/1999/xlink">
<g id="graph0" class="graph" transform="scale(1 1) rotate(0) translate(4 260)">
<title>FiftyOne.Pipeline.Engines.FlowElements.CloudPipelineBuilderBase&lt; TBuilder &gt;</title>
<!-- Node4 -->
<g id="node1" class="node"><title>Node4</title>
<g id="a_node1"><a xlink:title="Base class for cloud pipeline builders.">
<polygon fill="#bfbfbf" stroke="black" points="0.5,-0.5 0.5,-41.5 170.5,-41.5 170.5,-0.5 0.5,-0.5"/>
<text text-anchor="start" x="8.5" y="-29.5" font-family="Helvetica,sans-Serif" font-size="10.00">FiftyOne.Pipeline.Engines.</text>
<text text-anchor="start" x="8.5" y="-18.5" font-family="Helvetica,sans-Serif" font-size="10.00">FlowElements.CloudPipelineBuilder</text>
<text text-anchor="middle" x="85.5" y="-7.5" font-family="Helvetica,sans-Serif" font-size="10.00">Base&lt; TBuilder &gt;</text>
</a>
</g>
</g>
<!-- Node5 -->
<g id="node2" class="node"><title>Node5</title>
<g id="a_node2"><a xlink:href="class_fifty_one_1_1_pipeline_1_1_engines_1_1_flow_elements_1_1_pre_packaged_pipeline_builder_base.html" target="_top" xlink:title="Base class for pipeline builders that will produce a pipeline with specific flow elements.">
<polygon fill="none" stroke="black" points="15.5,-79.5 15.5,-109.5 155.5,-109.5 155.5,-79.5 15.5,-79.5"/>
<text text-anchor="start" x="23.5" y="-97.5" font-family="Helvetica,sans-Serif" font-size="10.00">PrePackagedPipelineBuilder</text>
<text text-anchor="middle" x="85.5" y="-86.5" font-family="Helvetica,sans-Serif" font-size="10.00">Base&lt; TBuilder &gt;</text>
</a>
</g>
</g>
<!-- Node5&#45;&gt;Node4 -->
<g id="edge1" class="edge"><title>Node5&#45;&gt;Node4</title>
<path fill="none" stroke="midnightblue" d="M85.5,-69.1008C85.5,-60.0979 85.5,-50.0235 85.5,-41.5096"/>
<polygon fill="midnightblue" stroke="midnightblue" points="82.0001,-69.3739 85.5,-79.3739 89.0001,-69.3739 82.0001,-69.3739"/>
</g>
<!-- Node6 -->
<g id="node3" class="node"><title>Node6</title>
<g id="a_node3"><a xlink:href="class_fifty_one_1_1_pipeline_1_1_core_1_1_flow_elements_1_1_pipeline_builder_base.html" target="_top" xlink:title=" ">
<polygon fill="none" stroke="black" points="33.5,-147.5 33.5,-177.5 137.5,-177.5 137.5,-147.5 33.5,-147.5"/>
<text text-anchor="start" x="41.5" y="-165.5" font-family="Helvetica,sans-Serif" font-size="10.00">PipelineBuilderBase</text>
<text text-anchor="middle" x="85.5" y="-154.5" font-family="Helvetica,sans-Serif" font-size="10.00">&lt; TBuilder &gt;</text>
</a>
</g>
</g>
<!-- Node6&#45;&gt;Node5 -->
<g id="edge2" class="edge"><title>Node6&#45;&gt;Node5</title>
<path fill="none" stroke="midnightblue" d="M85.5,-137.032C85.5,-127.861 85.5,-117.745 85.5,-109.793"/>
<polygon fill="midnightblue" stroke="midnightblue" points="82.0001,-137.179 85.5,-147.179 89.0001,-137.179 82.0001,-137.179"/>
</g>
<!-- Node7 -->
<g id="node4" class="node"><title>Node7</title>
<g id="a_node4"><a xlink:href="class_fifty_one_1_1_pipeline_1_1_core_1_1_flow_elements_1_1_pipeline_builder_base.html" target="_top" xlink:title="Abstract pipeline builder base class">
<polygon fill="none" stroke="black" points="0,-225.5 0,-255.5 171,-255.5 171,-225.5 0,-225.5"/>
<text text-anchor="start" x="8" y="-243.5" font-family="Helvetica,sans-Serif" font-size="10.00">FiftyOne.Pipeline.Core.Flow</text>
<text text-anchor="middle" x="85.5" y="-232.5" font-family="Helvetica,sans-Serif" font-size="10.00">Elements.PipelineBuilderBase&lt; T &gt;</text>
</a>
</g>
</g>
<!-- Node7&#45;&gt;Node6 -->
<g id="edge3" class="edge"><title>Node7&#45;&gt;Node6</title>
<path fill="none" stroke="orange" stroke-dasharray="5,2" d="M85.5,-215.09C85.5,-202.757 85.5,-188.224 85.5,-177.731"/>
<polygon fill="orange" stroke="orange" points="82.0001,-215.205 85.5,-225.205 89.0001,-215.205 82.0001,-215.205"/>
<text text-anchor="middle" x="114" y="-199" font-family="Helvetica,sans-Serif" font-size="10.00"> &lt; TBuilder &gt;</text>
</g>
</g>
</svg>
