<?xml version="1.0" encoding="UTF-8" standalone="no"?>
<!DOCTYPE svg PUBLIC "-//W3C//DTD SVG 1.1//EN"
 "http://www.w3.org/Graphics/SVG/1.1/DTD/svg11.dtd">
<!-- Generated by graphviz version 2.38.0 (20140413.2041)
 -->
<!-- Title: FiftyOne.Pipeline.IpSplitter.IpSplitterElement Pages: 1 -->
<svg width="1119pt" height="155pt"
 viewBox="0.00 0.00 1119.00 155.00" xmlns="http://www.w3.org/2000/svg" xmlns:xlink="http://www.w3.org/1999/xlink">
<g id="graph0" class="graph" transform="scale(1 1) rotate(0) translate(4 151)">
<title>FiftyOne.Pipeline.IpSplitter.IpSplitterElement</title>
<!-- Node5 -->
<g id="node1" class="node"><title>Node5</title>
<g id="a_node1"><a xlink:title=" ">
<polygon fill="#bfbfbf" stroke="black" points="976,-61 976,-91 1111,-91 1111,-61 976,-61"/>
<text text-anchor="start" x="984" y="-79" font-family="Helvetica,sans-Serif" font-size="10.00">FiftyOne.Pipeline.IpSplitter.</text>
<text text-anchor="middle" x="1043.5" y="-68" font-family="Helvetica,sans-Serif" font-size="10.00">IpSplitterElement</text>
</a>
</g>
</g>
<!-- Node6 -->
<g id="node2" class="node"><title>Node6</title>
<g id="a_node2"><a xlink:href="class_fifty_one_1_1_pipeline_1_1_core_1_1_flow_elements_1_1_flow_element_base.html" target="_top" xlink:title=" ">
<polygon fill="none" stroke="black" points="689,-110 689,-140 858,-140 858,-110 689,-110"/>
<text text-anchor="start" x="697" y="-128" font-family="Helvetica,sans-Serif" font-size="10.00">FlowElementBase&lt; ISplitIp</text>
<text text-anchor="middle" x="773.5" y="-117" font-family="Helvetica,sans-Serif" font-size="10.00">Data, IElementPropertyMetaData &gt;</text>
</a>
</g>
</g>
<!-- Node6&#45;&gt;Node5 -->
<g id="edge1" class="edge"><title>Node6&#45;&gt;Node5</title>
<path fill="none" stroke="midnightblue" d="M866.705,-108.142C902.521,-101.593 942.763,-94.2355 975.698,-88.2137"/>
<polygon fill="midnightblue" stroke="midnightblue" points="865.938,-104.724 856.73,-109.965 867.197,-111.61 865.938,-104.724"/>
</g>
<!-- Node7 -->
<g id="node3" class="node"><title>Node7</title>
<g id="a_node3"><a xlink:href="class_fifty_one_1_1_pipeline_1_1_core_1_1_flow_elements_1_1_flow_element_base.html" target="_top" xlink:title="Abstract base class for Flow Elements.">
<polygon fill="none" stroke="black" points="402.5,-104.5 402.5,-145.5 542.5,-145.5 542.5,-104.5 402.5,-104.5"/>
<text text-anchor="start" x="410.5" y="-133.5" font-family="Helvetica,sans-Serif" font-size="10.00">FiftyOne.Pipeline.Core.Flow</text>
<text text-anchor="start" x="410.5" y="-122.5" font-family="Helvetica,sans-Serif" font-size="10.00">Elements.FlowElementBase</text>
<text text-anchor="middle" x="472.5" y="-111.5" font-family="Helvetica,sans-Serif" font-size="10.00">&lt; T, TMeta &gt;</text>
</a>
</g>
</g>
<!-- Node7&#45;&gt;Node6 -->
<g id="edge2" class="edge"><title>Node7&#45;&gt;Node6</title>
<path fill="none" stroke="orange" stroke-dasharray="5,2" d="M553.016,-125C594.947,-125 646.364,-125 688.889,-125"/>
<polygon fill="orange" stroke="orange" points="552.848,-121.5 542.848,-125 552.848,-128.5 552.848,-121.5"/>
<text text-anchor="start" x="563.5" y="-139" font-family="Helvetica,sans-Serif" font-size="10.00"> &lt; ISplitIpData, IElement</text>
<text text-anchor="middle" x="616.5" y="-128" font-family="Helvetica,sans-Serif" font-size="10.00">PropertyMetaData &gt;</text>
</g>
<!-- Node8 -->
<g id="node4" class="node"><title>Node8</title>
<g id="a_node4"><a xlink:href="interface_fifty_one_1_1_pipeline_1_1_core_1_1_flow_elements_1_1_i_flow_element.html" target="_top" xlink:title=" ">
<polygon fill="none" stroke="black" points="233,-115.5 233,-134.5 364,-134.5 364,-115.5 233,-115.5"/>
<text text-anchor="middle" x="298.5" y="-122.5" font-family="Helvetica,sans-Serif" font-size="10.00">IFlowElement&lt; T, TMeta &gt;</text>
</a>
</g>
</g>
<!-- Node8&#45;&gt;Node7 -->
<g id="edge3" class="edge"><title>Node8&#45;&gt;Node7</title>
<path fill="none" stroke="midnightblue" d="M374.102,-125C383.464,-125 393.01,-125 402.285,-125"/>
<polygon fill="midnightblue" stroke="midnightblue" points="374.036,-121.5 364.036,-125 374.036,-128.5 374.036,-121.5"/>
</g>
<!-- Node9 -->
<g id="node5" class="node"><title>Node9</title>
<g id="a_node5"><a xlink:href="interface_fifty_one_1_1_pipeline_1_1_core_1_1_flow_elements_1_1_i_flow_element.html" target="_top" xlink:title="IFlowElement is the basic building block of a pipeline.">
<polygon fill="none" stroke="black" points="0,-110 0,-140 137,-140 137,-110 0,-110"/>
<text text-anchor="start" x="8" y="-128" font-family="Helvetica,sans-Serif" font-size="10.00">FiftyOne.Pipeline.Core.Flow</text>
<text text-anchor="middle" x="68.5" y="-117" font-family="Helvetica,sans-Serif" font-size="10.00">Elements.IFlowElement</text>
</a>
</g>
</g>
<!-- Node9&#45;&gt;Node8 -->
<g id="edge4" class="edge"><title>Node9&#45;&gt;Node8</title>
<path fill="none" stroke="orange" stroke-dasharray="5,2" d="M147.369,-125C175.158,-125 206.141,-125 232.71,-125"/>
<polygon fill="orange" stroke="orange" points="147.29,-121.5 137.29,-125 147.29,-128.5 147.29,-121.5"/>
<text text-anchor="middle" x="185" y="-128" font-family="Helvetica,sans-Serif" font-size="10.00"> &lt; T, TMeta &gt;</text>
</g>
<!-- Node10 -->
<g id="node6" class="node"><title>Node10</title>
<g id="a_node6"><a xlink:href="interface_fifty_one_1_1_pipeline_1_1_core_1_1_data_1_1_i_evidence_key_filter.html" target="_top" xlink:title="Represents an object that filters evidence key names based on some criteria.">
<polygon fill="none" stroke="black" points="703.5,-61 703.5,-91 843.5,-91 843.5,-61 703.5,-61"/>
<text text-anchor="start" x="711.5" y="-79" font-family="Helvetica,sans-Serif" font-size="10.00">FiftyOne.Pipeline.Core.Data.</text>
<text text-anchor="middle" x="773.5" y="-68" font-family="Helvetica,sans-Serif" font-size="10.00">IEvidenceKeyFilter</text>
</a>
</g>
</g>
<!-- Node10&#45;&gt;Node5 -->
<g id="edge5" class="edge"><title>Node10&#45;&gt;Node5</title>
<path fill="none" stroke="#9a32cd" stroke-dasharray="5,2" d="M853.717,-76C892.469,-76 938.606,-76 975.569,-76"/>
<polygon fill="#9a32cd" stroke="#9a32cd" points="853.517,-72.5001 843.517,-76 853.517,-79.5001 853.517,-72.5001"/>
<text text-anchor="middle" x="917" y="-79" font-family="Helvetica,sans-Serif" font-size="10.00"> EvidenceKeyFilter</text>
</g>
<!-- Node11 -->
<g id="node7" class="node"><title>Node11</title>
<g id="a_node7"><a xlink:href="class_fifty_one_1_1_pipeline_1_1_core_1_1_typed_map_1_1_typed_key.html" target="_top" xlink:title=" ">
<polygon fill="none" stroke="black" points="689.5,-0.5 689.5,-41.5 857.5,-41.5 857.5,-0.5 689.5,-0.5"/>
<text text-anchor="start" x="697.5" y="-29.5" font-family="Helvetica,sans-Serif" font-size="10.00">FiftyOne.Pipeline.Core.Typed</text>
<text text-anchor="start" x="697.5" y="-18.5" font-family="Helvetica,sans-Serif" font-size="10.00">Map.TypedKey&lt; FiftyOne.Pipeline.</text>
<text text-anchor="middle" x="773.5" y="-7.5" font-family="Helvetica,sans-Serif" font-size="10.00">IpSplitter.ISplitIpData &gt;</text>
</a>
</g>
</g>
<!-- Node11&#45;&gt;Node5 -->
<g id="edge6" class="edge"><title>Node11&#45;&gt;Node5</title>
<path fill="none" stroke="#9a32cd" stroke-dasharray="5,2" d="M867.744,-40.1359C903.334,-47.4397 943.162,-55.6136 975.798,-62.3112"/>
<polygon fill="#9a32cd" stroke="#9a32cd" points="868.327,-36.6827 857.828,-38.1009 866.92,-43.5398 868.327,-36.6827"/>
<text text-anchor="middle" x="917" y="-62" font-family="Helvetica,sans-Serif" font-size="10.00"> ipsplitter</text>
</g>
<!-- Node12 -->
<g id="node8" class="node"><title>Node12</title>
<g id="a_node8"><a xlink:href="class_fifty_one_1_1_pipeline_1_1_core_1_1_typed_map_1_1_typed_key.html" target="_top" xlink:title="A key to a ITypedKeyMap data store.">
<polygon fill="none" stroke="black" points="401,-6 401,-36 544,-36 544,-6 401,-6"/>
<text text-anchor="start" x="409" y="-24" font-family="Helvetica,sans-Serif" font-size="10.00">FiftyOne.Pipeline.Core.Typed</text>
<text text-anchor="middle" x="472.5" y="-13" font-family="Helvetica,sans-Serif" font-size="10.00">Map.TypedKey&lt; T &gt;</text>
</a>
</g>
</g>
<!-- Node12&#45;&gt;Node11 -->
<g id="edge7" class="edge"><title>Node12&#45;&gt;Node11</title>
<path fill="none" stroke="orange" stroke-dasharray="5,2" d="M554.51,-21C596.34,-21 647.297,-21 689.423,-21"/>
<polygon fill="orange" stroke="orange" points="554.359,-17.5001 544.359,-21 554.359,-24.5001 554.359,-17.5001"/>
<text text-anchor="start" x="562" y="-35" font-family="Helvetica,sans-Serif" font-size="10.00"> &lt; FiftyOne::Pipeline</text>
<text text-anchor="middle" x="616.5" y="-24" font-family="Helvetica,sans-Serif" font-size="10.00">::IpSplitter::ISplitIpData &gt;</text>
</g>
<!-- Node13 -->
<g id="node9" class="node"><title>Node13</title>
<g id="a_node9"><a xlink:href="interface_fifty_one_1_1_pipeline_1_1_core_1_1_typed_map_1_1_i_typed_key.html" target="_top" xlink:title="Represents a key to a ITypedKeyMap data store.">
<polygon fill="none" stroke="black" points="255.5,-11.5 255.5,-30.5 341.5,-30.5 341.5,-11.5 255.5,-11.5"/>
<text text-anchor="middle" x="298.5" y="-18.5" font-family="Helvetica,sans-Serif" font-size="10.00">ITypedKey&lt; T &gt;</text>
</a>
</g>
</g>
<!-- Node13&#45;&gt;Node12 -->
<g id="edge8" class="edge"><title>Node13&#45;&gt;Node12</title>
<path fill="none" stroke="midnightblue" d="M351.922,-21C367.301,-21 384.38,-21 400.704,-21"/>
<polygon fill="midnightblue" stroke="midnightblue" points="351.576,-17.5001 341.576,-21 351.576,-24.5001 351.576,-17.5001"/>
</g>
</g>
</svg>
