<?xml version="1.0" encoding="UTF-8" standalone="no"?>
<!DOCTYPE svg PUBLIC "-//W3C//DTD SVG 1.1//EN"
 "http://www.w3.org/Graphics/SVG/1.1/DTD/svg11.dtd">
<!-- Generated by graphviz version 2.38.0 (20140413.2041)
 -->
<!-- Title: FiftyOne.Pipeline.Engines.FiftyOne.FlowElements.ShareUsageElement Pages: 1 -->
<svg width="282pt" height="410pt"
 viewBox="0.00 0.00 281.50 410.00" xmlns="http://www.w3.org/2000/svg" xmlns:xlink="http://www.w3.org/1999/xlink">
<g id="graph0" class="graph" transform="scale(1 1) rotate(0) translate(4 406)">
<title>FiftyOne.Pipeline.Engines.FiftyOne.FlowElements.ShareUsageElement</title>
<!-- Node0 -->
<g id="node1" class="node"><title>Node0</title>
<g id="a_node1"><a xlink:title="Flow element that sends usage data to 51Degrees for analysis.">
<polygon fill="#bfbfbf" stroke="black" points="99.5,-0.5 99.5,-41.5 273.5,-41.5 273.5,-0.5 99.5,-0.5"/>
<text text-anchor="start" x="107.5" y="-29.5" font-family="Helvetica,sans-Serif" font-size="10.00">FiftyOne.Pipeline.Engines.</text>
<text text-anchor="start" x="107.5" y="-18.5" font-family="Helvetica,sans-Serif" font-size="10.00">FiftyOne.FlowElements.ShareUsage</text>
<text text-anchor="middle" x="186.5" y="-7.5" font-family="Helvetica,sans-Serif" font-size="10.00">Element</text>
</a>
</g>
</g>
<!-- Node1 -->
<g id="node2" class="node"><title>Node1</title>
<g id="a_node2"><a xlink:href="class_fifty_one_1_1_pipeline_1_1_engines_1_1_fifty_one_1_1_flow_elements_1_1_share_usage_base.html" target="_top" xlink:title="Abstract base class for ShareUsage elements.">
<polygon fill="none" stroke="black" points="140.5,-79.5 140.5,-98.5 232.5,-98.5 232.5,-79.5 140.5,-79.5"/>
<text text-anchor="middle" x="186.5" y="-86.5" font-family="Helvetica,sans-Serif" font-size="10.00">ShareUsageBase</text>
</a>
</g>
</g>
<!-- Node1&#45;&gt;Node0 -->
<g id="edge1" class="edge"><title>Node1&#45;&gt;Node0</title>
<path fill="none" stroke="midnightblue" d="M186.5,-69.2462C186.5,-60.647 186.5,-50.4506 186.5,-41.7351"/>
<polygon fill="midnightblue" stroke="midnightblue" points="183,-69.3716 186.5,-79.3717 190,-69.3717 183,-69.3716"/>
</g>
<!-- Node2 -->
<g id="node3" class="node"><title>Node2</title>
<g id="a_node3"><a xlink:href="class_fifty_one_1_1_pipeline_1_1_core_1_1_flow_elements_1_1_flow_element_base.html" target="_top" xlink:title=" ">
<polygon fill="none" stroke="black" points="0,-136.5 0,-166.5 169,-166.5 169,-136.5 0,-136.5"/>
<text text-anchor="start" x="8" y="-154.5" font-family="Helvetica,sans-Serif" font-size="10.00">FlowElementBase&lt; IElement</text>
<text text-anchor="middle" x="84.5" y="-143.5" font-family="Helvetica,sans-Serif" font-size="10.00">Data, IElementPropertyMetaData &gt;</text>
</a>
</g>
</g>
<!-- Node2&#45;&gt;Node1 -->
<g id="edge2" class="edge"><title>Node2&#45;&gt;Node1</title>
<path fill="none" stroke="midnightblue" d="M116.909,-131.277C135.466,-120.27 157.827,-107.007 172.102,-98.5399"/>
<polygon fill="midnightblue" stroke="midnightblue" points="114.973,-128.356 108.157,-136.468 118.544,-134.377 114.973,-128.356"/>
</g>
<!-- Node3 -->
<g id="node4" class="node"><title>Node3</title>
<g id="a_node4"><a xlink:href="class_fifty_one_1_1_pipeline_1_1_core_1_1_flow_elements_1_1_flow_element_base.html" target="_top" xlink:title="Abstract base class for Flow Elements.">
<polygon fill="none" stroke="black" points="14.5,-225.5 14.5,-266.5 154.5,-266.5 154.5,-225.5 14.5,-225.5"/>
<text text-anchor="start" x="22.5" y="-254.5" font-family="Helvetica,sans-Serif" font-size="10.00">FiftyOne.Pipeline.Core.Flow</text>
<text text-anchor="start" x="22.5" y="-243.5" font-family="Helvetica,sans-Serif" font-size="10.00">Elements.FlowElementBase</text>
<text text-anchor="middle" x="84.5" y="-232.5" font-family="Helvetica,sans-Serif" font-size="10.00">&lt; T, TMeta &gt;</text>
</a>
</g>
</g>
<!-- Node3&#45;&gt;Node2 -->
<g id="edge3" class="edge"><title>Node3&#45;&gt;Node2</title>
<path fill="none" stroke="orange" stroke-dasharray="5,2" d="M84.5,-215.237C84.5,-198.956 84.5,-179.538 84.5,-166.662"/>
<polygon fill="orange" stroke="orange" points="81.0001,-215.383 84.5,-225.383 88.0001,-215.383 81.0001,-215.383"/>
<text text-anchor="start" x="84.5" y="-199" font-family="Helvetica,sans-Serif" font-size="10.00"> &lt; IElementData, IElement</text>
<text text-anchor="middle" x="142" y="-188" font-family="Helvetica,sans-Serif" font-size="10.00">PropertyMetaData &gt;</text>
</g>
<!-- Node4 -->
<g id="node5" class="node"><title>Node4</title>
<g id="a_node5"><a xlink:href="interface_fifty_one_1_1_pipeline_1_1_core_1_1_flow_elements_1_1_i_flow_element.html" target="_top" xlink:title=" ">
<polygon fill="none" stroke="black" points="19,-304.5 19,-323.5 150,-323.5 150,-304.5 19,-304.5"/>
<text text-anchor="middle" x="84.5" y="-311.5" font-family="Helvetica,sans-Serif" font-size="10.00">IFlowElement&lt; T, TMeta &gt;</text>
</a>
</g>
</g>
<!-- Node4&#45;&gt;Node3 -->
<g id="edge4" class="edge"><title>Node4&#45;&gt;Node3</title>
<path fill="none" stroke="midnightblue" d="M84.5,-294.246C84.5,-285.647 84.5,-275.451 84.5,-266.735"/>
<polygon fill="midnightblue" stroke="midnightblue" points="81.0001,-294.372 84.5,-304.372 88.0001,-294.372 81.0001,-294.372"/>
</g>
<!-- Node5 -->
<g id="node6" class="node"><title>Node5</title>
<g id="a_node6"><a xlink:href="interface_fifty_one_1_1_pipeline_1_1_core_1_1_flow_elements_1_1_i_flow_element.html" target="_top" xlink:title="IFlowElement is the basic building block of a pipeline.">
<polygon fill="none" stroke="black" points="16,-371.5 16,-401.5 153,-401.5 153,-371.5 16,-371.5"/>
<text text-anchor="start" x="24" y="-389.5" font-family="Helvetica,sans-Serif" font-size="10.00">FiftyOne.Pipeline.Core.Flow</text>
<text text-anchor="middle" x="84.5" y="-378.5" font-family="Helvetica,sans-Serif" font-size="10.00">Elements.IFlowElement</text>
</a>
</g>
</g>
<!-- Node5&#45;&gt;Node4 -->
<g id="edge5" class="edge"><title>Node5&#45;&gt;Node4</title>
<path fill="none" stroke="orange" stroke-dasharray="5,2" d="M84.5,-361.091C84.5,-348.214 84.5,-333.197 84.5,-323.893"/>
<polygon fill="orange" stroke="orange" points="81.0001,-361.233 84.5,-371.233 88.0001,-361.233 81.0001,-361.233"/>
<text text-anchor="middle" x="114.5" y="-345" font-family="Helvetica,sans-Serif" font-size="10.00"> &lt; T, TMeta &gt;</text>
</g>
<!-- Node6 -->
<g id="node7" class="node"><title>Node6</title>
<g id="a_node7"><a xlink:title=" ">
<polygon fill="none" stroke="#bfbfbf" points="187,-142 187,-161 254,-161 254,-142 187,-142"/>
<text text-anchor="middle" x="220.5" y="-149" font-family="Helvetica,sans-Serif" font-size="10.00">IDisposable</text>
</a>
</g>
</g>
<!-- Node6&#45;&gt;Node1 -->
<g id="edge6" class="edge"><title>Node6&#45;&gt;Node1</title>
<path fill="none" stroke="midnightblue" d="M210.598,-132.879C204.276,-121.63 196.358,-107.541 191.362,-98.6521"/>
<polygon fill="midnightblue" stroke="midnightblue" points="207.678,-134.829 215.629,-141.832 213.781,-131.399 207.678,-134.829"/>
</g>
</g>
</svg>
