<?xml version="1.0" encoding="UTF-8" standalone="no"?>
<!DOCTYPE svg PUBLIC "-//W3C//DTD SVG 1.1//EN"
 "http://www.w3.org/Graphics/SVG/1.1/DTD/svg11.dtd">
<!-- Generated by graphviz version 2.38.0 (20140413.2041)
 -->
<!-- Title: FiftyOne.Pipeline.Core.FlowElements.FlowElementBase&lt; T, TMeta &gt; Pages: 1 -->
<svg width="148pt" height="185pt"
 viewBox="0.00 0.00 148.00 185.00" xmlns="http://www.w3.org/2000/svg" xmlns:xlink="http://www.w3.org/1999/xlink">
<g id="graph0" class="graph" transform="scale(1 1) rotate(0) translate(4 181)">
<title>FiftyOne.Pipeline.Core.FlowElements.FlowElementBase&lt; T, TMeta &gt;</title>
<!-- Node20 -->
<g id="node1" class="node"><title>Node20</title>
<g id="a_node1"><a xlink:title="Abstract base class for Flow Elements.">
<polygon fill="#bfbfbf" stroke="black" points="0,-0.5 0,-41.5 140,-41.5 140,-0.5 0,-0.5"/>
<text text-anchor="start" x="8" y="-29.5" font-family="Helvetica,sans-Serif" font-size="10.00">FiftyOne.Pipeline.Core.Flow</text>
<text text-anchor="start" x="8" y="-18.5" font-family="Helvetica,sans-Serif" font-size="10.00">Elements.FlowElementBase</text>
<text text-anchor="middle" x="70" y="-7.5" font-family="Helvetica,sans-Serif" font-size="10.00">&lt; T, TMeta &gt;</text>
</a>
</g>
</g>
<!-- Node21 -->
<g id="node2" class="node"><title>Node21</title>
<g id="a_node2"><a xlink:href="interface_fifty_one_1_1_pipeline_1_1_core_1_1_flow_elements_1_1_i_flow_element.html" target="_top" xlink:title=" ">
<polygon fill="none" stroke="black" points="4.5,-79.5 4.5,-98.5 135.5,-98.5 135.5,-79.5 4.5,-79.5"/>
<text text-anchor="middle" x="70" y="-86.5" font-family="Helvetica,sans-Serif" font-size="10.00">IFlowElement&lt; T, TMeta &gt;</text>
</a>
</g>
</g>
<!-- Node21&#45;&gt;Node20 -->
<g id="edge1" class="edge"><title>Node21&#45;&gt;Node20</title>
<path fill="none" stroke="midnightblue" d="M70,-69.2462C70,-60.647 70,-50.4506 70,-41.7351"/>
<polygon fill="midnightblue" stroke="midnightblue" points="66.5001,-69.3716 70,-79.3717 73.5001,-69.3717 66.5001,-69.3716"/>
</g>
<!-- Node22 -->
<g id="node3" class="node"><title>Node22</title>
<g id="a_node3"><a xlink:href="interface_fifty_one_1_1_pipeline_1_1_core_1_1_flow_elements_1_1_i_flow_element.html" target="_top" xlink:title="IFlowElement is the basic building block of a pipeline.">
<polygon fill="none" stroke="black" points="1.5,-146.5 1.5,-176.5 138.5,-176.5 138.5,-146.5 1.5,-146.5"/>
<text text-anchor="start" x="9.5" y="-164.5" font-family="Helvetica,sans-Serif" font-size="10.00">FiftyOne.Pipeline.Core.Flow</text>
<text text-anchor="middle" x="70" y="-153.5" font-family="Helvetica,sans-Serif" font-size="10.00">Elements.IFlowElement</text>
</a>
</g>
</g>
<!-- Node22&#45;&gt;Node21 -->
<g id="edge2" class="edge"><title>Node22&#45;&gt;Node21</title>
<path fill="none" stroke="orange" stroke-dasharray="5,2" d="M70,-136.091C70,-123.214 70,-108.197 70,-98.8932"/>
<polygon fill="orange" stroke="orange" points="66.5001,-136.233 70,-146.233 73.5001,-136.233 66.5001,-136.233"/>
<text text-anchor="middle" x="100" y="-120" font-family="Helvetica,sans-Serif" font-size="10.00"> &lt; T, TMeta &gt;</text>
</g>
</g>
</svg>
