<?xml version="1.0" encoding="UTF-8" standalone="no"?>
<!DOCTYPE svg PUBLIC "-//W3C//DTD SVG 1.1//EN"
 "http://www.w3.org/Graphics/SVG/1.1/DTD/svg11.dtd">
<!-- Generated by graphviz version 2.38.0 (20140413.2041)
 -->
<!-- Title: FiftyOne.Pipeline.Engines.FiftyOne.FlowElements.FiftyOnePipelineBuilder Pages: 1 -->
<svg width="326pt" height="253pt"
 viewBox="0.00 0.00 325.50 253.00" xmlns="http://www.w3.org/2000/svg" xmlns:xlink="http://www.w3.org/1999/xlink">
<g id="graph0" class="graph" transform="scale(1 1) rotate(0) translate(4 249)">
<title>FiftyOne.Pipeline.Engines.FiftyOne.FlowElements.FiftyOnePipelineBuilder</title>
<!-- Node0 -->
<g id="node1" class="node"><title>Node0</title>
<g id="a_node1"><a xlink:title="Pipeline builder class that allows the 51Degrees share usage element to be enabled/disabled.">
<polygon fill="#bfbfbf" stroke="black" points="119.5,-0.5 119.5,-41.5 277.5,-41.5 277.5,-0.5 119.5,-0.5"/>
<text text-anchor="start" x="127.5" y="-29.5" font-family="Helvetica,sans-Serif" font-size="10.00">FiftyOne.Pipeline.Engines.</text>
<text text-anchor="start" x="127.5" y="-18.5" font-family="Helvetica,sans-Serif" font-size="10.00">FiftyOne.FlowElements.FiftyOne</text>
<text text-anchor="middle" x="198.5" y="-7.5" font-family="Helvetica,sans-Serif" font-size="10.00">PipelineBuilder</text>
</a>
</g>
</g>
<!-- Node1 -->
<g id="node2" class="node"><title>Node1</title>
<g id="a_node2"><a xlink:href="class_fifty_one_1_1_pipeline_1_1_core_1_1_flow_elements_1_1_pipeline_builder.html" target="_top" xlink:title="Default pipeline builder.">
<polygon fill="none" stroke="black" points="158,-79.5 158,-98.5 239,-98.5 239,-79.5 158,-79.5"/>
<text text-anchor="middle" x="198.5" y="-86.5" font-family="Helvetica,sans-Serif" font-size="10.00">PipelineBuilder</text>
</a>
</g>
</g>
<!-- Node1&#45;&gt;Node0 -->
<g id="edge1" class="edge"><title>Node1&#45;&gt;Node0</title>
<path fill="none" stroke="midnightblue" d="M198.5,-69.2462C198.5,-60.647 198.5,-50.4506 198.5,-41.7351"/>
<polygon fill="midnightblue" stroke="midnightblue" points="195,-69.3716 198.5,-79.3717 202,-69.3717 195,-69.3716"/>
</g>
<!-- Node2 -->
<g id="node3" class="node"><title>Node2</title>
<g id="a_node3"><a xlink:href="class_fifty_one_1_1_pipeline_1_1_core_1_1_flow_elements_1_1_pipeline_builder_base.html" target="_top" xlink:title=" ">
<polygon fill="none" stroke="black" points="33.5,-136.5 33.5,-166.5 137.5,-166.5 137.5,-136.5 33.5,-136.5"/>
<text text-anchor="start" x="41.5" y="-154.5" font-family="Helvetica,sans-Serif" font-size="10.00">PipelineBuilderBase</text>
<text text-anchor="middle" x="85.5" y="-143.5" font-family="Helvetica,sans-Serif" font-size="10.00">&lt; PipelineBuilder &gt;</text>
</a>
</g>
</g>
<!-- Node2&#45;&gt;Node1 -->
<g id="edge2" class="edge"><title>Node2&#45;&gt;Node1</title>
<path fill="none" stroke="midnightblue" d="M120.566,-131.726C141.285,-120.633 166.519,-107.122 182.55,-98.5399"/>
<polygon fill="midnightblue" stroke="midnightblue" points="118.872,-128.662 111.708,-136.468 122.177,-134.834 118.872,-128.662"/>
</g>
<!-- Node3 -->
<g id="node4" class="node"><title>Node3</title>
<g id="a_node4"><a xlink:href="class_fifty_one_1_1_pipeline_1_1_core_1_1_flow_elements_1_1_pipeline_builder_base.html" target="_top" xlink:title="Abstract pipeline builder base class">
<polygon fill="none" stroke="black" points="0,-214.5 0,-244.5 171,-244.5 171,-214.5 0,-214.5"/>
<text text-anchor="start" x="8" y="-232.5" font-family="Helvetica,sans-Serif" font-size="10.00">FiftyOne.Pipeline.Core.Flow</text>
<text text-anchor="middle" x="85.5" y="-221.5" font-family="Helvetica,sans-Serif" font-size="10.00">Elements.PipelineBuilderBase&lt; T &gt;</text>
</a>
</g>
</g>
<!-- Node3&#45;&gt;Node2 -->
<g id="edge3" class="edge"><title>Node3&#45;&gt;Node2</title>
<path fill="none" stroke="orange" stroke-dasharray="5,2" d="M85.5,-204.09C85.5,-191.757 85.5,-177.224 85.5,-166.731"/>
<polygon fill="orange" stroke="orange" points="82.0001,-204.205 85.5,-214.205 89.0001,-204.205 82.0001,-204.205"/>
<text text-anchor="middle" x="128.5" y="-188" font-family="Helvetica,sans-Serif" font-size="10.00"> &lt; PipelineBuilder &gt;</text>
</g>
<!-- Node4 -->
<g id="node5" class="node"><title>Node4</title>
<g id="a_node5"><a xlink:href="interface_fifty_one_1_1_pipeline_1_1_core_1_1_flow_elements_1_1_i_pipeline_builder_from_configuration.html" target="_top" xlink:title="Pipeline builders implementing this interface are capable of building a IPipeline based on a supplied...">
<polygon fill="none" stroke="black" points="155.5,-142 155.5,-161 317.5,-161 317.5,-142 155.5,-142"/>
<text text-anchor="middle" x="236.5" y="-149" font-family="Helvetica,sans-Serif" font-size="10.00">IPipelineBuilderFromConfiguration</text>
</a>
</g>
</g>
<!-- Node4&#45;&gt;Node1 -->
<g id="edge4" class="edge"><title>Node4&#45;&gt;Node1</title>
<path fill="none" stroke="midnightblue" d="M225.646,-133.219C218.546,-121.915 209.574,-107.631 203.934,-98.6521"/>
<polygon fill="midnightblue" stroke="midnightblue" points="222.773,-135.225 231.056,-141.832 228.7,-131.502 222.773,-135.225"/>
</g>
</g>
</svg>
