<?xml version="1.0" encoding="UTF-8" standalone="no"?>
<!DOCTYPE svg PUBLIC "-//W3C//DTD SVG 1.1//EN"
 "http://www.w3.org/Graphics/SVG/1.1/DTD/svg11.dtd">
<!-- Generated by graphviz version 2.38.0 (20140413.2041)
 -->
<!-- Title: FiftyOne.Pipeline.Engines.Configuration.DataFileConfiguration Pages: 1 -->
<svg width="176pt" height="173pt"
 viewBox="0.00 0.00 176.00 173.00" xmlns="http://www.w3.org/2000/svg" xmlns:xlink="http://www.w3.org/1999/xlink">
<g id="graph0" class="graph" transform="scale(1 1) rotate(0) translate(4 169)">
<title>FiftyOne.Pipeline.Engines.Configuration.DataFileConfiguration</title>
<!-- Node0 -->
<g id="node1" class="node"><title>Node0</title>
<g id="a_node1"><a xlink:title="This class contains the automatic update configuration parameters that can be supplied to an engine f...">
<polygon fill="#bfbfbf" stroke="black" points="0,-78.5 0,-108.5 168,-108.5 168,-78.5 0,-78.5"/>
<text text-anchor="start" x="8" y="-96.5" font-family="Helvetica,sans-Serif" font-size="10.00">FiftyOne.Pipeline.Engines.</text>
<text text-anchor="middle" x="84" y="-85.5" font-family="Helvetica,sans-Serif" font-size="10.00">Configuration.DataFileConfiguration</text>
</a>
</g>
</g>
<!-- Node2 -->
<g id="node3" class="node"><title>Node2</title>
<g id="a_node3"><a xlink:href="class_fifty_one_1_1_pipeline_1_1_engines_1_1_fifty_one_1_1_configuration_1_1_fifty_one_data_file_configuration.html" target="_top" xlink:title="Data file configuration class for 51Degrees data files.">
<polygon fill="none" stroke="black" points="8,-0.5 8,-41.5 160,-41.5 160,-0.5 8,-0.5"/>
<text text-anchor="start" x="16" y="-29.5" font-family="Helvetica,sans-Serif" font-size="10.00">FiftyOne.Pipeline.Engines.</text>
<text text-anchor="start" x="16" y="-18.5" font-family="Helvetica,sans-Serif" font-size="10.00">FiftyOne.Configuration.FiftyOne</text>
<text text-anchor="middle" x="84" y="-7.5" font-family="Helvetica,sans-Serif" font-size="10.00">DataFileConfiguration</text>
</a>
</g>
</g>
<!-- Node0&#45;&gt;Node2 -->
<g id="edge2" class="edge"><title>Node0&#45;&gt;Node2</title>
<path fill="none" stroke="midnightblue" d="M84,-67.9815C84,-59.3468 84,-49.7625 84,-41.5884"/>
<polygon fill="midnightblue" stroke="midnightblue" points="80.5001,-68.2332 84,-78.2333 87.5001,-68.2333 80.5001,-68.2332"/>
</g>
<!-- Node1 -->
<g id="node2" class="node"><title>Node1</title>
<g id="a_node2"><a xlink:href="interface_fifty_one_1_1_pipeline_1_1_engines_1_1_configuration_1_1_i_data_file_configuration.html" target="_top" xlink:title="Interface representing the configuration parameters controlling the automatic update checks for a spe...">
<polygon fill="none" stroke="black" points="28.5,-145.5 28.5,-164.5 139.5,-164.5 139.5,-145.5 28.5,-145.5"/>
<text text-anchor="middle" x="84" y="-152.5" font-family="Helvetica,sans-Serif" font-size="10.00">IDataFileConfiguration</text>
</a>
</g>
</g>
<!-- Node1&#45;&gt;Node0 -->
<g id="edge1" class="edge"><title>Node1&#45;&gt;Node0</title>
<path fill="none" stroke="midnightblue" d="M84,-135.235C84,-126.586 84,-116.497 84,-108.523"/>
<polygon fill="midnightblue" stroke="midnightblue" points="80.5001,-135.475 84,-145.475 87.5001,-135.475 80.5001,-135.475"/>
</g>
</g>
</svg>
