<?xml version="1.0" encoding="UTF-8" standalone="no"?>
<!DOCTYPE svg PUBLIC "-//W3C//DTD SVG 1.1//EN"
 "http://www.w3.org/Graphics/SVG/1.1/DTD/svg11.dtd">
<!-- Generated by graphviz version 2.38.0 (20140413.2041)
 -->
<!-- Title: FiftyOne.Pipeline.Engines.Caching.DefaultFlowCache Pages: 1 -->
<svg width="974pt" height="101pt"
 viewBox="0.00 0.00 974.00 101.00" xmlns="http://www.w3.org/2000/svg" xmlns:xlink="http://www.w3.org/1999/xlink">
<g id="graph0" class="graph" transform="scale(1 1) rotate(0) translate(4 97)">
<title>FiftyOne.Pipeline.Engines.Caching.DefaultFlowCache</title>
<!-- Node8 -->
<g id="node1" class="node"><title>Node8</title>
<g id="a_node1"><a xlink:title="The default &#39;flow cache&#39; implementation.">
<polygon fill="#bfbfbf" stroke="black" points="833,-28 833,-58 966,-58 966,-28 833,-28"/>
<text text-anchor="start" x="841" y="-46" font-family="Helvetica,sans-Serif" font-size="10.00">FiftyOne.Pipeline.Engines.</text>
<text text-anchor="middle" x="899.5" y="-35" font-family="Helvetica,sans-Serif" font-size="10.00">Caching.DefaultFlowCache</text>
</a>
</g>
</g>
<!-- Node9 -->
<g id="node2" class="node"><title>Node9</title>
<g id="a_node2"><a xlink:href="class_fifty_one_1_1_pipeline_1_1_engines_1_1_caching_1_1_data_keyed_cache_base.html" target="_top" xlink:title=" ">
<polygon fill="none" stroke="black" points="681,-55 681,-85 796,-85 796,-55 681,-55"/>
<text text-anchor="start" x="689" y="-73" font-family="Helvetica,sans-Serif" font-size="10.00">DataKeyedCacheBase</text>
<text text-anchor="middle" x="738.5" y="-62" font-family="Helvetica,sans-Serif" font-size="10.00">&lt; IElementData &gt;</text>
</a>
</g>
</g>
<!-- Node9&#45;&gt;Node8 -->
<g id="edge1" class="edge"><title>Node9&#45;&gt;Node8</title>
<path fill="none" stroke="midnightblue" d="M805.962,-58.7139C814.888,-57.1982 824.04,-55.6442 832.95,-54.1311"/>
<polygon fill="midnightblue" stroke="midnightblue" points="805.278,-55.28 796.005,-60.4048 806.45,-62.1812 805.278,-55.28"/>
</g>
<!-- Node10 -->
<g id="node3" class="node"><title>Node10</title>
<g id="a_node3"><a xlink:href="class_fifty_one_1_1_pipeline_1_1_engines_1_1_caching_1_1_data_keyed_cache_base.html" target="_top" xlink:title="Abstract base class for caches that use IFlowData as the key.">
<polygon fill="none" stroke="black" points="412,-51.5 412,-92.5 565,-92.5 565,-51.5 412,-51.5"/>
<text text-anchor="start" x="420" y="-80.5" font-family="Helvetica,sans-Serif" font-size="10.00">FiftyOne.Pipeline.Engines.</text>
<text text-anchor="start" x="420" y="-69.5" font-family="Helvetica,sans-Serif" font-size="10.00">Caching.DataKeyedCacheBase</text>
<text text-anchor="middle" x="488.5" y="-58.5" font-family="Helvetica,sans-Serif" font-size="10.00">&lt; TValue &gt;</text>
</a>
</g>
</g>
<!-- Node10&#45;&gt;Node9 -->
<g id="edge2" class="edge"><title>Node10&#45;&gt;Node9</title>
<path fill="none" stroke="orange" stroke-dasharray="5,2" d="M575.43,-71.307C610.267,-71.0261 649.544,-70.7093 680.706,-70.458"/>
<polygon fill="orange" stroke="orange" points="575.227,-67.8084 565.256,-71.3891 575.284,-74.8082 575.227,-67.8084"/>
<text text-anchor="middle" x="623" y="-74" font-family="Helvetica,sans-Serif" font-size="10.00"> &lt; IElementData &gt;</text>
</g>
<!-- Node11 -->
<g id="node4" class="node"><title>Node11</title>
<g id="a_node4"><a xlink:href="interface_fifty_one_1_1_pipeline_1_1_engines_1_1_caching_1_1_i_data_keyed_cache.html" target="_top" xlink:title="Represents a put cache where the key is a IFlowData instance.">
<polygon fill="none" stroke="black" points="153,-60.5 153,-79.5 296,-79.5 296,-60.5 153,-60.5"/>
<text text-anchor="middle" x="224.5" y="-67.5" font-family="Helvetica,sans-Serif" font-size="10.00">IDataKeyedCache&lt; TValue &gt;</text>
</a>
</g>
</g>
<!-- Node11&#45;&gt;Node10 -->
<g id="edge3" class="edge"><title>Node11&#45;&gt;Node10</title>
<path fill="none" stroke="midnightblue" d="M306.307,-70.6168C339.914,-70.8734 378.713,-71.1696 411.765,-71.4219"/>
<polygon fill="midnightblue" stroke="midnightblue" points="306.082,-67.1151 296.056,-70.5386 306.029,-74.1149 306.082,-67.1151"/>
</g>
<!-- Node12 -->
<g id="node5" class="node"><title>Node12</title>
<g id="a_node5"><a xlink:title=" ">
<polygon fill="none" stroke="#bfbfbf" points="0,-33 0,-63 116,-63 116,-33 0,-33"/>
<text text-anchor="start" x="8" y="-51" font-family="Helvetica,sans-Serif" font-size="10.00">IPutCache&lt; IFlowData,</text>
<text text-anchor="middle" x="58" y="-40" font-family="Helvetica,sans-Serif" font-size="10.00"> TValue &gt;</text>
</a>
</g>
</g>
<!-- Node12&#45;&gt;Node11 -->
<g id="edge4" class="edge"><title>Node12&#45;&gt;Node11</title>
<path fill="none" stroke="midnightblue" d="M126.253,-56.9944C135.04,-58.1694 144.062,-59.3761 152.902,-60.5583"/>
<polygon fill="midnightblue" stroke="midnightblue" points="126.448,-53.4893 116.072,-55.6328 125.52,-60.4276 126.448,-53.4893"/>
</g>
<!-- Node15 -->
<g id="node8" class="node"><title>Node15</title>
<g id="a_node8"><a xlink:href="interface_fifty_one_1_1_pipeline_1_1_engines_1_1_caching_1_1_i_data_keyed_cache.html" target="_top" xlink:title="Represents a put cache where the key is a IFlowData instance.">
<polygon fill="none" stroke="black" points="158,-0.5 158,-41.5 291,-41.5 291,-0.5 158,-0.5"/>
<text text-anchor="start" x="166" y="-29.5" font-family="Helvetica,sans-Serif" font-size="10.00">FiftyOne.Pipeline.Engines.</text>
<text text-anchor="start" x="166" y="-18.5" font-family="Helvetica,sans-Serif" font-size="10.00">Caching.IDataKeyedCache</text>
<text text-anchor="middle" x="224.5" y="-7.5" font-family="Helvetica,sans-Serif" font-size="10.00">&lt; TValue &gt;</text>
</a>
</g>
</g>
<!-- Node12&#45;&gt;Node15 -->
<g id="edge8" class="edge"><title>Node12&#45;&gt;Node15</title>
<path fill="none" stroke="midnightblue" d="M126,-37.003C136.489,-35.2814 147.321,-33.5036 157.781,-31.7868"/>
<polygon fill="midnightblue" stroke="midnightblue" points="125.374,-33.5589 116.072,-38.6325 126.507,-40.4665 125.374,-33.5589"/>
</g>
<!-- Node13 -->
<g id="node6" class="node"><title>Node13</title>
<g id="a_node6"><a xlink:href="interface_fifty_one_1_1_pipeline_1_1_engines_1_1_caching_1_1_i_flow_cache.html" target="_top" xlink:title="Represents a &#39;flow cache&#39; A flow cache is a cache that is used to cache results from individual flow ...">
<polygon fill="none" stroke="black" points="705,-11.5 705,-30.5 772,-30.5 772,-11.5 705,-11.5"/>
<text text-anchor="middle" x="738.5" y="-18.5" font-family="Helvetica,sans-Serif" font-size="10.00">IFlowCache</text>
</a>
</g>
</g>
<!-- Node13&#45;&gt;Node8 -->
<g id="edge5" class="edge"><title>Node13&#45;&gt;Node8</title>
<path fill="none" stroke="midnightblue" d="M782.384,-26.9336C797.904,-29.081 815.806,-31.558 832.834,-33.9142"/>
<polygon fill="midnightblue" stroke="midnightblue" points="782.445,-23.4088 772.06,-25.5051 781.486,-30.3428 782.445,-23.4088"/>
</g>
<!-- Node14 -->
<g id="node7" class="node"><title>Node14</title>
<g id="a_node7"><a xlink:href="interface_fifty_one_1_1_pipeline_1_1_engines_1_1_caching_1_1_i_data_keyed_cache.html" target="_top" xlink:title=" ">
<polygon fill="none" stroke="black" points="417.5,-2 417.5,-32 559.5,-32 559.5,-2 417.5,-2"/>
<text text-anchor="start" x="425.5" y="-20" font-family="Helvetica,sans-Serif" font-size="10.00">IDataKeyedCache&lt; IElement</text>
<text text-anchor="middle" x="488.5" y="-9" font-family="Helvetica,sans-Serif" font-size="10.00">Data &gt;</text>
</a>
</g>
</g>
<!-- Node14&#45;&gt;Node13 -->
<g id="edge6" class="edge"><title>Node14&#45;&gt;Node13</title>
<path fill="none" stroke="midnightblue" d="M569.817,-18.2954C615.717,-19.0358 670.773,-19.9238 704.953,-20.4751"/>
<polygon fill="midnightblue" stroke="midnightblue" points="569.628,-14.792 559.572,-18.1302 569.515,-21.7911 569.628,-14.792"/>
</g>
<!-- Node15&#45;&gt;Node14 -->
<g id="edge7" class="edge"><title>Node15&#45;&gt;Node14</title>
<path fill="none" stroke="orange" stroke-dasharray="5,2" d="M301.372,-19.8416C337.869,-19.2844 381.35,-18.6206 417.104,-18.0748"/>
<polygon fill="orange" stroke="orange" points="301.221,-16.3435 291.275,-19.9958 301.328,-23.3426 301.221,-16.3435"/>
<text text-anchor="middle" x="354" y="-23" font-family="Helvetica,sans-Serif" font-size="10.00"> &lt; IElementData &gt;</text>
</g>
</g>
</svg>
