<?xml version="1.0" encoding="UTF-8" standalone="no"?>
<!DOCTYPE svg PUBLIC "-//W3C//DTD SVG 1.1//EN"
 "http://www.w3.org/Graphics/SVG/1.1/DTD/svg11.dtd">
<!-- Generated by graphviz version 2.38.0 (20140413.2041)
 -->
<!-- Title: FiftyOne.Pipeline.Core.FlowElements.PipelineBuilder Pages: 1 -->
<svg width="326pt" height="264pt"
 viewBox="0.00 0.00 325.50 264.00" xmlns="http://www.w3.org/2000/svg" xmlns:xlink="http://www.w3.org/1999/xlink">
<g id="graph0" class="graph" transform="scale(1 1) rotate(0) translate(4 260)">
<title>FiftyOne.Pipeline.Core.FlowElements.PipelineBuilder</title>
<!-- Node0 -->
<g id="node1" class="node"><title>Node0</title>
<g id="a_node1"><a xlink:title="Default pipeline builder.">
<polygon fill="#bfbfbf" stroke="black" points="130,-79.5 130,-109.5 267,-109.5 267,-79.5 130,-79.5"/>
<text text-anchor="start" x="138" y="-97.5" font-family="Helvetica,sans-Serif" font-size="10.00">FiftyOne.Pipeline.Core.Flow</text>
<text text-anchor="middle" x="198.5" y="-86.5" font-family="Helvetica,sans-Serif" font-size="10.00">Elements.PipelineBuilder</text>
</a>
</g>
</g>
<!-- Node4 -->
<g id="node5" class="node"><title>Node4</title>
<g id="a_node5"><a xlink:href="class_fifty_one_1_1_pipeline_1_1_engines_1_1_fifty_one_1_1_flow_elements_1_1_fifty_one_pipeline_builder.html" target="_top" xlink:title="Pipeline builder class that allows the 51Degrees share usage element to be enabled/disabled.">
<polygon fill="none" stroke="black" points="119.5,-0.5 119.5,-41.5 277.5,-41.5 277.5,-0.5 119.5,-0.5"/>
<text text-anchor="start" x="127.5" y="-29.5" font-family="Helvetica,sans-Serif" font-size="10.00">FiftyOne.Pipeline.Engines.</text>
<text text-anchor="start" x="127.5" y="-18.5" font-family="Helvetica,sans-Serif" font-size="10.00">FiftyOne.FlowElements.FiftyOne</text>
<text text-anchor="middle" x="198.5" y="-7.5" font-family="Helvetica,sans-Serif" font-size="10.00">PipelineBuilder</text>
</a>
</g>
</g>
<!-- Node0&#45;&gt;Node4 -->
<g id="edge4" class="edge"><title>Node0&#45;&gt;Node4</title>
<path fill="none" stroke="midnightblue" d="M198.5,-69.1008C198.5,-60.0979 198.5,-50.0235 198.5,-41.5096"/>
<polygon fill="midnightblue" stroke="midnightblue" points="195,-69.3739 198.5,-79.3739 202,-69.3739 195,-69.3739"/>
</g>
<!-- Node1 -->
<g id="node2" class="node"><title>Node1</title>
<g id="a_node2"><a xlink:href="class_fifty_one_1_1_pipeline_1_1_core_1_1_flow_elements_1_1_pipeline_builder_base.html" target="_top" xlink:title=" ">
<polygon fill="none" stroke="black" points="33.5,-147.5 33.5,-177.5 137.5,-177.5 137.5,-147.5 33.5,-147.5"/>
<text text-anchor="start" x="41.5" y="-165.5" font-family="Helvetica,sans-Serif" font-size="10.00">PipelineBuilderBase</text>
<text text-anchor="middle" x="85.5" y="-154.5" font-family="Helvetica,sans-Serif" font-size="10.00">&lt; PipelineBuilder &gt;</text>
</a>
</g>
</g>
<!-- Node1&#45;&gt;Node0 -->
<g id="edge1" class="edge"><title>Node1&#45;&gt;Node0</title>
<path fill="none" stroke="midnightblue" d="M118.671,-142.126C136.493,-131.717 158.072,-119.113 174.299,-109.635"/>
<polygon fill="midnightblue" stroke="midnightblue" points="116.611,-139.276 109.741,-147.341 120.142,-145.32 116.611,-139.276"/>
</g>
<!-- Node2 -->
<g id="node3" class="node"><title>Node2</title>
<g id="a_node3"><a xlink:href="class_fifty_one_1_1_pipeline_1_1_core_1_1_flow_elements_1_1_pipeline_builder_base.html" target="_top" xlink:title="Abstract pipeline builder base class">
<polygon fill="none" stroke="black" points="0,-225.5 0,-255.5 171,-255.5 171,-225.5 0,-225.5"/>
<text text-anchor="start" x="8" y="-243.5" font-family="Helvetica,sans-Serif" font-size="10.00">FiftyOne.Pipeline.Core.Flow</text>
<text text-anchor="middle" x="85.5" y="-232.5" font-family="Helvetica,sans-Serif" font-size="10.00">Elements.PipelineBuilderBase&lt; T &gt;</text>
</a>
</g>
</g>
<!-- Node2&#45;&gt;Node1 -->
<g id="edge2" class="edge"><title>Node2&#45;&gt;Node1</title>
<path fill="none" stroke="orange" stroke-dasharray="5,2" d="M85.5,-215.09C85.5,-202.757 85.5,-188.224 85.5,-177.731"/>
<polygon fill="orange" stroke="orange" points="82.0001,-215.205 85.5,-225.205 89.0001,-215.205 82.0001,-215.205"/>
<text text-anchor="middle" x="128.5" y="-199" font-family="Helvetica,sans-Serif" font-size="10.00"> &lt; PipelineBuilder &gt;</text>
</g>
<!-- Node3 -->
<g id="node4" class="node"><title>Node3</title>
<g id="a_node4"><a xlink:href="interface_fifty_one_1_1_pipeline_1_1_core_1_1_flow_elements_1_1_i_pipeline_builder_from_configuration.html" target="_top" xlink:title="Pipeline builders implementing this interface are capable of building a IPipeline based on a supplied...">
<polygon fill="none" stroke="black" points="155.5,-153 155.5,-172 317.5,-172 317.5,-153 155.5,-153"/>
<text text-anchor="middle" x="236.5" y="-160" font-family="Helvetica,sans-Serif" font-size="10.00">IPipelineBuilderFromConfiguration</text>
</a>
</g>
</g>
<!-- Node3&#45;&gt;Node0 -->
<g id="edge3" class="edge"><title>Node3&#45;&gt;Node0</title>
<path fill="none" stroke="midnightblue" d="M226.424,-144C220.251,-133.278 212.451,-119.731 206.665,-109.681"/>
<polygon fill="midnightblue" stroke="midnightblue" points="223.509,-145.952 231.532,-152.872 229.576,-142.459 223.509,-145.952"/>
</g>
</g>
</svg>
