<?xml version="1.0" encoding="UTF-8" standalone="no"?>
<!DOCTYPE svg PUBLIC "-//W3C//DTD SVG 1.1//EN"
 "http://www.w3.org/Graphics/SVG/1.1/DTD/svg11.dtd">
<!-- Generated by graphviz version 2.38.0 (20140413.2041)
 -->
<!-- Title: FiftyOne.Pipeline.IpSplitter.SplitIpData Pages: 1 -->
<svg width="188pt" height="207pt"
 viewBox="0.00 0.00 187.50 207.00" xmlns="http://www.w3.org/2000/svg" xmlns:xlink="http://www.w3.org/1999/xlink">
<g id="graph0" class="graph" transform="scale(1 1) rotate(0) translate(4 203)">
<title>FiftyOne.Pipeline.IpSplitter.SplitIpData</title>
<!-- Node0 -->
<g id="node1" class="node"><title>Node0</title>
<g id="a_node1"><a xlink:title=" ">
<polygon fill="#bfbfbf" stroke="black" points="29,-0.5 29,-30.5 164,-30.5 164,-0.5 29,-0.5"/>
<text text-anchor="start" x="37" y="-18.5" font-family="Helvetica,sans-Serif" font-size="10.00">FiftyOne.Pipeline.IpSplitter.</text>
<text text-anchor="middle" x="96.5" y="-7.5" font-family="Helvetica,sans-Serif" font-size="10.00">SplitIpData</text>
</a>
</g>
</g>
<!-- Node1 -->
<g id="node2" class="node"><title>Node1</title>
<g id="a_node2"><a xlink:href="class_fifty_one_1_1_pipeline_1_1_core_1_1_data_1_1_element_data_base.html" target="_top" xlink:title="This class stores property values that have be determined by a specific FlowElement based on the supp...">
<polygon fill="none" stroke="black" points="0,-67.5 0,-86.5 95,-86.5 95,-67.5 0,-67.5"/>
<text text-anchor="middle" x="47.5" y="-74.5" font-family="Helvetica,sans-Serif" font-size="10.00">ElementDataBase</text>
</a>
</g>
</g>
<!-- Node1&#45;&gt;Node0 -->
<g id="edge1" class="edge"><title>Node1&#45;&gt;Node0</title>
<path fill="none" stroke="midnightblue" d="M61.0638,-59.5296C68.5681,-50.4173 77.7947,-39.2136 84.9517,-30.523"/>
<polygon fill="midnightblue" stroke="midnightblue" points="58.1758,-57.5308 54.5205,-67.4751 63.5794,-61.9808 58.1758,-57.5308"/>
</g>
<!-- Node2 -->
<g id="node3" class="node"><title>Node2</title>
<g id="a_node3"><a xlink:href="class_fifty_one_1_1_pipeline_1_1_core_1_1_data_1_1_data_base.html" target="_top" xlink:title="This class stores data values as key/value pairs where the key is a string and the value can be any t...">
<polygon fill="none" stroke="black" points="18,-123.5 18,-142.5 77,-142.5 77,-123.5 18,-123.5"/>
<text text-anchor="middle" x="47.5" y="-130.5" font-family="Helvetica,sans-Serif" font-size="10.00">DataBase</text>
</a>
</g>
</g>
<!-- Node2&#45;&gt;Node1 -->
<g id="edge2" class="edge"><title>Node2&#45;&gt;Node1</title>
<path fill="none" stroke="midnightblue" d="M47.5,-112.805C47.5,-103.91 47.5,-93.7798 47.5,-86.7511"/>
<polygon fill="midnightblue" stroke="midnightblue" points="44.0001,-113.083 47.5,-123.083 51.0001,-113.083 44.0001,-113.083"/>
</g>
<!-- Node3 -->
<g id="node4" class="node"><title>Node3</title>
<g id="a_node4"><a xlink:href="interface_fifty_one_1_1_pipeline_1_1_core_1_1_data_1_1_i_data.html" target="_top" xlink:title="Represents property values">
<polygon fill="none" stroke="black" points="70,-179.5 70,-198.5 109,-198.5 109,-179.5 70,-179.5"/>
<text text-anchor="middle" x="89.5" y="-186.5" font-family="Helvetica,sans-Serif" font-size="10.00">IData</text>
</a>
</g>
</g>
<!-- Node3&#45;&gt;Node2 -->
<g id="edge3" class="edge"><title>Node3&#45;&gt;Node2</title>
<path fill="none" stroke="midnightblue" d="M76.3898,-171.144C69.0722,-161.736 60.2591,-150.405 54.3064,-142.751"/>
<polygon fill="midnightblue" stroke="midnightblue" points="73.6624,-173.338 82.5646,-179.083 79.1878,-169.041 73.6624,-173.338"/>
</g>
<!-- Node4 -->
<g id="node5" class="node"><title>Node4</title>
<g id="a_node5"><a xlink:href="interface_fifty_one_1_1_pipeline_1_1_core_1_1_data_1_1_i_element_data.html" target="_top" xlink:title="Represents property values that have be determined by a specific FlowElement based on the supplied ev...">
<polygon fill="none" stroke="black" points="95,-123.5 95,-142.5 170,-142.5 170,-123.5 95,-123.5"/>
<text text-anchor="middle" x="132.5" y="-130.5" font-family="Helvetica,sans-Serif" font-size="10.00">IElementData</text>
</a>
</g>
</g>
<!-- Node3&#45;&gt;Node4 -->
<g id="edge5" class="edge"><title>Node3&#45;&gt;Node4</title>
<path fill="none" stroke="midnightblue" d="M102.922,-171.144C110.414,-161.736 119.437,-150.405 125.532,-142.751"/>
<polygon fill="midnightblue" stroke="midnightblue" points="100.092,-169.08 96.6006,-179.083 105.568,-173.44 100.092,-169.08"/>
</g>
<!-- Node4&#45;&gt;Node1 -->
<g id="edge4" class="edge"><title>Node4&#45;&gt;Node1</title>
<path fill="none" stroke="midnightblue" d="M110.306,-117.901C94.72,-107.999 74.3703,-95.0705 61.1228,-86.6545"/>
<polygon fill="midnightblue" stroke="midnightblue" points="108.526,-120.916 118.843,-123.324 112.279,-115.007 108.526,-120.916"/>
</g>
<!-- Node5 -->
<g id="node6" class="node"><title>Node5</title>
<g id="a_node6"><a xlink:href="interface_fifty_one_1_1_pipeline_1_1_ip_splitter_1_1_i_split_ip_data.html" target="_top" xlink:title=" ">
<polygon fill="none" stroke="black" points="113.5,-67.5 113.5,-86.5 179.5,-86.5 179.5,-67.5 113.5,-67.5"/>
<text text-anchor="middle" x="146.5" y="-74.5" font-family="Helvetica,sans-Serif" font-size="10.00">ISplitIpData</text>
</a>
</g>
</g>
<!-- Node4&#45;&gt;Node5 -->
<g id="edge7" class="edge"><title>Node4&#45;&gt;Node5</title>
<path fill="none" stroke="midnightblue" d="M137.323,-113.396C139.665,-104.362 142.368,-93.936 144.231,-86.7511"/>
<polygon fill="midnightblue" stroke="midnightblue" points="133.934,-112.525 134.812,-123.083 140.71,-114.281 133.934,-112.525"/>
</g>
<!-- Node5&#45;&gt;Node0 -->
<g id="edge6" class="edge"><title>Node5&#45;&gt;Node0</title>
<path fill="none" stroke="midnightblue" d="M132.896,-59.8108C125.196,-50.6486 115.662,-39.3032 108.284,-30.523"/>
<polygon fill="midnightblue" stroke="midnightblue" points="130.223,-62.071 139.336,-67.4751 135.582,-57.5676 130.223,-62.071"/>
</g>
</g>
</svg>
