<?xml version="1.0" encoding="UTF-8" standalone="no"?>
<!DOCTYPE svg PUBLIC "-//W3C//DTD SVG 1.1//EN"
 "http://www.w3.org/Graphics/SVG/1.1/DTD/svg11.dtd">
<!-- Generated by graphviz version 2.38.0 (20140413.2041)
 -->
<!-- Title: FiftyOne.Pipeline.JsonBuilder.FlowElement.JsonBuilderElement Pages: 1 -->
<svg width="1286pt" height="139pt"
 viewBox="0.00 0.00 1286.00 138.50" xmlns="http://www.w3.org/2000/svg" xmlns:xlink="http://www.w3.org/1999/xlink">
<g id="graph0" class="graph" transform="scale(1 1) rotate(0) translate(4 134.5)">
<title>FiftyOne.Pipeline.JsonBuilder.FlowElement.JsonBuilderElement</title>
<!-- Node7 -->
<g id="node1" class="node"><title>Node7</title>
<g id="a_node1"><a xlink:title="The JsonBuilderElement takes accessible properties and adds the property key:values to the Json objec...">
<polygon fill="#bfbfbf" stroke="black" points="1116,-44.5 1116,-74.5 1278,-74.5 1278,-44.5 1116,-44.5"/>
<text text-anchor="start" x="1124" y="-62.5" font-family="Helvetica,sans-Serif" font-size="10.00">FiftyOne.Pipeline.JsonBuilder.</text>
<text text-anchor="middle" x="1197" y="-51.5" font-family="Helvetica,sans-Serif" font-size="10.00">FlowElement.JsonBuilderElement</text>
</a>
</g>
</g>
<!-- Node8 -->
<g id="node2" class="node"><title>Node8</title>
<g id="a_node2"><a xlink:href="class_fifty_one_1_1_pipeline_1_1_core_1_1_flow_elements_1_1_flow_element_base.html" target="_top" xlink:title=" ">
<polygon fill="none" stroke="black" points="822,-88 822,-129 998,-129 998,-88 822,-88"/>
<text text-anchor="start" x="830" y="-117" font-family="Helvetica,sans-Serif" font-size="10.00">FlowElementBase&lt; IJsonBuilder</text>
<text text-anchor="start" x="830" y="-106" font-family="Helvetica,sans-Serif" font-size="10.00">ElementData, IElementPropertyMeta</text>
<text text-anchor="middle" x="910" y="-95" font-family="Helvetica,sans-Serif" font-size="10.00">Data &gt;</text>
</a>
</g>
</g>
<!-- Node8&#45;&gt;Node7 -->
<g id="edge1" class="edge"><title>Node8&#45;&gt;Node7</title>
<path fill="none" stroke="midnightblue" d="M1008.3,-91.7713C1043.32,-85.7511 1082.39,-79.0325 1115.79,-73.2909"/>
<polygon fill="midnightblue" stroke="midnightblue" points="1007.32,-88.3882 998.058,-93.5321 1008.51,-95.287 1007.32,-88.3882"/>
</g>
<!-- Node9 -->
<g id="node3" class="node"><title>Node9</title>
<g id="a_node3"><a xlink:href="class_fifty_one_1_1_pipeline_1_1_core_1_1_flow_elements_1_1_flow_element_base.html" target="_top" xlink:title="Abstract base class for Flow Elements.">
<polygon fill="none" stroke="black" points="516,-88 516,-129 656,-129 656,-88 516,-88"/>
<text text-anchor="start" x="524" y="-117" font-family="Helvetica,sans-Serif" font-size="10.00">FiftyOne.Pipeline.Core.Flow</text>
<text text-anchor="start" x="524" y="-106" font-family="Helvetica,sans-Serif" font-size="10.00">Elements.FlowElementBase</text>
<text text-anchor="middle" x="586" y="-95" font-family="Helvetica,sans-Serif" font-size="10.00">&lt; T, TMeta &gt;</text>
</a>
</g>
</g>
<!-- Node9&#45;&gt;Node8 -->
<g id="edge2" class="edge"><title>Node9&#45;&gt;Node8</title>
<path fill="none" stroke="orange" stroke-dasharray="5,2" d="M666.25,-108.5C713.445,-108.5 773.396,-108.5 821.911,-108.5"/>
<polygon fill="orange" stroke="orange" points="666.077,-105 656.077,-108.5 666.077,-112 666.077,-105"/>
<text text-anchor="start" x="674" y="-122.5" font-family="Helvetica,sans-Serif" font-size="10.00"> &lt; IJsonBuilderElementData,</text>
<text text-anchor="middle" x="739" y="-111.5" font-family="Helvetica,sans-Serif" font-size="10.00"> IElementPropertyMetaData &gt;</text>
</g>
<!-- Node10 -->
<g id="node4" class="node"><title>Node10</title>
<g id="a_node4"><a xlink:href="interface_fifty_one_1_1_pipeline_1_1_core_1_1_flow_elements_1_1_i_flow_element.html" target="_top" xlink:title=" ">
<polygon fill="none" stroke="black" points="325.5,-99 325.5,-118 456.5,-118 456.5,-99 325.5,-99"/>
<text text-anchor="middle" x="391" y="-106" font-family="Helvetica,sans-Serif" font-size="10.00">IFlowElement&lt; T, TMeta &gt;</text>
</a>
</g>
</g>
<!-- Node10&#45;&gt;Node9 -->
<g id="edge3" class="edge"><title>Node10&#45;&gt;Node9</title>
<path fill="none" stroke="midnightblue" d="M466.975,-108.5C483.077,-108.5 500.022,-108.5 515.89,-108.5"/>
<polygon fill="midnightblue" stroke="midnightblue" points="466.535,-105 456.535,-108.5 466.534,-112 466.535,-105"/>
</g>
<!-- Node11 -->
<g id="node5" class="node"><title>Node11</title>
<g id="a_node5"><a xlink:href="interface_fifty_one_1_1_pipeline_1_1_core_1_1_flow_elements_1_1_i_flow_element.html" target="_top" xlink:title="IFlowElement is the basic building block of a pipeline.">
<polygon fill="none" stroke="black" points="0,-69.5 0,-99.5 137,-99.5 137,-69.5 0,-69.5"/>
<text text-anchor="start" x="8" y="-87.5" font-family="Helvetica,sans-Serif" font-size="10.00">FiftyOne.Pipeline.Core.Flow</text>
<text text-anchor="middle" x="68.5" y="-76.5" font-family="Helvetica,sans-Serif" font-size="10.00">Elements.IFlowElement</text>
</a>
</g>
</g>
<!-- Node11&#45;&gt;Node10 -->
<g id="edge4" class="edge"><title>Node11&#45;&gt;Node10</title>
<path fill="none" stroke="orange" stroke-dasharray="5,2" d="M147.051,-90.3072C201.606,-94.3925 273.775,-99.7967 325.249,-103.651"/>
<polygon fill="orange" stroke="orange" points="147.312,-86.8171 137.078,-89.5605 146.789,-93.7975 147.312,-86.8171"/>
<text text-anchor="middle" x="220" y="-103.5" font-family="Helvetica,sans-Serif" font-size="10.00"> &lt; T, TMeta &gt;</text>
</g>
<!-- Node13 -->
<g id="node7" class="node"><title>Node13</title>
<g id="a_node7"><a xlink:href="interface_fifty_one_1_1_pipeline_1_1_core_1_1_flow_elements_1_1_i_flow_element.html" target="_top" xlink:title=" ">
<polygon fill="none" stroke="black" points="303,-39 303,-80 479,-80 479,-39 303,-39"/>
<text text-anchor="start" x="311" y="-68" font-family="Helvetica,sans-Serif" font-size="10.00">IFlowElement&lt; IJsonBuilder</text>
<text text-anchor="start" x="311" y="-57" font-family="Helvetica,sans-Serif" font-size="10.00">ElementData, IElementPropertyMeta</text>
<text text-anchor="middle" x="391" y="-46" font-family="Helvetica,sans-Serif" font-size="10.00">Data &gt;</text>
</a>
</g>
</g>
<!-- Node11&#45;&gt;Node13 -->
<g id="edge7" class="edge"><title>Node11&#45;&gt;Node13</title>
<path fill="none" stroke="orange" stroke-dasharray="5,2" d="M140.481,-67.6357C145.377,-66.8094 150.251,-66.0828 155,-65.5 203.711,-59.5228 258.511,-57.837 302.933,-57.7299"/>
<polygon fill="orange" stroke="orange" points="139.649,-64.2294 130.434,-69.4575 140.898,-71.1171 139.649,-64.2294"/>
<text text-anchor="start" x="155" y="-79.5" font-family="Helvetica,sans-Serif" font-size="10.00"> &lt; IJsonBuilderElementData,</text>
<text text-anchor="middle" x="220" y="-68.5" font-family="Helvetica,sans-Serif" font-size="10.00"> IElementPropertyMetaData &gt;</text>
</g>
<!-- Node12 -->
<g id="node6" class="node"><title>Node12</title>
<g id="a_node6"><a xlink:href="interface_fifty_one_1_1_pipeline_1_1_json_builder_1_1_flow_element_1_1_i_json_builder_element.html" target="_top" xlink:title=" ">
<polygon fill="none" stroke="black" points="686.5,-50 686.5,-69 791.5,-69 791.5,-50 686.5,-50"/>
<text text-anchor="middle" x="739" y="-57" font-family="Helvetica,sans-Serif" font-size="10.00">IJsonBuilderElement</text>
</a>
</g>
</g>
<!-- Node12&#45;&gt;Node7 -->
<g id="edge5" class="edge"><title>Node12&#45;&gt;Node7</title>
<path fill="none" stroke="midnightblue" d="M801.958,-59.5C883.329,-59.5 1026.34,-59.5 1115.86,-59.5"/>
<polygon fill="midnightblue" stroke="midnightblue" points="801.865,-56.0001 791.865,-59.5 801.865,-63.0001 801.865,-56.0001"/>
</g>
<!-- Node13&#45;&gt;Node12 -->
<g id="edge6" class="edge"><title>Node13&#45;&gt;Node12</title>
<path fill="none" stroke="midnightblue" d="M489.43,-59.5C553.446,-59.5 634.644,-59.5 686.475,-59.5"/>
<polygon fill="midnightblue" stroke="midnightblue" points="489.31,-56.0001 479.31,-59.5 489.31,-63.0001 489.31,-56.0001"/>
</g>
<!-- Node14 -->
<g id="node8" class="node"><title>Node14</title>
<g id="a_node8"><a xlink:href="interface_fifty_one_1_1_pipeline_1_1_core_1_1_data_1_1_i_evidence_key_filter.html" target="_top" xlink:title="Represents an object that filters evidence key names based on some criteria.">
<polygon fill="none" stroke="black" points="840,-0.5 840,-30.5 980,-30.5 980,-0.5 840,-0.5"/>
<text text-anchor="start" x="848" y="-18.5" font-family="Helvetica,sans-Serif" font-size="10.00">FiftyOne.Pipeline.Core.Data.</text>
<text text-anchor="middle" x="910" y="-7.5" font-family="Helvetica,sans-Serif" font-size="10.00">IEvidenceKeyFilter</text>
</a>
</g>
</g>
<!-- Node14&#45;&gt;Node7 -->
<g id="edge8" class="edge"><title>Node14&#45;&gt;Node7</title>
<path fill="none" stroke="#9a32cd" stroke-dasharray="5,2" d="M990.335,-20.9393C1023.73,-23.9063 1062.91,-28.2774 1098,-34.5 1112.78,-37.1215 1128.62,-40.7805 1143.16,-44.4917"/>
<polygon fill="#9a32cd" stroke="#9a32cd" points="990.431,-17.4347 980.167,-20.0631 989.83,-24.4089 990.431,-17.4347"/>
<text text-anchor="middle" x="1057" y="-37.5" font-family="Helvetica,sans-Serif" font-size="10.00"> EvidenceKeyFilter</text>
</g>
</g>
</svg>
