<?xml version="1.0" encoding="UTF-8" standalone="no"?>
<!DOCTYPE svg PUBLIC "-//W3C//DTD SVG 1.1//EN"
 "http://www.w3.org/Graphics/SVG/1.1/DTD/svg11.dtd">
<!-- Generated by graphviz version 2.38.0 (20140413.2041)
 -->
<!-- Title: FiftyOne.Pipeline.Engines.FiftyOne.Data.FiftyOneDataFile Pages: 1 -->
<svg width="291pt" height="231pt"
 viewBox="0.00 0.00 291.00 231.00" xmlns="http://www.w3.org/2000/svg" xmlns:xlink="http://www.w3.org/1999/xlink">
<g id="graph0" class="graph" transform="scale(1 1) rotate(0) translate(4 227)">
<title>FiftyOne.Pipeline.Engines.FiftyOne.Data.FiftyOneDataFile</title>
<!-- Node5 -->
<g id="node1" class="node"><title>Node5</title>
<g id="a_node1"><a xlink:title=" ">
<polygon fill="#bfbfbf" stroke="black" points="54,-0.5 54,-30.5 206,-30.5 206,-0.5 54,-0.5"/>
<text text-anchor="start" x="62" y="-18.5" font-family="Helvetica,sans-Serif" font-size="10.00">FiftyOne.Pipeline.Engines.</text>
<text text-anchor="middle" x="130" y="-7.5" font-family="Helvetica,sans-Serif" font-size="10.00">FiftyOne.Data.FiftyOneDataFile</text>
</a>
</g>
</g>
<!-- Node6 -->
<g id="node2" class="node"><title>Node6</title>
<g id="a_node2"><a xlink:href="class_fifty_one_1_1_pipeline_1_1_engines_1_1_data_1_1_aspect_engine_data_file.html" target="_top" xlink:title="This class contains all configuration and run&#45;time state information that is associated with a partic...">
<polygon fill="none" stroke="black" points="122.5,-68.5 122.5,-87.5 235.5,-87.5 235.5,-68.5 122.5,-68.5"/>
<text text-anchor="middle" x="179" y="-75.5" font-family="Helvetica,sans-Serif" font-size="10.00">AspectEngineDataFile</text>
</a>
</g>
</g>
<!-- Node6&#45;&gt;Node5 -->
<g id="edge1" class="edge"><title>Node6&#45;&gt;Node5</title>
<path fill="none" stroke="midnightblue" d="M165.668,-60.5387C158.122,-51.2225 148.779,-39.6865 141.548,-30.7587"/>
<polygon fill="midnightblue" stroke="midnightblue" points="162.966,-62.7637 171.979,-68.3318 168.405,-58.358 162.966,-62.7637"/>
</g>
<!-- Node7 -->
<g id="node3" class="node"><title>Node7</title>
<g id="a_node3"><a xlink:href="interface_fifty_one_1_1_pipeline_1_1_engines_1_1_data_1_1_i_aspect_engine_data_file.html" target="_top" xlink:title="Interface for the details of a data file used by an Aspect engine.">
<polygon fill="none" stroke="black" points="0,-141 0,-160 116,-160 116,-141 0,-141"/>
<text text-anchor="middle" x="58" y="-148" font-family="Helvetica,sans-Serif" font-size="10.00">IAspectEngineDataFile</text>
</a>
</g>
</g>
<!-- Node7&#45;&gt;Node6 -->
<g id="edge2" class="edge"><title>Node7&#45;&gt;Node6</title>
<path fill="none" stroke="midnightblue" d="M81.4931,-135.812C105.909,-121.586 143.383,-99.7519 164.042,-87.7154"/>
<polygon fill="midnightblue" stroke="midnightblue" points="79.7154,-132.797 72.837,-140.855 83.2394,-138.845 79.7154,-132.797"/>
</g>
<!-- Node10 -->
<g id="node6" class="node"><title>Node10</title>
<g id="a_node6"><a xlink:href="interface_fifty_one_1_1_pipeline_1_1_engines_1_1_fifty_one_1_1_data_1_1_i_fifty_one_data_file.html" target="_top" xlink:title=" ">
<polygon fill="none" stroke="black" points="12,-68.5 12,-87.5 104,-87.5 104,-68.5 12,-68.5"/>
<text text-anchor="middle" x="58" y="-75.5" font-family="Helvetica,sans-Serif" font-size="10.00">IFiftyOneDataFile</text>
</a>
</g>
</g>
<!-- Node7&#45;&gt;Node10 -->
<g id="edge6" class="edge"><title>Node7&#45;&gt;Node10</title>
<path fill="none" stroke="midnightblue" d="M58,-130.442C58,-116.53 58,-98.3203 58,-87.7154"/>
<polygon fill="midnightblue" stroke="midnightblue" points="54.5001,-130.855 58,-140.855 61.5001,-130.855 54.5001,-130.855"/>
</g>
<!-- Node8 -->
<g id="node4" class="node"><title>Node8</title>
<g id="a_node4"><a xlink:title=" ">
<polygon fill="none" stroke="#bfbfbf" points="24.5,-203.5 24.5,-222.5 91.5,-222.5 91.5,-203.5 24.5,-203.5"/>
<text text-anchor="middle" x="58" y="-210.5" font-family="Helvetica,sans-Serif" font-size="10.00">IDisposable</text>
</a>
</g>
</g>
<!-- Node8&#45;&gt;Node7 -->
<g id="edge3" class="edge"><title>Node8&#45;&gt;Node7</title>
<path fill="none" stroke="midnightblue" d="M58,-193.003C58,-182 58,-168.682 58,-160.152"/>
<polygon fill="midnightblue" stroke="midnightblue" points="54.5001,-193.332 58,-203.332 61.5001,-193.332 54.5001,-193.332"/>
</g>
<!-- Node9 -->
<g id="node5" class="node"><title>Node9</title>
<g id="a_node5"><a xlink:href="interface_fifty_one_1_1_pipeline_1_1_engines_1_1_services_1_1_i_data_update_service.html" target="_top" xlink:title="Service that manages updates to data files that are used by IOnPremiseAspectEngine instances.">
<polygon fill="none" stroke="black" points="134.5,-135.5 134.5,-165.5 275.5,-165.5 275.5,-135.5 134.5,-135.5"/>
<text text-anchor="start" x="142.5" y="-153.5" font-family="Helvetica,sans-Serif" font-size="10.00">FiftyOne.Pipeline.Engines.</text>
<text text-anchor="middle" x="205" y="-142.5" font-family="Helvetica,sans-Serif" font-size="10.00">Services.IDataUpdateService</text>
</a>
</g>
</g>
<!-- Node9&#45;&gt;Node6 -->
<g id="edge4" class="edge"><title>Node9&#45;&gt;Node6</title>
<path fill="none" stroke="#9a32cd" stroke-dasharray="5,2" d="M196.14,-125.477C191.36,-112.515 185.745,-97.2904 182.28,-87.8932"/>
<polygon fill="#9a32cd" stroke="#9a32cd" points="192.995,-127.062 199.739,-135.233 199.562,-124.64 192.995,-127.062"/>
<text text-anchor="middle" x="238" y="-109" font-family="Helvetica,sans-Serif" font-size="10.00"> _dataUpdateService</text>
</g>
<!-- Node10&#45;&gt;Node5 -->
<g id="edge5" class="edge"><title>Node10&#45;&gt;Node5</title>
<path fill="none" stroke="midnightblue" d="M76.304,-61.6196C87.6951,-52.0478 102.233,-39.8322 113.308,-30.526"/>
<polygon fill="midnightblue" stroke="midnightblue" points="73.7202,-59.219 68.3158,-68.3318 78.2235,-64.5782 73.7202,-59.219"/>
</g>
</g>
</svg>
