<?xml version="1.0" encoding="UTF-8" standalone="no"?>
<!DOCTYPE svg PUBLIC "-//W3C//DTD SVG 1.1//EN"
 "http://www.w3.org/Graphics/SVG/1.1/DTD/svg11.dtd">
<!-- Generated by graphviz version 2.38.0 (20140413.2041)
 -->
<!-- Title: FiftyOne.Pipeline.Core.Data.Evidence Pages: 1 -->
<svg width="148pt" height="151pt"
 viewBox="0.00 0.00 148.00 151.00" xmlns="http://www.w3.org/2000/svg" xmlns:xlink="http://www.w3.org/1999/xlink">
<g id="graph0" class="graph" transform="scale(1 1) rotate(0) translate(4 147)">
<title>FiftyOne.Pipeline.Core.Data.Evidence</title>
<!-- Node4 -->
<g id="node1" class="node"><title>Node4</title>
<g id="a_node1"><a xlink:title="This class contains the evidence that is passed in to a Pipeline as part of a FlowData object">
<polygon fill="#bfbfbf" stroke="black" points="0,-0.5 0,-30.5 140,-30.5 140,-0.5 0,-0.5"/>
<text text-anchor="start" x="8" y="-18.5" font-family="Helvetica,sans-Serif" font-size="10.00">FiftyOne.Pipeline.Core.Data.</text>
<text text-anchor="middle" x="70" y="-7.5" font-family="Helvetica,sans-Serif" font-size="10.00">Evidence</text>
</a>
</g>
</g>
<!-- Node5 -->
<g id="node2" class="node"><title>Node5</title>
<g id="a_node2"><a xlink:href="class_fifty_one_1_1_pipeline_1_1_core_1_1_data_1_1_data_base.html" target="_top" xlink:title="This class stores data values as key/value pairs where the key is a string and the value can be any t...">
<polygon fill="none" stroke="black" points="2.5,-67.5 2.5,-86.5 61.5,-86.5 61.5,-67.5 2.5,-67.5"/>
<text text-anchor="middle" x="32" y="-74.5" font-family="Helvetica,sans-Serif" font-size="10.00">DataBase</text>
</a>
</g>
</g>
<!-- Node5&#45;&gt;Node4 -->
<g id="edge1" class="edge"><title>Node5&#45;&gt;Node4</title>
<path fill="none" stroke="midnightblue" d="M42.8805,-58.9634C48.6329,-49.9564 55.6083,-39.0344 61.0442,-30.523"/>
<polygon fill="midnightblue" stroke="midnightblue" points="39.8773,-57.1633 37.4445,-67.4751 45.7768,-60.9311 39.8773,-57.1633"/>
</g>
<!-- Node6 -->
<g id="node3" class="node"><title>Node6</title>
<g id="a_node3"><a xlink:href="interface_fifty_one_1_1_pipeline_1_1_core_1_1_data_1_1_i_data.html" target="_top" xlink:title="Represents property values">
<polygon fill="none" stroke="black" points="50.5,-123.5 50.5,-142.5 89.5,-142.5 89.5,-123.5 50.5,-123.5"/>
<text text-anchor="middle" x="70" y="-130.5" font-family="Helvetica,sans-Serif" font-size="10.00">IData</text>
</a>
</g>
</g>
<!-- Node6&#45;&gt;Node5 -->
<g id="edge2" class="edge"><title>Node6&#45;&gt;Node5</title>
<path fill="none" stroke="midnightblue" d="M57.9353,-114.855C51.3553,-105.505 43.489,-94.3265 38.1582,-86.7511"/>
<polygon fill="midnightblue" stroke="midnightblue" points="55.1078,-116.919 63.7251,-123.083 60.8324,-112.891 55.1078,-116.919"/>
</g>
<!-- Node7 -->
<g id="node4" class="node"><title>Node7</title>
<g id="a_node4"><a xlink:href="interface_fifty_one_1_1_pipeline_1_1_core_1_1_data_1_1_i_evidence.html" target="_top" xlink:title="Interface to the evidence that is passed in to a Pipeline as part of a FlowData object">
<polygon fill="none" stroke="black" points="80,-67.5 80,-86.5 138,-86.5 138,-67.5 80,-67.5"/>
<text text-anchor="middle" x="109" y="-74.5" font-family="Helvetica,sans-Serif" font-size="10.00">IEvidence</text>
</a>
</g>
</g>
<!-- Node6&#45;&gt;Node7 -->
<g id="edge4" class="edge"><title>Node6&#45;&gt;Node7</title>
<path fill="none" stroke="midnightblue" d="M82.3822,-114.855C89.1354,-105.505 97.2086,-94.3265 102.68,-86.7511"/>
<polygon fill="midnightblue" stroke="midnightblue" points="79.4576,-112.927 76.4401,-123.083 85.1324,-117.025 79.4576,-112.927"/>
</g>
<!-- Node7&#45;&gt;Node4 -->
<g id="edge3" class="edge"><title>Node7&#45;&gt;Node4</title>
<path fill="none" stroke="midnightblue" d="M97.8331,-58.9634C91.9294,-49.9564 84.7705,-39.0344 79.1915,-30.523"/>
<polygon fill="midnightblue" stroke="midnightblue" points="95.003,-61.0303 103.412,-67.4751 100.857,-57.1929 95.003,-61.0303"/>
</g>
</g>
</svg>
