<?xml version="1.0" encoding="UTF-8" standalone="no"?>
<!DOCTYPE svg PUBLIC "-//W3C//DTD SVG 1.1//EN"
 "http://www.w3.org/Graphics/SVG/1.1/DTD/svg11.dtd">
<!-- Generated by graphviz version 2.38.0 (20140413.2041)
 -->
<!-- Title: FiftyOne.Pipeline.Engines.Data.AspectPropertyValue&lt; T &gt; Pages: 1 -->
<svg width="163pt" height="174pt"
 viewBox="0.00 0.00 163.00 174.00" xmlns="http://www.w3.org/2000/svg" xmlns:xlink="http://www.w3.org/1999/xlink">
<g id="graph0" class="graph" transform="scale(1 1) rotate(0) translate(4 170)">
<title>FiftyOne.Pipeline.Engines.Data.AspectPropertyValue&lt; T &gt;</title>
<!-- Node3 -->
<g id="node1" class="node"><title>Node3</title>
<g id="a_node1"><a xlink:title="This class can be used where engines have a property that may be populated and may not.">
<polygon fill="#bfbfbf" stroke="black" points="0,-0.5 0,-30.5 155,-30.5 155,-0.5 0,-0.5"/>
<text text-anchor="start" x="8" y="-18.5" font-family="Helvetica,sans-Serif" font-size="10.00">FiftyOne.Pipeline.Engines.</text>
<text text-anchor="middle" x="77.5" y="-7.5" font-family="Helvetica,sans-Serif" font-size="10.00">Data.AspectPropertyValue&lt; T &gt;</text>
</a>
</g>
</g>
<!-- Node4 -->
<g id="node2" class="node"><title>Node4</title>
<g id="a_node2"><a xlink:href="interface_fifty_one_1_1_pipeline_1_1_engines_1_1_data_1_1_i_aspect_property_value.html" target="_top" xlink:title=" ">
<polygon fill="none" stroke="black" points="10.5,-68.5 10.5,-87.5 144.5,-87.5 144.5,-68.5 10.5,-68.5"/>
<text text-anchor="middle" x="77.5" y="-75.5" font-family="Helvetica,sans-Serif" font-size="10.00">IAspectPropertyValue&lt; T &gt;</text>
</a>
</g>
</g>
<!-- Node4&#45;&gt;Node3 -->
<g id="edge1" class="edge"><title>Node4&#45;&gt;Node3</title>
<path fill="none" stroke="midnightblue" d="M77.5,-58.2154C77.5,-49.3565 77.5,-38.9577 77.5,-30.7587"/>
<polygon fill="midnightblue" stroke="midnightblue" points="74.0001,-58.3318 77.5,-68.3318 81.0001,-58.3319 74.0001,-58.3318"/>
</g>
<!-- Node5 -->
<g id="node3" class="node"><title>Node5</title>
<g id="a_node3"><a xlink:href="interface_fifty_one_1_1_pipeline_1_1_engines_1_1_data_1_1_i_aspect_property_value.html" target="_top" xlink:title=" ">
<polygon fill="none" stroke="black" points="10.5,-135.5 10.5,-165.5 144.5,-165.5 144.5,-135.5 10.5,-135.5"/>
<text text-anchor="start" x="18.5" y="-153.5" font-family="Helvetica,sans-Serif" font-size="10.00">FiftyOne.Pipeline.Engines.</text>
<text text-anchor="middle" x="77.5" y="-142.5" font-family="Helvetica,sans-Serif" font-size="10.00">Data.IAspectPropertyValue</text>
</a>
</g>
</g>
<!-- Node5&#45;&gt;Node4 -->
<g id="edge2" class="edge"><title>Node5&#45;&gt;Node4</title>
<path fill="none" stroke="orange" stroke-dasharray="5,2" d="M77.5,-125.091C77.5,-112.214 77.5,-97.1974 77.5,-87.8932"/>
<polygon fill="orange" stroke="orange" points="74.0001,-125.233 77.5,-135.233 81.0001,-125.233 74.0001,-125.233"/>
<text text-anchor="middle" x="91" y="-109" font-family="Helvetica,sans-Serif" font-size="10.00"> &lt; T &gt;</text>
</g>
</g>
</svg>
