<?xml version="1.0" encoding="UTF-8" standalone="no"?>
<!DOCTYPE svg PUBLIC "-//W3C//DTD SVG 1.1//EN"
 "http://www.w3.org/Graphics/SVG/1.1/DTD/svg11.dtd">
<!-- Generated by graphviz version 2.38.0 (20140413.2041)
 -->
<!-- Title: FiftyOne.Pipeline.Engines.FlowElements.OnPremiseAspectEngineBase&lt; T, TMeta &gt; Pages: 1 -->
<svg width="1318pt" height="215pt"
 viewBox="0.00 0.00 1318.00 214.50" xmlns="http://www.w3.org/2000/svg" xmlns:xlink="http://www.w3.org/1999/xlink">
<g id="graph0" class="graph" transform="scale(1 1) rotate(0) translate(4 210.5)">
<title>FiftyOne.Pipeline.Engines.FlowElements.OnPremiseAspectEngineBase&lt; T, TMeta &gt;</title>
<!-- Node11 -->
<g id="node1" class="node"><title>Node11</title>
<g id="a_node1"><a xlink:title="Base class for 51Degrees on&#45;premise aspect engines.">
<polygon fill="#bfbfbf" stroke="black" points="1119,-53.5 1119,-94.5 1310,-94.5 1310,-53.5 1119,-53.5"/>
<text text-anchor="start" x="1127" y="-82.5" font-family="Helvetica,sans-Serif" font-size="10.00">FiftyOne.Pipeline.Engines.</text>
<text text-anchor="start" x="1127" y="-71.5" font-family="Helvetica,sans-Serif" font-size="10.00">FlowElements.OnPremiseAspectEngine</text>
<text text-anchor="middle" x="1214.5" y="-60.5" font-family="Helvetica,sans-Serif" font-size="10.00">Base&lt; T, TMeta &gt;</text>
</a>
</g>
</g>
<!-- Node12 -->
<g id="node2" class="node"><title>Node12</title>
<g id="a_node2"><a xlink:href="class_fifty_one_1_1_pipeline_1_1_engines_1_1_flow_elements_1_1_aspect_engine_base.html" target="_top" xlink:title="Base class for 51Degrees aspect engines.">
<polygon fill="none" stroke="black" points="959.5,-88 959.5,-118 1076.5,-118 1076.5,-88 959.5,-88"/>
<text text-anchor="start" x="967.5" y="-106" font-family="Helvetica,sans-Serif" font-size="10.00">AspectEngineBase&lt; T,</text>
<text text-anchor="middle" x="1018" y="-95" font-family="Helvetica,sans-Serif" font-size="10.00"> TMeta &gt;</text>
</a>
</g>
</g>
<!-- Node12&#45;&gt;Node11 -->
<g id="edge1" class="edge"><title>Node12&#45;&gt;Node11</title>
<path fill="none" stroke="midnightblue" d="M1086.77,-92.8955C1097.16,-91.3467 1108.04,-89.7239 1118.88,-88.1077"/>
<polygon fill="midnightblue" stroke="midnightblue" points="1085.94,-89.4802 1076.57,-94.4168 1086.97,-96.4037 1085.94,-89.4802"/>
</g>
<!-- Node13 -->
<g id="node3" class="node"><title>Node13</title>
<g id="a_node3"><a xlink:href="class_fifty_one_1_1_pipeline_1_1_core_1_1_flow_elements_1_1_flow_element_base.html" target="_top" xlink:title="Abstract base class for Flow Elements.">
<polygon fill="none" stroke="black" points="670,-176 670,-206 783,-206 783,-176 670,-176"/>
<text text-anchor="start" x="678" y="-194" font-family="Helvetica,sans-Serif" font-size="10.00">FlowElementBase&lt; T,</text>
<text text-anchor="middle" x="726.5" y="-183" font-family="Helvetica,sans-Serif" font-size="10.00"> TMeta &gt;</text>
</a>
</g>
</g>
<!-- Node13&#45;&gt;Node12 -->
<g id="edge2" class="edge"><title>Node13&#45;&gt;Node12</title>
<path fill="none" stroke="midnightblue" d="M793.19,-178.258C834.706,-169.393 889.168,-156.261 936,-140 953.526,-133.915 972.419,-125.405 987.547,-118.08"/>
<polygon fill="midnightblue" stroke="midnightblue" points="792.26,-174.877 783.196,-180.363 793.703,-181.727 792.26,-174.877"/>
</g>
<!-- Node14 -->
<g id="node4" class="node"><title>Node14</title>
<g id="a_node4"><a xlink:href="interface_fifty_one_1_1_pipeline_1_1_core_1_1_flow_elements_1_1_i_flow_element.html" target="_top" xlink:title=" ">
<polygon fill="none" stroke="black" points="412.5,-181.5 412.5,-200.5 543.5,-200.5 543.5,-181.5 412.5,-181.5"/>
<text text-anchor="middle" x="478" y="-188.5" font-family="Helvetica,sans-Serif" font-size="10.00">IFlowElement&lt; T, TMeta &gt;</text>
</a>
</g>
</g>
<!-- Node14&#45;&gt;Node13 -->
<g id="edge3" class="edge"><title>Node14&#45;&gt;Node13</title>
<path fill="none" stroke="midnightblue" d="M554.092,-191C591.414,-191 635.726,-191 669.945,-191"/>
<polygon fill="midnightblue" stroke="midnightblue" points="553.765,-187.5 543.765,-191 553.765,-194.5 553.765,-187.5"/>
</g>
<!-- Node15 -->
<g id="node5" class="node"><title>Node15</title>
<g id="a_node5"><a xlink:href="interface_fifty_one_1_1_pipeline_1_1_core_1_1_flow_elements_1_1_i_flow_element.html" target="_top" xlink:title="IFlowElement is the basic building block of a pipeline.">
<polygon fill="none" stroke="black" points="153,-176 153,-206 290,-206 290,-176 153,-176"/>
<text text-anchor="start" x="161" y="-194" font-family="Helvetica,sans-Serif" font-size="10.00">FiftyOne.Pipeline.Core.Flow</text>
<text text-anchor="middle" x="221.5" y="-183" font-family="Helvetica,sans-Serif" font-size="10.00">Elements.IFlowElement</text>
</a>
</g>
</g>
<!-- Node15&#45;&gt;Node14 -->
<g id="edge4" class="edge"><title>Node15&#45;&gt;Node14</title>
<path fill="none" stroke="orange" stroke-dasharray="5,2" d="M300.441,-191C336.24,-191 378.198,-191 412.227,-191"/>
<polygon fill="orange" stroke="orange" points="300.033,-187.5 290.033,-191 300.033,-194.5 300.033,-187.5"/>
<text text-anchor="middle" x="348" y="-194" font-family="Helvetica,sans-Serif" font-size="10.00"> &lt; T, TMeta &gt;</text>
</g>
<!-- Node16 -->
<g id="node6" class="node"><title>Node16</title>
<g id="a_node6"><a xlink:href="interface_fifty_one_1_1_pipeline_1_1_engines_1_1_flow_elements_1_1_i_aspect_engine.html" target="_top" xlink:title=" ">
<polygon fill="none" stroke="black" points="658.5,-137.5 658.5,-156.5 794.5,-156.5 794.5,-137.5 658.5,-137.5"/>
<text text-anchor="middle" x="726.5" y="-144.5" font-family="Helvetica,sans-Serif" font-size="10.00">IAspectEngine&lt; T, TMeta &gt;</text>
</a>
</g>
</g>
<!-- Node16&#45;&gt;Node12 -->
<g id="edge5" class="edge"><title>Node16&#45;&gt;Node12</title>
<path fill="none" stroke="midnightblue" d="M804.808,-137.089C844.15,-131.832 892.691,-125.018 936,-118 943.482,-116.787 951.338,-115.434 959.092,-114.05"/>
<polygon fill="midnightblue" stroke="midnightblue" points="804.204,-133.638 794.753,-138.425 805.127,-140.577 804.204,-133.638"/>
</g>
<!-- Node17 -->
<g id="node7" class="node"><title>Node17</title>
<g id="a_node7"><a xlink:href="interface_fifty_one_1_1_pipeline_1_1_engines_1_1_flow_elements_1_1_i_aspect_engine.html" target="_top" xlink:title="Interface representing 51Degrees on&#45;premise aspect engines.">
<polygon fill="none" stroke="black" points="406,-132 406,-162 550,-162 550,-132 406,-132"/>
<text text-anchor="start" x="414" y="-150" font-family="Helvetica,sans-Serif" font-size="10.00">FiftyOne.Pipeline.Engines.</text>
<text text-anchor="middle" x="478" y="-139" font-family="Helvetica,sans-Serif" font-size="10.00">FlowElements.IAspectEngine</text>
</a>
</g>
</g>
<!-- Node17&#45;&gt;Node16 -->
<g id="edge6" class="edge"><title>Node17&#45;&gt;Node16</title>
<path fill="none" stroke="orange" stroke-dasharray="5,2" d="M560.426,-147C592.112,-147 627.982,-147 658.171,-147"/>
<polygon fill="orange" stroke="orange" points="560.298,-143.5 550.298,-147 560.298,-150.5 560.298,-143.5"/>
<text text-anchor="middle" x="598" y="-150" font-family="Helvetica,sans-Serif" font-size="10.00"> &lt; T, TMeta &gt;</text>
</g>
<!-- Node18 -->
<g id="node8" class="node"><title>Node18</title>
<g id="a_node8"><a xlink:href="interface_fifty_one_1_1_pipeline_1_1_engines_1_1_caching_1_1_i_flow_cache.html" target="_top" xlink:title="Represents a &#39;flow cache&#39; A flow cache is a cache that is used to cache results from individual flow ...">
<polygon fill="none" stroke="black" points="660.5,-88 660.5,-118 792.5,-118 792.5,-88 660.5,-88"/>
<text text-anchor="start" x="668.5" y="-106" font-family="Helvetica,sans-Serif" font-size="10.00">FiftyOne.Pipeline.Engines.</text>
<text text-anchor="middle" x="726.5" y="-95" font-family="Helvetica,sans-Serif" font-size="10.00">Caching.IFlowCache</text>
</a>
</g>
</g>
<!-- Node18&#45;&gt;Node12 -->
<g id="edge7" class="edge"><title>Node18&#45;&gt;Node12</title>
<path fill="none" stroke="#9a32cd" stroke-dasharray="5,2" d="M803.029,-103C851.851,-103 914.414,-103 959.26,-103"/>
<polygon fill="#9a32cd" stroke="#9a32cd" points="802.83,-99.5001 792.83,-103 802.83,-106.5 802.83,-99.5001"/>
<text text-anchor="middle" x="880.5" y="-106" font-family="Helvetica,sans-Serif" font-size="10.00"> _cache</text>
</g>
<!-- Node19 -->
<g id="node9" class="node"><title>Node19</title>
<g id="a_node9"><a xlink:href="interface_fifty_one_1_1_pipeline_1_1_engines_1_1_caching_1_1_i_data_keyed_cache.html" target="_top" xlink:title=" ">
<polygon fill="none" stroke="black" points="407,-83 407,-113 549,-113 549,-83 407,-83"/>
<text text-anchor="start" x="415" y="-101" font-family="Helvetica,sans-Serif" font-size="10.00">IDataKeyedCache&lt; IElement</text>
<text text-anchor="middle" x="478" y="-90" font-family="Helvetica,sans-Serif" font-size="10.00">Data &gt;</text>
</a>
</g>
</g>
<!-- Node19&#45;&gt;Node18 -->
<g id="edge8" class="edge"><title>Node19&#45;&gt;Node18</title>
<path fill="none" stroke="midnightblue" d="M559.707,-99.6371C592.27,-100.298 629.349,-101.05 660.172,-101.675"/>
<polygon fill="midnightblue" stroke="midnightblue" points="559.376,-96.1297 549.307,-99.4261 559.234,-103.128 559.376,-96.1297"/>
</g>
<!-- Node20 -->
<g id="node10" class="node"><title>Node20</title>
<g id="a_node10"><a xlink:href="interface_fifty_one_1_1_pipeline_1_1_engines_1_1_caching_1_1_i_data_keyed_cache.html" target="_top" xlink:title="Represents a put cache where the key is a IFlowData instance.">
<polygon fill="none" stroke="black" points="155,-77.5 155,-118.5 288,-118.5 288,-77.5 155,-77.5"/>
<text text-anchor="start" x="163" y="-106.5" font-family="Helvetica,sans-Serif" font-size="10.00">FiftyOne.Pipeline.Engines.</text>
<text text-anchor="start" x="163" y="-95.5" font-family="Helvetica,sans-Serif" font-size="10.00">Caching.IDataKeyedCache</text>
<text text-anchor="middle" x="221.5" y="-84.5" font-family="Helvetica,sans-Serif" font-size="10.00">&lt; TValue &gt;</text>
</a>
</g>
</g>
<!-- Node20&#45;&gt;Node19 -->
<g id="edge9" class="edge"><title>Node20&#45;&gt;Node19</title>
<path fill="none" stroke="orange" stroke-dasharray="5,2" d="M298.048,-98C332.484,-98 373.007,-98 406.775,-98"/>
<polygon fill="orange" stroke="orange" points="298.04,-94.5001 288.04,-98 298.04,-101.5 298.04,-94.5001"/>
<text text-anchor="middle" x="348" y="-101" font-family="Helvetica,sans-Serif" font-size="10.00"> &lt; IElementData &gt;</text>
</g>
<!-- Node21 -->
<g id="node11" class="node"><title>Node21</title>
<g id="a_node11"><a xlink:title=" ">
<polygon fill="none" stroke="#bfbfbf" points="0,-83 0,-113 116,-113 116,-83 0,-83"/>
<text text-anchor="start" x="8" y="-101" font-family="Helvetica,sans-Serif" font-size="10.00">IPutCache&lt; IFlowData,</text>
<text text-anchor="middle" x="58" y="-90" font-family="Helvetica,sans-Serif" font-size="10.00"> TValue &gt;</text>
</a>
</g>
</g>
<!-- Node21&#45;&gt;Node20 -->
<g id="edge10" class="edge"><title>Node21&#45;&gt;Node20</title>
<path fill="none" stroke="midnightblue" d="M126.437,-98C135.805,-98 145.419,-98 154.755,-98"/>
<polygon fill="midnightblue" stroke="midnightblue" points="126.394,-94.5001 116.394,-98 126.394,-101.5 126.394,-94.5001"/>
</g>
<!-- Node22 -->
<g id="node12" class="node"><title>Node22</title>
<g id="a_node12"><a xlink:href="interface_fifty_one_1_1_pipeline_1_1_engines_1_1_services_1_1_i_missing_property_service.html" target="_top" xlink:title="Service that determines the reason for a property not being populated by an engine.">
<polygon fill="none" stroke="black" points="646,-39 646,-69 807,-69 807,-39 646,-39"/>
<text text-anchor="start" x="654" y="-57" font-family="Helvetica,sans-Serif" font-size="10.00">FiftyOne.Pipeline.Engines.</text>
<text text-anchor="middle" x="726.5" y="-46" font-family="Helvetica,sans-Serif" font-size="10.00">Services.IMissingPropertyService</text>
</a>
</g>
</g>
<!-- Node22&#45;&gt;Node12 -->
<g id="edge11" class="edge"><title>Node22&#45;&gt;Node12</title>
<path fill="none" stroke="#9a32cd" stroke-dasharray="5,2" d="M817.47,-68.2385C854.249,-74.1717 897.193,-81.2434 936,-88 943.468,-89.3001 951.315,-90.7049 959.065,-92.1152"/>
<polygon fill="#9a32cd" stroke="#9a32cd" points="817.698,-64.7301 807.269,-66.5964 816.585,-71.6412 817.698,-64.7301"/>
<text text-anchor="middle" x="880.5" y="-91" font-family="Helvetica,sans-Serif" font-size="10.00"> _missingPropertyService</text>
</g>
<!-- Node23 -->
<g id="node13" class="node"><title>Node23</title>
<g id="a_node13"><a xlink:href="interface_fifty_one_1_1_pipeline_1_1_engines_1_1_flow_elements_1_1_i_on_premise_aspect_engine.html" target="_top" xlink:title=" ">
<polygon fill="none" stroke="black" points="954,-25.5 954,-44.5 1082,-44.5 1082,-25.5 954,-25.5"/>
<text text-anchor="middle" x="1018" y="-32.5" font-family="Helvetica,sans-Serif" font-size="10.00">IOnPremiseAspectEngine</text>
</a>
</g>
</g>
<!-- Node23&#45;&gt;Node11 -->
<g id="edge12" class="edge"><title>Node23&#45;&gt;Node11</title>
<path fill="none" stroke="midnightblue" d="M1076.52,-46.5336C1089.85,-49.207 1104.39,-52.1217 1118.85,-55.021"/>
<polygon fill="midnightblue" stroke="midnightblue" points="1077.07,-43.0749 1066.58,-44.5405 1075.7,-49.9383 1077.07,-43.0749"/>
</g>
<!-- Node24 -->
<g id="node14" class="node"><title>Node24</title>
<g id="a_node14"><a xlink:href="interface_fifty_one_1_1_pipeline_1_1_engines_1_1_flow_elements_1_1_i_aspect_engine.html" target="_top" xlink:title="Interface representing 51Degrees on&#45;premise aspect engines.">
<polygon fill="none" stroke="black" points="686.5,-0.5 686.5,-19.5 766.5,-19.5 766.5,-0.5 686.5,-0.5"/>
<text text-anchor="middle" x="726.5" y="-7.5" font-family="Helvetica,sans-Serif" font-size="10.00">IAspectEngine</text>
</a>
</g>
</g>
<!-- Node24&#45;&gt;Node23 -->
<g id="edge13" class="edge"><title>Node24&#45;&gt;Node23</title>
<path fill="none" stroke="midnightblue" d="M776.556,-14.2363C825.437,-18.4574 900.693,-24.9562 953.975,-29.5574"/>
<polygon fill="midnightblue" stroke="midnightblue" points="776.807,-10.745 766.543,-13.3716 776.205,-17.7191 776.807,-10.745"/>
</g>
</g>
</svg>
