<?xml version="1.0" encoding="UTF-8" standalone="no"?>
<!DOCTYPE svg PUBLIC "-//W3C//DTD SVG 1.1//EN"
 "http://www.w3.org/Graphics/SVG/1.1/DTD/svg11.dtd">
<!-- Generated by graphviz version 2.38.0 (20140413.2041)
 -->
<!-- Title: FiftyOne.Pipeline.Engines.Data.AspectEngineDataFile Pages: 1 -->
<svg width="160pt" height="218pt"
 viewBox="0.00 0.00 160.00 218.00" xmlns="http://www.w3.org/2000/svg" xmlns:xlink="http://www.w3.org/1999/xlink">
<g id="graph0" class="graph" transform="scale(1 1) rotate(0) translate(4 214)">
<title>FiftyOne.Pipeline.Engines.Data.AspectEngineDataFile</title>
<!-- Node0 -->
<g id="node1" class="node"><title>Node0</title>
<g id="a_node1"><a xlink:title="This class contains all configuration and run&#45;time state information that is associated with a partic...">
<polygon fill="#bfbfbf" stroke="black" points="7.5,-67.5 7.5,-97.5 144.5,-97.5 144.5,-67.5 7.5,-67.5"/>
<text text-anchor="start" x="15.5" y="-85.5" font-family="Helvetica,sans-Serif" font-size="10.00">FiftyOne.Pipeline.Engines.</text>
<text text-anchor="middle" x="76" y="-74.5" font-family="Helvetica,sans-Serif" font-size="10.00">Data.AspectEngineDataFile</text>
</a>
</g>
</g>
<!-- Node3 -->
<g id="node4" class="node"><title>Node3</title>
<g id="a_node4"><a xlink:href="class_fifty_one_1_1_pipeline_1_1_engines_1_1_fifty_one_1_1_data_1_1_fifty_one_data_file.html" target="_top" xlink:title=" ">
<polygon fill="none" stroke="black" points="0,-0.5 0,-30.5 152,-30.5 152,-0.5 0,-0.5"/>
<text text-anchor="start" x="8" y="-18.5" font-family="Helvetica,sans-Serif" font-size="10.00">FiftyOne.Pipeline.Engines.</text>
<text text-anchor="middle" x="76" y="-7.5" font-family="Helvetica,sans-Serif" font-size="10.00">FiftyOne.Data.FiftyOneDataFile</text>
</a>
</g>
</g>
<!-- Node0&#45;&gt;Node3 -->
<g id="edge3" class="edge"><title>Node0&#45;&gt;Node3</title>
<path fill="none" stroke="midnightblue" d="M76,-57.1081C76,-48.1539 76,-38.3227 76,-30.5765"/>
<polygon fill="midnightblue" stroke="midnightblue" points="72.5001,-57.3959 76,-67.396 79.5001,-57.396 72.5001,-57.3959"/>
</g>
<!-- Node1 -->
<g id="node2" class="node"><title>Node1</title>
<g id="a_node2"><a xlink:href="interface_fifty_one_1_1_pipeline_1_1_engines_1_1_data_1_1_i_aspect_engine_data_file.html" target="_top" xlink:title="Interface for the details of a data file used by an Aspect engine.">
<polygon fill="none" stroke="black" points="18,-134.5 18,-153.5 134,-153.5 134,-134.5 18,-134.5"/>
<text text-anchor="middle" x="76" y="-141.5" font-family="Helvetica,sans-Serif" font-size="10.00">IAspectEngineDataFile</text>
</a>
</g>
</g>
<!-- Node1&#45;&gt;Node0 -->
<g id="edge1" class="edge"><title>Node1&#45;&gt;Node0</title>
<path fill="none" stroke="midnightblue" d="M76,-124.235C76,-115.586 76,-105.497 76,-97.523"/>
<polygon fill="midnightblue" stroke="midnightblue" points="72.5001,-124.475 76,-134.475 79.5001,-124.475 72.5001,-124.475"/>
</g>
<!-- Node2 -->
<g id="node3" class="node"><title>Node2</title>
<g id="a_node3"><a xlink:title=" ">
<polygon fill="none" stroke="#bfbfbf" points="42.5,-190.5 42.5,-209.5 109.5,-209.5 109.5,-190.5 42.5,-190.5"/>
<text text-anchor="middle" x="76" y="-197.5" font-family="Helvetica,sans-Serif" font-size="10.00">IDisposable</text>
</a>
</g>
</g>
<!-- Node2&#45;&gt;Node1 -->
<g id="edge2" class="edge"><title>Node2&#45;&gt;Node1</title>
<path fill="none" stroke="midnightblue" d="M76,-179.805C76,-170.91 76,-160.78 76,-153.751"/>
<polygon fill="midnightblue" stroke="midnightblue" points="72.5001,-180.083 76,-190.083 79.5001,-180.083 72.5001,-180.083"/>
</g>
</g>
</svg>
