<?xml version="1.0" encoding="UTF-8" standalone="no"?>
<!DOCTYPE svg PUBLIC "-//W3C//DTD SVG 1.1//EN"
 "http://www.w3.org/Graphics/SVG/1.1/DTD/svg11.dtd">
<!-- Generated by graphviz version 2.38.0 (20140413.2041)
 -->
<!-- Title: FiftyOne.Pipeline.Engines.Data.AspectDataBase Pages: 1 -->
<svg width="192pt" height="207pt"
 viewBox="0.00 0.00 191.50 207.00" xmlns="http://www.w3.org/2000/svg" xmlns:xlink="http://www.w3.org/1999/xlink">
<g id="graph0" class="graph" transform="scale(1 1) rotate(0) translate(4 203)">
<title>FiftyOne.Pipeline.Engines.Data.AspectDataBase</title>
<!-- Node6 -->
<g id="node1" class="node"><title>Node6</title>
<g id="a_node1"><a xlink:title="Base class for element data instances that are generated by an IAspectEngine.">
<polygon fill="#bfbfbf" stroke="black" points="31.5,-0.5 31.5,-30.5 163.5,-30.5 163.5,-0.5 31.5,-0.5"/>
<text text-anchor="start" x="39.5" y="-18.5" font-family="Helvetica,sans-Serif" font-size="10.00">FiftyOne.Pipeline.Engines.</text>
<text text-anchor="middle" x="97.5" y="-7.5" font-family="Helvetica,sans-Serif" font-size="10.00">Data.AspectDataBase</text>
</a>
</g>
</g>
<!-- Node7 -->
<g id="node2" class="node"><title>Node7</title>
<g id="a_node2"><a xlink:href="class_fifty_one_1_1_pipeline_1_1_core_1_1_data_1_1_element_data_base.html" target="_top" xlink:title="This class stores property values that have be determined by a specific FlowElement based on the supp...">
<polygon fill="none" stroke="black" points="0,-67.5 0,-86.5 95,-86.5 95,-67.5 0,-67.5"/>
<text text-anchor="middle" x="47.5" y="-74.5" font-family="Helvetica,sans-Serif" font-size="10.00">ElementDataBase</text>
</a>
</g>
</g>
<!-- Node7&#45;&gt;Node6 -->
<g id="edge1" class="edge"><title>Node7&#45;&gt;Node6</title>
<path fill="none" stroke="midnightblue" d="M61.1044,-59.8108C68.8037,-50.6486 78.3376,-39.3032 85.716,-30.523"/>
<polygon fill="midnightblue" stroke="midnightblue" points="58.4177,-57.5676 54.6638,-67.4751 63.7768,-62.071 58.4177,-57.5676"/>
</g>
<!-- Node8 -->
<g id="node3" class="node"><title>Node8</title>
<g id="a_node3"><a xlink:href="class_fifty_one_1_1_pipeline_1_1_core_1_1_data_1_1_data_base.html" target="_top" xlink:title="This class stores data values as key/value pairs where the key is a string and the value can be any t...">
<polygon fill="none" stroke="black" points="18,-123.5 18,-142.5 77,-142.5 77,-123.5 18,-123.5"/>
<text text-anchor="middle" x="47.5" y="-130.5" font-family="Helvetica,sans-Serif" font-size="10.00">DataBase</text>
</a>
</g>
</g>
<!-- Node8&#45;&gt;Node7 -->
<g id="edge2" class="edge"><title>Node8&#45;&gt;Node7</title>
<path fill="none" stroke="midnightblue" d="M47.5,-112.805C47.5,-103.91 47.5,-93.7798 47.5,-86.7511"/>
<polygon fill="midnightblue" stroke="midnightblue" points="44.0001,-113.083 47.5,-123.083 51.0001,-113.083 44.0001,-113.083"/>
</g>
<!-- Node9 -->
<g id="node4" class="node"><title>Node9</title>
<g id="a_node4"><a xlink:href="interface_fifty_one_1_1_pipeline_1_1_core_1_1_data_1_1_i_data.html" target="_top" xlink:title="Represents property values">
<polygon fill="none" stroke="black" points="70,-179.5 70,-198.5 109,-198.5 109,-179.5 70,-179.5"/>
<text text-anchor="middle" x="89.5" y="-186.5" font-family="Helvetica,sans-Serif" font-size="10.00">IData</text>
</a>
</g>
</g>
<!-- Node9&#45;&gt;Node8 -->
<g id="edge3" class="edge"><title>Node9&#45;&gt;Node8</title>
<path fill="none" stroke="midnightblue" d="M76.3898,-171.144C69.0722,-161.736 60.2591,-150.405 54.3064,-142.751"/>
<polygon fill="midnightblue" stroke="midnightblue" points="73.6624,-173.338 82.5646,-179.083 79.1878,-169.041 73.6624,-173.338"/>
</g>
<!-- Node10 -->
<g id="node5" class="node"><title>Node10</title>
<g id="a_node5"><a xlink:href="interface_fifty_one_1_1_pipeline_1_1_core_1_1_data_1_1_i_element_data.html" target="_top" xlink:title="Represents property values that have be determined by a specific FlowElement based on the supplied ev...">
<polygon fill="none" stroke="black" points="95,-123.5 95,-142.5 170,-142.5 170,-123.5 95,-123.5"/>
<text text-anchor="middle" x="132.5" y="-130.5" font-family="Helvetica,sans-Serif" font-size="10.00">IElementData</text>
</a>
</g>
</g>
<!-- Node9&#45;&gt;Node10 -->
<g id="edge5" class="edge"><title>Node9&#45;&gt;Node10</title>
<path fill="none" stroke="midnightblue" d="M102.922,-171.144C110.414,-161.736 119.437,-150.405 125.532,-142.751"/>
<polygon fill="midnightblue" stroke="midnightblue" points="100.092,-169.08 96.6006,-179.083 105.568,-173.44 100.092,-169.08"/>
</g>
<!-- Node10&#45;&gt;Node7 -->
<g id="edge4" class="edge"><title>Node10&#45;&gt;Node7</title>
<path fill="none" stroke="midnightblue" d="M110.306,-117.901C94.72,-107.999 74.3703,-95.0705 61.1228,-86.6545"/>
<polygon fill="midnightblue" stroke="midnightblue" points="108.526,-120.916 118.843,-123.324 112.279,-115.007 108.526,-120.916"/>
</g>
<!-- Node11 -->
<g id="node6" class="node"><title>Node11</title>
<g id="a_node6"><a xlink:href="interface_fifty_one_1_1_pipeline_1_1_engines_1_1_data_1_1_i_aspect_data.html" target="_top" xlink:title="Represents an ElementData instance that is generated by an IAspectEngine.">
<polygon fill="none" stroke="black" points="113.5,-67.5 113.5,-86.5 183.5,-86.5 183.5,-67.5 113.5,-67.5"/>
<text text-anchor="middle" x="148.5" y="-74.5" font-family="Helvetica,sans-Serif" font-size="10.00">IAspectData</text>
</a>
</g>
</g>
<!-- Node10&#45;&gt;Node11 -->
<g id="edge7" class="edge"><title>Node10&#45;&gt;Node11</title>
<path fill="none" stroke="midnightblue" d="M138.012,-113.396C140.689,-104.362 143.778,-93.936 145.907,-86.7511"/>
<polygon fill="midnightblue" stroke="midnightblue" points="134.627,-112.501 135.142,-123.083 141.339,-114.489 134.627,-112.501"/>
</g>
<!-- Node11&#45;&gt;Node6 -->
<g id="edge6" class="edge"><title>Node11&#45;&gt;Node6</title>
<path fill="none" stroke="midnightblue" d="M134.624,-59.8108C126.77,-50.6486 117.046,-39.3032 109.52,-30.523"/>
<polygon fill="midnightblue" stroke="midnightblue" points="132.028,-62.1603 141.193,-67.4751 137.342,-57.6047 132.028,-62.1603"/>
</g>
</g>
</svg>
