<?xml version="1.0" encoding="UTF-8" standalone="no"?>
<!DOCTYPE svg PUBLIC "-//W3C//DTD SVG 1.1//EN"
 "http://www.w3.org/Graphics/SVG/1.1/DTD/svg11.dtd">
<!-- Generated by graphviz version 2.38.0 (20140413.2041)
 -->
<!-- Title: FiftyOne.Pipeline.Core.Data.Types.JavaScript Pages: 1 -->
<svg width="244pt" height="95pt"
 viewBox="0.00 0.00 243.50 95.00" xmlns="http://www.w3.org/2000/svg" xmlns:xlink="http://www.w3.org/1999/xlink">
<g id="graph0" class="graph" transform="scale(1 1) rotate(0) translate(4 91)">
<title>FiftyOne.Pipeline.Core.Data.Types.JavaScript</title>
<!-- Node3 -->
<g id="node1" class="node"><title>Node3</title>
<g id="a_node1"><a xlink:title="JavaScript type which can be returned as a value by an ElementData.">
<polygon fill="#bfbfbf" stroke="black" points="49.5,-0.5 49.5,-30.5 189.5,-30.5 189.5,-0.5 49.5,-0.5"/>
<text text-anchor="start" x="57.5" y="-18.5" font-family="Helvetica,sans-Serif" font-size="10.00">FiftyOne.Pipeline.Core.Data.</text>
<text text-anchor="middle" x="119.5" y="-7.5" font-family="Helvetica,sans-Serif" font-size="10.00">Types.JavaScript</text>
</a>
</g>
</g>
<!-- Node4 -->
<g id="node2" class="node"><title>Node4</title>
<g id="a_node2"><a xlink:title=" ">
<polygon fill="none" stroke="#bfbfbf" points="0,-67.5 0,-86.5 113,-86.5 113,-67.5 0,-67.5"/>
<text text-anchor="middle" x="56.5" y="-74.5" font-family="Helvetica,sans-Serif" font-size="10.00">IComparable&lt; string &gt;</text>
</a>
</g>
</g>
<!-- Node4&#45;&gt;Node3 -->
<g id="edge1" class="edge"><title>Node4&#45;&gt;Node3</title>
<path fill="none" stroke="midnightblue" d="M73.0505,-60.369C82.8512,-51.1127 95.1657,-39.4824 104.652,-30.523"/>
<polygon fill="midnightblue" stroke="midnightblue" points="70.3933,-58.0643 65.5264,-67.4751 75.1997,-63.1534 70.3933,-58.0643"/>
</g>
<!-- Node5 -->
<g id="node3" class="node"><title>Node5</title>
<g id="a_node3"><a xlink:title=" ">
<polygon fill="none" stroke="#bfbfbf" points="131.5,-67.5 131.5,-86.5 235.5,-86.5 235.5,-67.5 131.5,-67.5"/>
<text text-anchor="middle" x="183.5" y="-74.5" font-family="Helvetica,sans-Serif" font-size="10.00">IEquatable&lt; string &gt;</text>
</a>
</g>
</g>
<!-- Node5&#45;&gt;Node3 -->
<g id="edge2" class="edge"><title>Node5&#45;&gt;Node3</title>
<path fill="none" stroke="midnightblue" d="M166.985,-60.6459C156.981,-51.3456 144.317,-39.572 134.584,-30.523"/>
<polygon fill="midnightblue" stroke="midnightblue" points="164.623,-63.2295 174.33,-67.4751 169.39,-58.1028 164.623,-63.2295"/>
</g>
</g>
</svg>
