<?xml version="1.0" encoding="UTF-8" standalone="no"?>
<!DOCTYPE svg PUBLIC "-//W3C//DTD SVG 1.1//EN"
 "http://www.w3.org/Graphics/SVG/1.1/DTD/svg11.dtd">
<!-- Generated by graphviz version 2.38.0 (20140413.2041)
 -->
<!-- Title: FiftyOne.Pipeline.Core.TypedMap.TypedKey&lt; T &gt; Pages: 1 -->
<svg width="587pt" height="110pt"
 viewBox="0.00 0.00 587.00 110.00" xmlns="http://www.w3.org/2000/svg" xmlns:xlink="http://www.w3.org/1999/xlink">
<g id="graph0" class="graph" transform="scale(1 1) rotate(0) translate(4 106)">
<title>FiftyOne.Pipeline.Core.TypedMap.TypedKey&lt; T &gt;</title>
<!-- Node0 -->
<g id="node1" class="node"><title>Node0</title>
<g id="a_node1"><a xlink:title="A key to a ITypedKeyMap data store.">
<polygon fill="#bfbfbf" stroke="black" points="123,-36 123,-66 266,-66 266,-36 123,-36"/>
<text text-anchor="start" x="131" y="-54" font-family="Helvetica,sans-Serif" font-size="10.00">FiftyOne.Pipeline.Core.Typed</text>
<text text-anchor="middle" x="194.5" y="-43" font-family="Helvetica,sans-Serif" font-size="10.00">Map.TypedKey&lt; T &gt;</text>
</a>
</g>
</g>
<!-- Node2 -->
<g id="node3" class="node"><title>Node2</title>
<g id="a_node3"><a xlink:href="class_fifty_one_1_1_pipeline_1_1_core_1_1_typed_map_1_1_typed_key.html" target="_top" xlink:title=" ">
<polygon fill="none" stroke="black" points="411,-60.5 411,-101.5 579,-101.5 579,-60.5 411,-60.5"/>
<text text-anchor="start" x="419" y="-89.5" font-family="Helvetica,sans-Serif" font-size="10.00">FiftyOne.Pipeline.Core.Typed</text>
<text text-anchor="start" x="419" y="-78.5" font-family="Helvetica,sans-Serif" font-size="10.00">Map.TypedKey&lt; FiftyOne.Pipeline.</text>
<text text-anchor="middle" x="495" y="-67.5" font-family="Helvetica,sans-Serif" font-size="10.00">Math.IMathData &gt;</text>
</a>
</g>
</g>
<!-- Node0&#45;&gt;Node2 -->
<g id="edge2" class="edge"><title>Node0&#45;&gt;Node2</title>
<path fill="none" stroke="orange" stroke-dasharray="5,2" d="M276.354,-59.126C318.029,-63.3144 368.781,-68.4152 410.791,-72.6373"/>
<polygon fill="orange" stroke="orange" points="276.54,-55.6272 266.24,-58.1096 275.84,-62.5921 276.54,-55.6272"/>
<text text-anchor="start" x="293.5" y="-84" font-family="Helvetica,sans-Serif" font-size="10.00"> &lt; FiftyOne::Pipeline</text>
<text text-anchor="middle" x="338.5" y="-73" font-family="Helvetica,sans-Serif" font-size="10.00">::Math::IMathData &gt;</text>
</g>
<!-- Node3 -->
<g id="node4" class="node"><title>Node3</title>
<g id="a_node4"><a xlink:href="class_fifty_one_1_1_pipeline_1_1_core_1_1_typed_map_1_1_typed_key.html" target="_top" xlink:title=" ">
<polygon fill="none" stroke="black" points="411,-0.5 411,-41.5 579,-41.5 579,-0.5 411,-0.5"/>
<text text-anchor="start" x="419" y="-29.5" font-family="Helvetica,sans-Serif" font-size="10.00">FiftyOne.Pipeline.Core.Typed</text>
<text text-anchor="start" x="419" y="-18.5" font-family="Helvetica,sans-Serif" font-size="10.00">Map.TypedKey&lt; FiftyOne.Pipeline.</text>
<text text-anchor="middle" x="495" y="-7.5" font-family="Helvetica,sans-Serif" font-size="10.00">IpSplitter.ISplitIpData &gt;</text>
</a>
</g>
</g>
<!-- Node0&#45;&gt;Node3 -->
<g id="edge3" class="edge"><title>Node0&#45;&gt;Node3</title>
<path fill="none" stroke="orange" stroke-dasharray="5,2" d="M276.369,-35.0319C278.939,-34.6633 281.487,-34.3178 284,-34 325.675,-28.7293 372.285,-25.5706 410.987,-23.6901"/>
<polygon fill="orange" stroke="orange" points="275.736,-31.5877 266.379,-36.5573 276.793,-38.5075 275.736,-31.5877"/>
<text text-anchor="start" x="284" y="-48" font-family="Helvetica,sans-Serif" font-size="10.00"> &lt; FiftyOne::Pipeline</text>
<text text-anchor="middle" x="338.5" y="-37" font-family="Helvetica,sans-Serif" font-size="10.00">::IpSplitter::ISplitIpData &gt;</text>
</g>
<!-- Node1 -->
<g id="node2" class="node"><title>Node1</title>
<g id="a_node2"><a xlink:href="interface_fifty_one_1_1_pipeline_1_1_core_1_1_typed_map_1_1_i_typed_key.html" target="_top" xlink:title="Represents a key to a ITypedKeyMap data store.">
<polygon fill="none" stroke="black" points="0,-41.5 0,-60.5 86,-60.5 86,-41.5 0,-41.5"/>
<text text-anchor="middle" x="43" y="-48.5" font-family="Helvetica,sans-Serif" font-size="10.00">ITypedKey&lt; T &gt;</text>
</a>
</g>
</g>
<!-- Node1&#45;&gt;Node0 -->
<g id="edge1" class="edge"><title>Node1&#45;&gt;Node0</title>
<path fill="none" stroke="midnightblue" d="M96.2897,-51C104.898,-51 113.944,-51 122.91,-51"/>
<polygon fill="midnightblue" stroke="midnightblue" points="96.042,-47.5001 86.0419,-51 96.0419,-54.5001 96.042,-47.5001"/>
</g>
</g>
</svg>
