<?xml version="1.0" encoding="UTF-8" standalone="no"?>
<!DOCTYPE svg PUBLIC "-//W3C//DTD SVG 1.1//EN"
 "http://www.w3.org/Graphics/SVG/1.1/DTD/svg11.dtd">
<!-- Generated by graphviz version 2.38.0 (20140413.2041)
 -->
<!-- Title: FiftyOne.Pipeline.Engines.FlowElements.AspectEngineBase&lt; T, TMeta &gt; Pages: 1 -->
<svg width="1126pt" height="176pt"
 viewBox="0.00 0.00 1126.00 176.00" xmlns="http://www.w3.org/2000/svg" xmlns:xlink="http://www.w3.org/1999/xlink">
<g id="graph0" class="graph" transform="scale(1 1) rotate(0) translate(4 172)">
<title>FiftyOne.Pipeline.Engines.FlowElements.AspectEngineBase&lt; T, TMeta &gt;</title>
<!-- Node10 -->
<g id="node1" class="node"><title>Node10</title>
<g id="a_node1"><a xlink:title="Base class for 51Degrees aspect engines.">
<polygon fill="#bfbfbf" stroke="black" points="954,-65 954,-106 1118,-106 1118,-65 954,-65"/>
<text text-anchor="start" x="962" y="-94" font-family="Helvetica,sans-Serif" font-size="10.00">FiftyOne.Pipeline.Engines.</text>
<text text-anchor="start" x="962" y="-83" font-family="Helvetica,sans-Serif" font-size="10.00">FlowElements.AspectEngineBase</text>
<text text-anchor="middle" x="1036" y="-72" font-family="Helvetica,sans-Serif" font-size="10.00">&lt; T, TMeta &gt;</text>
</a>
</g>
</g>
<!-- Node11 -->
<g id="node2" class="node"><title>Node11</title>
<g id="a_node2"><a xlink:href="class_fifty_one_1_1_pipeline_1_1_core_1_1_flow_elements_1_1_flow_element_base.html" target="_top" xlink:title="Abstract base class for Flow Elements.">
<polygon fill="none" stroke="black" points="670,-137.5 670,-167.5 783,-167.5 783,-137.5 670,-137.5"/>
<text text-anchor="start" x="678" y="-155.5" font-family="Helvetica,sans-Serif" font-size="10.00">FlowElementBase&lt; T,</text>
<text text-anchor="middle" x="726.5" y="-144.5" font-family="Helvetica,sans-Serif" font-size="10.00"> TMeta &gt;</text>
</a>
</g>
</g>
<!-- Node11&#45;&gt;Node10 -->
<g id="edge1" class="edge"><title>Node11&#45;&gt;Node10</title>
<path fill="none" stroke="midnightblue" d="M792.926,-140.723C834.121,-133.039 888.332,-122.435 936,-111.5 943.361,-109.811 951.007,-107.967 958.64,-106.065"/>
<polygon fill="midnightblue" stroke="midnightblue" points="792.206,-137.297 783.013,-142.563 793.483,-144.18 792.206,-137.297"/>
</g>
<!-- Node12 -->
<g id="node3" class="node"><title>Node12</title>
<g id="a_node3"><a xlink:href="interface_fifty_one_1_1_pipeline_1_1_core_1_1_flow_elements_1_1_i_flow_element.html" target="_top" xlink:title=" ">
<polygon fill="none" stroke="black" points="412.5,-143 412.5,-162 543.5,-162 543.5,-143 412.5,-143"/>
<text text-anchor="middle" x="478" y="-150" font-family="Helvetica,sans-Serif" font-size="10.00">IFlowElement&lt; T, TMeta &gt;</text>
</a>
</g>
</g>
<!-- Node12&#45;&gt;Node11 -->
<g id="edge2" class="edge"><title>Node12&#45;&gt;Node11</title>
<path fill="none" stroke="midnightblue" d="M554.092,-152.5C591.414,-152.5 635.726,-152.5 669.945,-152.5"/>
<polygon fill="midnightblue" stroke="midnightblue" points="553.765,-149 543.765,-152.5 553.765,-156 553.765,-149"/>
</g>
<!-- Node13 -->
<g id="node4" class="node"><title>Node13</title>
<g id="a_node4"><a xlink:href="interface_fifty_one_1_1_pipeline_1_1_core_1_1_flow_elements_1_1_i_flow_element.html" target="_top" xlink:title="IFlowElement is the basic building block of a pipeline.">
<polygon fill="none" stroke="black" points="153,-137.5 153,-167.5 290,-167.5 290,-137.5 153,-137.5"/>
<text text-anchor="start" x="161" y="-155.5" font-family="Helvetica,sans-Serif" font-size="10.00">FiftyOne.Pipeline.Core.Flow</text>
<text text-anchor="middle" x="221.5" y="-144.5" font-family="Helvetica,sans-Serif" font-size="10.00">Elements.IFlowElement</text>
</a>
</g>
</g>
<!-- Node13&#45;&gt;Node12 -->
<g id="edge3" class="edge"><title>Node13&#45;&gt;Node12</title>
<path fill="none" stroke="orange" stroke-dasharray="5,2" d="M300.441,-152.5C336.24,-152.5 378.198,-152.5 412.227,-152.5"/>
<polygon fill="orange" stroke="orange" points="300.033,-149 290.033,-152.5 300.033,-156 300.033,-149"/>
<text text-anchor="middle" x="348" y="-155.5" font-family="Helvetica,sans-Serif" font-size="10.00"> &lt; T, TMeta &gt;</text>
</g>
<!-- Node14 -->
<g id="node5" class="node"><title>Node14</title>
<g id="a_node5"><a xlink:href="interface_fifty_one_1_1_pipeline_1_1_engines_1_1_flow_elements_1_1_i_aspect_engine.html" target="_top" xlink:title=" ">
<polygon fill="none" stroke="black" points="658.5,-99 658.5,-118 794.5,-118 794.5,-99 658.5,-99"/>
<text text-anchor="middle" x="726.5" y="-106" font-family="Helvetica,sans-Serif" font-size="10.00">IAspectEngine&lt; T, TMeta &gt;</text>
</a>
</g>
</g>
<!-- Node14&#45;&gt;Node10 -->
<g id="edge4" class="edge"><title>Node14&#45;&gt;Node10</title>
<path fill="none" stroke="midnightblue" d="M804.706,-102.725C850.192,-99.3231 907.676,-95.0234 953.833,-91.571"/>
<polygon fill="midnightblue" stroke="midnightblue" points="804.313,-99.2447 794.602,-103.481 804.835,-106.225 804.313,-99.2447"/>
</g>
<!-- Node15 -->
<g id="node6" class="node"><title>Node15</title>
<g id="a_node6"><a xlink:href="interface_fifty_one_1_1_pipeline_1_1_engines_1_1_flow_elements_1_1_i_aspect_engine.html" target="_top" xlink:title="Interface representing 51Degrees on&#45;premise aspect engines.">
<polygon fill="none" stroke="black" points="406,-93.5 406,-123.5 550,-123.5 550,-93.5 406,-93.5"/>
<text text-anchor="start" x="414" y="-111.5" font-family="Helvetica,sans-Serif" font-size="10.00">FiftyOne.Pipeline.Engines.</text>
<text text-anchor="middle" x="478" y="-100.5" font-family="Helvetica,sans-Serif" font-size="10.00">FlowElements.IAspectEngine</text>
</a>
</g>
</g>
<!-- Node15&#45;&gt;Node14 -->
<g id="edge5" class="edge"><title>Node15&#45;&gt;Node14</title>
<path fill="none" stroke="orange" stroke-dasharray="5,2" d="M560.426,-108.5C592.112,-108.5 627.982,-108.5 658.171,-108.5"/>
<polygon fill="orange" stroke="orange" points="560.298,-105 550.298,-108.5 560.298,-112 560.298,-105"/>
<text text-anchor="middle" x="598" y="-111.5" font-family="Helvetica,sans-Serif" font-size="10.00"> &lt; T, TMeta &gt;</text>
</g>
<!-- Node16 -->
<g id="node7" class="node"><title>Node16</title>
<g id="a_node7"><a xlink:href="interface_fifty_one_1_1_pipeline_1_1_engines_1_1_caching_1_1_i_flow_cache.html" target="_top" xlink:title="Represents a &#39;flow cache&#39; A flow cache is a cache that is used to cache results from individual flow ...">
<polygon fill="none" stroke="black" points="660.5,-49.5 660.5,-79.5 792.5,-79.5 792.5,-49.5 660.5,-49.5"/>
<text text-anchor="start" x="668.5" y="-67.5" font-family="Helvetica,sans-Serif" font-size="10.00">FiftyOne.Pipeline.Engines.</text>
<text text-anchor="middle" x="726.5" y="-56.5" font-family="Helvetica,sans-Serif" font-size="10.00">Caching.IFlowCache</text>
</a>
</g>
</g>
<!-- Node16&#45;&gt;Node10 -->
<g id="edge6" class="edge"><title>Node16&#45;&gt;Node10</title>
<path fill="none" stroke="#9a32cd" stroke-dasharray="5,2" d="M802.888,-69.4973C842.511,-72.1403 891.884,-75.4592 936,-78.5 941.844,-78.9028 947.883,-79.3221 953.96,-79.7464"/>
<polygon fill="#9a32cd" stroke="#9a32cd" points="802.983,-65.996 792.772,-68.8232 802.517,-72.9805 802.983,-65.996"/>
<text text-anchor="middle" x="880.5" y="-81.5" font-family="Helvetica,sans-Serif" font-size="10.00"> _cache</text>
</g>
<!-- Node17 -->
<g id="node8" class="node"><title>Node17</title>
<g id="a_node8"><a xlink:href="interface_fifty_one_1_1_pipeline_1_1_engines_1_1_caching_1_1_i_data_keyed_cache.html" target="_top" xlink:title=" ">
<polygon fill="none" stroke="black" points="407,-44.5 407,-74.5 549,-74.5 549,-44.5 407,-44.5"/>
<text text-anchor="start" x="415" y="-62.5" font-family="Helvetica,sans-Serif" font-size="10.00">IDataKeyedCache&lt; IElement</text>
<text text-anchor="middle" x="478" y="-51.5" font-family="Helvetica,sans-Serif" font-size="10.00">Data &gt;</text>
</a>
</g>
</g>
<!-- Node17&#45;&gt;Node16 -->
<g id="edge7" class="edge"><title>Node17&#45;&gt;Node16</title>
<path fill="none" stroke="midnightblue" d="M559.707,-61.1371C592.27,-61.7976 629.349,-62.5497 660.172,-63.1749"/>
<polygon fill="midnightblue" stroke="midnightblue" points="559.376,-57.6297 549.307,-60.9261 559.234,-64.6283 559.376,-57.6297"/>
</g>
<!-- Node18 -->
<g id="node9" class="node"><title>Node18</title>
<g id="a_node9"><a xlink:href="interface_fifty_one_1_1_pipeline_1_1_engines_1_1_caching_1_1_i_data_keyed_cache.html" target="_top" xlink:title="Represents a put cache where the key is a IFlowData instance.">
<polygon fill="none" stroke="black" points="155,-39 155,-80 288,-80 288,-39 155,-39"/>
<text text-anchor="start" x="163" y="-68" font-family="Helvetica,sans-Serif" font-size="10.00">FiftyOne.Pipeline.Engines.</text>
<text text-anchor="start" x="163" y="-57" font-family="Helvetica,sans-Serif" font-size="10.00">Caching.IDataKeyedCache</text>
<text text-anchor="middle" x="221.5" y="-46" font-family="Helvetica,sans-Serif" font-size="10.00">&lt; TValue &gt;</text>
</a>
</g>
</g>
<!-- Node18&#45;&gt;Node17 -->
<g id="edge8" class="edge"><title>Node18&#45;&gt;Node17</title>
<path fill="none" stroke="orange" stroke-dasharray="5,2" d="M298.048,-59.5C332.484,-59.5 373.007,-59.5 406.775,-59.5"/>
<polygon fill="orange" stroke="orange" points="298.04,-56.0001 288.04,-59.5 298.04,-63.0001 298.04,-56.0001"/>
<text text-anchor="middle" x="348" y="-62.5" font-family="Helvetica,sans-Serif" font-size="10.00"> &lt; IElementData &gt;</text>
</g>
<!-- Node19 -->
<g id="node10" class="node"><title>Node19</title>
<g id="a_node10"><a xlink:title=" ">
<polygon fill="none" stroke="#bfbfbf" points="0,-44.5 0,-74.5 116,-74.5 116,-44.5 0,-44.5"/>
<text text-anchor="start" x="8" y="-62.5" font-family="Helvetica,sans-Serif" font-size="10.00">IPutCache&lt; IFlowData,</text>
<text text-anchor="middle" x="58" y="-51.5" font-family="Helvetica,sans-Serif" font-size="10.00"> TValue &gt;</text>
</a>
</g>
</g>
<!-- Node19&#45;&gt;Node18 -->
<g id="edge9" class="edge"><title>Node19&#45;&gt;Node18</title>
<path fill="none" stroke="midnightblue" d="M126.437,-59.5C135.805,-59.5 145.419,-59.5 154.755,-59.5"/>
<polygon fill="midnightblue" stroke="midnightblue" points="126.394,-56.0001 116.394,-59.5 126.394,-63.0001 126.394,-56.0001"/>
</g>
<!-- Node20 -->
<g id="node11" class="node"><title>Node20</title>
<g id="a_node11"><a xlink:href="interface_fifty_one_1_1_pipeline_1_1_engines_1_1_services_1_1_i_missing_property_service.html" target="_top" xlink:title="Service that determines the reason for a property not being populated by an engine.">
<polygon fill="none" stroke="black" points="646,-0.5 646,-30.5 807,-30.5 807,-0.5 646,-0.5"/>
<text text-anchor="start" x="654" y="-18.5" font-family="Helvetica,sans-Serif" font-size="10.00">FiftyOne.Pipeline.Engines.</text>
<text text-anchor="middle" x="726.5" y="-7.5" font-family="Helvetica,sans-Serif" font-size="10.00">Services.IMissingPropertyService</text>
</a>
</g>
</g>
<!-- Node20&#45;&gt;Node10 -->
<g id="edge10" class="edge"><title>Node20&#45;&gt;Node10</title>
<path fill="none" stroke="#9a32cd" stroke-dasharray="5,2" d="M817.321,-31.3138C854.252,-38.2949 897.346,-47.0586 936,-56.5 946.352,-59.0285 957.24,-61.9482 967.855,-64.9407"/>
<polygon fill="#9a32cd" stroke="#9a32cd" points="817.55,-27.7959 807.076,-29.393 816.26,-34.676 817.55,-27.7959"/>
<text text-anchor="middle" x="880.5" y="-59.5" font-family="Helvetica,sans-Serif" font-size="10.00"> _missingPropertyService</text>
</g>
</g>
</svg>
