<?xml version="1.0" encoding="UTF-8" standalone="no"?>
<!DOCTYPE svg PUBLIC "-//W3C//DTD SVG 1.1//EN"
 "http://www.w3.org/Graphics/SVG/1.1/DTD/svg11.dtd">
<!-- Generated by graphviz version 2.38.0 (20140413.2041)
 -->
<!-- Title: FiftyOne.Pipeline.JsonBuilder.Data.JsonBuilderElementData Pages: 1 -->
<svg width="246pt" height="207pt"
 viewBox="0.00 0.00 246.00 207.00" xmlns="http://www.w3.org/2000/svg" xmlns:xlink="http://www.w3.org/1999/xlink">
<g id="graph0" class="graph" transform="scale(1 1) rotate(0) translate(4 203)">
<title>FiftyOne.Pipeline.JsonBuilder.Data.JsonBuilderElementData</title>
<!-- Node6 -->
<g id="node1" class="node"><title>Node6</title>
<g id="a_node1"><a xlink:title="JsonBuilderElement data class.">
<polygon fill="#bfbfbf" stroke="black" points="38,-0.5 38,-30.5 185,-30.5 185,-0.5 38,-0.5"/>
<text text-anchor="start" x="46" y="-18.5" font-family="Helvetica,sans-Serif" font-size="10.00">FiftyOne.Pipeline.JsonBuilder.</text>
<text text-anchor="middle" x="111.5" y="-7.5" font-family="Helvetica,sans-Serif" font-size="10.00">Data.JsonBuilderElementData</text>
</a>
</g>
</g>
<!-- Node7 -->
<g id="node2" class="node"><title>Node7</title>
<g id="a_node2"><a xlink:href="class_fifty_one_1_1_pipeline_1_1_core_1_1_data_1_1_element_data_base.html" target="_top" xlink:title="This class stores property values that have be determined by a specific FlowElement based on the supp...">
<polygon fill="none" stroke="black" points="0,-67.5 0,-86.5 95,-86.5 95,-67.5 0,-67.5"/>
<text text-anchor="middle" x="47.5" y="-74.5" font-family="Helvetica,sans-Serif" font-size="10.00">ElementDataBase</text>
</a>
</g>
</g>
<!-- Node7&#45;&gt;Node6 -->
<g id="edge1" class="edge"><title>Node7&#45;&gt;Node6</title>
<path fill="none" stroke="midnightblue" d="M64.0153,-60.6459C74.019,-51.3456 86.6831,-39.572 96.4165,-30.523"/>
<polygon fill="midnightblue" stroke="midnightblue" points="61.6104,-58.1028 56.6696,-67.4751 66.3766,-63.2295 61.6104,-58.1028"/>
</g>
<!-- Node8 -->
<g id="node3" class="node"><title>Node8</title>
<g id="a_node3"><a xlink:href="class_fifty_one_1_1_pipeline_1_1_core_1_1_data_1_1_data_base.html" target="_top" xlink:title="This class stores data values as key/value pairs where the key is a string and the value can be any t...">
<polygon fill="none" stroke="black" points="18,-123.5 18,-142.5 77,-142.5 77,-123.5 18,-123.5"/>
<text text-anchor="middle" x="47.5" y="-130.5" font-family="Helvetica,sans-Serif" font-size="10.00">DataBase</text>
</a>
</g>
</g>
<!-- Node8&#45;&gt;Node7 -->
<g id="edge2" class="edge"><title>Node8&#45;&gt;Node7</title>
<path fill="none" stroke="midnightblue" d="M47.5,-112.805C47.5,-103.91 47.5,-93.7798 47.5,-86.7511"/>
<polygon fill="midnightblue" stroke="midnightblue" points="44.0001,-113.083 47.5,-123.083 51.0001,-113.083 44.0001,-113.083"/>
</g>
<!-- Node9 -->
<g id="node4" class="node"><title>Node9</title>
<g id="a_node4"><a xlink:href="interface_fifty_one_1_1_pipeline_1_1_core_1_1_data_1_1_i_data.html" target="_top" xlink:title="Represents property values">
<polygon fill="none" stroke="black" points="70,-179.5 70,-198.5 109,-198.5 109,-179.5 70,-179.5"/>
<text text-anchor="middle" x="89.5" y="-186.5" font-family="Helvetica,sans-Serif" font-size="10.00">IData</text>
</a>
</g>
</g>
<!-- Node9&#45;&gt;Node8 -->
<g id="edge3" class="edge"><title>Node9&#45;&gt;Node8</title>
<path fill="none" stroke="midnightblue" d="M76.3898,-171.144C69.0722,-161.736 60.2591,-150.405 54.3064,-142.751"/>
<polygon fill="midnightblue" stroke="midnightblue" points="73.6624,-173.338 82.5646,-179.083 79.1878,-169.041 73.6624,-173.338"/>
</g>
<!-- Node10 -->
<g id="node5" class="node"><title>Node10</title>
<g id="a_node5"><a xlink:href="interface_fifty_one_1_1_pipeline_1_1_core_1_1_data_1_1_i_element_data.html" target="_top" xlink:title="Represents property values that have be determined by a specific FlowElement based on the supplied ev...">
<polygon fill="none" stroke="black" points="95,-123.5 95,-142.5 170,-142.5 170,-123.5 95,-123.5"/>
<text text-anchor="middle" x="132.5" y="-130.5" font-family="Helvetica,sans-Serif" font-size="10.00">IElementData</text>
</a>
</g>
</g>
<!-- Node9&#45;&gt;Node10 -->
<g id="edge5" class="edge"><title>Node9&#45;&gt;Node10</title>
<path fill="none" stroke="midnightblue" d="M102.922,-171.144C110.414,-161.736 119.437,-150.405 125.532,-142.751"/>
<polygon fill="midnightblue" stroke="midnightblue" points="100.092,-169.08 96.6006,-179.083 105.568,-173.44 100.092,-169.08"/>
</g>
<!-- Node10&#45;&gt;Node7 -->
<g id="edge4" class="edge"><title>Node10&#45;&gt;Node7</title>
<path fill="none" stroke="midnightblue" d="M110.306,-117.901C94.72,-107.999 74.3703,-95.0705 61.1228,-86.6545"/>
<polygon fill="midnightblue" stroke="midnightblue" points="108.526,-120.916 118.843,-123.324 112.279,-115.007 108.526,-120.916"/>
</g>
<!-- Node11 -->
<g id="node6" class="node"><title>Node11</title>
<g id="a_node6"><a xlink:href="interface_fifty_one_1_1_pipeline_1_1_json_builder_1_1_data_1_1_i_json_builder_element_data.html" target="_top" xlink:title=" ">
<polygon fill="none" stroke="black" points="113,-67.5 113,-86.5 238,-86.5 238,-67.5 113,-67.5"/>
<text text-anchor="middle" x="175.5" y="-74.5" font-family="Helvetica,sans-Serif" font-size="10.00">IJsonBuilderElementData</text>
</a>
</g>
</g>
<!-- Node10&#45;&gt;Node11 -->
<g id="edge7" class="edge"><title>Node10&#45;&gt;Node11</title>
<path fill="none" stroke="midnightblue" d="M145.922,-115.144C153.414,-105.736 162.437,-94.4046 168.532,-86.7511"/>
<polygon fill="midnightblue" stroke="midnightblue" points="143.092,-113.08 139.601,-123.083 148.568,-117.44 143.092,-113.08"/>
</g>
<!-- Node11&#45;&gt;Node6 -->
<g id="edge6" class="edge"><title>Node11&#45;&gt;Node6</title>
<path fill="none" stroke="midnightblue" d="M158.985,-60.6459C148.981,-51.3456 136.317,-39.572 126.584,-30.523"/>
<polygon fill="midnightblue" stroke="midnightblue" points="156.623,-63.2295 166.33,-67.4751 161.39,-58.1028 156.623,-63.2295"/>
</g>
</g>
</svg>
