<?xml version="1.0" encoding="UTF-8" standalone="no"?>
<!DOCTYPE svg PUBLIC "-//W3C//DTD SVG 1.1//EN"
 "http://www.w3.org/Graphics/SVG/1.1/DTD/svg11.dtd">
<!-- Generated by graphviz version 2.38.0 (20140413.2041)
 -->
<!-- Title: FiftyOne.Pipeline.Core.Data.ElementDataBase Pages: 1 -->
<svg width="573pt" height="225pt"
 viewBox="0.00 0.00 573.00 224.50" xmlns="http://www.w3.org/2000/svg" xmlns:xlink="http://www.w3.org/1999/xlink">
<g id="graph0" class="graph" transform="scale(1 1) rotate(0) translate(4 220.5)">
<title>FiftyOne.Pipeline.Core.Data.ElementDataBase</title>
<!-- Node0 -->
<g id="node1" class="node"><title>Node0</title>
<g id="a_node1"><a xlink:title="This class stores property values that have be determined by a specific FlowElement based on the supp...">
<polygon fill="#bfbfbf" stroke="black" points="186,-88 186,-118 326,-118 326,-88 186,-88"/>
<text text-anchor="start" x="194" y="-106" font-family="Helvetica,sans-Serif" font-size="10.00">FiftyOne.Pipeline.Core.Data.</text>
<text text-anchor="middle" x="256" y="-95" font-family="Helvetica,sans-Serif" font-size="10.00">ElementDataBase</text>
</a>
</g>
</g>
<!-- Node4 -->
<g id="node5" class="node"><title>Node4</title>
<g id="a_node5"><a xlink:href="class_fifty_one_1_1_pipeline_1_1_engines_1_1_data_1_1_aspect_data_base.html" target="_top" xlink:title="Base class for element data instances that are generated by an IAspectEngine.">
<polygon fill="none" stroke="black" points="397.5,-186 397.5,-216 529.5,-216 529.5,-186 397.5,-186"/>
<text text-anchor="start" x="405.5" y="-204" font-family="Helvetica,sans-Serif" font-size="10.00">FiftyOne.Pipeline.Engines.</text>
<text text-anchor="middle" x="463.5" y="-193" font-family="Helvetica,sans-Serif" font-size="10.00">Data.AspectDataBase</text>
</a>
</g>
</g>
<!-- Node0&#45;&gt;Node4 -->
<g id="edge5" class="edge"><title>Node0&#45;&gt;Node4</title>
<path fill="none" stroke="midnightblue" d="M281.739,-124.56C302.027,-141.179 332.167,-163.528 362,-177 373.117,-182.02 385.419,-186.067 397.493,-189.303"/>
<polygon fill="midnightblue" stroke="midnightblue" points="283.862,-121.773 273.941,-118.055 279.378,-127.148 283.862,-121.773"/>
</g>
<!-- Node5 -->
<g id="node6" class="node"><title>Node5</title>
<g id="a_node6"><a xlink:href="class_fifty_one_1_1_pipeline_1_1_ip_splitter_1_1_split_ip_data.html" target="_top" xlink:title=" ">
<polygon fill="none" stroke="black" points="396,-137 396,-167 531,-167 531,-137 396,-137"/>
<text text-anchor="start" x="404" y="-155" font-family="Helvetica,sans-Serif" font-size="10.00">FiftyOne.Pipeline.IpSplitter.</text>
<text text-anchor="middle" x="463.5" y="-144" font-family="Helvetica,sans-Serif" font-size="10.00">SplitIpData</text>
</a>
</g>
</g>
<!-- Node0&#45;&gt;Node5 -->
<g id="edge6" class="edge"><title>Node0&#45;&gt;Node5</title>
<path fill="none" stroke="midnightblue" d="M329.99,-120.404C352.722,-125.824 377.582,-131.752 399.566,-136.994"/>
<polygon fill="midnightblue" stroke="midnightblue" points="330.592,-116.95 320.053,-118.035 328.969,-123.759 330.592,-116.95"/>
</g>
<!-- Node6 -->
<g id="node7" class="node"><title>Node6</title>
<g id="a_node7"><a xlink:href="class_fifty_one_1_1_pipeline_1_1_java_script_builder_1_1_data_1_1_java_script_builder_element_data.html" target="_top" xlink:title=" ">
<polygon fill="none" stroke="black" points="362,-88 362,-118 565,-118 565,-88 362,-88"/>
<text text-anchor="start" x="370" y="-106" font-family="Helvetica,sans-Serif" font-size="10.00">FiftyOne.Pipeline.JavaScript</text>
<text text-anchor="middle" x="463.5" y="-95" font-family="Helvetica,sans-Serif" font-size="10.00">Builder.Data.JavaScriptBuilderElementData</text>
</a>
</g>
</g>
<!-- Node0&#45;&gt;Node6 -->
<g id="edge7" class="edge"><title>Node0&#45;&gt;Node6</title>
<path fill="none" stroke="midnightblue" d="M336.154,-103C344.584,-103 353.237,-103 361.87,-103"/>
<polygon fill="midnightblue" stroke="midnightblue" points="336,-99.5001 326,-103 336,-106.5 336,-99.5001"/>
</g>
<!-- Node7 -->
<g id="node8" class="node"><title>Node7</title>
<g id="a_node8"><a xlink:href="class_fifty_one_1_1_pipeline_1_1_json_builder_1_1_data_1_1_json_builder_element_data.html" target="_top" xlink:title="JsonBuilderElement data class.">
<polygon fill="none" stroke="black" points="390,-39 390,-69 537,-69 537,-39 390,-39"/>
<text text-anchor="start" x="398" y="-57" font-family="Helvetica,sans-Serif" font-size="10.00">FiftyOne.Pipeline.JsonBuilder.</text>
<text text-anchor="middle" x="463.5" y="-46" font-family="Helvetica,sans-Serif" font-size="10.00">Data.JsonBuilderElementData</text>
</a>
</g>
</g>
<!-- Node0&#45;&gt;Node7 -->
<g id="edge8" class="edge"><title>Node0&#45;&gt;Node7</title>
<path fill="none" stroke="midnightblue" d="M329.99,-85.5962C352.722,-80.1757 377.582,-74.248 399.566,-69.0062"/>
<polygon fill="midnightblue" stroke="midnightblue" points="328.969,-82.2413 320.053,-87.9654 330.592,-89.0505 328.969,-82.2413"/>
</g>
<!-- Node8 -->
<g id="node9" class="node"><title>Node8</title>
<g id="a_node9"><a xlink:href="class_fifty_one_1_1_pipeline_1_1_math_1_1_math_data.html" target="_top" xlink:title=" ">
<polygon fill="none" stroke="black" points="383,-0.5 383,-19.5 544,-19.5 544,-0.5 383,-0.5"/>
<text text-anchor="middle" x="463.5" y="-7.5" font-family="Helvetica,sans-Serif" font-size="10.00">FiftyOne.Pipeline.Math.MathData</text>
</a>
</g>
</g>
<!-- Node0&#45;&gt;Node8 -->
<g id="edge9" class="edge"><title>Node0&#45;&gt;Node8</title>
<path fill="none" stroke="midnightblue" d="M281.207,-81.3525C301.401,-64.4821 331.675,-41.8349 362,-29 371.239,-25.0896 381.296,-21.9797 391.358,-19.5076"/>
<polygon fill="midnightblue" stroke="midnightblue" points="278.8,-78.805 273.461,-87.9559 283.341,-84.1322 278.8,-78.805"/>
</g>
<!-- Node1 -->
<g id="node2" class="node"><title>Node1</title>
<g id="a_node2"><a xlink:href="class_fifty_one_1_1_pipeline_1_1_core_1_1_data_1_1_data_base.html" target="_top" xlink:title="This class stores data values as key/value pairs where the key is a string and the value can be any t...">
<polygon fill="none" stroke="black" points="83,-112.5 83,-131.5 142,-131.5 142,-112.5 83,-112.5"/>
<text text-anchor="middle" x="112.5" y="-119.5" font-family="Helvetica,sans-Serif" font-size="10.00">DataBase</text>
</a>
</g>
</g>
<!-- Node1&#45;&gt;Node0 -->
<g id="edge1" class="edge"><title>Node1&#45;&gt;Node0</title>
<path fill="none" stroke="midnightblue" d="M152.13,-116.813C162.565,-115.412 174.184,-113.852 185.749,-112.299"/>
<polygon fill="midnightblue" stroke="midnightblue" points="151.58,-113.355 142.135,-118.155 152.512,-120.293 151.58,-113.355"/>
</g>
<!-- Node2 -->
<g id="node3" class="node"><title>Node2</title>
<g id="a_node3"><a xlink:href="interface_fifty_one_1_1_pipeline_1_1_core_1_1_data_1_1_i_data.html" target="_top" xlink:title="Represents property values">
<polygon fill="none" stroke="black" points="0,-93.5 0,-112.5 39,-112.5 39,-93.5 0,-93.5"/>
<text text-anchor="middle" x="19.5" y="-100.5" font-family="Helvetica,sans-Serif" font-size="10.00">IData</text>
</a>
</g>
</g>
<!-- Node2&#45;&gt;Node1 -->
<g id="edge2" class="edge"><title>Node2&#45;&gt;Node1</title>
<path fill="none" stroke="midnightblue" d="M49.1528,-108.982C59.9427,-111.235 72.2044,-113.795 82.982,-116.046"/>
<polygon fill="midnightblue" stroke="midnightblue" points="49.8595,-105.555 39.3553,-106.937 48.4288,-112.407 49.8595,-105.555"/>
</g>
<!-- Node3 -->
<g id="node4" class="node"><title>Node3</title>
<g id="a_node4"><a xlink:href="interface_fifty_one_1_1_pipeline_1_1_core_1_1_data_1_1_i_element_data.html" target="_top" xlink:title="Represents property values that have be determined by a specific FlowElement based on the supplied ev...">
<polygon fill="none" stroke="black" points="75,-74.5 75,-93.5 150,-93.5 150,-74.5 75,-74.5"/>
<text text-anchor="middle" x="112.5" y="-81.5" font-family="Helvetica,sans-Serif" font-size="10.00">IElementData</text>
</a>
</g>
</g>
<!-- Node2&#45;&gt;Node3 -->
<g id="edge4" class="edge"><title>Node2&#45;&gt;Node3</title>
<path fill="none" stroke="midnightblue" d="M49.3487,-96.9766C57.3801,-95.2998 66.2144,-93.4552 74.6385,-91.6964"/>
<polygon fill="midnightblue" stroke="midnightblue" points="48.4288,-93.5932 39.3553,-99.0632 49.8595,-100.445 48.4288,-93.5932"/>
</g>
<!-- Node3&#45;&gt;Node0 -->
<g id="edge3" class="edge"><title>Node3&#45;&gt;Node0</title>
<path fill="none" stroke="midnightblue" d="M160.341,-90.2896C168.495,-91.3845 177.129,-92.5439 185.734,-93.6993"/>
<polygon fill="midnightblue" stroke="midnightblue" points="160.685,-86.8045 150.308,-88.9424 159.753,-93.7422 160.685,-86.8045"/>
</g>
</g>
</svg>
