<?xml version="1.0" encoding="UTF-8" standalone="no"?>
<!DOCTYPE svg PUBLIC "-//W3C//DTD SVG 1.1//EN"
 "http://www.w3.org/Graphics/SVG/1.1/DTD/svg11.dtd">
<!-- Generated by graphviz version 2.38.0 (20140413.2041)
 -->
<!-- Title: FiftyOne.Pipeline.Math.MathElement Pages: 1 -->
<svg width="1152pt" height="156pt"
 viewBox="0.00 0.00 1152.00 155.50" xmlns="http://www.w3.org/2000/svg" xmlns:xlink="http://www.w3.org/1999/xlink">
<g id="graph0" class="graph" transform="scale(1 1) rotate(0) translate(4 151.5)">
<title>FiftyOne.Pipeline.Math.MathElement</title>
<!-- Node5 -->
<g id="node1" class="node"><title>Node5</title>
<g id="a_node1"><a xlink:title=" ">
<polygon fill="#bfbfbf" stroke="black" points="1004,-55.5 1004,-85.5 1144,-85.5 1144,-55.5 1004,-55.5"/>
<text text-anchor="start" x="1012" y="-73.5" font-family="Helvetica,sans-Serif" font-size="10.00">FiftyOne.Pipeline.Math.Math</text>
<text text-anchor="middle" x="1074" y="-62.5" font-family="Helvetica,sans-Serif" font-size="10.00">Element</text>
</a>
</g>
</g>
<!-- Node6 -->
<g id="node2" class="node"><title>Node6</title>
<g id="a_node2"><a xlink:href="class_fifty_one_1_1_pipeline_1_1_core_1_1_flow_elements_1_1_flow_element_base.html" target="_top" xlink:title=" ">
<polygon fill="none" stroke="black" points="726,-110.5 726,-140.5 878,-140.5 878,-110.5 726,-110.5"/>
<text text-anchor="start" x="734" y="-128.5" font-family="Helvetica,sans-Serif" font-size="10.00">FlowElementBase&lt; IMathData,</text>
<text text-anchor="middle" x="802" y="-117.5" font-family="Helvetica,sans-Serif" font-size="10.00"> IElementPropertyMetaData &gt;</text>
</a>
</g>
</g>
<!-- Node6&#45;&gt;Node5 -->
<g id="edge1" class="edge"><title>Node6&#45;&gt;Node5</title>
<path fill="none" stroke="midnightblue" d="M886.709,-108.448C924.346,-100.781 968.231,-91.8418 1003.95,-84.5657"/>
<polygon fill="midnightblue" stroke="midnightblue" points="885.879,-105.045 876.779,-110.471 887.276,-111.904 885.879,-105.045"/>
</g>
<!-- Node7 -->
<g id="node3" class="node"><title>Node7</title>
<g id="a_node3"><a xlink:href="class_fifty_one_1_1_pipeline_1_1_core_1_1_flow_elements_1_1_flow_element_base.html" target="_top" xlink:title="Abstract base class for Flow Elements.">
<polygon fill="none" stroke="black" points="402.5,-105 402.5,-146 542.5,-146 542.5,-105 402.5,-105"/>
<text text-anchor="start" x="410.5" y="-134" font-family="Helvetica,sans-Serif" font-size="10.00">FiftyOne.Pipeline.Core.Flow</text>
<text text-anchor="start" x="410.5" y="-123" font-family="Helvetica,sans-Serif" font-size="10.00">Elements.FlowElementBase</text>
<text text-anchor="middle" x="472.5" y="-112" font-family="Helvetica,sans-Serif" font-size="10.00">&lt; T, TMeta &gt;</text>
</a>
</g>
</g>
<!-- Node7&#45;&gt;Node6 -->
<g id="edge2" class="edge"><title>Node7&#45;&gt;Node6</title>
<path fill="none" stroke="orange" stroke-dasharray="5,2" d="M552.85,-125.5C605.446,-125.5 674.028,-125.5 725.761,-125.5"/>
<polygon fill="orange" stroke="orange" points="552.554,-122 542.554,-125.5 552.554,-129 552.554,-122"/>
<text text-anchor="start" x="562" y="-139.5" font-family="Helvetica,sans-Serif" font-size="10.00"> &lt; IMathData, IElementProperty</text>
<text text-anchor="middle" x="631" y="-128.5" font-family="Helvetica,sans-Serif" font-size="10.00">MetaData &gt;</text>
</g>
<!-- Node8 -->
<g id="node4" class="node"><title>Node8</title>
<g id="a_node4"><a xlink:href="interface_fifty_one_1_1_pipeline_1_1_core_1_1_flow_elements_1_1_i_flow_element.html" target="_top" xlink:title=" ">
<polygon fill="none" stroke="black" points="233,-116 233,-135 364,-135 364,-116 233,-116"/>
<text text-anchor="middle" x="298.5" y="-123" font-family="Helvetica,sans-Serif" font-size="10.00">IFlowElement&lt; T, TMeta &gt;</text>
</a>
</g>
</g>
<!-- Node8&#45;&gt;Node7 -->
<g id="edge3" class="edge"><title>Node8&#45;&gt;Node7</title>
<path fill="none" stroke="midnightblue" d="M374.102,-125.5C383.464,-125.5 393.01,-125.5 402.285,-125.5"/>
<polygon fill="midnightblue" stroke="midnightblue" points="374.036,-122 364.036,-125.5 374.036,-129 374.036,-122"/>
</g>
<!-- Node9 -->
<g id="node5" class="node"><title>Node9</title>
<g id="a_node5"><a xlink:href="interface_fifty_one_1_1_pipeline_1_1_core_1_1_flow_elements_1_1_i_flow_element.html" target="_top" xlink:title="IFlowElement is the basic building block of a pipeline.">
<polygon fill="none" stroke="black" points="0,-110.5 0,-140.5 137,-140.5 137,-110.5 0,-110.5"/>
<text text-anchor="start" x="8" y="-128.5" font-family="Helvetica,sans-Serif" font-size="10.00">FiftyOne.Pipeline.Core.Flow</text>
<text text-anchor="middle" x="68.5" y="-117.5" font-family="Helvetica,sans-Serif" font-size="10.00">Elements.IFlowElement</text>
</a>
</g>
</g>
<!-- Node9&#45;&gt;Node8 -->
<g id="edge4" class="edge"><title>Node9&#45;&gt;Node8</title>
<path fill="none" stroke="orange" stroke-dasharray="5,2" d="M147.369,-125.5C175.158,-125.5 206.141,-125.5 232.71,-125.5"/>
<polygon fill="orange" stroke="orange" points="147.29,-122 137.29,-125.5 147.29,-129 147.29,-122"/>
<text text-anchor="middle" x="185" y="-128.5" font-family="Helvetica,sans-Serif" font-size="10.00"> &lt; T, TMeta &gt;</text>
</g>
<!-- Node10 -->
<g id="node6" class="node"><title>Node10</title>
<g id="a_node6"><a xlink:href="class_fifty_one_1_1_pipeline_1_1_core_1_1_typed_map_1_1_typed_key.html" target="_top" xlink:title=" ">
<polygon fill="none" stroke="black" points="718,-50 718,-91 886,-91 886,-50 718,-50"/>
<text text-anchor="start" x="726" y="-79" font-family="Helvetica,sans-Serif" font-size="10.00">FiftyOne.Pipeline.Core.Typed</text>
<text text-anchor="start" x="726" y="-68" font-family="Helvetica,sans-Serif" font-size="10.00">Map.TypedKey&lt; FiftyOne.Pipeline.</text>
<text text-anchor="middle" x="802" y="-57" font-family="Helvetica,sans-Serif" font-size="10.00">Math.IMathData &gt;</text>
</a>
</g>
</g>
<!-- Node10&#45;&gt;Node5 -->
<g id="edge5" class="edge"><title>Node10&#45;&gt;Node5</title>
<path fill="none" stroke="#9a32cd" stroke-dasharray="5,2" d="M896.503,-70.5C931.702,-70.5 971.07,-70.5 1003.68,-70.5"/>
<polygon fill="#9a32cd" stroke="#9a32cd" points="896.212,-67.0001 886.212,-70.5 896.212,-74.0001 896.212,-67.0001"/>
<text text-anchor="middle" x="945" y="-73.5" font-family="Helvetica,sans-Serif" font-size="10.00"> math</text>
</g>
<!-- Node11 -->
<g id="node7" class="node"><title>Node11</title>
<g id="a_node7"><a xlink:href="class_fifty_one_1_1_pipeline_1_1_core_1_1_typed_map_1_1_typed_key.html" target="_top" xlink:title="A key to a ITypedKeyMap data store.">
<polygon fill="none" stroke="black" points="401,-55.5 401,-85.5 544,-85.5 544,-55.5 401,-55.5"/>
<text text-anchor="start" x="409" y="-73.5" font-family="Helvetica,sans-Serif" font-size="10.00">FiftyOne.Pipeline.Core.Typed</text>
<text text-anchor="middle" x="472.5" y="-62.5" font-family="Helvetica,sans-Serif" font-size="10.00">Map.TypedKey&lt; T &gt;</text>
</a>
</g>
</g>
<!-- Node11&#45;&gt;Node10 -->
<g id="edge6" class="edge"><title>Node11&#45;&gt;Node10</title>
<path fill="none" stroke="orange" stroke-dasharray="5,2" d="M554.228,-70.5C603.945,-70.5 667.544,-70.5 717.725,-70.5"/>
<polygon fill="orange" stroke="orange" points="554.159,-67.0001 544.159,-70.5 554.159,-74.0001 554.159,-67.0001"/>
<text text-anchor="start" x="586" y="-84.5" font-family="Helvetica,sans-Serif" font-size="10.00"> &lt; FiftyOne::Pipeline</text>
<text text-anchor="middle" x="631" y="-73.5" font-family="Helvetica,sans-Serif" font-size="10.00">::Math::IMathData &gt;</text>
</g>
<!-- Node12 -->
<g id="node8" class="node"><title>Node12</title>
<g id="a_node8"><a xlink:href="interface_fifty_one_1_1_pipeline_1_1_core_1_1_typed_map_1_1_i_typed_key.html" target="_top" xlink:title="Represents a key to a ITypedKeyMap data store.">
<polygon fill="none" stroke="black" points="255.5,-61 255.5,-80 341.5,-80 341.5,-61 255.5,-61"/>
<text text-anchor="middle" x="298.5" y="-68" font-family="Helvetica,sans-Serif" font-size="10.00">ITypedKey&lt; T &gt;</text>
</a>
</g>
</g>
<!-- Node12&#45;&gt;Node11 -->
<g id="edge7" class="edge"><title>Node12&#45;&gt;Node11</title>
<path fill="none" stroke="midnightblue" d="M351.922,-70.5C367.301,-70.5 384.38,-70.5 400.704,-70.5"/>
<polygon fill="midnightblue" stroke="midnightblue" points="351.576,-67.0001 341.576,-70.5 351.576,-74.0001 351.576,-67.0001"/>
</g>
<!-- Node13 -->
<g id="node9" class="node"><title>Node13</title>
<g id="a_node9"><a xlink:href="interface_fifty_one_1_1_pipeline_1_1_core_1_1_data_1_1_i_evidence_key_filter.html" target="_top" xlink:title="Represents an object that filters evidence key names based on some criteria.">
<polygon fill="none" stroke="black" points="732,-0.5 732,-30.5 872,-30.5 872,-0.5 732,-0.5"/>
<text text-anchor="start" x="740" y="-18.5" font-family="Helvetica,sans-Serif" font-size="10.00">FiftyOne.Pipeline.Core.Data.</text>
<text text-anchor="middle" x="802" y="-7.5" font-family="Helvetica,sans-Serif" font-size="10.00">IEvidenceKeyFilter</text>
</a>
</g>
</g>
<!-- Node13&#45;&gt;Node5 -->
<g id="edge8" class="edge"><title>Node13&#45;&gt;Node5</title>
<path fill="none" stroke="#9a32cd" stroke-dasharray="5,2" d="M882.339,-31.6617C920.931,-39.523 966.88,-48.8829 1004,-56.4442"/>
<polygon fill="#9a32cd" stroke="#9a32cd" points="882.679,-28.159 872.181,-29.5924 881.281,-35.0181 882.679,-28.159"/>
<text text-anchor="middle" x="945" y="-56.5" font-family="Helvetica,sans-Serif" font-size="10.00"> EvidenceKeyFilter</text>
</g>
</g>
</svg>
