<?xml version="1.0" encoding="UTF-8" standalone="no"?>
<!DOCTYPE svg PUBLIC "-//W3C//DTD SVG 1.1//EN"
 "http://www.w3.org/Graphics/SVG/1.1/DTD/svg11.dtd">
<!-- Generated by graphviz version 2.38.0 (20140413.2041)
 -->
<!-- Title: FiftyOne.Pipeline.Core.Data.DataBase Pages: 1 -->
<svg width="638pt" height="225pt"
 viewBox="0.00 0.00 638.00 224.50" xmlns="http://www.w3.org/2000/svg" xmlns:xlink="http://www.w3.org/1999/xlink">
<g id="graph0" class="graph" transform="scale(1 1) rotate(0) translate(4 220.5)">
<title>FiftyOne.Pipeline.Core.Data.DataBase</title>
<!-- Node0 -->
<g id="node1" class="node"><title>Node0</title>
<g id="a_node1"><a xlink:title="This class stores data values as key/value pairs where the key is a string and the value can be any t...">
<polygon fill="#bfbfbf" stroke="black" points="75,-63 75,-93 215,-93 215,-63 75,-63"/>
<text text-anchor="start" x="83" y="-81" font-family="Helvetica,sans-Serif" font-size="10.00">FiftyOne.Pipeline.Core.Data.</text>
<text text-anchor="middle" x="145" y="-70" font-family="Helvetica,sans-Serif" font-size="10.00">DataBase</text>
</a>
</g>
</g>
<!-- Node2 -->
<g id="node3" class="node"><title>Node2</title>
<g id="a_node3"><a xlink:href="class_fifty_one_1_1_pipeline_1_1_core_1_1_data_1_1_element_data_base.html" target="_top" xlink:title="This class stores property values that have be determined by a specific FlowElement based on the supp...">
<polygon fill="none" stroke="black" points="251,-88 251,-118 391,-118 391,-88 251,-88"/>
<text text-anchor="start" x="259" y="-106" font-family="Helvetica,sans-Serif" font-size="10.00">FiftyOne.Pipeline.Core.Data.</text>
<text text-anchor="middle" x="321" y="-95" font-family="Helvetica,sans-Serif" font-size="10.00">ElementDataBase</text>
</a>
</g>
</g>
<!-- Node0&#45;&gt;Node2 -->
<g id="edge2" class="edge"><title>Node0&#45;&gt;Node2</title>
<path fill="none" stroke="midnightblue" d="M225.035,-89.3556C233.625,-90.5898 242.319,-91.839 250.779,-93.0545"/>
<polygon fill="midnightblue" stroke="midnightblue" points="225.415,-85.8744 215.019,-87.9166 224.42,-92.8033 225.415,-85.8744"/>
</g>
<!-- Node8 -->
<g id="node9" class="node"><title>Node8</title>
<g id="a_node9"><a xlink:href="class_fifty_one_1_1_pipeline_1_1_core_1_1_data_1_1_evidence.html" target="_top" xlink:title="This class contains the evidence that is passed in to a Pipeline as part of a FlowData object">
<polygon fill="none" stroke="black" points="251,-39 251,-69 391,-69 391,-39 251,-39"/>
<text text-anchor="start" x="259" y="-57" font-family="Helvetica,sans-Serif" font-size="10.00">FiftyOne.Pipeline.Core.Data.</text>
<text text-anchor="middle" x="321" y="-46" font-family="Helvetica,sans-Serif" font-size="10.00">Evidence</text>
</a>
</g>
</g>
<!-- Node0&#45;&gt;Node8 -->
<g id="edge8" class="edge"><title>Node0&#45;&gt;Node8</title>
<path fill="none" stroke="midnightblue" d="M225.035,-67.0986C233.625,-65.9138 242.319,-64.7146 250.779,-63.5477"/>
<polygon fill="midnightblue" stroke="midnightblue" points="224.447,-63.6465 215.019,-68.4801 225.404,-70.5808 224.447,-63.6465"/>
</g>
<!-- Node1 -->
<g id="node2" class="node"><title>Node1</title>
<g id="a_node2"><a xlink:href="interface_fifty_one_1_1_pipeline_1_1_core_1_1_data_1_1_i_data.html" target="_top" xlink:title="Represents property values">
<polygon fill="none" stroke="black" points="0,-68.5 0,-87.5 39,-87.5 39,-68.5 0,-68.5"/>
<text text-anchor="middle" x="19.5" y="-75.5" font-family="Helvetica,sans-Serif" font-size="10.00">IData</text>
</a>
</g>
</g>
<!-- Node1&#45;&gt;Node0 -->
<g id="edge1" class="edge"><title>Node1&#45;&gt;Node0</title>
<path fill="none" stroke="midnightblue" d="M49.4601,-78C57.1875,-78 65.88,-78 74.7826,-78"/>
<polygon fill="midnightblue" stroke="midnightblue" points="49.257,-74.5001 39.257,-78 49.257,-81.5001 49.257,-74.5001"/>
</g>
<!-- Node3 -->
<g id="node4" class="node"><title>Node3</title>
<g id="a_node4"><a xlink:href="class_fifty_one_1_1_pipeline_1_1_engines_1_1_data_1_1_aspect_data_base.html" target="_top" xlink:title="Base class for element data instances that are generated by an IAspectEngine.">
<polygon fill="none" stroke="black" points="462.5,-186 462.5,-216 594.5,-216 594.5,-186 462.5,-186"/>
<text text-anchor="start" x="470.5" y="-204" font-family="Helvetica,sans-Serif" font-size="10.00">FiftyOne.Pipeline.Engines.</text>
<text text-anchor="middle" x="528.5" y="-193" font-family="Helvetica,sans-Serif" font-size="10.00">Data.AspectDataBase</text>
</a>
</g>
</g>
<!-- Node2&#45;&gt;Node3 -->
<g id="edge3" class="edge"><title>Node2&#45;&gt;Node3</title>
<path fill="none" stroke="midnightblue" d="M346.739,-124.56C367.027,-141.179 397.167,-163.528 427,-177 438.117,-182.02 450.419,-186.067 462.493,-189.303"/>
<polygon fill="midnightblue" stroke="midnightblue" points="348.862,-121.773 338.941,-118.055 344.378,-127.148 348.862,-121.773"/>
</g>
<!-- Node4 -->
<g id="node5" class="node"><title>Node4</title>
<g id="a_node5"><a xlink:href="class_fifty_one_1_1_pipeline_1_1_ip_splitter_1_1_split_ip_data.html" target="_top" xlink:title=" ">
<polygon fill="none" stroke="black" points="461,-137 461,-167 596,-167 596,-137 461,-137"/>
<text text-anchor="start" x="469" y="-155" font-family="Helvetica,sans-Serif" font-size="10.00">FiftyOne.Pipeline.IpSplitter.</text>
<text text-anchor="middle" x="528.5" y="-144" font-family="Helvetica,sans-Serif" font-size="10.00">SplitIpData</text>
</a>
</g>
</g>
<!-- Node2&#45;&gt;Node4 -->
<g id="edge4" class="edge"><title>Node2&#45;&gt;Node4</title>
<path fill="none" stroke="midnightblue" d="M394.99,-120.404C417.722,-125.824 442.582,-131.752 464.566,-136.994"/>
<polygon fill="midnightblue" stroke="midnightblue" points="395.592,-116.95 385.053,-118.035 393.969,-123.759 395.592,-116.95"/>
</g>
<!-- Node5 -->
<g id="node6" class="node"><title>Node5</title>
<g id="a_node6"><a xlink:href="class_fifty_one_1_1_pipeline_1_1_java_script_builder_1_1_data_1_1_java_script_builder_element_data.html" target="_top" xlink:title=" ">
<polygon fill="none" stroke="black" points="427,-88 427,-118 630,-118 630,-88 427,-88"/>
<text text-anchor="start" x="435" y="-106" font-family="Helvetica,sans-Serif" font-size="10.00">FiftyOne.Pipeline.JavaScript</text>
<text text-anchor="middle" x="528.5" y="-95" font-family="Helvetica,sans-Serif" font-size="10.00">Builder.Data.JavaScriptBuilderElementData</text>
</a>
</g>
</g>
<!-- Node2&#45;&gt;Node5 -->
<g id="edge5" class="edge"><title>Node2&#45;&gt;Node5</title>
<path fill="none" stroke="midnightblue" d="M401.154,-103C409.584,-103 418.237,-103 426.87,-103"/>
<polygon fill="midnightblue" stroke="midnightblue" points="401,-99.5001 391,-103 401,-106.5 401,-99.5001"/>
</g>
<!-- Node6 -->
<g id="node7" class="node"><title>Node6</title>
<g id="a_node7"><a xlink:href="class_fifty_one_1_1_pipeline_1_1_json_builder_1_1_data_1_1_json_builder_element_data.html" target="_top" xlink:title="JsonBuilderElement data class.">
<polygon fill="none" stroke="black" points="455,-39 455,-69 602,-69 602,-39 455,-39"/>
<text text-anchor="start" x="463" y="-57" font-family="Helvetica,sans-Serif" font-size="10.00">FiftyOne.Pipeline.JsonBuilder.</text>
<text text-anchor="middle" x="528.5" y="-46" font-family="Helvetica,sans-Serif" font-size="10.00">Data.JsonBuilderElementData</text>
</a>
</g>
</g>
<!-- Node2&#45;&gt;Node6 -->
<g id="edge6" class="edge"><title>Node2&#45;&gt;Node6</title>
<path fill="none" stroke="midnightblue" d="M394.99,-85.5962C417.722,-80.1757 442.582,-74.248 464.566,-69.0062"/>
<polygon fill="midnightblue" stroke="midnightblue" points="393.969,-82.2413 385.053,-87.9654 395.592,-89.0505 393.969,-82.2413"/>
</g>
<!-- Node7 -->
<g id="node8" class="node"><title>Node7</title>
<g id="a_node8"><a xlink:href="class_fifty_one_1_1_pipeline_1_1_math_1_1_math_data.html" target="_top" xlink:title=" ">
<polygon fill="none" stroke="black" points="448,-0.5 448,-19.5 609,-19.5 609,-0.5 448,-0.5"/>
<text text-anchor="middle" x="528.5" y="-7.5" font-family="Helvetica,sans-Serif" font-size="10.00">FiftyOne.Pipeline.Math.MathData</text>
</a>
</g>
</g>
<!-- Node2&#45;&gt;Node7 -->
<g id="edge7" class="edge"><title>Node2&#45;&gt;Node7</title>
<path fill="none" stroke="midnightblue" d="M383.188,-83.1753C385.909,-81.5714 388.529,-79.8487 391,-78 412.637,-61.81 404.133,-43.4004 427,-29 433.461,-24.9312 440.587,-21.6931 447.972,-19.1216"/>
<polygon fill="midnightblue" stroke="midnightblue" points="381.436,-80.1423 374.223,-87.9026 384.701,-86.3342 381.436,-80.1423"/>
</g>
</g>
</svg>
