<?xml version="1.0" encoding="UTF-8" standalone="no"?>
<!DOCTYPE svg PUBLIC "-//W3C//DTD SVG 1.1//EN"
 "http://www.w3.org/Graphics/SVG/1.1/DTD/svg11.dtd">
<!-- Generated by graphviz version 2.38.0 (20140413.2041)
 -->
<!-- Title: FiftyOne.Pipeline.Engines.Data.AspectEngineDataFile Pages: 1 -->
<svg width="287pt" height="174pt"
 viewBox="0.00 0.00 287.00 174.00" xmlns="http://www.w3.org/2000/svg" xmlns:xlink="http://www.w3.org/1999/xlink">
<g id="graph0" class="graph" transform="scale(1 1) rotate(0) translate(4 170)">
<title>FiftyOne.Pipeline.Engines.Data.AspectEngineDataFile</title>
<!-- Node4 -->
<g id="node1" class="node"><title>Node4</title>
<g id="a_node1"><a xlink:title="This class contains all configuration and run&#45;time state information that is associated with a partic...">
<polygon fill="#bfbfbf" stroke="black" points="99.5,-0.5 99.5,-30.5 236.5,-30.5 236.5,-0.5 99.5,-0.5"/>
<text text-anchor="start" x="107.5" y="-18.5" font-family="Helvetica,sans-Serif" font-size="10.00">FiftyOne.Pipeline.Engines.</text>
<text text-anchor="middle" x="168" y="-7.5" font-family="Helvetica,sans-Serif" font-size="10.00">Data.AspectEngineDataFile</text>
</a>
</g>
</g>
<!-- Node5 -->
<g id="node2" class="node"><title>Node5</title>
<g id="a_node2"><a xlink:href="interface_fifty_one_1_1_pipeline_1_1_engines_1_1_data_1_1_i_aspect_engine_data_file.html" target="_top" xlink:title="Interface for the details of a data file used by an Aspect engine.">
<polygon fill="none" stroke="black" points="0,-84 0,-103 116,-103 116,-84 0,-84"/>
<text text-anchor="middle" x="58" y="-91" font-family="Helvetica,sans-Serif" font-size="10.00">IAspectEngineDataFile</text>
</a>
</g>
</g>
<!-- Node5&#45;&gt;Node4 -->
<g id="edge1" class="edge"><title>Node5&#45;&gt;Node4</title>
<path fill="none" stroke="midnightblue" d="M78.9497,-78.0257C98.7171,-64.3682 128.159,-44.0265 147.708,-30.5198"/>
<polygon fill="midnightblue" stroke="midnightblue" points="76.8562,-75.2179 70.6184,-83.7818 80.8352,-80.977 76.8562,-75.2179"/>
</g>
<!-- Node6 -->
<g id="node3" class="node"><title>Node6</title>
<g id="a_node3"><a xlink:title=" ">
<polygon fill="none" stroke="#bfbfbf" points="24.5,-146.5 24.5,-165.5 91.5,-165.5 91.5,-146.5 24.5,-146.5"/>
<text text-anchor="middle" x="58" y="-153.5" font-family="Helvetica,sans-Serif" font-size="10.00">IDisposable</text>
</a>
</g>
</g>
<!-- Node6&#45;&gt;Node5 -->
<g id="edge2" class="edge"><title>Node6&#45;&gt;Node5</title>
<path fill="none" stroke="midnightblue" d="M58,-136.003C58,-125 58,-111.682 58,-103.152"/>
<polygon fill="midnightblue" stroke="midnightblue" points="54.5001,-136.332 58,-146.332 61.5001,-136.332 54.5001,-136.332"/>
</g>
<!-- Node7 -->
<g id="node4" class="node"><title>Node7</title>
<g id="a_node4"><a xlink:href="interface_fifty_one_1_1_pipeline_1_1_engines_1_1_services_1_1_i_data_update_service.html" target="_top" xlink:title="Service that manages updates to data files that are used by IOnPremiseAspectEngine instances.">
<polygon fill="none" stroke="black" points="134.5,-78.5 134.5,-108.5 275.5,-108.5 275.5,-78.5 134.5,-78.5"/>
<text text-anchor="start" x="142.5" y="-96.5" font-family="Helvetica,sans-Serif" font-size="10.00">FiftyOne.Pipeline.Engines.</text>
<text text-anchor="middle" x="205" y="-85.5" font-family="Helvetica,sans-Serif" font-size="10.00">Services.IDataUpdateService</text>
</a>
</g>
</g>
<!-- Node7&#45;&gt;Node4 -->
<g id="edge3" class="edge"><title>Node7&#45;&gt;Node4</title>
<path fill="none" stroke="#9a32cd" stroke-dasharray="5,2" d="M193.659,-69.2047C187.542,-56.641 180.191,-41.5416 174.928,-30.7309"/>
<polygon fill="#9a32cd" stroke="#9a32cd" points="190.516,-70.7459 198.041,-78.205 196.81,-67.6818 190.516,-70.7459"/>
<text text-anchor="middle" x="234" y="-52" font-family="Helvetica,sans-Serif" font-size="10.00"> _dataUpdateService</text>
</g>
</g>
</svg>
