<?xml version="1.0" encoding="UTF-8" standalone="no"?>
<!DOCTYPE svg PUBLIC "-//W3C//DTD SVG 1.1//EN"
 "http://www.w3.org/Graphics/SVG/1.1/DTD/svg11.dtd">
<!-- Generated by graphviz version 2.38.0 (20140413.2041)
 -->
<!-- Title: FiftyOne.Pipeline.Engines.Data.AspectPropertyMetaData Pages: 1 -->
<svg width="286pt" height="151pt"
 viewBox="0.00 0.00 285.50 151.00" xmlns="http://www.w3.org/2000/svg" xmlns:xlink="http://www.w3.org/1999/xlink">
<g id="graph0" class="graph" transform="scale(1 1) rotate(0) translate(4 147)">
<title>FiftyOne.Pipeline.Engines.Data.AspectPropertyMetaData</title>
<!-- Node4 -->
<g id="node1" class="node"><title>Node4</title>
<g id="a_node1"><a xlink:title="Meta&#45;data relating to properties that are populated by Aspect Engines.">
<polygon fill="#bfbfbf" stroke="black" points="65,-0.5 65,-30.5 214,-30.5 214,-0.5 65,-0.5"/>
<text text-anchor="start" x="73" y="-18.5" font-family="Helvetica,sans-Serif" font-size="10.00">FiftyOne.Pipeline.Engines.</text>
<text text-anchor="middle" x="139.5" y="-7.5" font-family="Helvetica,sans-Serif" font-size="10.00">Data.AspectPropertyMetaData</text>
</a>
</g>
</g>
<!-- Node5 -->
<g id="node2" class="node"><title>Node5</title>
<g id="a_node2"><a xlink:href="class_fifty_one_1_1_pipeline_1_1_core_1_1_data_1_1_element_property_meta_data.html" target="_top" xlink:title="Meta&#45;data relating to properties that are populated by Flow Elements.">
<polygon fill="none" stroke="black" points="0,-67.5 0,-86.5 131,-86.5 131,-67.5 0,-67.5"/>
<text text-anchor="middle" x="65.5" y="-74.5" font-family="Helvetica,sans-Serif" font-size="10.00">ElementPropertyMetaData</text>
</a>
</g>
</g>
<!-- Node5&#45;&gt;Node4 -->
<g id="edge1" class="edge"><title>Node5&#45;&gt;Node4</title>
<path fill="none" stroke="midnightblue" d="M83.9123,-61.1955C95.5814,-51.8129 110.583,-39.7512 122.06,-30.523"/>
<polygon fill="midnightblue" stroke="midnightblue" points="81.7025,-58.4812 76.1024,-67.4751 86.0889,-63.9365 81.7025,-58.4812"/>
</g>
<!-- Node6 -->
<g id="node3" class="node"><title>Node6</title>
<g id="a_node3"><a xlink:href="interface_fifty_one_1_1_pipeline_1_1_core_1_1_data_1_1_i_element_property_meta_data.html" target="_top" xlink:title=" ">
<polygon fill="none" stroke="black" points="72.5,-123.5 72.5,-142.5 206.5,-142.5 206.5,-123.5 72.5,-123.5"/>
<text text-anchor="middle" x="139.5" y="-130.5" font-family="Helvetica,sans-Serif" font-size="10.00">IElementPropertyMetaData</text>
</a>
</g>
</g>
<!-- Node6&#45;&gt;Node5 -->
<g id="edge2" class="edge"><title>Node6&#45;&gt;Node5</title>
<path fill="none" stroke="midnightblue" d="M119.466,-117.38C106.091,-107.62 88.9412,-95.1057 77.6057,-86.8339"/>
<polygon fill="midnightblue" stroke="midnightblue" points="117.47,-120.257 127.611,-123.324 121.596,-114.602 117.47,-120.257"/>
</g>
<!-- Node7 -->
<g id="node4" class="node"><title>Node7</title>
<g id="a_node4"><a xlink:href="interface_fifty_one_1_1_pipeline_1_1_engines_1_1_data_1_1_i_aspect_property_meta_data.html" target="_top" xlink:title=" ">
<polygon fill="none" stroke="black" points="149.5,-67.5 149.5,-86.5 277.5,-86.5 277.5,-67.5 149.5,-67.5"/>
<text text-anchor="middle" x="213.5" y="-74.5" font-family="Helvetica,sans-Serif" font-size="10.00">IAspectPropertyMetaData</text>
</a>
</g>
</g>
<!-- Node6&#45;&gt;Node7 -->
<g id="edge4" class="edge"><title>Node6&#45;&gt;Node7</title>
<path fill="none" stroke="midnightblue" d="M159.534,-117.38C172.909,-107.62 190.059,-95.1057 201.394,-86.8339"/>
<polygon fill="midnightblue" stroke="midnightblue" points="157.404,-114.602 151.389,-123.324 161.53,-120.257 157.404,-114.602"/>
</g>
<!-- Node7&#45;&gt;Node4 -->
<g id="edge3" class="edge"><title>Node7&#45;&gt;Node4</title>
<path fill="none" stroke="midnightblue" d="M195.088,-61.1955C183.419,-51.8129 168.417,-39.7512 156.94,-30.523"/>
<polygon fill="midnightblue" stroke="midnightblue" points="192.911,-63.9365 202.898,-67.4751 197.298,-58.4812 192.911,-63.9365"/>
</g>
</g>
</svg>
