<?xml version="1.0" encoding="UTF-8" standalone="no"?>
<!DOCTYPE svg PUBLIC "-//W3C//DTD SVG 1.1//EN"
 "http://www.w3.org/Graphics/SVG/1.1/DTD/svg11.dtd">
<!-- Generated by graphviz version 2.38.0 (20140413.2041)
 -->
<!-- Title: FiftyOne.Pipeline.JsonBuilder.FlowElement.JsonBuilderElement Pages: 1 -->
<svg width="1205pt" height="100pt"
 viewBox="0.00 0.00 1205.00 100.00" xmlns="http://www.w3.org/2000/svg" xmlns:xlink="http://www.w3.org/1999/xlink">
<g id="graph0" class="graph" transform="scale(1 1) rotate(0) translate(4 96)">
<title>FiftyOne.Pipeline.JsonBuilder.FlowElement.JsonBuilderElement</title>
<!-- Node0 -->
<g id="node1" class="node"><title>Node0</title>
<g id="a_node1"><a xlink:title="The JsonBuilderElement takes accessible properties and adds the property key:values to the Json objec...">
<polygon fill="#bfbfbf" stroke="black" points="1035,-24 1035,-54 1197,-54 1197,-24 1035,-24"/>
<text text-anchor="start" x="1043" y="-42" font-family="Helvetica,sans-Serif" font-size="10.00">FiftyOne.Pipeline.JsonBuilder.</text>
<text text-anchor="middle" x="1116" y="-31" font-family="Helvetica,sans-Serif" font-size="10.00">FlowElement.JsonBuilderElement</text>
</a>
</g>
</g>
<!-- Node1 -->
<g id="node2" class="node"><title>Node1</title>
<g id="a_node2"><a xlink:href="class_fifty_one_1_1_pipeline_1_1_core_1_1_flow_elements_1_1_flow_element_base.html" target="_top" xlink:title=" ">
<polygon fill="none" stroke="black" points="822,-49.5 822,-90.5 998,-90.5 998,-49.5 822,-49.5"/>
<text text-anchor="start" x="830" y="-78.5" font-family="Helvetica,sans-Serif" font-size="10.00">FlowElementBase&lt; IJsonBuilder</text>
<text text-anchor="start" x="830" y="-67.5" font-family="Helvetica,sans-Serif" font-size="10.00">ElementData, IElementPropertyMeta</text>
<text text-anchor="middle" x="910" y="-56.5" font-family="Helvetica,sans-Serif" font-size="10.00">Data &gt;</text>
</a>
</g>
</g>
<!-- Node1&#45;&gt;Node0 -->
<g id="edge1" class="edge"><title>Node1&#45;&gt;Node0</title>
<path fill="none" stroke="midnightblue" d="M1008.2,-55.2301C1017.16,-53.8674 1026.18,-52.4971 1034.97,-51.1615"/>
<polygon fill="midnightblue" stroke="midnightblue" points="1007.47,-51.8006 998.106,-56.7633 1008.52,-58.7211 1007.47,-51.8006"/>
</g>
<!-- Node2 -->
<g id="node3" class="node"><title>Node2</title>
<g id="a_node3"><a xlink:href="class_fifty_one_1_1_pipeline_1_1_core_1_1_flow_elements_1_1_flow_element_base.html" target="_top" xlink:title="Abstract base class for Flow Elements.">
<polygon fill="none" stroke="black" points="516,-49.5 516,-90.5 656,-90.5 656,-49.5 516,-49.5"/>
<text text-anchor="start" x="524" y="-78.5" font-family="Helvetica,sans-Serif" font-size="10.00">FiftyOne.Pipeline.Core.Flow</text>
<text text-anchor="start" x="524" y="-67.5" font-family="Helvetica,sans-Serif" font-size="10.00">Elements.FlowElementBase</text>
<text text-anchor="middle" x="586" y="-56.5" font-family="Helvetica,sans-Serif" font-size="10.00">&lt; T, TMeta &gt;</text>
</a>
</g>
</g>
<!-- Node2&#45;&gt;Node1 -->
<g id="edge2" class="edge"><title>Node2&#45;&gt;Node1</title>
<path fill="none" stroke="orange" stroke-dasharray="5,2" d="M666.25,-70C713.445,-70 773.396,-70 821.911,-70"/>
<polygon fill="orange" stroke="orange" points="666.077,-66.5001 656.077,-70 666.077,-73.5001 666.077,-66.5001"/>
<text text-anchor="start" x="674" y="-84" font-family="Helvetica,sans-Serif" font-size="10.00"> &lt; IJsonBuilderElementData,</text>
<text text-anchor="middle" x="739" y="-73" font-family="Helvetica,sans-Serif" font-size="10.00"> IElementPropertyMetaData &gt;</text>
</g>
<!-- Node3 -->
<g id="node4" class="node"><title>Node3</title>
<g id="a_node4"><a xlink:href="interface_fifty_one_1_1_pipeline_1_1_core_1_1_flow_elements_1_1_i_flow_element.html" target="_top" xlink:title=" ">
<polygon fill="none" stroke="black" points="325.5,-60.5 325.5,-79.5 456.5,-79.5 456.5,-60.5 325.5,-60.5"/>
<text text-anchor="middle" x="391" y="-67.5" font-family="Helvetica,sans-Serif" font-size="10.00">IFlowElement&lt; T, TMeta &gt;</text>
</a>
</g>
</g>
<!-- Node3&#45;&gt;Node2 -->
<g id="edge3" class="edge"><title>Node3&#45;&gt;Node2</title>
<path fill="none" stroke="midnightblue" d="M466.975,-70C483.077,-70 500.022,-70 515.89,-70"/>
<polygon fill="midnightblue" stroke="midnightblue" points="466.535,-66.5001 456.535,-70 466.534,-73.5001 466.535,-66.5001"/>
</g>
<!-- Node4 -->
<g id="node5" class="node"><title>Node4</title>
<g id="a_node5"><a xlink:href="interface_fifty_one_1_1_pipeline_1_1_core_1_1_flow_elements_1_1_i_flow_element.html" target="_top" xlink:title="IFlowElement is the basic building block of a pipeline.">
<polygon fill="none" stroke="black" points="0,-31 0,-61 137,-61 137,-31 0,-31"/>
<text text-anchor="start" x="8" y="-49" font-family="Helvetica,sans-Serif" font-size="10.00">FiftyOne.Pipeline.Core.Flow</text>
<text text-anchor="middle" x="68.5" y="-38" font-family="Helvetica,sans-Serif" font-size="10.00">Elements.IFlowElement</text>
</a>
</g>
</g>
<!-- Node4&#45;&gt;Node3 -->
<g id="edge4" class="edge"><title>Node4&#45;&gt;Node3</title>
<path fill="none" stroke="orange" stroke-dasharray="5,2" d="M147.051,-51.8072C201.606,-55.8925 273.775,-61.2967 325.249,-65.1513"/>
<polygon fill="orange" stroke="orange" points="147.312,-48.3171 137.078,-51.0605 146.789,-55.2975 147.312,-48.3171"/>
<text text-anchor="middle" x="220" y="-64" font-family="Helvetica,sans-Serif" font-size="10.00"> &lt; T, TMeta &gt;</text>
</g>
<!-- Node6 -->
<g id="node7" class="node"><title>Node6</title>
<g id="a_node7"><a xlink:href="interface_fifty_one_1_1_pipeline_1_1_core_1_1_flow_elements_1_1_i_flow_element.html" target="_top" xlink:title=" ">
<polygon fill="none" stroke="black" points="303,-0.5 303,-41.5 479,-41.5 479,-0.5 303,-0.5"/>
<text text-anchor="start" x="311" y="-29.5" font-family="Helvetica,sans-Serif" font-size="10.00">IFlowElement&lt; IJsonBuilder</text>
<text text-anchor="start" x="311" y="-18.5" font-family="Helvetica,sans-Serif" font-size="10.00">ElementData, IElementPropertyMeta</text>
<text text-anchor="middle" x="391" y="-7.5" font-family="Helvetica,sans-Serif" font-size="10.00">Data &gt;</text>
</a>
</g>
</g>
<!-- Node4&#45;&gt;Node6 -->
<g id="edge7" class="edge"><title>Node4&#45;&gt;Node6</title>
<path fill="none" stroke="orange" stroke-dasharray="5,2" d="M136.148,-29.003C142.489,-27.8115 148.846,-26.7766 155,-26 203.685,-19.8562 258.484,-18.381 302.911,-18.5441"/>
<polygon fill="orange" stroke="orange" points="135.347,-25.5939 126.229,-30.9898 136.721,-32.4576 135.347,-25.5939"/>
<text text-anchor="start" x="155" y="-40" font-family="Helvetica,sans-Serif" font-size="10.00"> &lt; IJsonBuilderElementData,</text>
<text text-anchor="middle" x="220" y="-29" font-family="Helvetica,sans-Serif" font-size="10.00"> IElementPropertyMetaData &gt;</text>
</g>
<!-- Node5 -->
<g id="node6" class="node"><title>Node5</title>
<g id="a_node6"><a xlink:href="interface_fifty_one_1_1_pipeline_1_1_json_builder_1_1_flow_element_1_1_i_json_builder_element.html" target="_top" xlink:title=" ">
<polygon fill="none" stroke="black" points="686.5,-11.5 686.5,-30.5 791.5,-30.5 791.5,-11.5 686.5,-11.5"/>
<text text-anchor="middle" x="739" y="-18.5" font-family="Helvetica,sans-Serif" font-size="10.00">IJsonBuilderElement</text>
</a>
</g>
</g>
<!-- Node5&#45;&gt;Node0 -->
<g id="edge5" class="edge"><title>Node5&#45;&gt;Node0</title>
<path fill="none" stroke="midnightblue" d="M802.053,-23.9785C865.809,-27.0388 965.318,-31.8153 1034.96,-35.1583"/>
<polygon fill="midnightblue" stroke="midnightblue" points="801.905,-20.4675 791.748,-23.4839 801.569,-27.4594 801.905,-20.4675"/>
</g>
<!-- Node6&#45;&gt;Node5 -->
<g id="edge6" class="edge"><title>Node6&#45;&gt;Node5</title>
<path fill="none" stroke="midnightblue" d="M489.43,-21C553.446,-21 634.644,-21 686.475,-21"/>
<polygon fill="midnightblue" stroke="midnightblue" points="489.31,-17.5001 479.31,-21 489.31,-24.5001 489.31,-17.5001"/>
</g>
</g>
</svg>
