<?xml version="1.0" encoding="UTF-8" standalone="no"?>
<!DOCTYPE svg PUBLIC "-//W3C//DTD SVG 1.1//EN"
 "http://www.w3.org/Graphics/SVG/1.1/DTD/svg11.dtd">
<!-- Generated by graphviz version 2.38.0 (20140413.2041)
 -->
<!-- Title: FiftyOne.Pipeline.Engines.FiftyOne.Trackers.ShareUsageTracker Pages: 1 -->
<svg width="246pt" height="367pt"
 viewBox="0.00 0.00 245.50 367.00" xmlns="http://www.w3.org/2000/svg" xmlns:xlink="http://www.w3.org/1999/xlink">
<g id="graph0" class="graph" transform="scale(1 1) rotate(0) translate(4 363)">
<title>FiftyOne.Pipeline.Engines.FiftyOne.Trackers.ShareUsageTracker</title>
<!-- Node0 -->
<g id="node1" class="node"><title>Node0</title>
<g id="a_node1"><a xlink:title="A tracker used by share usage to attempt to avoid repeatedly sending data relating to the same user s...">
<polygon fill="#bfbfbf" stroke="black" points="55.5,-0.5 55.5,-30.5 237.5,-30.5 237.5,-0.5 55.5,-0.5"/>
<text text-anchor="start" x="63.5" y="-18.5" font-family="Helvetica,sans-Serif" font-size="10.00">FiftyOne.Pipeline.Engines.</text>
<text text-anchor="middle" x="146.5" y="-7.5" font-family="Helvetica,sans-Serif" font-size="10.00">FiftyOne.Trackers.ShareUsageTracker</text>
</a>
</g>
</g>
<!-- Node1 -->
<g id="node2" class="node"><title>Node1</title>
<g id="a_node2"><a xlink:href="class_fifty_one_1_1_pipeline_1_1_engines_1_1_trackers_1_1_tracker_base.html" target="_top" xlink:title=" ">
<polygon fill="none" stroke="black" points="80,-68.5 80,-87.5 213,-87.5 213,-68.5 80,-68.5"/>
<text text-anchor="middle" x="146.5" y="-75.5" font-family="Helvetica,sans-Serif" font-size="10.00">TrackerBase&lt; DateTime?&gt;</text>
</a>
</g>
</g>
<!-- Node1&#45;&gt;Node0 -->
<g id="edge1" class="edge"><title>Node1&#45;&gt;Node0</title>
<path fill="none" stroke="midnightblue" d="M146.5,-58.2154C146.5,-49.3565 146.5,-38.9577 146.5,-30.7587"/>
<polygon fill="midnightblue" stroke="midnightblue" points="143,-58.3318 146.5,-68.3318 150,-58.3319 143,-58.3318"/>
</g>
<!-- Node2 -->
<g id="node3" class="node"><title>Node2</title>
<g id="a_node3"><a xlink:href="class_fifty_one_1_1_pipeline_1_1_engines_1_1_trackers_1_1_tracker_base.html" target="_top" xlink:title="The abstract base class for trackers.">
<polygon fill="none" stroke="black" points="66.5,-135.5 66.5,-165.5 226.5,-165.5 226.5,-135.5 66.5,-135.5"/>
<text text-anchor="start" x="74.5" y="-153.5" font-family="Helvetica,sans-Serif" font-size="10.00">FiftyOne.Pipeline.Engines.</text>
<text text-anchor="middle" x="146.5" y="-142.5" font-family="Helvetica,sans-Serif" font-size="10.00">Trackers.TrackerBase&lt; TValue &gt;</text>
</a>
</g>
</g>
<!-- Node2&#45;&gt;Node1 -->
<g id="edge2" class="edge"><title>Node2&#45;&gt;Node1</title>
<path fill="none" stroke="orange" stroke-dasharray="5,2" d="M146.5,-125.091C146.5,-112.214 146.5,-97.1974 146.5,-87.8932"/>
<polygon fill="orange" stroke="orange" points="143,-125.233 146.5,-135.233 150,-125.233 143,-125.233"/>
<text text-anchor="middle" x="179" y="-109" font-family="Helvetica,sans-Serif" font-size="10.00"> &lt; DateTime?&gt;</text>
</g>
<!-- Node3 -->
<g id="node4" class="node"><title>Node3</title>
<g id="a_node4"><a xlink:href="class_fifty_one_1_1_pipeline_1_1_engines_1_1_caching_1_1_data_keyed_cache_base.html" target="_top" xlink:title="Abstract base class for caches that use IFlowData as the key.">
<polygon fill="none" stroke="black" points="14,-203.5 14,-233.5 129,-233.5 129,-203.5 14,-203.5"/>
<text text-anchor="start" x="22" y="-221.5" font-family="Helvetica,sans-Serif" font-size="10.00">DataKeyedCacheBase</text>
<text text-anchor="middle" x="71.5" y="-210.5" font-family="Helvetica,sans-Serif" font-size="10.00">&lt; TValue &gt;</text>
</a>
</g>
</g>
<!-- Node3&#45;&gt;Node2 -->
<g id="edge3" class="edge"><title>Node3&#45;&gt;Node2</title>
<path fill="none" stroke="midnightblue" d="M95.3427,-196.518C106.824,-186.415 120.285,-174.57 130.516,-165.566"/>
<polygon fill="midnightblue" stroke="midnightblue" points="92.9688,-193.945 87.7739,-203.179 97.5933,-199.2 92.9688,-193.945"/>
</g>
<!-- Node4 -->
<g id="node5" class="node"><title>Node4</title>
<g id="a_node5"><a xlink:href="interface_fifty_one_1_1_pipeline_1_1_engines_1_1_caching_1_1_i_data_keyed_cache.html" target="_top" xlink:title="Represents a put cache where the key is a IFlowData instance.">
<polygon fill="none" stroke="black" points="0,-271.5 0,-290.5 143,-290.5 143,-271.5 0,-271.5"/>
<text text-anchor="middle" x="71.5" y="-278.5" font-family="Helvetica,sans-Serif" font-size="10.00">IDataKeyedCache&lt; TValue &gt;</text>
</a>
</g>
</g>
<!-- Node4&#45;&gt;Node3 -->
<g id="edge4" class="edge"><title>Node4&#45;&gt;Node3</title>
<path fill="none" stroke="midnightblue" d="M71.5,-261.215C71.5,-252.356 71.5,-241.958 71.5,-233.759"/>
<polygon fill="midnightblue" stroke="midnightblue" points="68.0001,-261.332 71.5,-271.332 75.0001,-261.332 68.0001,-261.332"/>
</g>
<!-- Node5 -->
<g id="node6" class="node"><title>Node5</title>
<g id="a_node6"><a xlink:title=" ">
<polygon fill="none" stroke="#bfbfbf" points="13.5,-328.5 13.5,-358.5 129.5,-358.5 129.5,-328.5 13.5,-328.5"/>
<text text-anchor="start" x="21.5" y="-346.5" font-family="Helvetica,sans-Serif" font-size="10.00">IPutCache&lt; IFlowData,</text>
<text text-anchor="middle" x="71.5" y="-335.5" font-family="Helvetica,sans-Serif" font-size="10.00"> TValue &gt;</text>
</a>
</g>
</g>
<!-- Node5&#45;&gt;Node4 -->
<g id="edge5" class="edge"><title>Node5&#45;&gt;Node4</title>
<path fill="none" stroke="midnightblue" d="M71.5,-318.352C71.5,-308.513 71.5,-297.775 71.5,-290.54"/>
<polygon fill="midnightblue" stroke="midnightblue" points="68.0001,-318.468 71.5,-328.468 75.0001,-318.468 68.0001,-318.468"/>
</g>
<!-- Node6 -->
<g id="node7" class="node"><title>Node6</title>
<g id="a_node7"><a xlink:href="interface_fifty_one_1_1_pipeline_1_1_engines_1_1_trackers_1_1_i_tracker.html" target="_top" xlink:title=" ">
<polygon fill="none" stroke="black" points="147,-209 147,-228 198,-228 198,-209 147,-209"/>
<text text-anchor="middle" x="172.5" y="-216" font-family="Helvetica,sans-Serif" font-size="10.00">ITracker</text>
</a>
</g>
</g>
<!-- Node6&#45;&gt;Node2 -->
<g id="edge6" class="edge"><title>Node6&#45;&gt;Node2</title>
<path fill="none" stroke="midnightblue" d="M165.346,-199.34C161.165,-188.727 155.965,-175.526 152.087,-165.681"/>
<polygon fill="midnightblue" stroke="midnightblue" points="162.179,-200.85 169.101,-208.872 168.692,-198.285 162.179,-200.85"/>
</g>
</g>
</svg>
