<?xml version="1.0" encoding="UTF-8" standalone="no"?>
<!DOCTYPE svg PUBLIC "-//W3C//DTD SVG 1.1//EN"
 "http://www.w3.org/Graphics/SVG/1.1/DTD/svg11.dtd">
<!-- Generated by graphviz version 2.38.0 (20140413.2041)
 -->
<!-- Title: FiftyOne.Pipeline.Engines.FlowElements.CloudAspectEngineBase&lt; T, TMeta &gt; Pages: 1 -->
<svg width="305pt" height="342pt"
 viewBox="0.00 0.00 304.50 342.00" xmlns="http://www.w3.org/2000/svg" xmlns:xlink="http://www.w3.org/1999/xlink">
<g id="graph0" class="graph" transform="scale(1 1) rotate(0) translate(4 338)">
<title>FiftyOne.Pipeline.Engines.FlowElements.CloudAspectEngineBase&lt; T, TMeta &gt;</title>
<!-- Node0 -->
<g id="node1" class="node"><title>Node0</title>
<g id="a_node1"><a xlink:title="Base class for 51Degrees cloud aspect engines.">
<polygon fill="#bfbfbf" stroke="black" points="80,-0.5 80,-41.5 247,-41.5 247,-0.5 80,-0.5"/>
<text text-anchor="start" x="88" y="-29.5" font-family="Helvetica,sans-Serif" font-size="10.00">FiftyOne.Pipeline.Engines.</text>
<text text-anchor="start" x="88" y="-18.5" font-family="Helvetica,sans-Serif" font-size="10.00">FlowElements.CloudAspectEngine</text>
<text text-anchor="middle" x="163.5" y="-7.5" font-family="Helvetica,sans-Serif" font-size="10.00">Base&lt; T, TMeta &gt;</text>
</a>
</g>
</g>
<!-- Node1 -->
<g id="node2" class="node"><title>Node1</title>
<g id="a_node2"><a xlink:href="class_fifty_one_1_1_pipeline_1_1_engines_1_1_flow_elements_1_1_aspect_engine_base.html" target="_top" xlink:title="Base class for 51Degrees aspect engines.">
<polygon fill="none" stroke="black" points="105,-79.5 105,-109.5 222,-109.5 222,-79.5 105,-79.5"/>
<text text-anchor="start" x="113" y="-97.5" font-family="Helvetica,sans-Serif" font-size="10.00">AspectEngineBase&lt; T,</text>
<text text-anchor="middle" x="163.5" y="-86.5" font-family="Helvetica,sans-Serif" font-size="10.00"> TMeta &gt;</text>
</a>
</g>
</g>
<!-- Node1&#45;&gt;Node0 -->
<g id="edge1" class="edge"><title>Node1&#45;&gt;Node0</title>
<path fill="none" stroke="midnightblue" d="M163.5,-69.1008C163.5,-60.0979 163.5,-50.0235 163.5,-41.5096"/>
<polygon fill="midnightblue" stroke="midnightblue" points="160,-69.3739 163.5,-79.3739 167,-69.3739 160,-69.3739"/>
</g>
<!-- Node2 -->
<g id="node3" class="node"><title>Node2</title>
<g id="a_node3"><a xlink:href="class_fifty_one_1_1_pipeline_1_1_core_1_1_flow_elements_1_1_flow_element_base.html" target="_top" xlink:title="Abstract base class for Flow Elements.">
<polygon fill="none" stroke="black" points="17,-147.5 17,-177.5 130,-177.5 130,-147.5 17,-147.5"/>
<text text-anchor="start" x="25" y="-165.5" font-family="Helvetica,sans-Serif" font-size="10.00">FlowElementBase&lt; T,</text>
<text text-anchor="middle" x="73.5" y="-154.5" font-family="Helvetica,sans-Serif" font-size="10.00"> TMeta &gt;</text>
</a>
</g>
</g>
<!-- Node2&#45;&gt;Node1 -->
<g id="edge2" class="edge"><title>Node2&#45;&gt;Node1</title>
<path fill="none" stroke="midnightblue" d="M101.319,-141.099C115.267,-130.871 131.805,-118.743 144.319,-109.566"/>
<polygon fill="midnightblue" stroke="midnightblue" points="99.0229,-138.443 93.0287,-147.179 103.163,-144.088 99.0229,-138.443"/>
</g>
<!-- Node3 -->
<g id="node4" class="node"><title>Node3</title>
<g id="a_node4"><a xlink:href="interface_fifty_one_1_1_pipeline_1_1_core_1_1_flow_elements_1_1_i_flow_element.html" target="_top" xlink:title=" ">
<polygon fill="none" stroke="black" points="3,-231 3,-250 134,-250 134,-231 3,-231"/>
<text text-anchor="middle" x="68.5" y="-238" font-family="Helvetica,sans-Serif" font-size="10.00">IFlowElement&lt; T, TMeta &gt;</text>
</a>
</g>
</g>
<!-- Node3&#45;&gt;Node2 -->
<g id="edge3" class="edge"><title>Node3&#45;&gt;Node2</title>
<path fill="none" stroke="midnightblue" d="M69.7315,-220.782C70.6116,-207.404 71.7771,-189.688 72.5776,-177.52"/>
<polygon fill="midnightblue" stroke="midnightblue" points="66.2377,-220.574 69.0736,-230.782 73.2226,-221.033 66.2377,-220.574"/>
</g>
<!-- Node4 -->
<g id="node5" class="node"><title>Node4</title>
<g id="a_node5"><a xlink:href="interface_fifty_one_1_1_pipeline_1_1_core_1_1_flow_elements_1_1_i_flow_element.html" target="_top" xlink:title="IFlowElement is the basic building block of a pipeline.">
<polygon fill="none" stroke="black" points="0,-303.5 0,-333.5 137,-333.5 137,-303.5 0,-303.5"/>
<text text-anchor="start" x="8" y="-321.5" font-family="Helvetica,sans-Serif" font-size="10.00">FiftyOne.Pipeline.Core.Flow</text>
<text text-anchor="middle" x="68.5" y="-310.5" font-family="Helvetica,sans-Serif" font-size="10.00">Elements.IFlowElement</text>
</a>
</g>
</g>
<!-- Node4&#45;&gt;Node3 -->
<g id="edge4" class="edge"><title>Node4&#45;&gt;Node3</title>
<path fill="none" stroke="orange" stroke-dasharray="5,2" d="M68.5,-293.165C68.5,-278.396 68.5,-260.448 68.5,-250.064"/>
<polygon fill="orange" stroke="orange" points="65.0001,-293.205 68.5,-303.205 72.0001,-293.205 65.0001,-293.205"/>
<text text-anchor="middle" x="98.5" y="-277" font-family="Helvetica,sans-Serif" font-size="10.00"> &lt; T, TMeta &gt;</text>
</g>
<!-- Node5 -->
<g id="node6" class="node"><title>Node5</title>
<g id="a_node6"><a xlink:href="interface_fifty_one_1_1_pipeline_1_1_engines_1_1_flow_elements_1_1_i_aspect_engine.html" target="_top" xlink:title=" ">
<polygon fill="none" stroke="black" points="154.5,-153 154.5,-172 290.5,-172 290.5,-153 154.5,-153"/>
<text text-anchor="middle" x="222.5" y="-160" font-family="Helvetica,sans-Serif" font-size="10.00">IAspectEngine&lt; T, TMeta &gt;</text>
</a>
</g>
</g>
<!-- Node5&#45;&gt;Node1 -->
<g id="edge5" class="edge"><title>Node5&#45;&gt;Node1</title>
<path fill="none" stroke="midnightblue" d="M208.017,-145.299C198.265,-134.39 185.528,-120.141 176.177,-109.681"/>
<polygon fill="midnightblue" stroke="midnightblue" points="205.513,-147.749 214.787,-152.872 210.731,-143.084 205.513,-147.749"/>
</g>
<!-- Node6 -->
<g id="node7" class="node"><title>Node6</title>
<g id="a_node7"><a xlink:href="interface_fifty_one_1_1_pipeline_1_1_engines_1_1_flow_elements_1_1_i_aspect_engine.html" target="_top" xlink:title="Interface representing 51Degrees on&#45;premise aspect engines.">
<polygon fill="none" stroke="black" points="152.5,-225.5 152.5,-255.5 296.5,-255.5 296.5,-225.5 152.5,-225.5"/>
<text text-anchor="start" x="160.5" y="-243.5" font-family="Helvetica,sans-Serif" font-size="10.00">FiftyOne.Pipeline.Engines.</text>
<text text-anchor="middle" x="224.5" y="-232.5" font-family="Helvetica,sans-Serif" font-size="10.00">FlowElements.IAspectEngine</text>
</a>
</g>
</g>
<!-- Node6&#45;&gt;Node5 -->
<g id="edge6" class="edge"><title>Node6&#45;&gt;Node5</title>
<path fill="none" stroke="orange" stroke-dasharray="5,2" d="M223.86,-215.165C223.471,-200.396 222.999,-182.448 222.725,-172.064"/>
<polygon fill="orange" stroke="orange" points="220.362,-215.301 224.124,-225.205 227.359,-215.116 220.362,-215.301"/>
<text text-anchor="middle" x="253.5" y="-199" font-family="Helvetica,sans-Serif" font-size="10.00"> &lt; T, TMeta &gt;</text>
</g>
</g>
</svg>
