<?xml version="1.0" encoding="UTF-8" standalone="no"?>
<!DOCTYPE svg PUBLIC "-//W3C//DTD SVG 1.1//EN"
 "http://www.w3.org/Graphics/SVG/1.1/DTD/svg11.dtd">
<!-- Generated by graphviz version 2.38.0 (20140413.2041)
 -->
<!-- Title: FiftyOne.Pipeline.Core.FlowElements.PipelineBuilderBase&lt; T &gt; Pages: 1 -->
<svg width="855pt" height="122pt"
 viewBox="0.00 0.00 855.00 121.50" xmlns="http://www.w3.org/2000/svg" xmlns:xlink="http://www.w3.org/1999/xlink">
<g id="graph0" class="graph" transform="scale(1 1) rotate(0) translate(4 117.5)">
<title>FiftyOne.Pipeline.Core.FlowElements.PipelineBuilderBase&lt; T &gt;</title>
<!-- Node0 -->
<g id="node1" class="node"><title>Node0</title>
<g id="a_node1"><a xlink:title="Abstract pipeline builder base class">
<polygon fill="#bfbfbf" stroke="black" points="0,-48.5 0,-78.5 171,-78.5 171,-48.5 0,-48.5"/>
<text text-anchor="start" x="8" y="-66.5" font-family="Helvetica,sans-Serif" font-size="10.00">FiftyOne.Pipeline.Core.Flow</text>
<text text-anchor="middle" x="85.5" y="-55.5" font-family="Helvetica,sans-Serif" font-size="10.00">Elements.PipelineBuilderBase&lt; T &gt;</text>
</a>
</g>
</g>
<!-- Node1 -->
<g id="node2" class="node"><title>Node1</title>
<g id="a_node2"><a xlink:href="class_fifty_one_1_1_pipeline_1_1_core_1_1_flow_elements_1_1_pipeline_builder_base.html" target="_top" xlink:title=" ">
<polygon fill="none" stroke="black" points="293,-70 293,-111 441,-111 441,-70 293,-70"/>
<text text-anchor="start" x="301" y="-99" font-family="Helvetica,sans-Serif" font-size="10.00">FiftyOne.Pipeline.Core.Flow</text>
<text text-anchor="start" x="301" y="-88" font-family="Helvetica,sans-Serif" font-size="10.00">Elements.PipelineBuilderBase</text>
<text text-anchor="middle" x="367" y="-77" font-family="Helvetica,sans-Serif" font-size="10.00">&lt; PipelineBuilder &gt;</text>
</a>
</g>
</g>
<!-- Node0&#45;&gt;Node1 -->
<g id="edge1" class="edge"><title>Node0&#45;&gt;Node1</title>
<path fill="none" stroke="orange" stroke-dasharray="5,2" d="M181.24,-72.652C217.59,-76.1635 258.489,-80.1143 292.549,-83.4046"/>
<polygon fill="orange" stroke="orange" points="181.408,-69.152 171.118,-71.6742 180.735,-76.1196 181.408,-69.152"/>
<text text-anchor="middle" x="232" y="-83.5" font-family="Helvetica,sans-Serif" font-size="10.00"> &lt; PipelineBuilder &gt;</text>
</g>
<!-- Node4 -->
<g id="node5" class="node"><title>Node4</title>
<g id="a_node5"><a xlink:href="class_fifty_one_1_1_pipeline_1_1_core_1_1_flow_elements_1_1_pipeline_builder_base.html" target="_top" xlink:title=" ">
<polygon fill="none" stroke="black" points="293,-10 293,-51 441,-51 441,-10 293,-10"/>
<text text-anchor="start" x="301" y="-39" font-family="Helvetica,sans-Serif" font-size="10.00">FiftyOne.Pipeline.Core.Flow</text>
<text text-anchor="start" x="301" y="-28" font-family="Helvetica,sans-Serif" font-size="10.00">Elements.PipelineBuilderBase</text>
<text text-anchor="middle" x="367" y="-17" font-family="Helvetica,sans-Serif" font-size="10.00">&lt; TBuilder &gt;</text>
</a>
</g>
</g>
<!-- Node0&#45;&gt;Node4 -->
<g id="edge4" class="edge"><title>Node0&#45;&gt;Node4</title>
<path fill="none" stroke="orange" stroke-dasharray="5,2" d="M181.24,-52.3142C217.59,-48.0224 258.489,-43.1936 292.549,-39.1722"/>
<polygon fill="orange" stroke="orange" points="180.638,-48.8609 171.118,-53.5094 181.459,-55.8126 180.638,-48.8609"/>
<text text-anchor="middle" x="232" y="-54.5" font-family="Helvetica,sans-Serif" font-size="10.00"> &lt; TBuilder &gt;</text>
</g>
<!-- Node2 -->
<g id="node3" class="node"><title>Node2</title>
<g id="a_node3"><a xlink:href="class_fifty_one_1_1_pipeline_1_1_core_1_1_flow_elements_1_1_pipeline_builder.html" target="_top" xlink:title="Default pipeline builder.">
<polygon fill="none" stroke="black" points="496.5,-76.5 496.5,-106.5 633.5,-106.5 633.5,-76.5 496.5,-76.5"/>
<text text-anchor="start" x="504.5" y="-94.5" font-family="Helvetica,sans-Serif" font-size="10.00">FiftyOne.Pipeline.Core.Flow</text>
<text text-anchor="middle" x="565" y="-83.5" font-family="Helvetica,sans-Serif" font-size="10.00">Elements.PipelineBuilder</text>
</a>
</g>
</g>
<!-- Node1&#45;&gt;Node2 -->
<g id="edge2" class="edge"><title>Node1&#45;&gt;Node2</title>
<path fill="none" stroke="midnightblue" d="M451.523,-90.9261C466.477,-91.0024 481.891,-91.0811 496.33,-91.1547"/>
<polygon fill="midnightblue" stroke="midnightblue" points="451.28,-87.4249 441.262,-90.8738 451.244,-94.4249 451.28,-87.4249"/>
</g>
<!-- Node3 -->
<g id="node4" class="node"><title>Node3</title>
<g id="a_node4"><a xlink:href="class_fifty_one_1_1_pipeline_1_1_engines_1_1_fifty_one_1_1_flow_elements_1_1_fifty_one_pipeline_builder.html" target="_top" xlink:title="Pipeline builder class that allows the 51Degrees share usage element to be enabled/disabled.">
<polygon fill="none" stroke="black" points="689,-72 689,-113 847,-113 847,-72 689,-72"/>
<text text-anchor="start" x="697" y="-101" font-family="Helvetica,sans-Serif" font-size="10.00">FiftyOne.Pipeline.Engines.</text>
<text text-anchor="start" x="697" y="-90" font-family="Helvetica,sans-Serif" font-size="10.00">FiftyOne.FlowElements.FiftyOne</text>
<text text-anchor="middle" x="768" y="-79" font-family="Helvetica,sans-Serif" font-size="10.00">PipelineBuilder</text>
</a>
</g>
</g>
<!-- Node2&#45;&gt;Node3 -->
<g id="edge3" class="edge"><title>Node2&#45;&gt;Node3</title>
<path fill="none" stroke="midnightblue" d="M643.849,-91.8873C658.591,-91.9607 674.019,-92.0374 688.773,-92.1108"/>
<polygon fill="midnightblue" stroke="midnightblue" points="643.787,-88.3871 633.769,-91.8372 643.752,-95.387 643.787,-88.3871"/>
</g>
<!-- Node5 -->
<g id="node6" class="node"><title>Node5</title>
<g id="a_node6"><a xlink:href="class_fifty_one_1_1_pipeline_1_1_engines_1_1_flow_elements_1_1_pre_packaged_pipeline_builder_base.html" target="_top" xlink:title="Base class for pipeline builders that will produce a pipeline with specific flow elements.">
<polygon fill="none" stroke="black" points="478,-9 478,-50 652,-50 652,-9 478,-9"/>
<text text-anchor="start" x="486" y="-38" font-family="Helvetica,sans-Serif" font-size="10.00">FiftyOne.Pipeline.Engines.</text>
<text text-anchor="start" x="486" y="-27" font-family="Helvetica,sans-Serif" font-size="10.00">FlowElements.PrePackagedPipeline</text>
<text text-anchor="middle" x="565" y="-16" font-family="Helvetica,sans-Serif" font-size="10.00">BuilderBase&lt; TBuilder &gt;</text>
</a>
</g>
</g>
<!-- Node4&#45;&gt;Node5 -->
<g id="edge5" class="edge"><title>Node4&#45;&gt;Node5</title>
<path fill="none" stroke="midnightblue" d="M451.461,-30.0742C460.226,-30.0295 469.15,-29.9839 477.944,-29.9391"/>
<polygon fill="midnightblue" stroke="midnightblue" points="451.244,-26.5751 441.262,-30.1262 451.28,-33.5751 451.244,-26.5751"/>
</g>
<!-- Node6 -->
<g id="node7" class="node"><title>Node6</title>
<g id="a_node7"><a xlink:href="class_fifty_one_1_1_pipeline_1_1_engines_1_1_flow_elements_1_1_cloud_pipeline_builder_base.html" target="_top" xlink:title="Base class for cloud pipeline builders.">
<polygon fill="none" stroke="black" points="701,-0.5 701,-52.5 835,-52.5 835,-0.5 701,-0.5"/>
<text text-anchor="start" x="709" y="-40.5" font-family="Helvetica,sans-Serif" font-size="10.00">FiftyOne::Pipeline</text>
<text text-anchor="start" x="709" y="-29.5" font-family="Helvetica,sans-Serif" font-size="10.00">::Engines::FlowElements</text>
<text text-anchor="start" x="709" y="-18.5" font-family="Helvetica,sans-Serif" font-size="10.00">::CloudPipelineBuilderBase</text>
<text text-anchor="middle" x="768" y="-7.5" font-family="Helvetica,sans-Serif" font-size="10.00">&lt; TBuilder &gt;</text>
</a>
</g>
</g>
<!-- Node5&#45;&gt;Node6 -->
<g id="edge6" class="edge"><title>Node5&#45;&gt;Node6</title>
<path fill="none" stroke="midnightblue" d="M662.485,-28.0599C675.459,-27.8663 688.522,-27.6713 700.807,-27.488"/>
<polygon fill="midnightblue" stroke="midnightblue" points="662.063,-24.5657 652.117,-28.2147 662.168,-31.565 662.063,-24.5657"/>
</g>
</g>
</svg>
