<?xml version="1.0" encoding="UTF-8" standalone="no"?>
<!DOCTYPE svg PUBLIC "-//W3C//DTD SVG 1.1//EN"
 "http://www.w3.org/Graphics/SVG/1.1/DTD/svg11.dtd">
<!-- Generated by graphviz version 2.38.0 (20140413.2041)
 -->
<!-- Title: FiftyOne.Pipeline.Engines.Trackers.TrackerBase&lt; TValue &gt; Pages: 1 -->
<svg width="246pt" height="378pt"
 viewBox="0.00 0.00 245.50 378.00" xmlns="http://www.w3.org/2000/svg" xmlns:xlink="http://www.w3.org/1999/xlink">
<g id="graph0" class="graph" transform="scale(1 1) rotate(0) translate(4 374)">
<title>FiftyOne.Pipeline.Engines.Trackers.TrackerBase&lt; TValue &gt;</title>
<!-- Node0 -->
<g id="node1" class="node"><title>Node0</title>
<g id="a_node1"><a xlink:title="The abstract base class for trackers.">
<polygon fill="#bfbfbf" stroke="black" points="66.5,-146.5 66.5,-176.5 226.5,-176.5 226.5,-146.5 66.5,-146.5"/>
<text text-anchor="start" x="74.5" y="-164.5" font-family="Helvetica,sans-Serif" font-size="10.00">FiftyOne.Pipeline.Engines.</text>
<text text-anchor="middle" x="146.5" y="-153.5" font-family="Helvetica,sans-Serif" font-size="10.00">Trackers.TrackerBase&lt; TValue &gt;</text>
</a>
</g>
</g>
<!-- Node5 -->
<g id="node6" class="node"><title>Node5</title>
<g id="a_node6"><a xlink:href="class_fifty_one_1_1_pipeline_1_1_engines_1_1_trackers_1_1_tracker_base.html" target="_top" xlink:title=" ">
<polygon fill="none" stroke="black" points="60,-68.5 60,-98.5 233,-98.5 233,-68.5 60,-68.5"/>
<text text-anchor="start" x="68" y="-86.5" font-family="Helvetica,sans-Serif" font-size="10.00">FiftyOne.Pipeline.Engines.</text>
<text text-anchor="middle" x="146.5" y="-75.5" font-family="Helvetica,sans-Serif" font-size="10.00">Trackers.TrackerBase&lt; DateTime?&gt;</text>
</a>
</g>
</g>
<!-- Node0&#45;&gt;Node5 -->
<g id="edge5" class="edge"><title>Node0&#45;&gt;Node5</title>
<path fill="none" stroke="orange" stroke-dasharray="5,2" d="M146.5,-136.09C146.5,-123.757 146.5,-109.224 146.5,-98.7309"/>
<polygon fill="orange" stroke="orange" points="143,-136.205 146.5,-146.205 150,-136.205 143,-136.205"/>
<text text-anchor="middle" x="179" y="-120" font-family="Helvetica,sans-Serif" font-size="10.00"> &lt; DateTime?&gt;</text>
</g>
<!-- Node1 -->
<g id="node2" class="node"><title>Node1</title>
<g id="a_node2"><a xlink:href="class_fifty_one_1_1_pipeline_1_1_engines_1_1_caching_1_1_data_keyed_cache_base.html" target="_top" xlink:title="Abstract base class for caches that use IFlowData as the key.">
<polygon fill="none" stroke="black" points="14,-214.5 14,-244.5 129,-244.5 129,-214.5 14,-214.5"/>
<text text-anchor="start" x="22" y="-232.5" font-family="Helvetica,sans-Serif" font-size="10.00">DataKeyedCacheBase</text>
<text text-anchor="middle" x="71.5" y="-221.5" font-family="Helvetica,sans-Serif" font-size="10.00">&lt; TValue &gt;</text>
</a>
</g>
</g>
<!-- Node1&#45;&gt;Node0 -->
<g id="edge1" class="edge"><title>Node1&#45;&gt;Node0</title>
<path fill="none" stroke="midnightblue" d="M95.3427,-207.518C106.824,-197.415 120.285,-185.57 130.516,-176.566"/>
<polygon fill="midnightblue" stroke="midnightblue" points="92.9688,-204.945 87.7739,-214.179 97.5933,-210.2 92.9688,-204.945"/>
</g>
<!-- Node2 -->
<g id="node3" class="node"><title>Node2</title>
<g id="a_node3"><a xlink:href="interface_fifty_one_1_1_pipeline_1_1_engines_1_1_caching_1_1_i_data_keyed_cache.html" target="_top" xlink:title="Represents a put cache where the key is a IFlowData instance.">
<polygon fill="none" stroke="black" points="0,-282.5 0,-301.5 143,-301.5 143,-282.5 0,-282.5"/>
<text text-anchor="middle" x="71.5" y="-289.5" font-family="Helvetica,sans-Serif" font-size="10.00">IDataKeyedCache&lt; TValue &gt;</text>
</a>
</g>
</g>
<!-- Node2&#45;&gt;Node1 -->
<g id="edge2" class="edge"><title>Node2&#45;&gt;Node1</title>
<path fill="none" stroke="midnightblue" d="M71.5,-272.215C71.5,-263.356 71.5,-252.958 71.5,-244.759"/>
<polygon fill="midnightblue" stroke="midnightblue" points="68.0001,-272.332 71.5,-282.332 75.0001,-272.332 68.0001,-272.332"/>
</g>
<!-- Node3 -->
<g id="node4" class="node"><title>Node3</title>
<g id="a_node4"><a xlink:title=" ">
<polygon fill="none" stroke="#bfbfbf" points="13.5,-339.5 13.5,-369.5 129.5,-369.5 129.5,-339.5 13.5,-339.5"/>
<text text-anchor="start" x="21.5" y="-357.5" font-family="Helvetica,sans-Serif" font-size="10.00">IPutCache&lt; IFlowData,</text>
<text text-anchor="middle" x="71.5" y="-346.5" font-family="Helvetica,sans-Serif" font-size="10.00"> TValue &gt;</text>
</a>
</g>
</g>
<!-- Node3&#45;&gt;Node2 -->
<g id="edge3" class="edge"><title>Node3&#45;&gt;Node2</title>
<path fill="none" stroke="midnightblue" d="M71.5,-329.352C71.5,-319.513 71.5,-308.775 71.5,-301.54"/>
<polygon fill="midnightblue" stroke="midnightblue" points="68.0001,-329.468 71.5,-339.468 75.0001,-329.468 68.0001,-329.468"/>
</g>
<!-- Node4 -->
<g id="node5" class="node"><title>Node4</title>
<g id="a_node5"><a xlink:href="interface_fifty_one_1_1_pipeline_1_1_engines_1_1_trackers_1_1_i_tracker.html" target="_top" xlink:title=" ">
<polygon fill="none" stroke="black" points="147,-220 147,-239 198,-239 198,-220 147,-220"/>
<text text-anchor="middle" x="172.5" y="-227" font-family="Helvetica,sans-Serif" font-size="10.00">ITracker</text>
</a>
</g>
</g>
<!-- Node4&#45;&gt;Node0 -->
<g id="edge4" class="edge"><title>Node4&#45;&gt;Node0</title>
<path fill="none" stroke="midnightblue" d="M165.346,-210.34C161.165,-199.727 155.965,-186.526 152.087,-176.681"/>
<polygon fill="midnightblue" stroke="midnightblue" points="162.179,-211.85 169.101,-219.872 168.692,-209.285 162.179,-211.85"/>
</g>
<!-- Node6 -->
<g id="node7" class="node"><title>Node6</title>
<g id="a_node7"><a xlink:href="class_fifty_one_1_1_pipeline_1_1_engines_1_1_fifty_one_1_1_trackers_1_1_share_usage_tracker.html" target="_top" xlink:title="A tracker used by share usage to attempt to avoid repeatedly sending data relating to the same user s...">
<polygon fill="none" stroke="black" points="55.5,-0.5 55.5,-30.5 237.5,-30.5 237.5,-0.5 55.5,-0.5"/>
<text text-anchor="start" x="63.5" y="-18.5" font-family="Helvetica,sans-Serif" font-size="10.00">FiftyOne.Pipeline.Engines.</text>
<text text-anchor="middle" x="146.5" y="-7.5" font-family="Helvetica,sans-Serif" font-size="10.00">FiftyOne.Trackers.ShareUsageTracker</text>
</a>
</g>
</g>
<!-- Node5&#45;&gt;Node6 -->
<g id="edge6" class="edge"><title>Node5&#45;&gt;Node6</title>
<path fill="none" stroke="midnightblue" d="M146.5,-58.0322C146.5,-48.8606 146.5,-38.7449 146.5,-30.7931"/>
<polygon fill="midnightblue" stroke="midnightblue" points="143,-58.1789 146.5,-68.179 150,-58.179 143,-58.1789"/>
</g>
</g>
</svg>
