<?xml version="1.0" encoding="UTF-8" standalone="no"?>
<!DOCTYPE svg PUBLIC "-//W3C//DTD SVG 1.1//EN"
 "http://www.w3.org/Graphics/SVG/1.1/DTD/svg11.dtd">
<!-- Generated by graphviz version 2.38.0 (20140413.2041)
 -->
<!-- Title: FiftyOne.Pipeline.Engines.Trackers.TrackerBase&lt; TValue &gt; Pages: 1 -->
<svg width="210pt" height="229pt"
 viewBox="0.00 0.00 209.50 229.00" xmlns="http://www.w3.org/2000/svg" xmlns:xlink="http://www.w3.org/1999/xlink">
<g id="graph0" class="graph" transform="scale(1 1) rotate(0) translate(4 225)">
<title>FiftyOne.Pipeline.Engines.Trackers.TrackerBase&lt; TValue &gt;</title>
<!-- Node7 -->
<g id="node1" class="node"><title>Node7</title>
<g id="a_node1"><a xlink:title="The abstract base class for trackers.">
<polygon fill="#bfbfbf" stroke="black" points="41.5,-0.5 41.5,-30.5 201.5,-30.5 201.5,-0.5 41.5,-0.5"/>
<text text-anchor="start" x="49.5" y="-18.5" font-family="Helvetica,sans-Serif" font-size="10.00">FiftyOne.Pipeline.Engines.</text>
<text text-anchor="middle" x="121.5" y="-7.5" font-family="Helvetica,sans-Serif" font-size="10.00">Trackers.TrackerBase&lt; TValue &gt;</text>
</a>
</g>
</g>
<!-- Node8 -->
<g id="node2" class="node"><title>Node8</title>
<g id="a_node2"><a xlink:href="class_fifty_one_1_1_pipeline_1_1_engines_1_1_caching_1_1_data_keyed_cache_base.html" target="_top" xlink:title="Abstract base class for caches that use IFlowData as the key.">
<polygon fill="none" stroke="black" points="14,-67.5 14,-97.5 129,-97.5 129,-67.5 14,-67.5"/>
<text text-anchor="start" x="22" y="-85.5" font-family="Helvetica,sans-Serif" font-size="10.00">DataKeyedCacheBase</text>
<text text-anchor="middle" x="71.5" y="-74.5" font-family="Helvetica,sans-Serif" font-size="10.00">&lt; TValue &gt;</text>
</a>
</g>
</g>
<!-- Node8&#45;&gt;Node7 -->
<g id="edge1" class="edge"><title>Node8&#45;&gt;Node7</title>
<path fill="none" stroke="midnightblue" d="M88.4637,-59.4472C95.8087,-49.8986 104.189,-39.0037 110.672,-30.5765"/>
<polygon fill="midnightblue" stroke="midnightblue" points="85.6722,-57.3357 82.3493,-67.396 91.2206,-61.6037 85.6722,-57.3357"/>
</g>
<!-- Node9 -->
<g id="node3" class="node"><title>Node9</title>
<g id="a_node3"><a xlink:href="interface_fifty_one_1_1_pipeline_1_1_engines_1_1_caching_1_1_i_data_keyed_cache.html" target="_top" xlink:title="Represents a put cache where the key is a IFlowData instance.">
<polygon fill="none" stroke="black" points="0,-134.5 0,-153.5 143,-153.5 143,-134.5 0,-134.5"/>
<text text-anchor="middle" x="71.5" y="-141.5" font-family="Helvetica,sans-Serif" font-size="10.00">IDataKeyedCache&lt; TValue &gt;</text>
</a>
</g>
</g>
<!-- Node9&#45;&gt;Node8 -->
<g id="edge2" class="edge"><title>Node9&#45;&gt;Node8</title>
<path fill="none" stroke="midnightblue" d="M71.5,-124.235C71.5,-115.586 71.5,-105.497 71.5,-97.523"/>
<polygon fill="midnightblue" stroke="midnightblue" points="68.0001,-124.475 71.5,-134.475 75.0001,-124.475 68.0001,-124.475"/>
</g>
<!-- Node10 -->
<g id="node4" class="node"><title>Node10</title>
<g id="a_node4"><a xlink:title=" ">
<polygon fill="none" stroke="#bfbfbf" points="13.5,-190.5 13.5,-220.5 129.5,-220.5 129.5,-190.5 13.5,-190.5"/>
<text text-anchor="start" x="21.5" y="-208.5" font-family="Helvetica,sans-Serif" font-size="10.00">IPutCache&lt; IFlowData,</text>
<text text-anchor="middle" x="71.5" y="-197.5" font-family="Helvetica,sans-Serif" font-size="10.00"> TValue &gt;</text>
</a>
</g>
</g>
<!-- Node10&#45;&gt;Node9 -->
<g id="edge3" class="edge"><title>Node10&#45;&gt;Node9</title>
<path fill="none" stroke="midnightblue" d="M71.5,-180.289C71.5,-170.857 71.5,-160.655 71.5,-153.658"/>
<polygon fill="midnightblue" stroke="midnightblue" points="68.0001,-180.399 71.5,-190.399 75.0001,-180.399 68.0001,-180.399"/>
</g>
<!-- Node11 -->
<g id="node5" class="node"><title>Node11</title>
<g id="a_node5"><a xlink:href="interface_fifty_one_1_1_pipeline_1_1_engines_1_1_trackers_1_1_i_tracker.html" target="_top" xlink:title=" ">
<polygon fill="none" stroke="black" points="147,-73 147,-92 198,-92 198,-73 147,-73"/>
<text text-anchor="middle" x="172.5" y="-80" font-family="Helvetica,sans-Serif" font-size="10.00">ITracker</text>
</a>
</g>
</g>
<!-- Node11&#45;&gt;Node7 -->
<g id="edge4" class="edge"><title>Node11&#45;&gt;Node7</title>
<path fill="none" stroke="midnightblue" d="M159.297,-64.6729C150.997,-54.0939 140.411,-40.6019 132.554,-30.589"/>
<polygon fill="midnightblue" stroke="midnightblue" points="156.695,-67.0269 165.622,-72.7338 162.203,-62.7059 156.695,-67.0269"/>
</g>
</g>
</svg>
