<?xml version="1.0" encoding="UTF-8" standalone="no"?>
<!DOCTYPE svg PUBLIC "-//W3C//DTD SVG 1.1//EN"
 "http://www.w3.org/Graphics/SVG/1.1/DTD/svg11.dtd">
<!-- Generated by graphviz version 2.38.0 (20140413.2041)
 -->
<!-- Title: FiftyOne.Pipeline.Engines.FiftyOne.FlowElements.FiftyOneOnPremiseAspectEngineBase&lt; T &gt; Pages: 1 -->
<svg width="1550pt" height="123pt"
 viewBox="0.00 0.00 1550.00 122.50" xmlns="http://www.w3.org/2000/svg" xmlns:xlink="http://www.w3.org/1999/xlink">
<g id="graph0" class="graph" transform="scale(1 1) rotate(0) translate(4 118.5)">
<title>FiftyOne.Pipeline.Engines.FiftyOne.FlowElements.FiftyOneOnPremiseAspectEngineBase&lt; T &gt;</title>
<!-- Node0 -->
<g id="node1" class="node"><title>Node0</title>
<g id="a_node1"><a xlink:title="51Degrees specific Engine base class.">
<polygon fill="#bfbfbf" stroke="black" points="1370,-7.5 1370,-48.5 1542,-48.5 1542,-7.5 1370,-7.5"/>
<text text-anchor="start" x="1378" y="-36.5" font-family="Helvetica,sans-Serif" font-size="10.00">FiftyOne.Pipeline.Engines.</text>
<text text-anchor="start" x="1378" y="-25.5" font-family="Helvetica,sans-Serif" font-size="10.00">FiftyOne.FlowElements.FiftyOne</text>
<text text-anchor="middle" x="1456" y="-14.5" font-family="Helvetica,sans-Serif" font-size="10.00">OnPremiseAspectEngineBase&lt; T &gt;</text>
</a>
</g>
</g>
<!-- Node1 -->
<g id="node2" class="node"><title>Node1</title>
<g id="a_node2"><a xlink:href="class_fifty_one_1_1_pipeline_1_1_engines_1_1_flow_elements_1_1_on_premise_aspect_engine_base.html" target="_top" xlink:title=" ">
<polygon fill="none" stroke="black" points="1168,-38.5 1168,-79.5 1333,-79.5 1333,-38.5 1168,-38.5"/>
<text text-anchor="start" x="1176" y="-67.5" font-family="Helvetica,sans-Serif" font-size="10.00">OnPremiseAspectEngineBase</text>
<text text-anchor="start" x="1176" y="-56.5" font-family="Helvetica,sans-Serif" font-size="10.00">&lt; T, IFiftyOneAspectPropertyMeta</text>
<text text-anchor="middle" x="1250.5" y="-45.5" font-family="Helvetica,sans-Serif" font-size="10.00">Data &gt;</text>
</a>
</g>
</g>
<!-- Node1&#45;&gt;Node0 -->
<g id="edge1" class="edge"><title>Node1&#45;&gt;Node0</title>
<path fill="none" stroke="midnightblue" d="M1343.06,-45.0524C1351.93,-43.7005 1360.91,-42.3327 1369.72,-40.9907"/>
<polygon fill="midnightblue" stroke="midnightblue" points="1342.46,-41.6036 1333.1,-46.5697 1343.51,-48.5238 1342.46,-41.6036"/>
</g>
<!-- Node2 -->
<g id="node3" class="node"><title>Node2</title>
<g id="a_node3"><a xlink:href="class_fifty_one_1_1_pipeline_1_1_engines_1_1_flow_elements_1_1_on_premise_aspect_engine_base.html" target="_top" xlink:title="Base class for 51Degrees on&#45;premise aspect engines.">
<polygon fill="none" stroke="black" points="811,-38.5 811,-79.5 1002,-79.5 1002,-38.5 811,-38.5"/>
<text text-anchor="start" x="819" y="-67.5" font-family="Helvetica,sans-Serif" font-size="10.00">FiftyOne.Pipeline.Engines.</text>
<text text-anchor="start" x="819" y="-56.5" font-family="Helvetica,sans-Serif" font-size="10.00">FlowElements.OnPremiseAspectEngine</text>
<text text-anchor="middle" x="906.5" y="-45.5" font-family="Helvetica,sans-Serif" font-size="10.00">Base&lt; T, TMeta &gt;</text>
</a>
</g>
</g>
<!-- Node2&#45;&gt;Node1 -->
<g id="edge2" class="edge"><title>Node2&#45;&gt;Node1</title>
<path fill="none" stroke="orange" stroke-dasharray="5,2" d="M1012.5,-59C1062.47,-59 1121.31,-59 1167.86,-59"/>
<polygon fill="orange" stroke="orange" points="1012.31,-55.5001 1002.31,-59 1012.31,-62.5001 1012.31,-55.5001"/>
<text text-anchor="start" x="1020" y="-73" font-family="Helvetica,sans-Serif" font-size="10.00"> &lt; T, IFiftyOneAspectProperty</text>
<text text-anchor="middle" x="1085" y="-62" font-family="Helvetica,sans-Serif" font-size="10.00">MetaData &gt;</text>
</g>
<!-- Node3 -->
<g id="node4" class="node"><title>Node3</title>
<g id="a_node4"><a xlink:href="class_fifty_one_1_1_pipeline_1_1_engines_1_1_flow_elements_1_1_aspect_engine_base.html" target="_top" xlink:title="Base class for 51Degrees aspect engines.">
<polygon fill="none" stroke="black" points="651.5,-45 651.5,-75 768.5,-75 768.5,-45 651.5,-45"/>
<text text-anchor="start" x="659.5" y="-63" font-family="Helvetica,sans-Serif" font-size="10.00">AspectEngineBase&lt; T,</text>
<text text-anchor="middle" x="710" y="-52" font-family="Helvetica,sans-Serif" font-size="10.00"> TMeta &gt;</text>
</a>
</g>
</g>
<!-- Node3&#45;&gt;Node2 -->
<g id="edge3" class="edge"><title>Node3&#45;&gt;Node2</title>
<path fill="none" stroke="midnightblue" d="M778.77,-59.6516C789.158,-59.5982 800.041,-59.5422 810.881,-59.4865"/>
<polygon fill="midnightblue" stroke="midnightblue" points="778.549,-56.1526 768.567,-59.704 778.585,-63.1525 778.549,-56.1526"/>
</g>
<!-- Node4 -->
<g id="node5" class="node"><title>Node4</title>
<g id="a_node5"><a xlink:href="class_fifty_one_1_1_pipeline_1_1_core_1_1_flow_elements_1_1_flow_element_base.html" target="_top" xlink:title="Abstract base class for Flow Elements.">
<polygon fill="none" stroke="black" points="484.5,-84 484.5,-114 597.5,-114 597.5,-84 484.5,-84"/>
<text text-anchor="start" x="492.5" y="-102" font-family="Helvetica,sans-Serif" font-size="10.00">FlowElementBase&lt; T,</text>
<text text-anchor="middle" x="541" y="-91" font-family="Helvetica,sans-Serif" font-size="10.00"> TMeta &gt;</text>
</a>
</g>
</g>
<!-- Node4&#45;&gt;Node3 -->
<g id="edge4" class="edge"><title>Node4&#45;&gt;Node3</title>
<path fill="none" stroke="midnightblue" d="M607.489,-83.7061C621.969,-80.3246 637.208,-76.7659 651.349,-73.4634"/>
<polygon fill="midnightblue" stroke="midnightblue" points="606.551,-80.3311 597.609,-86.0136 608.143,-87.1476 606.551,-80.3311"/>
</g>
<!-- Node5 -->
<g id="node6" class="node"><title>Node5</title>
<g id="a_node6"><a xlink:href="interface_fifty_one_1_1_pipeline_1_1_core_1_1_flow_elements_1_1_i_flow_element.html" target="_top" xlink:title=" ">
<polygon fill="none" stroke="black" points="239.5,-89.5 239.5,-108.5 370.5,-108.5 370.5,-89.5 239.5,-89.5"/>
<text text-anchor="middle" x="305" y="-96.5" font-family="Helvetica,sans-Serif" font-size="10.00">IFlowElement&lt; T, TMeta &gt;</text>
</a>
</g>
</g>
<!-- Node5&#45;&gt;Node4 -->
<g id="edge5" class="edge"><title>Node5&#45;&gt;Node4</title>
<path fill="none" stroke="midnightblue" d="M380.807,-99C414.426,-99 453.411,-99 484.388,-99"/>
<polygon fill="midnightblue" stroke="midnightblue" points="380.561,-95.5001 370.561,-99 380.561,-102.5 380.561,-95.5001"/>
</g>
<!-- Node6 -->
<g id="node7" class="node"><title>Node6</title>
<g id="a_node7"><a xlink:href="interface_fifty_one_1_1_pipeline_1_1_core_1_1_flow_elements_1_1_i_flow_element.html" target="_top" xlink:title="IFlowElement is the basic building block of a pipeline.">
<polygon fill="none" stroke="black" points="0,-84 0,-114 137,-114 137,-84 0,-84"/>
<text text-anchor="start" x="8" y="-102" font-family="Helvetica,sans-Serif" font-size="10.00">FiftyOne.Pipeline.Core.Flow</text>
<text text-anchor="middle" x="68.5" y="-91" font-family="Helvetica,sans-Serif" font-size="10.00">Elements.IFlowElement</text>
</a>
</g>
</g>
<!-- Node6&#45;&gt;Node5 -->
<g id="edge6" class="edge"><title>Node6&#45;&gt;Node5</title>
<path fill="none" stroke="orange" stroke-dasharray="5,2" d="M147.392,-99C177.231,-99 210.918,-99 239.382,-99"/>
<polygon fill="orange" stroke="orange" points="147.013,-95.5001 137.013,-99 147.012,-102.5 147.013,-95.5001"/>
<text text-anchor="middle" x="185" y="-102" font-family="Helvetica,sans-Serif" font-size="10.00"> &lt; T, TMeta &gt;</text>
</g>
<!-- Node7 -->
<g id="node8" class="node"><title>Node7</title>
<g id="a_node8"><a xlink:href="interface_fifty_one_1_1_pipeline_1_1_engines_1_1_flow_elements_1_1_i_aspect_engine.html" target="_top" xlink:title=" ">
<polygon fill="none" stroke="black" points="473,-45.5 473,-64.5 609,-64.5 609,-45.5 473,-45.5"/>
<text text-anchor="middle" x="541" y="-52.5" font-family="Helvetica,sans-Serif" font-size="10.00">IAspectEngine&lt; T, TMeta &gt;</text>
</a>
</g>
</g>
<!-- Node7&#45;&gt;Node3 -->
<g id="edge7" class="edge"><title>Node7&#45;&gt;Node3</title>
<path fill="none" stroke="midnightblue" d="M619.659,-57.3251C630.378,-57.6461 641.227,-57.9709 651.493,-58.2782"/>
<polygon fill="midnightblue" stroke="midnightblue" points="619.544,-53.8202 609.444,-57.0193 619.335,-60.8171 619.544,-53.8202"/>
</g>
<!-- Node8 -->
<g id="node9" class="node"><title>Node8</title>
<g id="a_node9"><a xlink:href="interface_fifty_one_1_1_pipeline_1_1_engines_1_1_flow_elements_1_1_i_aspect_engine.html" target="_top" xlink:title="Interface representing 51Degrees on&#45;premise aspect engines.">
<polygon fill="none" stroke="black" points="233,-40 233,-70 377,-70 377,-40 233,-40"/>
<text text-anchor="start" x="241" y="-58" font-family="Helvetica,sans-Serif" font-size="10.00">FiftyOne.Pipeline.Engines.</text>
<text text-anchor="middle" x="305" y="-47" font-family="Helvetica,sans-Serif" font-size="10.00">FlowElements.IAspectEngine</text>
</a>
</g>
</g>
<!-- Node8&#45;&gt;Node7 -->
<g id="edge8" class="edge"><title>Node8&#45;&gt;Node7</title>
<path fill="none" stroke="orange" stroke-dasharray="5,2" d="M387.294,-55C415.204,-55 446.113,-55 472.78,-55"/>
<polygon fill="orange" stroke="orange" points="387.161,-51.5001 377.161,-55 387.161,-58.5001 387.161,-51.5001"/>
<text text-anchor="middle" x="425" y="-58" font-family="Helvetica,sans-Serif" font-size="10.00"> &lt; T, TMeta &gt;</text>
</g>
<!-- Node9 -->
<g id="node10" class="node"><title>Node9</title>
<g id="a_node10"><a xlink:href="interface_fifty_one_1_1_pipeline_1_1_engines_1_1_flow_elements_1_1_i_on_premise_aspect_engine.html" target="_top" xlink:title=" ">
<polygon fill="none" stroke="black" points="646,-1.5 646,-20.5 774,-20.5 774,-1.5 646,-1.5"/>
<text text-anchor="middle" x="710" y="-8.5" font-family="Helvetica,sans-Serif" font-size="10.00">IOnPremiseAspectEngine</text>
</a>
</g>
</g>
<!-- Node9&#45;&gt;Node2 -->
<g id="edge9" class="edge"><title>Node9&#45;&gt;Node2</title>
<path fill="none" stroke="midnightblue" d="M759.734,-23.0268C778.621,-27.688 800.791,-33.1592 822.061,-38.4084"/>
<polygon fill="midnightblue" stroke="midnightblue" points="760.44,-19.5962 749.893,-20.5982 758.763,-26.3923 760.44,-19.5962"/>
</g>
<!-- Node11 -->
<g id="node12" class="node"><title>Node11</title>
<g id="a_node12"><a xlink:href="interface_fifty_one_1_1_pipeline_1_1_engines_1_1_fifty_one_1_1_flow_elements_1_1_i_fifty_one_aspect_engine.html" target="_top" xlink:title="51Degrees specific Engine interface.">
<polygon fill="none" stroke="black" points="1027,-0.5 1027,-19.5 1143,-19.5 1143,-0.5 1027,-0.5"/>
<text text-anchor="middle" x="1085" y="-7.5" font-family="Helvetica,sans-Serif" font-size="10.00">IFiftyOneAspectEngine</text>
</a>
</g>
</g>
<!-- Node9&#45;&gt;Node11 -->
<g id="edge12" class="edge"><title>Node9&#45;&gt;Node11</title>
<path fill="none" stroke="midnightblue" d="M784.5,-10.8029C855.599,-10.6123 961.867,-10.3274 1026.85,-10.1532"/>
<polygon fill="midnightblue" stroke="midnightblue" points="784.265,-7.30347 774.274,-10.8304 784.284,-14.3034 784.265,-7.30347"/>
</g>
<!-- Node10 -->
<g id="node11" class="node"><title>Node10</title>
<g id="a_node11"><a xlink:href="interface_fifty_one_1_1_pipeline_1_1_engines_1_1_flow_elements_1_1_i_aspect_engine.html" target="_top" xlink:title="Interface representing 51Degrees on&#45;premise aspect engines.">
<polygon fill="none" stroke="black" points="501,-1.5 501,-20.5 581,-20.5 581,-1.5 501,-1.5"/>
<text text-anchor="middle" x="541" y="-8.5" font-family="Helvetica,sans-Serif" font-size="10.00">IAspectEngine</text>
</a>
</g>
</g>
<!-- Node10&#45;&gt;Node9 -->
<g id="edge10" class="edge"><title>Node10&#45;&gt;Node9</title>
<path fill="none" stroke="midnightblue" d="M591.457,-11C608.533,-11 627.9,-11 645.917,-11"/>
<polygon fill="midnightblue" stroke="midnightblue" points="591.154,-7.5001 581.154,-11 591.154,-14.5001 591.154,-7.5001"/>
</g>
<!-- Node11&#45;&gt;Node0 -->
<g id="edge11" class="edge"><title>Node11&#45;&gt;Node0</title>
<path fill="none" stroke="midnightblue" d="M1153.51,-13.2931C1214.34,-16.2605 1304.06,-20.6368 1369.8,-23.8441"/>
<polygon fill="midnightblue" stroke="midnightblue" points="1153.41,-9.78423 1143.25,-12.7928 1153.07,-16.7759 1153.41,-9.78423"/>
</g>
</g>
</svg>
