<?xml version="1.0" encoding="UTF-8" standalone="no"?>
<!DOCTYPE svg PUBLIC "-//W3C//DTD SVG 1.1//EN"
 "http://www.w3.org/Graphics/SVG/1.1/DTD/svg11.dtd">
<!-- Generated by graphviz version 2.38.0 (20140413.2041)
 -->
<!-- Title: FiftyOne.Pipeline.Engines.Configuration.DataFileConfigurationBuilderBase&lt; TBuilder, TConfig &gt; Pages: 1 -->
<svg width="799pt" height="132pt"
 viewBox="0.00 0.00 799.00 132.00" xmlns="http://www.w3.org/2000/svg" xmlns:xlink="http://www.w3.org/1999/xlink">
<g id="graph0" class="graph" transform="scale(1 1) rotate(0) translate(4 128)">
<title>FiftyOne.Pipeline.Engines.Configuration.DataFileConfigurationBuilderBase&lt; TBuilder, TConfig &gt;</title>
<!-- Node0 -->
<g id="node1" class="node"><title>Node0</title>
<g id="a_node1"><a xlink:title="Builder class that is used to create instances of DataFileConfiguration objects.">
<polygon fill="#bfbfbf" stroke="black" points="0,-44 0,-85 168,-85 168,-44 0,-44"/>
<text text-anchor="start" x="8" y="-73" font-family="Helvetica,sans-Serif" font-size="10.00">FiftyOne.Pipeline.Engines.</text>
<text text-anchor="start" x="8" y="-62" font-family="Helvetica,sans-Serif" font-size="10.00">Configuration.DataFileConfiguration</text>
<text text-anchor="middle" x="84" y="-51" font-family="Helvetica,sans-Serif" font-size="10.00">BuilderBase&lt; TBuilder, TConfig &gt;</text>
</a>
</g>
</g>
<!-- Node1 -->
<g id="node2" class="node"><title>Node1</title>
<g id="a_node2"><a xlink:href="class_fifty_one_1_1_pipeline_1_1_engines_1_1_configuration_1_1_data_file_configuration_builder_base.html" target="_top" xlink:title=" ">
<polygon fill="none" stroke="black" points="381,-71.5 381,-123.5 584,-123.5 584,-71.5 381,-71.5"/>
<text text-anchor="start" x="389" y="-111.5" font-family="Helvetica,sans-Serif" font-size="10.00">FiftyOne.Pipeline.Engines.</text>
<text text-anchor="start" x="389" y="-100.5" font-family="Helvetica,sans-Serif" font-size="10.00">Configuration.DataFileConfiguration</text>
<text text-anchor="start" x="389" y="-89.5" font-family="Helvetica,sans-Serif" font-size="10.00">BuilderBase&lt; DataFileConfigurationBuilder,</text>
<text text-anchor="middle" x="482.5" y="-78.5" font-family="Helvetica,sans-Serif" font-size="10.00"> DataFileConfiguration &gt;</text>
</a>
</g>
</g>
<!-- Node0&#45;&gt;Node1 -->
<g id="edge1" class="edge"><title>Node0&#45;&gt;Node1</title>
<path fill="none" stroke="orange" stroke-dasharray="5,2" d="M178.113,-72.2496C239.022,-77.319 318.564,-83.9391 380.92,-89.1289"/>
<polygon fill="orange" stroke="orange" points="178.375,-68.7594 168.119,-71.4179 177.795,-75.7353 178.375,-68.7594"/>
<text text-anchor="start" x="204.5" y="-100.5" font-family="Helvetica,sans-Serif" font-size="10.00"> &lt; DataFileConfigurationBuilder,</text>
<text text-anchor="middle" x="273.5" y="-89.5" font-family="Helvetica,sans-Serif" font-size="10.00"> DataFileConfiguration &gt;</text>
</g>
<!-- Node3 -->
<g id="node4" class="node"><title>Node3</title>
<g id="a_node4"><a xlink:href="class_fifty_one_1_1_pipeline_1_1_engines_1_1_configuration_1_1_data_file_configuration_builder_base.html" target="_top" xlink:title=" ">
<polygon fill="none" stroke="black" points="379,-0.5 379,-52.5 586,-52.5 586,-0.5 379,-0.5"/>
<text text-anchor="start" x="387" y="-40.5" font-family="Helvetica,sans-Serif" font-size="10.00">FiftyOne.Pipeline.Engines.</text>
<text text-anchor="start" x="387" y="-29.5" font-family="Helvetica,sans-Serif" font-size="10.00">Configuration.DataFileConfiguration</text>
<text text-anchor="start" x="387" y="-18.5" font-family="Helvetica,sans-Serif" font-size="10.00">BuilderBase&lt; FiftyOneDataFileConfiguration</text>
<text text-anchor="middle" x="482.5" y="-7.5" font-family="Helvetica,sans-Serif" font-size="10.00">Builder, FiftyOneDataFileConfiguration &gt;</text>
</a>
</g>
</g>
<!-- Node0&#45;&gt;Node3 -->
<g id="edge3" class="edge"><title>Node0&#45;&gt;Node3</title>
<path fill="none" stroke="orange" stroke-dasharray="5,2" d="M178.255,-47.501C180.862,-47.1477 183.448,-46.8129 186,-46.5 249.797,-38.6797 321.745,-33.7281 378.673,-30.7081"/>
<polygon fill="orange" stroke="orange" points="177.522,-44.07 168.117,-48.9481 178.512,-50.9998 177.522,-44.07"/>
<text text-anchor="start" x="186" y="-60.5" font-family="Helvetica,sans-Serif" font-size="10.00"> &lt; FiftyOneDataFileConfiguration</text>
<text text-anchor="middle" x="273.5" y="-49.5" font-family="Helvetica,sans-Serif" font-size="10.00">Builder, FiftyOneDataFileConfiguration &gt;</text>
</g>
<!-- Node2 -->
<g id="node3" class="node"><title>Node2</title>
<g id="a_node3"><a xlink:href="class_fifty_one_1_1_pipeline_1_1_engines_1_1_configuration_1_1_data_file_configuration_builder.html" target="_top" xlink:title="Builder class for DataFileConfiguration instances.">
<polygon fill="none" stroke="black" points="623,-77 623,-118 791,-118 791,-77 623,-77"/>
<text text-anchor="start" x="631" y="-106" font-family="Helvetica,sans-Serif" font-size="10.00">FiftyOne.Pipeline.Engines.</text>
<text text-anchor="start" x="631" y="-95" font-family="Helvetica,sans-Serif" font-size="10.00">Configuration.DataFileConfiguration</text>
<text text-anchor="middle" x="707" y="-84" font-family="Helvetica,sans-Serif" font-size="10.00">Builder</text>
</a>
</g>
</g>
<!-- Node1&#45;&gt;Node2 -->
<g id="edge2" class="edge"><title>Node1&#45;&gt;Node2</title>
<path fill="none" stroke="midnightblue" d="M594.102,-97.5C603.8,-97.5 613.505,-97.5 622.922,-97.5"/>
<polygon fill="midnightblue" stroke="midnightblue" points="594.009,-94.0001 584.009,-97.5 594.009,-101 594.009,-94.0001"/>
</g>
<!-- Node4 -->
<g id="node5" class="node"><title>Node4</title>
<g id="a_node5"><a xlink:href="class_fifty_one_1_1_pipeline_1_1_engines_1_1_fifty_one_1_1_configuration_1_1_fifty_one_data_file_configuration_builder.html" target="_top" xlink:title="Builder class for 51Degrees specific data file configuration instances.">
<polygon fill="none" stroke="black" points="631,-6 631,-47 783,-47 783,-6 631,-6"/>
<text text-anchor="start" x="639" y="-35" font-family="Helvetica,sans-Serif" font-size="10.00">FiftyOne.Pipeline.Engines.</text>
<text text-anchor="start" x="639" y="-24" font-family="Helvetica,sans-Serif" font-size="10.00">FiftyOne.Configuration.FiftyOne</text>
<text text-anchor="middle" x="707" y="-13" font-family="Helvetica,sans-Serif" font-size="10.00">DataFileConfigurationBuilder</text>
</a>
</g>
</g>
<!-- Node3&#45;&gt;Node4 -->
<g id="edge4" class="edge"><title>Node3&#45;&gt;Node4</title>
<path fill="none" stroke="midnightblue" d="M596.518,-26.5C608.172,-26.5 619.8,-26.5 630.89,-26.5"/>
<polygon fill="midnightblue" stroke="midnightblue" points="596.283,-23.0001 586.283,-26.5 596.283,-30.0001 596.283,-23.0001"/>
</g>
</g>
</svg>
