<?xml version="1.0" encoding="UTF-8" standalone="no"?>
<!DOCTYPE svg PUBLIC "-//W3C//DTD SVG 1.1//EN"
 "http://www.w3.org/Graphics/SVG/1.1/DTD/svg11.dtd">
<!-- Generated by graphviz version 2.38.0 (20140413.2041)
 -->
<!-- Title: FiftyOne.Pipeline.Core.FlowElements.ParallelElements Pages: 1 -->
<svg width="208pt" height="342pt"
 viewBox="0.00 0.00 207.50 342.00" xmlns="http://www.w3.org/2000/svg" xmlns:xlink="http://www.w3.org/1999/xlink">
<g id="graph0" class="graph" transform="scale(1 1) rotate(0) translate(4 338)">
<title>FiftyOne.Pipeline.Core.FlowElements.ParallelElements</title>
<!-- Node0 -->
<g id="node1" class="node"><title>Node0</title>
<g id="a_node1"><a xlink:title="ParallelElements executes it&#39;s child IFlowElement objects in parallel.">
<polygon fill="#bfbfbf" stroke="black" points="16,-0.5 16,-30.5 153,-30.5 153,-0.5 16,-0.5"/>
<text text-anchor="start" x="24" y="-18.5" font-family="Helvetica,sans-Serif" font-size="10.00">FiftyOne.Pipeline.Core.Flow</text>
<text text-anchor="middle" x="84.5" y="-7.5" font-family="Helvetica,sans-Serif" font-size="10.00">Elements.ParallelElements</text>
</a>
</g>
</g>
<!-- Node1 -->
<g id="node2" class="node"><title>Node1</title>
<g id="a_node2"><a xlink:href="class_fifty_one_1_1_pipeline_1_1_core_1_1_flow_elements_1_1_flow_element_base.html" target="_top" xlink:title=" ">
<polygon fill="none" stroke="black" points="0,-68.5 0,-98.5 169,-98.5 169,-68.5 0,-68.5"/>
<text text-anchor="start" x="8" y="-86.5" font-family="Helvetica,sans-Serif" font-size="10.00">FlowElementBase&lt; IElement</text>
<text text-anchor="middle" x="84.5" y="-75.5" font-family="Helvetica,sans-Serif" font-size="10.00">Data, IElementPropertyMetaData &gt;</text>
</a>
</g>
</g>
<!-- Node1&#45;&gt;Node0 -->
<g id="edge1" class="edge"><title>Node1&#45;&gt;Node0</title>
<path fill="none" stroke="midnightblue" d="M84.5,-58.0322C84.5,-48.8606 84.5,-38.7449 84.5,-30.7931"/>
<polygon fill="midnightblue" stroke="midnightblue" points="81.0001,-58.1789 84.5,-68.179 88.0001,-58.179 81.0001,-58.1789"/>
</g>
<!-- Node2 -->
<g id="node3" class="node"><title>Node2</title>
<g id="a_node3"><a xlink:href="class_fifty_one_1_1_pipeline_1_1_core_1_1_flow_elements_1_1_flow_element_base.html" target="_top" xlink:title="Abstract base class for Flow Elements.">
<polygon fill="none" stroke="black" points="14.5,-157.5 14.5,-198.5 154.5,-198.5 154.5,-157.5 14.5,-157.5"/>
<text text-anchor="start" x="22.5" y="-186.5" font-family="Helvetica,sans-Serif" font-size="10.00">FiftyOne.Pipeline.Core.Flow</text>
<text text-anchor="start" x="22.5" y="-175.5" font-family="Helvetica,sans-Serif" font-size="10.00">Elements.FlowElementBase</text>
<text text-anchor="middle" x="84.5" y="-164.5" font-family="Helvetica,sans-Serif" font-size="10.00">&lt; T, TMeta &gt;</text>
</a>
</g>
</g>
<!-- Node2&#45;&gt;Node1 -->
<g id="edge2" class="edge"><title>Node2&#45;&gt;Node1</title>
<path fill="none" stroke="orange" stroke-dasharray="5,2" d="M84.5,-147.237C84.5,-130.956 84.5,-111.538 84.5,-98.6621"/>
<polygon fill="orange" stroke="orange" points="81.0001,-147.383 84.5,-157.383 88.0001,-147.383 81.0001,-147.383"/>
<text text-anchor="start" x="84.5" y="-131" font-family="Helvetica,sans-Serif" font-size="10.00"> &lt; IElementData, IElement</text>
<text text-anchor="middle" x="142" y="-120" font-family="Helvetica,sans-Serif" font-size="10.00">PropertyMetaData &gt;</text>
</g>
<!-- Node3 -->
<g id="node4" class="node"><title>Node3</title>
<g id="a_node4"><a xlink:href="interface_fifty_one_1_1_pipeline_1_1_core_1_1_flow_elements_1_1_i_flow_element.html" target="_top" xlink:title=" ">
<polygon fill="none" stroke="black" points="19,-236.5 19,-255.5 150,-255.5 150,-236.5 19,-236.5"/>
<text text-anchor="middle" x="84.5" y="-243.5" font-family="Helvetica,sans-Serif" font-size="10.00">IFlowElement&lt; T, TMeta &gt;</text>
</a>
</g>
</g>
<!-- Node3&#45;&gt;Node2 -->
<g id="edge3" class="edge"><title>Node3&#45;&gt;Node2</title>
<path fill="none" stroke="midnightblue" d="M84.5,-226.246C84.5,-217.647 84.5,-207.451 84.5,-198.735"/>
<polygon fill="midnightblue" stroke="midnightblue" points="81.0001,-226.372 84.5,-236.372 88.0001,-226.372 81.0001,-226.372"/>
</g>
<!-- Node4 -->
<g id="node5" class="node"><title>Node4</title>
<g id="a_node5"><a xlink:href="interface_fifty_one_1_1_pipeline_1_1_core_1_1_flow_elements_1_1_i_flow_element.html" target="_top" xlink:title="IFlowElement is the basic building block of a pipeline.">
<polygon fill="none" stroke="black" points="16,-303.5 16,-333.5 153,-333.5 153,-303.5 16,-303.5"/>
<text text-anchor="start" x="24" y="-321.5" font-family="Helvetica,sans-Serif" font-size="10.00">FiftyOne.Pipeline.Core.Flow</text>
<text text-anchor="middle" x="84.5" y="-310.5" font-family="Helvetica,sans-Serif" font-size="10.00">Elements.IFlowElement</text>
</a>
</g>
</g>
<!-- Node4&#45;&gt;Node3 -->
<g id="edge4" class="edge"><title>Node4&#45;&gt;Node3</title>
<path fill="none" stroke="orange" stroke-dasharray="5,2" d="M84.5,-293.091C84.5,-280.214 84.5,-265.197 84.5,-255.893"/>
<polygon fill="orange" stroke="orange" points="81.0001,-293.233 84.5,-303.233 88.0001,-293.233 81.0001,-293.233"/>
<text text-anchor="middle" x="114.5" y="-277" font-family="Helvetica,sans-Serif" font-size="10.00"> &lt; T, TMeta &gt;</text>
</g>
</g>
</svg>
