<?xml version="1.0" encoding="UTF-8" standalone="no"?>
<!DOCTYPE svg PUBLIC "-//W3C//DTD SVG 1.1//EN"
 "http://www.w3.org/Graphics/SVG/1.1/DTD/svg11.dtd">
<!-- Generated by graphviz version 2.38.0 (20140413.2041)
 -->
<!-- Title: FiftyOne.Pipeline.Core.FlowElements.FlowElementBase&lt; T, TMeta &gt; Pages: 1 -->
<svg width="1737pt" height="479pt"
 viewBox="0.00 0.00 1737.00 479.00" xmlns="http://www.w3.org/2000/svg" xmlns:xlink="http://www.w3.org/1999/xlink">
<g id="graph0" class="graph" transform="scale(1 1) rotate(0) translate(4 475)">
<title>FiftyOne.Pipeline.Core.FlowElements.FlowElementBase&lt; T, TMeta &gt;</title>
<!-- Node0 -->
<g id="node1" class="node"><title>Node0</title>
<g id="a_node1"><a xlink:title="Abstract base class for Flow Elements.">
<polygon fill="#bfbfbf" stroke="black" points="401,-176 401,-217 541,-217 541,-176 401,-176"/>
<text text-anchor="start" x="409" y="-205" font-family="Helvetica,sans-Serif" font-size="10.00">FiftyOne.Pipeline.Core.Flow</text>
<text text-anchor="start" x="409" y="-194" font-family="Helvetica,sans-Serif" font-size="10.00">Elements.FlowElementBase</text>
<text text-anchor="middle" x="471" y="-183" font-family="Helvetica,sans-Serif" font-size="10.00">&lt; T, TMeta &gt;</text>
</a>
</g>
</g>
<!-- Node3 -->
<g id="node4" class="node"><title>Node3</title>
<g id="a_node4"><a xlink:href="class_fifty_one_1_1_pipeline_1_1_engines_1_1_flow_elements_1_1_aspect_engine_base.html" target="_top" xlink:title="Base class for 51Degrees aspect engines.">
<polygon fill="none" stroke="black" points="754,-355.5 754,-407.5 879,-407.5 879,-355.5 754,-355.5"/>
<text text-anchor="start" x="762" y="-395.5" font-family="Helvetica,sans-Serif" font-size="10.00">FiftyOne::Pipeline</text>
<text text-anchor="start" x="762" y="-384.5" font-family="Helvetica,sans-Serif" font-size="10.00">::Engines::FlowElements</text>
<text text-anchor="start" x="762" y="-373.5" font-family="Helvetica,sans-Serif" font-size="10.00">::AspectEngineBase&lt; T,</text>
<text text-anchor="middle" x="816.5" y="-362.5" font-family="Helvetica,sans-Serif" font-size="10.00"> TMeta &gt;</text>
</a>
</g>
</g>
<!-- Node0&#45;&gt;Node3 -->
<g id="edge3" class="edge"><title>Node0&#45;&gt;Node3</title>
<path fill="none" stroke="midnightblue" d="M484.621,-226.596C498.504,-255.923 523.635,-299.498 559,-323.5 617.271,-363.048 698.444,-375.994 753.765,-380.039"/>
<polygon fill="midnightblue" stroke="midnightblue" points="487.687,-224.884 480.345,-217.245 481.321,-227.795 487.687,-224.884"/>
</g>
<!-- Node8 -->
<g id="node9" class="node"><title>Node8</title>
<g id="a_node9"><a xlink:href="class_fifty_one_1_1_pipeline_1_1_core_1_1_flow_elements_1_1_flow_element_base.html" target="_top" xlink:title=" ">
<polygon fill="none" stroke="black" points="743.5,-284.5 743.5,-336.5 889.5,-336.5 889.5,-284.5 743.5,-284.5"/>
<text text-anchor="start" x="751.5" y="-324.5" font-family="Helvetica,sans-Serif" font-size="10.00">FiftyOne.Pipeline.Core.Flow</text>
<text text-anchor="start" x="751.5" y="-313.5" font-family="Helvetica,sans-Serif" font-size="10.00">Elements.FlowElementBase</text>
<text text-anchor="start" x="751.5" y="-302.5" font-family="Helvetica,sans-Serif" font-size="10.00">&lt; IJsonBuilderElementData,</text>
<text text-anchor="middle" x="816.5" y="-291.5" font-family="Helvetica,sans-Serif" font-size="10.00"> IElementPropertyMetaData &gt;</text>
</a>
</g>
</g>
<!-- Node0&#45;&gt;Node8 -->
<g id="edge8" class="edge"><title>Node0&#45;&gt;Node8</title>
<path fill="none" stroke="orange" stroke-dasharray="5,2" d="M504.986,-223.307C520.553,-234.757 539.882,-247.337 559,-255.5 618.372,-280.852 690.636,-294.992 743.312,-302.563"/>
<polygon fill="orange" stroke="orange" points="506.842,-220.323 496.75,-217.098 502.628,-225.913 506.842,-220.323"/>
<text text-anchor="start" x="570.5" y="-311.5" font-family="Helvetica,sans-Serif" font-size="10.00"> &lt; IJsonBuilderElementData,</text>
<text text-anchor="middle" x="635.5" y="-300.5" font-family="Helvetica,sans-Serif" font-size="10.00"> IElementPropertyMetaData &gt;</text>
</g>
<!-- Node10 -->
<g id="node11" class="node"><title>Node10</title>
<g id="a_node11"><a xlink:href="class_fifty_one_1_1_pipeline_1_1_core_1_1_flow_elements_1_1_flow_element_base.html" target="_top" xlink:title=" ">
<polygon fill="none" stroke="black" points="730,-213.5 730,-265.5 903,-265.5 903,-213.5 730,-213.5"/>
<text text-anchor="start" x="738" y="-253.5" font-family="Helvetica,sans-Serif" font-size="10.00">FiftyOne.Pipeline.Core.Flow</text>
<text text-anchor="start" x="738" y="-242.5" font-family="Helvetica,sans-Serif" font-size="10.00">Elements.FlowElementBase</text>
<text text-anchor="start" x="738" y="-231.5" font-family="Helvetica,sans-Serif" font-size="10.00">&lt; IMathData, IElementPropertyMeta</text>
<text text-anchor="middle" x="816.5" y="-220.5" font-family="Helvetica,sans-Serif" font-size="10.00">Data &gt;</text>
</a>
</g>
</g>
<!-- Node0&#45;&gt;Node10 -->
<g id="edge10" class="edge"><title>Node0&#45;&gt;Node10</title>
<path fill="none" stroke="orange" stroke-dasharray="5,2" d="M551.337,-209.426C553.921,-209.796 556.48,-210.155 559,-210.5 615.833,-218.281 679.958,-225.531 729.875,-230.836"/>
<polygon fill="orange" stroke="orange" points="551.691,-205.94 541.288,-207.951 550.674,-212.866 551.691,-205.94"/>
<text text-anchor="start" x="566.5" y="-243.5" font-family="Helvetica,sans-Serif" font-size="10.00"> &lt; IMathData, IElementProperty</text>
<text text-anchor="middle" x="635.5" y="-232.5" font-family="Helvetica,sans-Serif" font-size="10.00">MetaData &gt;</text>
</g>
<!-- Node12 -->
<g id="node13" class="node"><title>Node12</title>
<g id="a_node13"><a xlink:href="class_fifty_one_1_1_pipeline_1_1_core_1_1_flow_elements_1_1_flow_element_base.html" target="_top" xlink:title=" ">
<polygon fill="none" stroke="black" points="734,-142.5 734,-194.5 899,-194.5 899,-142.5 734,-142.5"/>
<text text-anchor="start" x="742" y="-182.5" font-family="Helvetica,sans-Serif" font-size="10.00">FiftyOne.Pipeline.Core.Flow</text>
<text text-anchor="start" x="742" y="-171.5" font-family="Helvetica,sans-Serif" font-size="10.00">Elements.FlowElementBase</text>
<text text-anchor="start" x="742" y="-160.5" font-family="Helvetica,sans-Serif" font-size="10.00">&lt; IElementData, IElementProperty</text>
<text text-anchor="middle" x="816.5" y="-149.5" font-family="Helvetica,sans-Serif" font-size="10.00">MetaData &gt;</text>
</a>
</g>
</g>
<!-- Node0&#45;&gt;Node12 -->
<g id="edge12" class="edge"><title>Node0&#45;&gt;Node12</title>
<path fill="none" stroke="orange" stroke-dasharray="5,2" d="M551.356,-189.157C553.934,-188.933 556.487,-188.713 559,-188.5 617.414,-183.537 683.354,-178.406 733.748,-174.584"/>
<polygon fill="orange" stroke="orange" points="550.98,-185.676 541.324,-190.038 551.592,-192.649 550.98,-185.676"/>
<text text-anchor="start" x="578" y="-202.5" font-family="Helvetica,sans-Serif" font-size="10.00"> &lt; IElementData, IElement</text>
<text text-anchor="middle" x="635.5" y="-191.5" font-family="Helvetica,sans-Serif" font-size="10.00">PropertyMetaData &gt;</text>
</g>
<!-- Node16 -->
<g id="node17" class="node"><title>Node16</title>
<g id="a_node17"><a xlink:href="class_fifty_one_1_1_pipeline_1_1_core_1_1_flow_elements_1_1_flow_element_base.html" target="_top" xlink:title=" ">
<polygon fill="none" stroke="black" points="736,-71.5 736,-123.5 897,-123.5 897,-71.5 736,-71.5"/>
<text text-anchor="start" x="744" y="-111.5" font-family="Helvetica,sans-Serif" font-size="10.00">FiftyOne.Pipeline.Core.Flow</text>
<text text-anchor="start" x="744" y="-100.5" font-family="Helvetica,sans-Serif" font-size="10.00">Elements.FlowElementBase</text>
<text text-anchor="start" x="744" y="-89.5" font-family="Helvetica,sans-Serif" font-size="10.00">&lt; IJavaScriptBuilderElementData,</text>
<text text-anchor="middle" x="816.5" y="-78.5" font-family="Helvetica,sans-Serif" font-size="10.00"> IElementPropertyMetaData &gt;</text>
</a>
</g>
</g>
<!-- Node0&#45;&gt;Node16 -->
<g id="edge16" class="edge"><title>Node0&#45;&gt;Node16</title>
<path fill="none" stroke="orange" stroke-dasharray="5,2" d="M514.482,-170.962C528.304,-163.499 543.964,-155.905 559,-150.5 616.555,-129.812 684.435,-116.233 735.904,-108.003"/>
<polygon fill="orange" stroke="orange" points="512.748,-167.921 505.69,-175.823 516.135,-174.048 512.748,-167.921"/>
<text text-anchor="start" x="559" y="-164.5" font-family="Helvetica,sans-Serif" font-size="10.00"> &lt; IJavaScriptBuilderElement</text>
<text text-anchor="middle" x="635.5" y="-153.5" font-family="Helvetica,sans-Serif" font-size="10.00">Data, IElementPropertyMetaData &gt;</text>
</g>
<!-- Node18 -->
<g id="node19" class="node"><title>Node18</title>
<g id="a_node19"><a xlink:href="class_fifty_one_1_1_pipeline_1_1_core_1_1_flow_elements_1_1_flow_element_base.html" target="_top" xlink:title=" ">
<polygon fill="none" stroke="black" points="738.5,-0.5 738.5,-52.5 894.5,-52.5 894.5,-0.5 738.5,-0.5"/>
<text text-anchor="start" x="746.5" y="-40.5" font-family="Helvetica,sans-Serif" font-size="10.00">FiftyOne.Pipeline.Core.Flow</text>
<text text-anchor="start" x="746.5" y="-29.5" font-family="Helvetica,sans-Serif" font-size="10.00">Elements.FlowElementBase</text>
<text text-anchor="start" x="746.5" y="-18.5" font-family="Helvetica,sans-Serif" font-size="10.00">&lt; ISplitIpData, IElementProperty</text>
<text text-anchor="middle" x="816.5" y="-7.5" font-family="Helvetica,sans-Serif" font-size="10.00">MetaData &gt;</text>
</a>
</g>
</g>
<!-- Node0&#45;&gt;Node18 -->
<g id="edge18" class="edge"><title>Node0&#45;&gt;Node18</title>
<path fill="none" stroke="orange" stroke-dasharray="5,2" d="M487.59,-167.198C502.556,-141.946 527.512,-106.492 559,-86.5 612.956,-52.2423 684.441,-37.5067 738.238,-31.1881"/>
<polygon fill="orange" stroke="orange" points="484.484,-165.579 482.534,-175.993 490.552,-169.068 484.484,-165.579"/>
<text text-anchor="start" x="582.5" y="-100.5" font-family="Helvetica,sans-Serif" font-size="10.00"> &lt; ISplitIpData, IElement</text>
<text text-anchor="middle" x="635.5" y="-89.5" font-family="Helvetica,sans-Serif" font-size="10.00">PropertyMetaData &gt;</text>
</g>
<!-- Node1 -->
<g id="node2" class="node"><title>Node1</title>
<g id="a_node2"><a xlink:href="interface_fifty_one_1_1_pipeline_1_1_core_1_1_flow_elements_1_1_i_flow_element.html" target="_top" xlink:title=" ">
<polygon fill="none" stroke="black" points="233,-187 233,-206 364,-206 364,-187 233,-187"/>
<text text-anchor="middle" x="298.5" y="-194" font-family="Helvetica,sans-Serif" font-size="10.00">IFlowElement&lt; T, TMeta &gt;</text>
</a>
</g>
</g>
<!-- Node1&#45;&gt;Node0 -->
<g id="edge1" class="edge"><title>Node1&#45;&gt;Node0</title>
<path fill="none" stroke="midnightblue" d="M374.641,-196.5C383.402,-196.5 392.308,-196.5 400.98,-196.5"/>
<polygon fill="midnightblue" stroke="midnightblue" points="374.445,-193 364.445,-196.5 374.445,-200 374.445,-193"/>
</g>
<!-- Node2 -->
<g id="node3" class="node"><title>Node2</title>
<g id="a_node3"><a xlink:href="interface_fifty_one_1_1_pipeline_1_1_core_1_1_flow_elements_1_1_i_flow_element.html" target="_top" xlink:title="IFlowElement is the basic building block of a pipeline.">
<polygon fill="none" stroke="black" points="0,-181.5 0,-211.5 137,-211.5 137,-181.5 0,-181.5"/>
<text text-anchor="start" x="8" y="-199.5" font-family="Helvetica,sans-Serif" font-size="10.00">FiftyOne.Pipeline.Core.Flow</text>
<text text-anchor="middle" x="68.5" y="-188.5" font-family="Helvetica,sans-Serif" font-size="10.00">Elements.IFlowElement</text>
</a>
</g>
</g>
<!-- Node2&#45;&gt;Node1 -->
<g id="edge2" class="edge"><title>Node2&#45;&gt;Node1</title>
<path fill="none" stroke="orange" stroke-dasharray="5,2" d="M147.369,-196.5C175.158,-196.5 206.141,-196.5 232.71,-196.5"/>
<polygon fill="orange" stroke="orange" points="147.29,-193 137.29,-196.5 147.29,-200 147.29,-193"/>
<text text-anchor="middle" x="185" y="-199.5" font-family="Helvetica,sans-Serif" font-size="10.00"> &lt; T, TMeta &gt;</text>
</g>
<!-- Node4 -->
<g id="node5" class="node"><title>Node4</title>
<g id="a_node5"><a xlink:href="class_fifty_one_1_1_pipeline_1_1_engines_1_1_flow_elements_1_1_cloud_aspect_engine_base.html" target="_top" xlink:title="Base class for 51Degrees cloud aspect engines.">
<polygon fill="none" stroke="black" points="973,-418.5 973,-470.5 1104,-470.5 1104,-418.5 973,-418.5"/>
<text text-anchor="start" x="981" y="-458.5" font-family="Helvetica,sans-Serif" font-size="10.00">FiftyOne::Pipeline</text>
<text text-anchor="start" x="981" y="-447.5" font-family="Helvetica,sans-Serif" font-size="10.00">::Engines::FlowElements</text>
<text text-anchor="start" x="981" y="-436.5" font-family="Helvetica,sans-Serif" font-size="10.00">::CloudAspectEngineBase</text>
<text text-anchor="middle" x="1038.5" y="-425.5" font-family="Helvetica,sans-Serif" font-size="10.00">&lt; T, TMeta &gt;</text>
</a>
</g>
</g>
<!-- Node3&#45;&gt;Node4 -->
<g id="edge4" class="edge"><title>Node3&#45;&gt;Node4</title>
<path fill="none" stroke="midnightblue" d="M888.858,-401.934C915.891,-409.676 946.49,-418.438 972.869,-425.992"/>
<polygon fill="midnightblue" stroke="midnightblue" points="889.652,-398.521 879.075,-399.133 887.725,-405.251 889.652,-398.521"/>
</g>
<!-- Node5 -->
<g id="node6" class="node"><title>Node5</title>
<g id="a_node6"><a xlink:href="class_fifty_one_1_1_pipeline_1_1_engines_1_1_flow_elements_1_1_on_premise_aspect_engine_base.html" target="_top" xlink:title="Base class for 51Degrees on&#45;premise aspect engines.">
<polygon fill="none" stroke="black" points="961,-347.5 961,-399.5 1116,-399.5 1116,-347.5 961,-347.5"/>
<text text-anchor="start" x="969" y="-387.5" font-family="Helvetica,sans-Serif" font-size="10.00">FiftyOne::Pipeline</text>
<text text-anchor="start" x="969" y="-376.5" font-family="Helvetica,sans-Serif" font-size="10.00">::Engines::FlowElements</text>
<text text-anchor="start" x="969" y="-365.5" font-family="Helvetica,sans-Serif" font-size="10.00">::OnPremiseAspectEngineBase</text>
<text text-anchor="middle" x="1038.5" y="-354.5" font-family="Helvetica,sans-Serif" font-size="10.00">&lt; T, TMeta &gt;</text>
</a>
</g>
</g>
<!-- Node3&#45;&gt;Node5 -->
<g id="edge5" class="edge"><title>Node3&#45;&gt;Node5</title>
<path fill="none" stroke="midnightblue" d="M889.363,-378.887C912.174,-378.057 937.481,-377.137 960.63,-376.295"/>
<polygon fill="midnightblue" stroke="midnightblue" points="888.941,-375.4 879.075,-379.261 889.195,-382.395 888.941,-375.4"/>
</g>
<!-- Node6 -->
<g id="node7" class="node"><title>Node6</title>
<g id="a_node7"><a xlink:href="class_fifty_one_1_1_pipeline_1_1_engines_1_1_flow_elements_1_1_on_premise_aspect_engine_base.html" target="_top" xlink:title=" ">
<polygon fill="none" stroke="black" points="1303,-353 1303,-394 1520,-394 1520,-353 1303,-353"/>
<text text-anchor="start" x="1311" y="-382" font-family="Helvetica,sans-Serif" font-size="10.00">FiftyOne.Pipeline.Engines.</text>
<text text-anchor="start" x="1311" y="-371" font-family="Helvetica,sans-Serif" font-size="10.00">FlowElements.OnPremiseAspectEngine</text>
<text text-anchor="middle" x="1411.5" y="-360" font-family="Helvetica,sans-Serif" font-size="10.00">Base&lt; T, IFiftyOneAspectPropertyMetaData &gt;</text>
</a>
</g>
</g>
<!-- Node5&#45;&gt;Node6 -->
<g id="edge6" class="edge"><title>Node5&#45;&gt;Node6</title>
<path fill="none" stroke="orange" stroke-dasharray="5,2" d="M1126.69,-373.5C1179.33,-373.5 1246.82,-373.5 1302.78,-373.5"/>
<polygon fill="orange" stroke="orange" points="1126.37,-370 1116.37,-373.5 1126.37,-377 1126.37,-370"/>
<text text-anchor="start" x="1155" y="-387.5" font-family="Helvetica,sans-Serif" font-size="10.00"> &lt; T, IFiftyOneAspectProperty</text>
<text text-anchor="middle" x="1220" y="-376.5" font-family="Helvetica,sans-Serif" font-size="10.00">MetaData &gt;</text>
</g>
<!-- Node7 -->
<g id="node8" class="node"><title>Node7</title>
<g id="a_node8"><a xlink:href="class_fifty_one_1_1_pipeline_1_1_engines_1_1_fifty_one_1_1_flow_elements_1_1_fifty_one_on_premise_aspect_engine_base.html" target="_top" xlink:title="51Degrees specific Engine base class.">
<polygon fill="none" stroke="black" points="1557,-353 1557,-394 1729,-394 1729,-353 1557,-353"/>
<text text-anchor="start" x="1565" y="-382" font-family="Helvetica,sans-Serif" font-size="10.00">FiftyOne.Pipeline.Engines.</text>
<text text-anchor="start" x="1565" y="-371" font-family="Helvetica,sans-Serif" font-size="10.00">FiftyOne.FlowElements.FiftyOne</text>
<text text-anchor="middle" x="1643" y="-360" font-family="Helvetica,sans-Serif" font-size="10.00">OnPremiseAspectEngineBase&lt; T &gt;</text>
</a>
</g>
</g>
<!-- Node6&#45;&gt;Node7 -->
<g id="edge7" class="edge"><title>Node6&#45;&gt;Node7</title>
<path fill="none" stroke="midnightblue" d="M1530.33,-373.5C1539.32,-373.5 1548.27,-373.5 1556.98,-373.5"/>
<polygon fill="midnightblue" stroke="midnightblue" points="1530.19,-370 1520.19,-373.5 1530.19,-377 1530.19,-370"/>
</g>
<!-- Node9 -->
<g id="node10" class="node"><title>Node9</title>
<g id="a_node10"><a xlink:href="class_fifty_one_1_1_pipeline_1_1_json_builder_1_1_flow_element_1_1_json_builder_element.html" target="_top" xlink:title="The JsonBuilderElement takes accessible properties and adds the property key:values to the Json objec...">
<polygon fill="none" stroke="black" points="957.5,-295.5 957.5,-325.5 1119.5,-325.5 1119.5,-295.5 957.5,-295.5"/>
<text text-anchor="start" x="965.5" y="-313.5" font-family="Helvetica,sans-Serif" font-size="10.00">FiftyOne.Pipeline.JsonBuilder.</text>
<text text-anchor="middle" x="1038.5" y="-302.5" font-family="Helvetica,sans-Serif" font-size="10.00">FlowElement.JsonBuilderElement</text>
</a>
</g>
</g>
<!-- Node8&#45;&gt;Node9 -->
<g id="edge9" class="edge"><title>Node8&#45;&gt;Node9</title>
<path fill="none" stroke="midnightblue" d="M899.586,-310.5C918.464,-310.5 938.516,-310.5 957.311,-310.5"/>
<polygon fill="midnightblue" stroke="midnightblue" points="899.536,-307 889.536,-310.5 899.536,-314 899.536,-307"/>
</g>
<!-- Node11 -->
<g id="node12" class="node"><title>Node11</title>
<g id="a_node12"><a xlink:href="class_fifty_one_1_1_pipeline_1_1_math_1_1_math_element.html" target="_top" xlink:title=" ">
<polygon fill="none" stroke="black" points="968.5,-230.5 968.5,-260.5 1108.5,-260.5 1108.5,-230.5 968.5,-230.5"/>
<text text-anchor="start" x="976.5" y="-248.5" font-family="Helvetica,sans-Serif" font-size="10.00">FiftyOne.Pipeline.Math.Math</text>
<text text-anchor="middle" x="1038.5" y="-237.5" font-family="Helvetica,sans-Serif" font-size="10.00">Element</text>
</a>
</g>
</g>
<!-- Node10&#45;&gt;Node11 -->
<g id="edge11" class="edge"><title>Node10&#45;&gt;Node11</title>
<path fill="none" stroke="midnightblue" d="M913.394,-242.115C931.889,-242.62 950.926,-243.139 968.365,-243.614"/>
<polygon fill="midnightblue" stroke="midnightblue" points="913.279,-238.611 903.188,-241.837 913.089,-245.608 913.279,-238.611"/>
</g>
<!-- Node13 -->
<g id="node14" class="node"><title>Node13</title>
<g id="a_node14"><a xlink:href="class_fifty_one_1_1_pipeline_1_1_core_1_1_flow_elements_1_1_parallel_elements.html" target="_top" xlink:title="ParallelElements executes it&#39;s child IFlowElement objects in parallel.">
<polygon fill="none" stroke="black" points="970,-181.5 970,-211.5 1107,-211.5 1107,-181.5 970,-181.5"/>
<text text-anchor="start" x="978" y="-199.5" font-family="Helvetica,sans-Serif" font-size="10.00">FiftyOne.Pipeline.Core.Flow</text>
<text text-anchor="middle" x="1038.5" y="-188.5" font-family="Helvetica,sans-Serif" font-size="10.00">Elements.ParallelElements</text>
</a>
</g>
</g>
<!-- Node12&#45;&gt;Node13 -->
<g id="edge13" class="edge"><title>Node12&#45;&gt;Node13</title>
<path fill="none" stroke="midnightblue" d="M909.281,-180.181C929.525,-182.758 950.615,-185.442 969.706,-187.872"/>
<polygon fill="midnightblue" stroke="midnightblue" points="909.469,-176.677 899.107,-178.886 908.585,-183.621 909.469,-176.677"/>
</g>
<!-- Node14 -->
<g id="node15" class="node"><title>Node14</title>
<g id="a_node15"><a xlink:href="class_fifty_one_1_1_pipeline_1_1_engines_1_1_fifty_one_1_1_flow_elements_1_1_share_usage_base.html" target="_top" xlink:title="Abstract base class for ShareUsage elements.">
<polygon fill="none" stroke="black" points="940,-132.5 940,-162.5 1137,-162.5 1137,-132.5 940,-132.5"/>
<text text-anchor="start" x="948" y="-150.5" font-family="Helvetica,sans-Serif" font-size="10.00">FiftyOne.Pipeline.Engines.</text>
<text text-anchor="middle" x="1038.5" y="-139.5" font-family="Helvetica,sans-Serif" font-size="10.00">FiftyOne.FlowElements.ShareUsageBase</text>
</a>
</g>
</g>
<!-- Node12&#45;&gt;Node14 -->
<g id="edge14" class="edge"><title>Node12&#45;&gt;Node14</title>
<path fill="none" stroke="midnightblue" d="M909.109,-159.755C919.195,-158.793 929.493,-157.81 939.651,-156.84"/>
<polygon fill="midnightblue" stroke="midnightblue" points="908.729,-156.276 899.107,-160.71 909.395,-163.244 908.729,-156.276"/>
</g>
<!-- Node15 -->
<g id="node16" class="node"><title>Node15</title>
<g id="a_node16"><a xlink:href="class_fifty_one_1_1_pipeline_1_1_engines_1_1_fifty_one_1_1_flow_elements_1_1_share_usage_element.html" target="_top" xlink:title="Flow element that sends usage data to 51Degrees for analysis.">
<polygon fill="none" stroke="black" points="1324.5,-127 1324.5,-168 1498.5,-168 1498.5,-127 1324.5,-127"/>
<text text-anchor="start" x="1332.5" y="-156" font-family="Helvetica,sans-Serif" font-size="10.00">FiftyOne.Pipeline.Engines.</text>
<text text-anchor="start" x="1332.5" y="-145" font-family="Helvetica,sans-Serif" font-size="10.00">FiftyOne.FlowElements.ShareUsage</text>
<text text-anchor="middle" x="1411.5" y="-134" font-family="Helvetica,sans-Serif" font-size="10.00">Element</text>
</a>
</g>
</g>
<!-- Node14&#45;&gt;Node15 -->
<g id="edge15" class="edge"><title>Node14&#45;&gt;Node15</title>
<path fill="none" stroke="midnightblue" d="M1147.47,-147.5C1203.74,-147.5 1271.62,-147.5 1324.33,-147.5"/>
<polygon fill="midnightblue" stroke="midnightblue" points="1147.46,-144 1137.46,-147.5 1147.46,-151 1147.46,-144"/>
</g>
<!-- Node17 -->
<g id="node18" class="node"><title>Node17</title>
<g id="a_node18"><a xlink:href="class_fifty_one_1_1_pipeline_1_1_java_script_builder_1_1_flow_element_1_1_java_script_builder_element.html" target="_top" xlink:title="JavaScript Builder Element generates a JavaScript include to be run on the client device.">
<polygon fill="none" stroke="black" points="947,-72 947,-113 1130,-113 1130,-72 947,-72"/>
<text text-anchor="start" x="955" y="-101" font-family="Helvetica,sans-Serif" font-size="10.00">FiftyOne.Pipeline.JavaScript</text>
<text text-anchor="start" x="955" y="-90" font-family="Helvetica,sans-Serif" font-size="10.00">Builder.FlowElement.JavaScriptBuilder</text>
<text text-anchor="middle" x="1038.5" y="-79" font-family="Helvetica,sans-Serif" font-size="10.00">Element</text>
</a>
</g>
</g>
<!-- Node16&#45;&gt;Node17 -->
<g id="edge17" class="edge"><title>Node16&#45;&gt;Node17</title>
<path fill="none" stroke="midnightblue" d="M907.541,-95.4536C920.511,-95.1588 933.863,-94.8554 946.845,-94.5603"/>
<polygon fill="midnightblue" stroke="midnightblue" points="907.154,-91.9614 897.236,-95.6878 907.313,-98.9596 907.154,-91.9614"/>
</g>
<!-- Node19 -->
<g id="node20" class="node"><title>Node19</title>
<g id="a_node20"><a xlink:href="class_fifty_one_1_1_pipeline_1_1_ip_splitter_1_1_ip_splitter_element.html" target="_top" xlink:title=" ">
<polygon fill="none" stroke="black" points="971,-11.5 971,-41.5 1106,-41.5 1106,-11.5 971,-11.5"/>
<text text-anchor="start" x="979" y="-29.5" font-family="Helvetica,sans-Serif" font-size="10.00">FiftyOne.Pipeline.IpSplitter.</text>
<text text-anchor="middle" x="1038.5" y="-18.5" font-family="Helvetica,sans-Serif" font-size="10.00">IpSplitterElement</text>
</a>
</g>
</g>
<!-- Node18&#45;&gt;Node19 -->
<g id="edge19" class="edge"><title>Node18&#45;&gt;Node19</title>
<path fill="none" stroke="midnightblue" d="M905.033,-26.5C926.893,-26.5 949.989,-26.5 970.667,-26.5"/>
<polygon fill="midnightblue" stroke="midnightblue" points="904.754,-23.0001 894.754,-26.5 904.754,-30.0001 904.754,-23.0001"/>
</g>
</g>
</svg>
