<?xml version="1.0" encoding="UTF-8" standalone="no"?>
<!DOCTYPE svg PUBLIC "-//W3C//DTD SVG 1.1//EN"
 "http://www.w3.org/Graphics/SVG/1.1/DTD/svg11.dtd">
<!-- Generated by graphviz version 2.38.0 (20140413.2041)
 -->
<!-- Title: FiftyOne.Pipeline.JavaScriptBuilder.FlowElement.JavaScriptBuilderElement Pages: 1 -->
<svg width="1223pt" height="101pt"
 viewBox="0.00 0.00 1223.00 100.50" xmlns="http://www.w3.org/2000/svg" xmlns:xlink="http://www.w3.org/1999/xlink">
<g id="graph0" class="graph" transform="scale(1 1) rotate(0) translate(4 96.5)">
<title>FiftyOne.Pipeline.JavaScriptBuilder.FlowElement.JavaScriptBuilderElement</title>
<!-- Node5 -->
<g id="node1" class="node"><title>Node5</title>
<g id="a_node1"><a xlink:title="JavaScript Builder Element generates a JavaScript include to be run on the client device.">
<polygon fill="#bfbfbf" stroke="black" points="1032,-15 1032,-56 1215,-56 1215,-15 1032,-15"/>
<text text-anchor="start" x="1040" y="-44" font-family="Helvetica,sans-Serif" font-size="10.00">FiftyOne.Pipeline.JavaScript</text>
<text text-anchor="start" x="1040" y="-33" font-family="Helvetica,sans-Serif" font-size="10.00">Builder.FlowElement.JavaScriptBuilder</text>
<text text-anchor="middle" x="1123.5" y="-22" font-family="Helvetica,sans-Serif" font-size="10.00">Element</text>
</a>
</g>
</g>
<!-- Node6 -->
<g id="node2" class="node"><title>Node6</title>
<g id="a_node2"><a xlink:href="class_fifty_one_1_1_pipeline_1_1_core_1_1_flow_elements_1_1_flow_element_base.html" target="_top" xlink:title=" ">
<polygon fill="none" stroke="black" points="730,-50 730,-91 914,-91 914,-50 730,-50"/>
<text text-anchor="start" x="738" y="-79" font-family="Helvetica,sans-Serif" font-size="10.00">FlowElementBase&lt; IJavaScript</text>
<text text-anchor="start" x="738" y="-68" font-family="Helvetica,sans-Serif" font-size="10.00">BuilderElementData, IElementProperty</text>
<text text-anchor="middle" x="822" y="-57" font-family="Helvetica,sans-Serif" font-size="10.00">MetaData &gt;</text>
</a>
</g>
</g>
<!-- Node6&#45;&gt;Node5 -->
<g id="edge1" class="edge"><title>Node6&#45;&gt;Node5</title>
<path fill="none" stroke="midnightblue" d="M924.277,-58.6646C959.128,-54.5919 997.904,-50.0604 1031.85,-46.0931"/>
<polygon fill="midnightblue" stroke="midnightblue" points="923.606,-55.2191 914.08,-59.8563 924.418,-62.1718 923.606,-55.2191"/>
</g>
<!-- Node7 -->
<g id="node3" class="node"><title>Node7</title>
<g id="a_node3"><a xlink:href="class_fifty_one_1_1_pipeline_1_1_core_1_1_flow_elements_1_1_flow_element_base.html" target="_top" xlink:title="Abstract base class for Flow Elements.">
<polygon fill="none" stroke="black" points="401,-50 401,-91 541,-91 541,-50 401,-50"/>
<text text-anchor="start" x="409" y="-79" font-family="Helvetica,sans-Serif" font-size="10.00">FiftyOne.Pipeline.Core.Flow</text>
<text text-anchor="start" x="409" y="-68" font-family="Helvetica,sans-Serif" font-size="10.00">Elements.FlowElementBase</text>
<text text-anchor="middle" x="471" y="-57" font-family="Helvetica,sans-Serif" font-size="10.00">&lt; T, TMeta &gt;</text>
</a>
</g>
</g>
<!-- Node7&#45;&gt;Node6 -->
<g id="edge2" class="edge"><title>Node7&#45;&gt;Node6</title>
<path fill="none" stroke="orange" stroke-dasharray="5,2" d="M551.417,-70.5C604.525,-70.5 674.547,-70.5 729.917,-70.5"/>
<polygon fill="orange" stroke="orange" points="551.368,-67.0001 541.368,-70.5 551.368,-74.0001 551.368,-67.0001"/>
<text text-anchor="start" x="559" y="-84.5" font-family="Helvetica,sans-Serif" font-size="10.00"> &lt; IJavaScriptBuilderElement</text>
<text text-anchor="middle" x="635.5" y="-73.5" font-family="Helvetica,sans-Serif" font-size="10.00">Data, IElementPropertyMetaData &gt;</text>
</g>
<!-- Node8 -->
<g id="node4" class="node"><title>Node8</title>
<g id="a_node4"><a xlink:href="interface_fifty_one_1_1_pipeline_1_1_core_1_1_flow_elements_1_1_i_flow_element.html" target="_top" xlink:title=" ">
<polygon fill="none" stroke="black" points="233,-61 233,-80 364,-80 364,-61 233,-61"/>
<text text-anchor="middle" x="298.5" y="-68" font-family="Helvetica,sans-Serif" font-size="10.00">IFlowElement&lt; T, TMeta &gt;</text>
</a>
</g>
</g>
<!-- Node8&#45;&gt;Node7 -->
<g id="edge3" class="edge"><title>Node8&#45;&gt;Node7</title>
<path fill="none" stroke="midnightblue" d="M374.641,-70.5C383.402,-70.5 392.308,-70.5 400.98,-70.5"/>
<polygon fill="midnightblue" stroke="midnightblue" points="374.445,-67.0001 364.445,-70.5 374.445,-74.0001 374.445,-67.0001"/>
</g>
<!-- Node9 -->
<g id="node5" class="node"><title>Node9</title>
<g id="a_node5"><a xlink:href="interface_fifty_one_1_1_pipeline_1_1_core_1_1_flow_elements_1_1_i_flow_element.html" target="_top" xlink:title="IFlowElement is the basic building block of a pipeline.">
<polygon fill="none" stroke="black" points="0,-55.5 0,-85.5 137,-85.5 137,-55.5 0,-55.5"/>
<text text-anchor="start" x="8" y="-73.5" font-family="Helvetica,sans-Serif" font-size="10.00">FiftyOne.Pipeline.Core.Flow</text>
<text text-anchor="middle" x="68.5" y="-62.5" font-family="Helvetica,sans-Serif" font-size="10.00">Elements.IFlowElement</text>
</a>
</g>
</g>
<!-- Node9&#45;&gt;Node8 -->
<g id="edge4" class="edge"><title>Node9&#45;&gt;Node8</title>
<path fill="none" stroke="orange" stroke-dasharray="5,2" d="M147.369,-70.5C175.158,-70.5 206.141,-70.5 232.71,-70.5"/>
<polygon fill="orange" stroke="orange" points="147.29,-67.0001 137.29,-70.5 147.29,-74.0001 147.29,-67.0001"/>
<text text-anchor="middle" x="185" y="-73.5" font-family="Helvetica,sans-Serif" font-size="10.00"> &lt; T, TMeta &gt;</text>
</g>
<!-- Node10 -->
<g id="node6" class="node"><title>Node10</title>
<g id="a_node6"><a xlink:href="interface_fifty_one_1_1_pipeline_1_1_core_1_1_data_1_1_i_evidence_key_filter.html" target="_top" xlink:title="Represents an object that filters evidence key names based on some criteria.">
<polygon fill="none" stroke="black" points="752,-0.5 752,-30.5 892,-30.5 892,-0.5 752,-0.5"/>
<text text-anchor="start" x="760" y="-18.5" font-family="Helvetica,sans-Serif" font-size="10.00">FiftyOne.Pipeline.Core.Data.</text>
<text text-anchor="middle" x="822" y="-7.5" font-family="Helvetica,sans-Serif" font-size="10.00">IEvidenceKeyFilter</text>
</a>
</g>
</g>
<!-- Node10&#45;&gt;Node5 -->
<g id="edge5" class="edge"><title>Node10&#45;&gt;Node5</title>
<path fill="none" stroke="#9a32cd" stroke-dasharray="5,2" d="M902.285,-20.7945C942.125,-23.455 990.585,-26.691 1031.89,-29.4493"/>
<polygon fill="#9a32cd" stroke="#9a32cd" points="902.298,-17.2877 892.087,-20.1135 901.832,-24.2721 902.298,-17.2877"/>
<text text-anchor="middle" x="973" y="-31.5" font-family="Helvetica,sans-Serif" font-size="10.00"> EvidenceKeyFilter</text>
</g>
</g>
</svg>
