<?xml version="1.0" encoding="UTF-8" standalone="no"?>
<!DOCTYPE svg PUBLIC "-//W3C//DTD SVG 1.1//EN"
 "http://www.w3.org/Graphics/SVG/1.1/DTD/svg11.dtd">
<!-- Generated by graphviz version 2.38.0 (20140413.2041)
 -->
<!-- Title: FiftyOne.Pipeline.Engines.FiftyOne.Data.FiftyOneDataFile Pages: 1 -->
<svg width="232pt" height="207pt"
 viewBox="0.00 0.00 231.50 207.00" xmlns="http://www.w3.org/2000/svg" xmlns:xlink="http://www.w3.org/1999/xlink">
<g id="graph0" class="graph" transform="scale(1 1) rotate(0) translate(4 203)">
<title>FiftyOne.Pipeline.Engines.FiftyOne.Data.FiftyOneDataFile</title>
<!-- Node0 -->
<g id="node1" class="node"><title>Node0</title>
<g id="a_node1"><a xlink:title=" ">
<polygon fill="#bfbfbf" stroke="black" points="40.5,-0.5 40.5,-30.5 192.5,-30.5 192.5,-0.5 40.5,-0.5"/>
<text text-anchor="start" x="48.5" y="-18.5" font-family="Helvetica,sans-Serif" font-size="10.00">FiftyOne.Pipeline.Engines.</text>
<text text-anchor="middle" x="116.5" y="-7.5" font-family="Helvetica,sans-Serif" font-size="10.00">FiftyOne.Data.FiftyOneDataFile</text>
</a>
</g>
</g>
<!-- Node1 -->
<g id="node2" class="node"><title>Node1</title>
<g id="a_node2"><a xlink:href="class_fifty_one_1_1_pipeline_1_1_engines_1_1_data_1_1_aspect_engine_data_file.html" target="_top" xlink:title="This class contains all configuration and run&#45;time state information that is associated with a partic...">
<polygon fill="none" stroke="black" points="0,-67.5 0,-86.5 113,-86.5 113,-67.5 0,-67.5"/>
<text text-anchor="middle" x="56.5" y="-74.5" font-family="Helvetica,sans-Serif" font-size="10.00">AspectEngineDataFile</text>
</a>
</g>
</g>
<!-- Node1&#45;&gt;Node0 -->
<g id="edge1" class="edge"><title>Node1&#45;&gt;Node0</title>
<path fill="none" stroke="midnightblue" d="M72.2624,-60.369C81.5964,-51.1127 93.3245,-39.4824 102.359,-30.523"/>
<polygon fill="midnightblue" stroke="midnightblue" points="69.7327,-57.9484 65.0965,-67.4751 74.6617,-62.9189 69.7327,-57.9484"/>
</g>
<!-- Node2 -->
<g id="node3" class="node"><title>Node2</title>
<g id="a_node3"><a xlink:href="interface_fifty_one_1_1_pipeline_1_1_engines_1_1_data_1_1_i_aspect_engine_data_file.html" target="_top" xlink:title="Interface for the details of a data file used by an Aspect engine.">
<polygon fill="none" stroke="black" points="58.5,-123.5 58.5,-142.5 174.5,-142.5 174.5,-123.5 58.5,-123.5"/>
<text text-anchor="middle" x="116.5" y="-130.5" font-family="Helvetica,sans-Serif" font-size="10.00">IAspectEngineDataFile</text>
</a>
</g>
</g>
<!-- Node2&#45;&gt;Node1 -->
<g id="edge2" class="edge"><title>Node2&#45;&gt;Node1</title>
<path fill="none" stroke="midnightblue" d="M99.3191,-116.537C88.6208,-106.909 75.2437,-94.8694 66.3154,-86.8339"/>
<polygon fill="midnightblue" stroke="midnightblue" points="97.0856,-119.236 106.86,-123.324 101.768,-114.033 97.0856,-119.236"/>
</g>
<!-- Node4 -->
<g id="node5" class="node"><title>Node4</title>
<g id="a_node5"><a xlink:href="interface_fifty_one_1_1_pipeline_1_1_engines_1_1_fifty_one_1_1_data_1_1_i_fifty_one_data_file.html" target="_top" xlink:title=" ">
<polygon fill="none" stroke="black" points="131.5,-67.5 131.5,-86.5 223.5,-86.5 223.5,-67.5 131.5,-67.5"/>
<text text-anchor="middle" x="177.5" y="-74.5" font-family="Helvetica,sans-Serif" font-size="10.00">IFiftyOneDataFile</text>
</a>
</g>
</g>
<!-- Node2&#45;&gt;Node4 -->
<g id="edge5" class="edge"><title>Node2&#45;&gt;Node4</title>
<path fill="none" stroke="midnightblue" d="M133.967,-116.537C144.844,-106.909 158.444,-94.8694 167.521,-86.8339"/>
<polygon fill="midnightblue" stroke="midnightblue" points="131.468,-114.075 126.301,-123.324 136.108,-119.316 131.468,-114.075"/>
</g>
<!-- Node3 -->
<g id="node4" class="node"><title>Node3</title>
<g id="a_node4"><a xlink:title=" ">
<polygon fill="none" stroke="#bfbfbf" points="83,-179.5 83,-198.5 150,-198.5 150,-179.5 83,-179.5"/>
<text text-anchor="middle" x="116.5" y="-186.5" font-family="Helvetica,sans-Serif" font-size="10.00">IDisposable</text>
</a>
</g>
</g>
<!-- Node3&#45;&gt;Node2 -->
<g id="edge3" class="edge"><title>Node3&#45;&gt;Node2</title>
<path fill="none" stroke="midnightblue" d="M116.5,-168.805C116.5,-159.91 116.5,-149.78 116.5,-142.751"/>
<polygon fill="midnightblue" stroke="midnightblue" points="113,-169.083 116.5,-179.083 120,-169.083 113,-169.083"/>
</g>
<!-- Node4&#45;&gt;Node0 -->
<g id="edge4" class="edge"><title>Node4&#45;&gt;Node0</title>
<path fill="none" stroke="midnightblue" d="M161.475,-60.369C151.985,-51.1127 140.062,-39.4824 130.876,-30.523"/>
<polygon fill="midnightblue" stroke="midnightblue" points="159.158,-62.9981 168.76,-67.4751 164.046,-57.9871 159.158,-62.9981"/>
</g>
</g>
</svg>
