<?xml version="1.0" encoding="UTF-8" standalone="no"?>
<!DOCTYPE svg PUBLIC "-//W3C//DTD SVG 1.1//EN"
 "http://www.w3.org/Graphics/SVG/1.1/DTD/svg11.dtd">
<!-- Generated by graphviz version 2.38.0 (20140413.2041)
 -->
<!-- Title: FiftyOne.Pipeline.Engines.FiftyOne.Configuration.FiftyOneDataFileConfiguration Pages: 1 -->
<svg width="160pt" height="162pt"
 viewBox="0.00 0.00 160.00 162.00" xmlns="http://www.w3.org/2000/svg" xmlns:xlink="http://www.w3.org/1999/xlink">
<g id="graph0" class="graph" transform="scale(1 1) rotate(0) translate(4 158)">
<title>FiftyOne.Pipeline.Engines.FiftyOne.Configuration.FiftyOneDataFileConfiguration</title>
<!-- Node3 -->
<g id="node1" class="node"><title>Node3</title>
<g id="a_node1"><a xlink:title="Data file configuration class for 51Degrees data files.">
<polygon fill="#bfbfbf" stroke="black" points="0,-0.5 0,-41.5 152,-41.5 152,-0.5 0,-0.5"/>
<text text-anchor="start" x="8" y="-29.5" font-family="Helvetica,sans-Serif" font-size="10.00">FiftyOne.Pipeline.Engines.</text>
<text text-anchor="start" x="8" y="-18.5" font-family="Helvetica,sans-Serif" font-size="10.00">FiftyOne.Configuration.FiftyOne</text>
<text text-anchor="middle" x="76" y="-7.5" font-family="Helvetica,sans-Serif" font-size="10.00">DataFileConfiguration</text>
</a>
</g>
</g>
<!-- Node4 -->
<g id="node2" class="node"><title>Node4</title>
<g id="a_node2"><a xlink:href="class_fifty_one_1_1_pipeline_1_1_engines_1_1_configuration_1_1_data_file_configuration.html" target="_top" xlink:title="This class contains the automatic update configuration parameters that can be supplied to an engine f...">
<polygon fill="none" stroke="black" points="21.5,-78.5 21.5,-97.5 130.5,-97.5 130.5,-78.5 21.5,-78.5"/>
<text text-anchor="middle" x="76" y="-85.5" font-family="Helvetica,sans-Serif" font-size="10.00">DataFileConfiguration</text>
</a>
</g>
</g>
<!-- Node4&#45;&gt;Node3 -->
<g id="edge1" class="edge"><title>Node4&#45;&gt;Node3</title>
<path fill="none" stroke="midnightblue" d="M76,-68.037C76,-59.7084 76,-49.9358 76,-41.5421"/>
<polygon fill="midnightblue" stroke="midnightblue" points="72.5001,-68.2338 76,-78.2338 79.5001,-68.2338 72.5001,-68.2338"/>
</g>
<!-- Node5 -->
<g id="node3" class="node"><title>Node5</title>
<g id="a_node3"><a xlink:href="interface_fifty_one_1_1_pipeline_1_1_engines_1_1_configuration_1_1_i_data_file_configuration.html" target="_top" xlink:title="Interface representing the configuration parameters controlling the automatic update checks for a spe...">
<polygon fill="none" stroke="black" points="20.5,-134.5 20.5,-153.5 131.5,-153.5 131.5,-134.5 20.5,-134.5"/>
<text text-anchor="middle" x="76" y="-141.5" font-family="Helvetica,sans-Serif" font-size="10.00">IDataFileConfiguration</text>
</a>
</g>
</g>
<!-- Node5&#45;&gt;Node4 -->
<g id="edge2" class="edge"><title>Node5&#45;&gt;Node4</title>
<path fill="none" stroke="midnightblue" d="M76,-123.805C76,-114.91 76,-104.78 76,-97.7511"/>
<polygon fill="midnightblue" stroke="midnightblue" points="72.5001,-124.083 76,-134.083 79.5001,-124.083 72.5001,-124.083"/>
</g>
</g>
</svg>
