<?xml version="1.0" encoding="UTF-8" standalone="no"?>
<!DOCTYPE svg PUBLIC "-//W3C//DTD SVG 1.1//EN"
 "http://www.w3.org/Graphics/SVG/1.1/DTD/svg11.dtd">
<!-- Generated by graphviz version 2.38.0 (20140413.2041)
 -->
<!-- Title: FiftyOne.Pipeline.Engines.Caching.DataKeyedCacheBase&lt; TValue &gt; Pages: 1 -->
<svg width="1256pt" height="110pt"
 viewBox="0.00 0.00 1256.00 110.00" xmlns="http://www.w3.org/2000/svg" xmlns:xlink="http://www.w3.org/1999/xlink">
<g id="graph0" class="graph" transform="scale(1 1) rotate(0) translate(4 106)">
<title>FiftyOne.Pipeline.Engines.Caching.DataKeyedCacheBase&lt; TValue &gt;</title>
<!-- Node0 -->
<g id="node1" class="node"><title>Node0</title>
<g id="a_node1"><a xlink:title="Abstract base class for caches that use IFlowData as the key.">
<polygon fill="#bfbfbf" stroke="black" points="333,-21.5 333,-62.5 486,-62.5 486,-21.5 333,-21.5"/>
<text text-anchor="start" x="341" y="-50.5" font-family="Helvetica,sans-Serif" font-size="10.00">FiftyOne.Pipeline.Engines.</text>
<text text-anchor="start" x="341" y="-39.5" font-family="Helvetica,sans-Serif" font-size="10.00">Caching.DataKeyedCacheBase</text>
<text text-anchor="middle" x="409.5" y="-28.5" font-family="Helvetica,sans-Serif" font-size="10.00">&lt; TValue &gt;</text>
</a>
</g>
</g>
<!-- Node3 -->
<g id="node4" class="node"><title>Node3</title>
<g id="a_node4"><a xlink:href="class_fifty_one_1_1_pipeline_1_1_engines_1_1_trackers_1_1_tracker_base.html" target="_top" xlink:title="The abstract base class for trackers.">
<polygon fill="none" stroke="black" points="616,-60.5 616,-101.5 741,-101.5 741,-60.5 616,-60.5"/>
<text text-anchor="start" x="624" y="-89.5" font-family="Helvetica,sans-Serif" font-size="10.00">FiftyOne::Pipeline</text>
<text text-anchor="start" x="624" y="-78.5" font-family="Helvetica,sans-Serif" font-size="10.00">::Engines::Trackers</text>
<text text-anchor="middle" x="678.5" y="-67.5" font-family="Helvetica,sans-Serif" font-size="10.00">::TrackerBase&lt; TValue &gt;</text>
</a>
</g>
</g>
<!-- Node0&#45;&gt;Node3 -->
<g id="edge3" class="edge"><title>Node0&#45;&gt;Node3</title>
<path fill="none" stroke="midnightblue" d="M496.56,-54.5706C535.435,-60.2489 580.479,-66.8284 615.899,-72.0021"/>
<polygon fill="midnightblue" stroke="midnightblue" points="496.698,-51.0537 486.297,-53.0715 495.686,-57.9802 496.698,-51.0537"/>
</g>
<!-- Node6 -->
<g id="node7" class="node"><title>Node6</title>
<g id="a_node7"><a xlink:href="class_fifty_one_1_1_pipeline_1_1_engines_1_1_caching_1_1_data_keyed_cache_base.html" target="_top" xlink:title=" ">
<polygon fill="none" stroke="black" points="602,-0.5 602,-41.5 755,-41.5 755,-0.5 602,-0.5"/>
<text text-anchor="start" x="610" y="-29.5" font-family="Helvetica,sans-Serif" font-size="10.00">FiftyOne.Pipeline.Engines.</text>
<text text-anchor="start" x="610" y="-18.5" font-family="Helvetica,sans-Serif" font-size="10.00">Caching.DataKeyedCacheBase</text>
<text text-anchor="middle" x="678.5" y="-7.5" font-family="Helvetica,sans-Serif" font-size="10.00">&lt; IElementData &gt;</text>
</a>
</g>
</g>
<!-- Node0&#45;&gt;Node6 -->
<g id="edge6" class="edge"><title>Node0&#45;&gt;Node6</title>
<path fill="none" stroke="orange" stroke-dasharray="5,2" d="M496.661,-35.2233C530.576,-32.5558 569.174,-29.5201 601.976,-26.9401"/>
<polygon fill="orange" stroke="orange" points="495.992,-31.765 486.297,-36.0384 496.541,-38.7435 495.992,-31.765"/>
<text text-anchor="middle" x="544" y="-38" font-family="Helvetica,sans-Serif" font-size="10.00"> &lt; IElementData &gt;</text>
</g>
<!-- Node1 -->
<g id="node2" class="node"><title>Node1</title>
<g id="a_node2"><a xlink:href="interface_fifty_one_1_1_pipeline_1_1_engines_1_1_caching_1_1_i_data_keyed_cache.html" target="_top" xlink:title="Represents a put cache where the key is a IFlowData instance.">
<polygon fill="none" stroke="black" points="153,-32.5 153,-51.5 296,-51.5 296,-32.5 153,-32.5"/>
<text text-anchor="middle" x="224.5" y="-39.5" font-family="Helvetica,sans-Serif" font-size="10.00">IDataKeyedCache&lt; TValue &gt;</text>
</a>
</g>
</g>
<!-- Node1&#45;&gt;Node0 -->
<g id="edge1" class="edge"><title>Node1&#45;&gt;Node0</title>
<path fill="none" stroke="midnightblue" d="M306.45,-42C315.205,-42 324.09,-42 332.78,-42"/>
<polygon fill="midnightblue" stroke="midnightblue" points="306.253,-38.5001 296.253,-42 306.253,-45.5001 306.253,-38.5001"/>
</g>
<!-- Node2 -->
<g id="node3" class="node"><title>Node2</title>
<g id="a_node3"><a xlink:title=" ">
<polygon fill="none" stroke="#bfbfbf" points="0,-27 0,-57 116,-57 116,-27 0,-27"/>
<text text-anchor="start" x="8" y="-45" font-family="Helvetica,sans-Serif" font-size="10.00">IPutCache&lt; IFlowData,</text>
<text text-anchor="middle" x="58" y="-34" font-family="Helvetica,sans-Serif" font-size="10.00"> TValue &gt;</text>
</a>
</g>
</g>
<!-- Node2&#45;&gt;Node1 -->
<g id="edge2" class="edge"><title>Node2&#45;&gt;Node1</title>
<path fill="none" stroke="midnightblue" d="M126.253,-42C135.04,-42 144.062,-42 152.902,-42"/>
<polygon fill="midnightblue" stroke="midnightblue" points="126.072,-38.5001 116.072,-42 126.072,-45.5001 126.072,-38.5001"/>
</g>
<!-- Node4 -->
<g id="node5" class="node"><title>Node4</title>
<g id="a_node5"><a xlink:href="class_fifty_one_1_1_pipeline_1_1_engines_1_1_trackers_1_1_tracker_base.html" target="_top" xlink:title=" ">
<polygon fill="none" stroke="black" points="856,-66 856,-96 1029,-96 1029,-66 856,-66"/>
<text text-anchor="start" x="864" y="-84" font-family="Helvetica,sans-Serif" font-size="10.00">FiftyOne.Pipeline.Engines.</text>
<text text-anchor="middle" x="942.5" y="-73" font-family="Helvetica,sans-Serif" font-size="10.00">Trackers.TrackerBase&lt; DateTime?&gt;</text>
</a>
</g>
</g>
<!-- Node3&#45;&gt;Node4 -->
<g id="edge4" class="edge"><title>Node3&#45;&gt;Node4</title>
<path fill="none" stroke="orange" stroke-dasharray="5,2" d="M751.515,-81C783.798,-81 822.123,-81 855.866,-81"/>
<polygon fill="orange" stroke="orange" points="751.259,-77.5001 741.259,-81 751.259,-84.5001 751.259,-77.5001"/>
<text text-anchor="middle" x="805.5" y="-84" font-family="Helvetica,sans-Serif" font-size="10.00"> &lt; DateTime?&gt;</text>
</g>
<!-- Node5 -->
<g id="node6" class="node"><title>Node5</title>
<g id="a_node6"><a xlink:href="class_fifty_one_1_1_pipeline_1_1_engines_1_1_fifty_one_1_1_trackers_1_1_share_usage_tracker.html" target="_top" xlink:title="A tracker used by share usage to attempt to avoid repeatedly sending data relating to the same user s...">
<polygon fill="none" stroke="black" points="1066,-66 1066,-96 1248,-96 1248,-66 1066,-66"/>
<text text-anchor="start" x="1074" y="-84" font-family="Helvetica,sans-Serif" font-size="10.00">FiftyOne.Pipeline.Engines.</text>
<text text-anchor="middle" x="1157" y="-73" font-family="Helvetica,sans-Serif" font-size="10.00">FiftyOne.Trackers.ShareUsageTracker</text>
</a>
</g>
</g>
<!-- Node4&#45;&gt;Node5 -->
<g id="edge5" class="edge"><title>Node4&#45;&gt;Node5</title>
<path fill="none" stroke="midnightblue" d="M1039.02,-81C1047.93,-81 1056.94,-81 1065.8,-81"/>
<polygon fill="midnightblue" stroke="midnightblue" points="1039.01,-77.5001 1029.01,-81 1039.01,-84.5001 1039.01,-77.5001"/>
</g>
<!-- Node7 -->
<g id="node8" class="node"><title>Node7</title>
<g id="a_node8"><a xlink:href="class_fifty_one_1_1_pipeline_1_1_engines_1_1_caching_1_1_default_flow_cache.html" target="_top" xlink:title="The default &#39;flow cache&#39; implementation.">
<polygon fill="none" stroke="black" points="876,-6 876,-36 1009,-36 1009,-6 876,-6"/>
<text text-anchor="start" x="884" y="-24" font-family="Helvetica,sans-Serif" font-size="10.00">FiftyOne.Pipeline.Engines.</text>
<text text-anchor="middle" x="942.5" y="-13" font-family="Helvetica,sans-Serif" font-size="10.00">Caching.DefaultFlowCache</text>
</a>
</g>
</g>
<!-- Node6&#45;&gt;Node7 -->
<g id="edge7" class="edge"><title>Node6&#45;&gt;Node7</title>
<path fill="none" stroke="midnightblue" d="M765.719,-21C801.505,-21 842.361,-21 875.672,-21"/>
<polygon fill="midnightblue" stroke="midnightblue" points="765.281,-17.5001 755.281,-21 765.281,-24.5001 765.281,-17.5001"/>
</g>
</g>
</svg>
