<?xml version="1.0" encoding="UTF-8" standalone="no"?>
<!DOCTYPE svg PUBLIC "-//W3C//DTD SVG 1.1//EN"
 "http://www.w3.org/Graphics/SVG/1.1/DTD/svg11.dtd">
<!-- Generated by graphviz version 2.38.0 (20140413.2041)
 -->
<!-- Title: FiftyOne.Pipeline.Engines.FiftyOne.Data.IProfileMetaData Pages: 1 -->
<svg width="365pt" height="106pt"
 viewBox="0.00 0.00 364.50 106.00" xmlns="http://www.w3.org/2000/svg" xmlns:xlink="http://www.w3.org/1999/xlink">
<g id="graph0" class="graph" transform="scale(1 1) rotate(0) translate(4 102)">
<title>FiftyOne.Pipeline.Engines.FiftyOne.Data.IProfileMetaData</title>
<!-- Node4 -->
<g id="node1" class="node"><title>Node4</title>
<g id="a_node1"><a xlink:title="Meta data relating to a profile within the data set.">
<polygon fill="#bfbfbf" stroke="black" points="130.5,-0.5 130.5,-30.5 281.5,-30.5 281.5,-0.5 130.5,-0.5"/>
<text text-anchor="start" x="138.5" y="-18.5" font-family="Helvetica,sans-Serif" font-size="10.00">FiftyOne.Pipeline.Engines.</text>
<text text-anchor="middle" x="206" y="-7.5" font-family="Helvetica,sans-Serif" font-size="10.00">FiftyOne.Data.IProfileMetaData</text>
</a>
</g>
</g>
<!-- Node5 -->
<g id="node2" class="node"><title>Node5</title>
<g id="a_node2"><a xlink:title=" ">
<polygon fill="none" stroke="#bfbfbf" points="0,-67.5 0,-97.5 122,-97.5 122,-67.5 0,-67.5"/>
<text text-anchor="start" x="8" y="-85.5" font-family="Helvetica,sans-Serif" font-size="10.00">IEquatable&lt; IProfileMeta</text>
<text text-anchor="middle" x="61" y="-74.5" font-family="Helvetica,sans-Serif" font-size="10.00">Data &gt;</text>
</a>
</g>
</g>
<!-- Node5&#45;&gt;Node4 -->
<g id="edge1" class="edge"><title>Node5&#45;&gt;Node4</title>
<path fill="none" stroke="midnightblue" d="M101.67,-63.2687C124.765,-52.9159 153.236,-40.1528 174.599,-30.5765"/>
<polygon fill="midnightblue" stroke="midnightblue" points="100.156,-60.1116 92.4628,-67.396 103.02,-66.4991 100.156,-60.1116"/>
</g>
<!-- Node6 -->
<g id="node3" class="node"><title>Node6</title>
<g id="a_node3"><a xlink:title=" ">
<polygon fill="none" stroke="#bfbfbf" points="140.5,-67.5 140.5,-97.5 271.5,-97.5 271.5,-67.5 140.5,-67.5"/>
<text text-anchor="start" x="148.5" y="-85.5" font-family="Helvetica,sans-Serif" font-size="10.00">IComparable&lt; IProfileMeta</text>
<text text-anchor="middle" x="206" y="-74.5" font-family="Helvetica,sans-Serif" font-size="10.00">Data &gt;</text>
</a>
</g>
</g>
<!-- Node6&#45;&gt;Node4 -->
<g id="edge2" class="edge"><title>Node6&#45;&gt;Node4</title>
<path fill="none" stroke="midnightblue" d="M206,-57.1081C206,-48.1539 206,-38.3227 206,-30.5765"/>
<polygon fill="midnightblue" stroke="midnightblue" points="202.5,-57.3959 206,-67.396 209.5,-57.396 202.5,-57.3959"/>
</g>
<!-- Node7 -->
<g id="node4" class="node"><title>Node7</title>
<g id="a_node4"><a xlink:title=" ">
<polygon fill="none" stroke="#bfbfbf" points="289.5,-73 289.5,-92 356.5,-92 356.5,-73 289.5,-73"/>
<text text-anchor="middle" x="323" y="-80" font-family="Helvetica,sans-Serif" font-size="10.00">IDisposable</text>
</a>
</g>
</g>
<!-- Node7&#45;&gt;Node4 -->
<g id="edge3" class="edge"><title>Node7&#45;&gt;Node4</title>
<path fill="none" stroke="midnightblue" d="M298.255,-67.7528C278.589,-56.8271 251.186,-41.6031 231.36,-30.589"/>
<polygon fill="midnightblue" stroke="midnightblue" points="296.78,-70.9369 307.221,-72.7338 300.179,-64.8178 296.78,-70.9369"/>
</g>
</g>
</svg>
