<?xml version="1.0" encoding="UTF-8" standalone="no"?>
<!DOCTYPE svg PUBLIC "-//W3C//DTD SVG 1.1//EN"
 "http://www.w3.org/Graphics/SVG/1.1/DTD/svg11.dtd">
<!-- Generated by graphviz version 2.38.0 (20140413.2041)
 -->
<!-- Title: FiftyOne.Pipeline.Engines.FlowElements.IAspectEngine Pages: 1 -->
<svg width="1232pt" height="184pt"
 viewBox="0.00 0.00 1232.00 184.00" xmlns="http://www.w3.org/2000/svg" xmlns:xlink="http://www.w3.org/1999/xlink">
<g id="graph0" class="graph" transform="scale(1 1) rotate(0) translate(4 180)">
<title>FiftyOne.Pipeline.Engines.FlowElements.IAspectEngine</title>
<!-- Node0 -->
<g id="node1" class="node"><title>Node0</title>
<g id="a_node1"><a xlink:title="Interface representing 51Degrees on&#45;premise aspect engines.">
<polygon fill="#bfbfbf" stroke="black" points="0,-107 0,-137 144,-137 144,-107 0,-107"/>
<text text-anchor="start" x="8" y="-125" font-family="Helvetica,sans-Serif" font-size="10.00">FiftyOne.Pipeline.Engines.</text>
<text text-anchor="middle" x="72" y="-114" font-family="Helvetica,sans-Serif" font-size="10.00">FlowElements.IAspectEngine</text>
</a>
</g>
</g>
<!-- Node1 -->
<g id="node2" class="node"><title>Node1</title>
<g id="a_node2"><a xlink:href="interface_fifty_one_1_1_pipeline_1_1_engines_1_1_flow_elements_1_1_i_aspect_engine.html" target="_top" xlink:title="Interface representing 51Degrees on&#45;premise aspect engines.">
<polygon fill="none" stroke="black" points="205.5,-134.5 205.5,-175.5 349.5,-175.5 349.5,-134.5 205.5,-134.5"/>
<text text-anchor="start" x="213.5" y="-163.5" font-family="Helvetica,sans-Serif" font-size="10.00">FiftyOne.Pipeline.Engines.</text>
<text text-anchor="start" x="213.5" y="-152.5" font-family="Helvetica,sans-Serif" font-size="10.00">FlowElements.IAspectEngine</text>
<text text-anchor="middle" x="277.5" y="-141.5" font-family="Helvetica,sans-Serif" font-size="10.00">&lt; T, TMeta &gt;</text>
</a>
</g>
</g>
<!-- Node0&#45;&gt;Node1 -->
<g id="edge1" class="edge"><title>Node0&#45;&gt;Node1</title>
<path fill="none" stroke="midnightblue" d="M154.533,-128.591C171.356,-131.118 188.947,-134.023 205.366,-136.994"/>
<polygon fill="midnightblue" stroke="midnightblue" points="154.577,-125.06 144.174,-127.07 153.56,-131.986 154.577,-125.06"/>
</g>
<!-- Node0&#45;&gt;Node1 -->
<g id="edge9" class="edge"><title>Node0&#45;&gt;Node1</title>
<path fill="none" stroke="midnightblue" d="M138.048,-138.892C159.484,-142.863 183.43,-146.789 205.301,-149.926"/>
<polygon fill="midnightblue" stroke="midnightblue" points="138.546,-135.424 128.07,-137.005 137.245,-142.302 138.546,-135.424"/>
</g>
<!-- Node2 -->
<g id="node3" class="node"><title>Node2</title>
<g id="a_node3"><a xlink:href="interface_fifty_one_1_1_pipeline_1_1_engines_1_1_flow_elements_1_1_i_cloud_aspect_engine.html" target="_top" xlink:title=" ">
<polygon fill="none" stroke="black" points="193,-85 193,-115 362,-115 362,-85 193,-85"/>
<text text-anchor="start" x="201" y="-103" font-family="Helvetica,sans-Serif" font-size="10.00">FiftyOne.Pipeline.Engines.</text>
<text text-anchor="middle" x="277.5" y="-92" font-family="Helvetica,sans-Serif" font-size="10.00">FlowElements.ICloudAspectEngine</text>
</a>
</g>
</g>
<!-- Node0&#45;&gt;Node2 -->
<g id="edge2" class="edge"><title>Node0&#45;&gt;Node2</title>
<path fill="none" stroke="midnightblue" d="M154.238,-113.217C166.925,-111.846 180.056,-110.426 192.797,-109.049"/>
<polygon fill="midnightblue" stroke="midnightblue" points="153.74,-109.751 144.174,-114.305 154.493,-116.71 153.74,-109.751"/>
</g>
<!-- Node3 -->
<g id="node4" class="node"><title>Node3</title>
<g id="a_node4"><a xlink:href="interface_fifty_one_1_1_pipeline_1_1_engines_1_1_flow_elements_1_1_i_on_premise_aspect_engine.html" target="_top" xlink:title=" ">
<polygon fill="none" stroke="black" points="181,-36 181,-66 374,-66 374,-36 181,-36"/>
<text text-anchor="start" x="189" y="-54" font-family="Helvetica,sans-Serif" font-size="10.00">FiftyOne.Pipeline.Engines.</text>
<text text-anchor="middle" x="277.5" y="-43" font-family="Helvetica,sans-Serif" font-size="10.00">FlowElements.IOnPremiseAspectEngine</text>
</a>
</g>
</g>
<!-- Node0&#45;&gt;Node3 -->
<g id="edge3" class="edge"><title>Node0&#45;&gt;Node3</title>
<path fill="none" stroke="midnightblue" d="M113.267,-102.598C133.316,-93.4231 158.108,-82.7988 181,-75 190.467,-71.775 200.594,-68.7707 210.585,-66.0546"/>
<polygon fill="midnightblue" stroke="midnightblue" points="111.728,-99.453 104.124,-106.831 114.669,-105.805 111.728,-99.453"/>
</g>
<!-- Node4 -->
<g id="node5" class="node"><title>Node4</title>
<g id="a_node5"><a xlink:href="interface_fifty_one_1_1_pipeline_1_1_engines_1_1_fifty_one_1_1_flow_elements_1_1_i_fifty_one_aspect_engine.html" target="_top" xlink:title="51Degrees specific Engine interface.">
<polygon fill="none" stroke="black" points="620,-49.5 620,-90.5 780,-90.5 780,-49.5 620,-49.5"/>
<text text-anchor="start" x="628" y="-78.5" font-family="Helvetica,sans-Serif" font-size="10.00">FiftyOne.Pipeline.Engines.</text>
<text text-anchor="start" x="628" y="-67.5" font-family="Helvetica,sans-Serif" font-size="10.00">FiftyOne.FlowElements.IFiftyOne</text>
<text text-anchor="middle" x="700" y="-56.5" font-family="Helvetica,sans-Serif" font-size="10.00">AspectEngine</text>
</a>
</g>
</g>
<!-- Node3&#45;&gt;Node4 -->
<g id="edge4" class="edge"><title>Node3&#45;&gt;Node4</title>
<path fill="none" stroke="midnightblue" d="M384.352,-55.7829C457.54,-59.0898 553.344,-63.4186 619.923,-66.427"/>
<polygon fill="midnightblue" stroke="midnightblue" points="384.329,-52.2783 374.181,-55.3233 384.013,-59.2712 384.329,-52.2783"/>
</g>
<!-- Node6 -->
<g id="node7" class="node"><title>Node6</title>
<g id="a_node7"><a xlink:href="class_fifty_one_1_1_pipeline_1_1_engines_1_1_flow_elements_1_1_on_premise_aspect_engine_base.html" target="_top" xlink:title="Base class for 51Degrees on&#45;premise aspect engines.">
<polygon fill="none" stroke="black" points="411,-0.5 411,-41.5 602,-41.5 602,-0.5 411,-0.5"/>
<text text-anchor="start" x="419" y="-29.5" font-family="Helvetica,sans-Serif" font-size="10.00">FiftyOne.Pipeline.Engines.</text>
<text text-anchor="start" x="419" y="-18.5" font-family="Helvetica,sans-Serif" font-size="10.00">FlowElements.OnPremiseAspectEngine</text>
<text text-anchor="middle" x="506.5" y="-7.5" font-family="Helvetica,sans-Serif" font-size="10.00">Base&lt; T, TMeta &gt;</text>
</a>
</g>
</g>
<!-- Node3&#45;&gt;Node6 -->
<g id="edge6" class="edge"><title>Node3&#45;&gt;Node6</title>
<path fill="none" stroke="midnightblue" d="M384.101,-37.0439C392.984,-35.8699 401.933,-34.6873 410.726,-33.5251"/>
<polygon fill="midnightblue" stroke="midnightblue" points="383.566,-33.5841 374.111,-38.3642 384.483,-40.5238 383.566,-33.5841"/>
</g>
<!-- Node5 -->
<g id="node6" class="node"><title>Node5</title>
<g id="a_node6"><a xlink:href="class_fifty_one_1_1_pipeline_1_1_engines_1_1_fifty_one_1_1_flow_elements_1_1_fifty_one_on_premise_aspect_engine_base.html" target="_top" xlink:title="51Degrees specific Engine base class.">
<polygon fill="none" stroke="black" points="1052,-30.5 1052,-71.5 1224,-71.5 1224,-30.5 1052,-30.5"/>
<text text-anchor="start" x="1060" y="-59.5" font-family="Helvetica,sans-Serif" font-size="10.00">FiftyOne.Pipeline.Engines.</text>
<text text-anchor="start" x="1060" y="-48.5" font-family="Helvetica,sans-Serif" font-size="10.00">FiftyOne.FlowElements.FiftyOne</text>
<text text-anchor="middle" x="1138" y="-37.5" font-family="Helvetica,sans-Serif" font-size="10.00">OnPremiseAspectEngineBase&lt; T &gt;</text>
</a>
</g>
</g>
<!-- Node4&#45;&gt;Node5 -->
<g id="edge5" class="edge"><title>Node4&#45;&gt;Node5</title>
<path fill="none" stroke="midnightblue" d="M790.31,-66.108C866.829,-62.7735 976.296,-58.0032 1051.65,-54.7194"/>
<polygon fill="midnightblue" stroke="midnightblue" points="790.047,-62.6161 780.209,-66.5482 790.352,-69.6094 790.047,-62.6161"/>
</g>
<!-- Node7 -->
<g id="node8" class="node"><title>Node7</title>
<g id="a_node8"><a xlink:href="class_fifty_one_1_1_pipeline_1_1_engines_1_1_flow_elements_1_1_on_premise_aspect_engine_base.html" target="_top" xlink:title=" ">
<polygon fill="none" stroke="black" points="798,-0.5 798,-41.5 1015,-41.5 1015,-0.5 798,-0.5"/>
<text text-anchor="start" x="806" y="-29.5" font-family="Helvetica,sans-Serif" font-size="10.00">FiftyOne.Pipeline.Engines.</text>
<text text-anchor="start" x="806" y="-18.5" font-family="Helvetica,sans-Serif" font-size="10.00">FlowElements.OnPremiseAspectEngine</text>
<text text-anchor="middle" x="906.5" y="-7.5" font-family="Helvetica,sans-Serif" font-size="10.00">Base&lt; T, IFiftyOneAspectPropertyMetaData &gt;</text>
</a>
</g>
</g>
<!-- Node6&#45;&gt;Node7 -->
<g id="edge7" class="edge"><title>Node6&#45;&gt;Node7</title>
<path fill="none" stroke="orange" stroke-dasharray="5,2" d="M612.219,-18.1152C614.839,-18.0727 617.436,-18.0342 620,-18 691.105,-17.0521 708.894,-17.1502 780,-18 785.775,-18.069 791.699,-18.1559 797.68,-18.2562"/>
<polygon fill="orange" stroke="orange" points="611.96,-14.6191 602.024,-18.2966 612.085,-21.618 611.96,-14.6191"/>
<text text-anchor="start" x="635" y="-32" font-family="Helvetica,sans-Serif" font-size="10.00"> &lt; T, IFiftyOneAspectProperty</text>
<text text-anchor="middle" x="700" y="-21" font-family="Helvetica,sans-Serif" font-size="10.00">MetaData &gt;</text>
</g>
<!-- Node7&#45;&gt;Node5 -->
<g id="edge8" class="edge"><title>Node7&#45;&gt;Node5</title>
<path fill="none" stroke="midnightblue" d="M1025.33,-36.4031C1034.32,-37.5771 1043.27,-38.7479 1051.98,-39.8866"/>
<polygon fill="midnightblue" stroke="midnightblue" points="1025.56,-32.9034 1015.19,-35.0777 1024.66,-39.8444 1025.56,-32.9034"/>
</g>
</g>
</svg>
