<?xml version="1.0" encoding="UTF-8" standalone="no"?>
<!DOCTYPE svg PUBLIC "-//W3C//DTD SVG 1.1//EN"
 "http://www.w3.org/Graphics/SVG/1.1/DTD/svg11.dtd">
<!-- Generated by graphviz version 2.38.0 (20140413.2041)
 -->
<!-- Title: FiftyOne.Pipeline.Engines.FiftyOne.Data.IFiftyOneAspectPropertyMetaData Pages: 1 -->
<svg width="549pt" height="203pt"
 viewBox="0.00 0.00 549.00 203.00" xmlns="http://www.w3.org/2000/svg" xmlns:xlink="http://www.w3.org/1999/xlink">
<g id="graph0" class="graph" transform="scale(1 1) rotate(0) translate(4 199)">
<title>FiftyOne.Pipeline.Engines.FiftyOne.Data.IFiftyOneAspectPropertyMetaData</title>
<!-- Node7 -->
<g id="node1" class="node"><title>Node7</title>
<g id="a_node1"><a xlink:title="51Degrees specific meta data.">
<polygon fill="#bfbfbf" stroke="black" points="355,-71.5 355,-112.5 541,-112.5 541,-71.5 355,-71.5"/>
<text text-anchor="start" x="363" y="-100.5" font-family="Helvetica,sans-Serif" font-size="10.00">FiftyOne.Pipeline.Engines.</text>
<text text-anchor="start" x="363" y="-89.5" font-family="Helvetica,sans-Serif" font-size="10.00">FiftyOne.Data.IFiftyOneAspectProperty</text>
<text text-anchor="middle" x="448" y="-78.5" font-family="Helvetica,sans-Serif" font-size="10.00">MetaData</text>
</a>
</g>
</g>
<!-- Node8 -->
<g id="node2" class="node"><title>Node8</title>
<g id="a_node2"><a xlink:href="interface_fifty_one_1_1_pipeline_1_1_engines_1_1_data_1_1_i_aspect_property_meta_data.html" target="_top" xlink:title=" ">
<polygon fill="none" stroke="black" points="180.5,-175.5 180.5,-194.5 308.5,-194.5 308.5,-175.5 180.5,-175.5"/>
<text text-anchor="middle" x="244.5" y="-182.5" font-family="Helvetica,sans-Serif" font-size="10.00">IAspectPropertyMetaData</text>
</a>
</g>
</g>
<!-- Node8&#45;&gt;Node7 -->
<g id="edge1" class="edge"><title>Node8&#45;&gt;Node7</title>
<path fill="none" stroke="midnightblue" d="M297.579,-172.595C304.871,-170.349 312.194,-167.813 319,-165 353.753,-150.634 390.8,-128.696 416.047,-112.619"/>
<polygon fill="midnightblue" stroke="midnightblue" points="296.323,-169.315 287.704,-175.477 298.284,-176.035 296.323,-169.315"/>
</g>
<!-- Node9 -->
<g id="node3" class="node"><title>Node9</title>
<g id="a_node3"><a xlink:href="interface_fifty_one_1_1_pipeline_1_1_core_1_1_data_1_1_i_element_property_meta_data.html" target="_top" xlink:title=" ">
<polygon fill="none" stroke="black" points="0,-175.5 0,-194.5 134,-194.5 134,-175.5 0,-175.5"/>
<text text-anchor="middle" x="67" y="-182.5" font-family="Helvetica,sans-Serif" font-size="10.00">IElementPropertyMetaData</text>
</a>
</g>
</g>
<!-- Node9&#45;&gt;Node8 -->
<g id="edge2" class="edge"><title>Node9&#45;&gt;Node8</title>
<path fill="none" stroke="midnightblue" d="M144.691,-185C156.564,-185 168.713,-185 180.247,-185"/>
<polygon fill="midnightblue" stroke="midnightblue" points="144.349,-181.5 134.349,-185 144.349,-188.5 144.349,-181.5"/>
</g>
<!-- Node10 -->
<g id="node4" class="node"><title>Node10</title>
<g id="a_node4"><a xlink:title=" ">
<polygon fill="none" stroke="#bfbfbf" points="174,-126 174,-156 315,-156 315,-126 174,-126"/>
<text text-anchor="start" x="182" y="-144" font-family="Helvetica,sans-Serif" font-size="10.00">IEquatable&lt; IFiftyOneAspect</text>
<text text-anchor="middle" x="244.5" y="-133" font-family="Helvetica,sans-Serif" font-size="10.00">PropertyMetaData &gt;</text>
</a>
</g>
</g>
<!-- Node10&#45;&gt;Node7 -->
<g id="edge3" class="edge"><title>Node10&#45;&gt;Node7</title>
<path fill="none" stroke="midnightblue" d="M317.33,-123.533C332.011,-119.963 347.587,-116.175 362.659,-112.51"/>
<polygon fill="midnightblue" stroke="midnightblue" points="316.216,-120.202 307.326,-125.965 317.87,-127.003 316.216,-120.202"/>
</g>
<!-- Node11 -->
<g id="node5" class="node"><title>Node11</title>
<g id="a_node5"><a xlink:title=" ">
<polygon fill="none" stroke="#bfbfbf" points="170,-77 170,-107 319,-107 319,-77 170,-77"/>
<text text-anchor="start" x="178" y="-95" font-family="Helvetica,sans-Serif" font-size="10.00">IComparable&lt; IFiftyOneAspect</text>
<text text-anchor="middle" x="244.5" y="-84" font-family="Helvetica,sans-Serif" font-size="10.00">PropertyMetaData &gt;</text>
</a>
</g>
</g>
<!-- Node11&#45;&gt;Node7 -->
<g id="edge4" class="edge"><title>Node11&#45;&gt;Node7</title>
<path fill="none" stroke="midnightblue" d="M329.256,-92C337.661,-92 346.228,-92 354.715,-92"/>
<polygon fill="midnightblue" stroke="midnightblue" points="329.101,-88.5001 319.101,-92 329.101,-95.5001 329.101,-88.5001"/>
</g>
<!-- Node12 -->
<g id="node6" class="node"><title>Node12</title>
<g id="a_node6"><a xlink:title=" ">
<polygon fill="none" stroke="#bfbfbf" points="192.5,-38.5 192.5,-57.5 296.5,-57.5 296.5,-38.5 192.5,-38.5"/>
<text text-anchor="middle" x="244.5" y="-45.5" font-family="Helvetica,sans-Serif" font-size="10.00">IEquatable&lt; string &gt;</text>
</a>
</g>
</g>
<!-- Node12&#45;&gt;Node7 -->
<g id="edge5" class="edge"><title>Node12&#45;&gt;Node7</title>
<path fill="none" stroke="midnightblue" d="M299.053,-59.6938C316.249,-63.4489 335.815,-67.7215 354.959,-71.9018"/>
<polygon fill="midnightblue" stroke="midnightblue" points="299.739,-56.2613 289.222,-57.5473 298.246,-63.1002 299.739,-56.2613"/>
</g>
<!-- Node13 -->
<g id="node7" class="node"><title>Node13</title>
<g id="a_node7"><a xlink:title=" ">
<polygon fill="none" stroke="#bfbfbf" points="211,-0.5 211,-19.5 278,-19.5 278,-0.5 211,-0.5"/>
<text text-anchor="middle" x="244.5" y="-7.5" font-family="Helvetica,sans-Serif" font-size="10.00">IDisposable</text>
</a>
</g>
</g>
<!-- Node13&#45;&gt;Node7 -->
<g id="edge6" class="edge"><title>Node13&#45;&gt;Node7</title>
<path fill="none" stroke="midnightblue" d="M288.128,-19.4449C298.365,-22.1433 309.176,-25.3563 319,-29 350.814,-40.8 385.236,-58.013 410.362,-71.466"/>
<polygon fill="midnightblue" stroke="midnightblue" points="288.693,-15.9776 278.14,-16.9212 286.978,-22.7643 288.693,-15.9776"/>
</g>
</g>
</svg>
