<?xml version="1.0" encoding="UTF-8" standalone="no"?>
<!DOCTYPE svg PUBLIC "-//W3C//DTD SVG 1.1//EN"
 "http://www.w3.org/Graphics/SVG/1.1/DTD/svg11.dtd">
<!-- Generated by graphviz version 2.38.0 (20140413.2041)
 -->
<!-- Title: FiftyOne.Pipeline.Core.TypedMap.ITypedKey&lt; T &gt; Pages: 1 -->
<svg width="668pt" height="110pt"
 viewBox="0.00 0.00 668.00 110.00" xmlns="http://www.w3.org/2000/svg" xmlns:xlink="http://www.w3.org/1999/xlink">
<g id="graph0" class="graph" transform="scale(1 1) rotate(0) translate(4 106)">
<title>FiftyOne.Pipeline.Core.TypedMap.ITypedKey&lt; T &gt;</title>
<!-- Node0 -->
<g id="node1" class="node"><title>Node0</title>
<g id="a_node1"><a xlink:title="Represents a key to a ITypedKeyMap data store.">
<polygon fill="#bfbfbf" stroke="black" points="0,-36 0,-66 143,-66 143,-36 0,-36"/>
<text text-anchor="start" x="8" y="-54" font-family="Helvetica,sans-Serif" font-size="10.00">FiftyOne.Pipeline.Core.Typed</text>
<text text-anchor="middle" x="71.5" y="-43" font-family="Helvetica,sans-Serif" font-size="10.00">Map.ITypedKey&lt; T &gt;</text>
</a>
</g>
</g>
<!-- Node1 -->
<g id="node2" class="node"><title>Node1</title>
<g id="a_node2"><a xlink:href="class_fifty_one_1_1_pipeline_1_1_core_1_1_typed_map_1_1_typed_key.html" target="_top" xlink:title="A key to a ITypedKeyMap data store.">
<polygon fill="none" stroke="black" points="180,-36 180,-66 347,-66 347,-36 180,-36"/>
<text text-anchor="start" x="188" y="-54" font-family="Helvetica,sans-Serif" font-size="10.00">FiftyOne::Pipeline</text>
<text text-anchor="middle" x="263.5" y="-43" font-family="Helvetica,sans-Serif" font-size="10.00">::Core::TypedMap::TypedKey&lt; T &gt;</text>
</a>
</g>
</g>
<!-- Node0&#45;&gt;Node1 -->
<g id="edge1" class="edge"><title>Node0&#45;&gt;Node1</title>
<path fill="none" stroke="midnightblue" d="M153.42,-51C162.163,-51 171.069,-51 179.832,-51"/>
<polygon fill="midnightblue" stroke="midnightblue" points="153.249,-47.5001 143.249,-51 153.249,-54.5001 153.249,-47.5001"/>
</g>
<!-- Node2 -->
<g id="node3" class="node"><title>Node2</title>
<g id="a_node3"><a xlink:href="class_fifty_one_1_1_pipeline_1_1_core_1_1_typed_map_1_1_typed_key.html" target="_top" xlink:title=" ">
<polygon fill="none" stroke="black" points="492,-60.5 492,-101.5 660,-101.5 660,-60.5 492,-60.5"/>
<text text-anchor="start" x="500" y="-89.5" font-family="Helvetica,sans-Serif" font-size="10.00">FiftyOne.Pipeline.Core.Typed</text>
<text text-anchor="start" x="500" y="-78.5" font-family="Helvetica,sans-Serif" font-size="10.00">Map.TypedKey&lt; FiftyOne.Pipeline.</text>
<text text-anchor="middle" x="576" y="-67.5" font-family="Helvetica,sans-Serif" font-size="10.00">Math.IMathData &gt;</text>
</a>
</g>
</g>
<!-- Node1&#45;&gt;Node2 -->
<g id="edge2" class="edge"><title>Node1&#45;&gt;Node2</title>
<path fill="none" stroke="orange" stroke-dasharray="5,2" d="M357.423,-59.9781C400.152,-64.1065 450.434,-68.9647 491.891,-72.9702"/>
<polygon fill="orange" stroke="orange" points="357.591,-56.4781 347.3,-59 356.917,-63.4456 357.591,-56.4781"/>
<text text-anchor="start" x="374.5" y="-84" font-family="Helvetica,sans-Serif" font-size="10.00"> &lt; FiftyOne::Pipeline</text>
<text text-anchor="middle" x="419.5" y="-73" font-family="Helvetica,sans-Serif" font-size="10.00">::Math::IMathData &gt;</text>
</g>
<!-- Node3 -->
<g id="node4" class="node"><title>Node3</title>
<g id="a_node4"><a xlink:href="class_fifty_one_1_1_pipeline_1_1_core_1_1_typed_map_1_1_typed_key.html" target="_top" xlink:title=" ">
<polygon fill="none" stroke="black" points="492,-0.5 492,-41.5 660,-41.5 660,-0.5 492,-0.5"/>
<text text-anchor="start" x="500" y="-29.5" font-family="Helvetica,sans-Serif" font-size="10.00">FiftyOne.Pipeline.Core.Typed</text>
<text text-anchor="start" x="500" y="-18.5" font-family="Helvetica,sans-Serif" font-size="10.00">Map.TypedKey&lt; FiftyOne.Pipeline.</text>
<text text-anchor="middle" x="576" y="-7.5" font-family="Helvetica,sans-Serif" font-size="10.00">IpSplitter.ISplitIpData &gt;</text>
</a>
</g>
</g>
<!-- Node1&#45;&gt;Node3 -->
<g id="edge3" class="edge"><title>Node1&#45;&gt;Node3</title>
<path fill="none" stroke="orange" stroke-dasharray="5,2" d="M357.306,-35.91C359.897,-35.59 362.465,-35.2857 365,-35 406.665,-30.3045 453.171,-27.0055 491.808,-24.7946"/>
<polygon fill="orange" stroke="orange" points="356.699,-32.4593 347.232,-37.2154 357.599,-39.4013 356.699,-32.4593"/>
<text text-anchor="start" x="365" y="-49" font-family="Helvetica,sans-Serif" font-size="10.00"> &lt; FiftyOne::Pipeline</text>
<text text-anchor="middle" x="419.5" y="-38" font-family="Helvetica,sans-Serif" font-size="10.00">::IpSplitter::ISplitIpData &gt;</text>
</g>
</g>
</svg>
