<?xml version="1.0" encoding="UTF-8" standalone="no"?>
<!DOCTYPE svg PUBLIC "-//W3C//DTD SVG 1.1//EN"
 "http://www.w3.org/Graphics/SVG/1.1/DTD/svg11.dtd">
<!-- Generated by graphviz version 2.38.0 (20140413.2041)
 -->
<!-- Title: FiftyOne.Pipeline.Engines.FiftyOne.Data.IValueMetaData Pages: 1 -->
<svg width="419pt" height="95pt"
 viewBox="0.00 0.00 419.00 95.00" xmlns="http://www.w3.org/2000/svg" xmlns:xlink="http://www.w3.org/1999/xlink">
<g id="graph0" class="graph" transform="scale(1 1) rotate(0) translate(4 91)">
<title>FiftyOne.Pipeline.Engines.FiftyOne.Data.IValueMetaData</title>
<!-- Node0 -->
<g id="node1" class="node"><title>Node0</title>
<g id="a_node1"><a xlink:title="Meta data relating to a specific value within a data set.">
<polygon fill="#bfbfbf" stroke="black" points="172,-0.5 172,-30.5 321,-30.5 321,-0.5 172,-0.5"/>
<text text-anchor="start" x="180" y="-18.5" font-family="Helvetica,sans-Serif" font-size="10.00">FiftyOne.Pipeline.Engines.</text>
<text text-anchor="middle" x="246.5" y="-7.5" font-family="Helvetica,sans-Serif" font-size="10.00">FiftyOne.Data.IValueMetaData</text>
</a>
</g>
</g>
<!-- Node1 -->
<g id="node2" class="node"><title>Node1</title>
<g id="a_node2"><a xlink:title=" ">
<polygon fill="none" stroke="#bfbfbf" points="0,-67.5 0,-86.5 149,-86.5 149,-67.5 0,-67.5"/>
<text text-anchor="middle" x="74.5" y="-74.5" font-family="Helvetica,sans-Serif" font-size="10.00">IEquatable&lt; IValueMetaData &gt;</text>
</a>
</g>
</g>
<!-- Node1&#45;&gt;Node0 -->
<g id="edge1" class="edge"><title>Node1&#45;&gt;Node0</title>
<path fill="none" stroke="midnightblue" d="M108.891,-64.1032C136.878,-54.4216 176.438,-40.7367 205.963,-30.523"/>
<polygon fill="midnightblue" stroke="midnightblue" points="107.45,-60.8981 99.1434,-67.4751 109.738,-67.5135 107.45,-60.8981"/>
</g>
<!-- Node2 -->
<g id="node3" class="node"><title>Node2</title>
<g id="a_node3"><a xlink:title=" ">
<polygon fill="none" stroke="#bfbfbf" points="167.5,-67.5 167.5,-86.5 325.5,-86.5 325.5,-67.5 167.5,-67.5"/>
<text text-anchor="middle" x="246.5" y="-74.5" font-family="Helvetica,sans-Serif" font-size="10.00">IComparable&lt; IValueMetaData &gt;</text>
</a>
</g>
</g>
<!-- Node2&#45;&gt;Node0 -->
<g id="edge2" class="edge"><title>Node2&#45;&gt;Node0</title>
<path fill="none" stroke="midnightblue" d="M246.5,-57.2349C246.5,-48.5864 246.5,-38.4969 246.5,-30.523"/>
<polygon fill="midnightblue" stroke="midnightblue" points="243,-57.4751 246.5,-67.4751 250,-57.4751 243,-57.4751"/>
</g>
<!-- Node3 -->
<g id="node4" class="node"><title>Node3</title>
<g id="a_node4"><a xlink:title=" ">
<polygon fill="none" stroke="#bfbfbf" points="344,-67.5 344,-86.5 411,-86.5 411,-67.5 344,-67.5"/>
<text text-anchor="middle" x="377.5" y="-74.5" font-family="Helvetica,sans-Serif" font-size="10.00">IDisposable</text>
</a>
</g>
</g>
<!-- Node3&#45;&gt;Node0 -->
<g id="edge3" class="edge"><title>Node3&#45;&gt;Node0</title>
<path fill="none" stroke="midnightblue" d="M349.606,-63.3306C328.411,-53.7037 299.27,-40.468 277.374,-30.523"/>
<polygon fill="midnightblue" stroke="midnightblue" points="348.179,-66.5263 358.731,-67.4751 351.073,-60.1529 348.179,-66.5263"/>
</g>
</g>
</svg>
