<?xml version="1.0" encoding="UTF-8" standalone="no"?>
<!DOCTYPE svg PUBLIC "-//W3C//DTD SVG 1.1//EN"
 "http://www.w3.org/Graphics/SVG/1.1/DTD/svg11.dtd">
<!-- Generated by graphviz version 2.38.0 (20140413.2041)
 -->
<!-- Title: FiftyOne.Pipeline.Engines.Data.IAspectData Pages: 1 -->
<svg width="140pt" height="218pt"
 viewBox="0.00 0.00 140.00 218.00" xmlns="http://www.w3.org/2000/svg" xmlns:xlink="http://www.w3.org/1999/xlink">
<g id="graph0" class="graph" transform="scale(1 1) rotate(0) translate(4 214)">
<title>FiftyOne.Pipeline.Engines.Data.IAspectData</title>
<!-- Node0 -->
<g id="node1" class="node"><title>Node0</title>
<g id="a_node1"><a xlink:title="Represents an ElementData instance that is generated by an IAspectEngine.">
<polygon fill="#bfbfbf" stroke="black" points="0,-67.5 0,-97.5 132,-97.5 132,-67.5 0,-67.5"/>
<text text-anchor="start" x="8" y="-85.5" font-family="Helvetica,sans-Serif" font-size="10.00">FiftyOne.Pipeline.Engines.</text>
<text text-anchor="middle" x="66" y="-74.5" font-family="Helvetica,sans-Serif" font-size="10.00">Data.IAspectData</text>
</a>
</g>
</g>
<!-- Node3 -->
<g id="node4" class="node"><title>Node3</title>
<g id="a_node4"><a xlink:href="class_fifty_one_1_1_pipeline_1_1_engines_1_1_data_1_1_aspect_data_base.html" target="_top" xlink:title="Base class for element data instances that are generated by an IAspectEngine.">
<polygon fill="none" stroke="black" points="0,-0.5 0,-30.5 132,-30.5 132,-0.5 0,-0.5"/>
<text text-anchor="start" x="8" y="-18.5" font-family="Helvetica,sans-Serif" font-size="10.00">FiftyOne.Pipeline.Engines.</text>
<text text-anchor="middle" x="66" y="-7.5" font-family="Helvetica,sans-Serif" font-size="10.00">Data.AspectDataBase</text>
</a>
</g>
</g>
<!-- Node0&#45;&gt;Node3 -->
<g id="edge3" class="edge"><title>Node0&#45;&gt;Node3</title>
<path fill="none" stroke="midnightblue" d="M66,-57.1081C66,-48.1539 66,-38.3227 66,-30.5765"/>
<polygon fill="midnightblue" stroke="midnightblue" points="62.5001,-57.3959 66,-67.396 69.5001,-57.396 62.5001,-57.3959"/>
</g>
<!-- Node1 -->
<g id="node2" class="node"><title>Node1</title>
<g id="a_node2"><a xlink:href="interface_fifty_one_1_1_pipeline_1_1_core_1_1_data_1_1_i_element_data.html" target="_top" xlink:title="Represents property values that have be determined by a specific FlowElement based on the supplied ev...">
<polygon fill="none" stroke="black" points="28.5,-134.5 28.5,-153.5 103.5,-153.5 103.5,-134.5 28.5,-134.5"/>
<text text-anchor="middle" x="66" y="-141.5" font-family="Helvetica,sans-Serif" font-size="10.00">IElementData</text>
</a>
</g>
</g>
<!-- Node1&#45;&gt;Node0 -->
<g id="edge1" class="edge"><title>Node1&#45;&gt;Node0</title>
<path fill="none" stroke="midnightblue" d="M66,-124.235C66,-115.586 66,-105.497 66,-97.523"/>
<polygon fill="midnightblue" stroke="midnightblue" points="62.5001,-124.475 66,-134.475 69.5001,-124.475 62.5001,-124.475"/>
</g>
<!-- Node2 -->
<g id="node3" class="node"><title>Node2</title>
<g id="a_node3"><a xlink:href="interface_fifty_one_1_1_pipeline_1_1_core_1_1_data_1_1_i_data.html" target="_top" xlink:title="Represents property values">
<polygon fill="none" stroke="black" points="46.5,-190.5 46.5,-209.5 85.5,-209.5 85.5,-190.5 46.5,-190.5"/>
<text text-anchor="middle" x="66" y="-197.5" font-family="Helvetica,sans-Serif" font-size="10.00">IData</text>
</a>
</g>
</g>
<!-- Node2&#45;&gt;Node1 -->
<g id="edge2" class="edge"><title>Node2&#45;&gt;Node1</title>
<path fill="none" stroke="midnightblue" d="M66,-179.805C66,-170.91 66,-160.78 66,-153.751"/>
<polygon fill="midnightblue" stroke="midnightblue" points="62.5001,-180.083 66,-190.083 69.5001,-180.083 62.5001,-180.083"/>
</g>
</g>
</svg>
