<?xml version="1.0" encoding="UTF-8" standalone="no"?>
<!DOCTYPE svg PUBLIC "-//W3C//DTD SVG 1.1//EN"
 "http://www.w3.org/Graphics/SVG/1.1/DTD/svg11.dtd">
<!-- Generated by graphviz version 2.38.0 (20140413.2041)
 -->
<!-- Title: FiftyOne.Pipeline.Engines.Trackers.ITracker Pages: 1 -->
<svg width="190pt" height="253pt"
 viewBox="0.00 0.00 190.00 253.00" xmlns="http://www.w3.org/2000/svg" xmlns:xlink="http://www.w3.org/1999/xlink">
<g id="graph0" class="graph" transform="scale(1 1) rotate(0) translate(4 249)">
<title>FiftyOne.Pipeline.Engines.Trackers.ITracker</title>
<!-- Node0 -->
<g id="node1" class="node"><title>Node0</title>
<g id="a_node1"><a xlink:title=" ">
<polygon fill="#bfbfbf" stroke="black" points="25,-214.5 25,-244.5 157,-244.5 157,-214.5 25,-214.5"/>
<text text-anchor="start" x="33" y="-232.5" font-family="Helvetica,sans-Serif" font-size="10.00">FiftyOne.Pipeline.Engines.</text>
<text text-anchor="middle" x="91" y="-221.5" font-family="Helvetica,sans-Serif" font-size="10.00">Trackers.ITracker</text>
</a>
</g>
</g>
<!-- Node1 -->
<g id="node2" class="node"><title>Node1</title>
<g id="a_node2"><a xlink:href="class_fifty_one_1_1_pipeline_1_1_engines_1_1_trackers_1_1_tracker_base.html" target="_top" xlink:title="The abstract base class for trackers.">
<polygon fill="none" stroke="black" points="11,-146.5 11,-176.5 171,-176.5 171,-146.5 11,-146.5"/>
<text text-anchor="start" x="19" y="-164.5" font-family="Helvetica,sans-Serif" font-size="10.00">FiftyOne.Pipeline.Engines.</text>
<text text-anchor="middle" x="91" y="-153.5" font-family="Helvetica,sans-Serif" font-size="10.00">Trackers.TrackerBase&lt; TValue &gt;</text>
</a>
</g>
</g>
<!-- Node0&#45;&gt;Node1 -->
<g id="edge1" class="edge"><title>Node0&#45;&gt;Node1</title>
<path fill="none" stroke="midnightblue" d="M91,-204.032C91,-194.861 91,-184.745 91,-176.793"/>
<polygon fill="midnightblue" stroke="midnightblue" points="87.5001,-204.179 91,-214.179 94.5001,-204.179 87.5001,-204.179"/>
</g>
<!-- Node2 -->
<g id="node3" class="node"><title>Node2</title>
<g id="a_node3"><a xlink:href="class_fifty_one_1_1_pipeline_1_1_engines_1_1_trackers_1_1_tracker_base.html" target="_top" xlink:title=" ">
<polygon fill="none" stroke="black" points="4.5,-68.5 4.5,-98.5 177.5,-98.5 177.5,-68.5 4.5,-68.5"/>
<text text-anchor="start" x="12.5" y="-86.5" font-family="Helvetica,sans-Serif" font-size="10.00">FiftyOne.Pipeline.Engines.</text>
<text text-anchor="middle" x="91" y="-75.5" font-family="Helvetica,sans-Serif" font-size="10.00">Trackers.TrackerBase&lt; DateTime?&gt;</text>
</a>
</g>
</g>
<!-- Node1&#45;&gt;Node2 -->
<g id="edge2" class="edge"><title>Node1&#45;&gt;Node2</title>
<path fill="none" stroke="orange" stroke-dasharray="5,2" d="M91,-136.09C91,-123.757 91,-109.224 91,-98.7309"/>
<polygon fill="orange" stroke="orange" points="87.5001,-136.205 91,-146.205 94.5001,-136.205 87.5001,-136.205"/>
<text text-anchor="middle" x="123.5" y="-120" font-family="Helvetica,sans-Serif" font-size="10.00"> &lt; DateTime?&gt;</text>
</g>
<!-- Node3 -->
<g id="node4" class="node"><title>Node3</title>
<g id="a_node4"><a xlink:href="class_fifty_one_1_1_pipeline_1_1_engines_1_1_fifty_one_1_1_trackers_1_1_share_usage_tracker.html" target="_top" xlink:title="A tracker used by share usage to attempt to avoid repeatedly sending data relating to the same user s...">
<polygon fill="none" stroke="black" points="0,-0.5 0,-30.5 182,-30.5 182,-0.5 0,-0.5"/>
<text text-anchor="start" x="8" y="-18.5" font-family="Helvetica,sans-Serif" font-size="10.00">FiftyOne.Pipeline.Engines.</text>
<text text-anchor="middle" x="91" y="-7.5" font-family="Helvetica,sans-Serif" font-size="10.00">FiftyOne.Trackers.ShareUsageTracker</text>
</a>
</g>
</g>
<!-- Node2&#45;&gt;Node3 -->
<g id="edge3" class="edge"><title>Node2&#45;&gt;Node3</title>
<path fill="none" stroke="midnightblue" d="M91,-58.0322C91,-48.8606 91,-38.7449 91,-30.7931"/>
<polygon fill="midnightblue" stroke="midnightblue" points="87.5001,-58.1789 91,-68.179 94.5001,-58.179 87.5001,-58.1789"/>
</g>
</g>
</svg>
