<?xml version="1.0" encoding="UTF-8" standalone="no"?>
<!DOCTYPE svg PUBLIC "-//W3C//DTD SVG 1.1//EN"
 "http://www.w3.org/Graphics/SVG/1.1/DTD/svg11.dtd">
<!-- Generated by graphviz version 2.38.0 (20140413.2041)
 -->
<!-- Title: FiftyOne.Pipeline.Engines.Caching.IDataKeyedCache&lt; TValue &gt; Pages: 1 -->
<svg width="1335pt" height="165pt"
 viewBox="0.00 0.00 1335.00 165.00" xmlns="http://www.w3.org/2000/svg" xmlns:xlink="http://www.w3.org/1999/xlink">
<g id="graph0" class="graph" transform="scale(1 1) rotate(0) translate(4 161)">
<title>FiftyOne.Pipeline.Engines.Caching.IDataKeyedCache&lt; TValue &gt;</title>
<!-- Node0 -->
<g id="node1" class="node"><title>Node0</title>
<g id="a_node1"><a xlink:title="Represents a put cache where the key is a IFlowData instance.">
<polygon fill="#bfbfbf" stroke="black" points="153,-21.5 153,-62.5 286,-62.5 286,-21.5 153,-21.5"/>
<text text-anchor="start" x="161" y="-50.5" font-family="Helvetica,sans-Serif" font-size="10.00">FiftyOne.Pipeline.Engines.</text>
<text text-anchor="start" x="161" y="-39.5" font-family="Helvetica,sans-Serif" font-size="10.00">Caching.IDataKeyedCache</text>
<text text-anchor="middle" x="219.5" y="-28.5" font-family="Helvetica,sans-Serif" font-size="10.00">&lt; TValue &gt;</text>
</a>
</g>
</g>
<!-- Node2 -->
<g id="node3" class="node"><title>Node2</title>
<g id="a_node3"><a xlink:href="class_fifty_one_1_1_pipeline_1_1_engines_1_1_caching_1_1_data_keyed_cache_base.html" target="_top" xlink:title="Abstract base class for caches that use IFlowData as the key.">
<polygon fill="none" stroke="black" points="402,-60.5 402,-101.5 565,-101.5 565,-60.5 402,-60.5"/>
<text text-anchor="start" x="410" y="-89.5" font-family="Helvetica,sans-Serif" font-size="10.00">FiftyOne::Pipeline</text>
<text text-anchor="start" x="410" y="-78.5" font-family="Helvetica,sans-Serif" font-size="10.00">::Engines::Caching::</text>
<text text-anchor="middle" x="483.5" y="-67.5" font-family="Helvetica,sans-Serif" font-size="10.00">DataKeyedCacheBase&lt; TValue &gt;</text>
</a>
</g>
</g>
<!-- Node0&#45;&gt;Node2 -->
<g id="edge2" class="edge"><title>Node0&#45;&gt;Node2</title>
<path fill="none" stroke="midnightblue" d="M296.332,-53.2879C329.366,-58.2052 368.126,-63.9749 401.703,-68.9729"/>
<polygon fill="midnightblue" stroke="midnightblue" points="296.682,-49.8016 286.275,-51.791 295.651,-56.7253 296.682,-49.8016"/>
</g>
<!-- Node8 -->
<g id="node9" class="node"><title>Node8</title>
<g id="a_node9"><a xlink:href="interface_fifty_one_1_1_pipeline_1_1_engines_1_1_caching_1_1_i_data_keyed_cache.html" target="_top" xlink:title=" ">
<polygon fill="none" stroke="black" points="417,-0.5 417,-41.5 550,-41.5 550,-0.5 417,-0.5"/>
<text text-anchor="start" x="425" y="-29.5" font-family="Helvetica,sans-Serif" font-size="10.00">FiftyOne.Pipeline.Engines.</text>
<text text-anchor="start" x="425" y="-18.5" font-family="Helvetica,sans-Serif" font-size="10.00">Caching.IDataKeyedCache</text>
<text text-anchor="middle" x="483.5" y="-7.5" font-family="Helvetica,sans-Serif" font-size="10.00">&lt; IElementData &gt;</text>
</a>
</g>
</g>
<!-- Node0&#45;&gt;Node8 -->
<g id="edge8" class="edge"><title>Node0&#45;&gt;Node8</title>
<path fill="none" stroke="orange" stroke-dasharray="5,2" d="M296.293,-35.925C334.384,-32.8719 380.097,-29.2078 416.697,-26.2742"/>
<polygon fill="orange" stroke="orange" points="295.964,-32.4401 286.275,-36.7279 296.523,-39.4177 295.964,-32.4401"/>
<text text-anchor="middle" x="344" y="-39" font-family="Helvetica,sans-Serif" font-size="10.00"> &lt; IElementData &gt;</text>
</g>
<!-- Node1 -->
<g id="node2" class="node"><title>Node1</title>
<g id="a_node2"><a xlink:title=" ">
<polygon fill="none" stroke="#bfbfbf" points="0,-27 0,-57 116,-57 116,-27 0,-27"/>
<text text-anchor="start" x="8" y="-45" font-family="Helvetica,sans-Serif" font-size="10.00">IPutCache&lt; IFlowData,</text>
<text text-anchor="middle" x="58" y="-34" font-family="Helvetica,sans-Serif" font-size="10.00"> TValue &gt;</text>
</a>
</g>
</g>
<!-- Node1&#45;&gt;Node0 -->
<g id="edge1" class="edge"><title>Node1&#45;&gt;Node0</title>
<path fill="none" stroke="midnightblue" d="M126.311,-42C135.084,-42 144.063,-42 152.81,-42"/>
<polygon fill="midnightblue" stroke="midnightblue" points="126.133,-38.5001 116.133,-42 126.133,-45.5001 126.133,-38.5001"/>
</g>
<!-- Node3 -->
<g id="node4" class="node"><title>Node3</title>
<g id="a_node4"><a xlink:href="class_fifty_one_1_1_pipeline_1_1_engines_1_1_trackers_1_1_tracker_base.html" target="_top" xlink:title="The abstract base class for trackers.">
<polygon fill="none" stroke="black" points="695,-115.5 695,-156.5 820,-156.5 820,-115.5 695,-115.5"/>
<text text-anchor="start" x="703" y="-144.5" font-family="Helvetica,sans-Serif" font-size="10.00">FiftyOne::Pipeline</text>
<text text-anchor="start" x="703" y="-133.5" font-family="Helvetica,sans-Serif" font-size="10.00">::Engines::Trackers</text>
<text text-anchor="middle" x="757.5" y="-122.5" font-family="Helvetica,sans-Serif" font-size="10.00">::TrackerBase&lt; TValue &gt;</text>
</a>
</g>
</g>
<!-- Node2&#45;&gt;Node3 -->
<g id="edge3" class="edge"><title>Node2&#45;&gt;Node3</title>
<path fill="none" stroke="midnightblue" d="M574.878,-99.2749C614.236,-107.233 659.36,-116.358 694.784,-123.521"/>
<polygon fill="midnightblue" stroke="midnightblue" points="575.5,-95.83 565.005,-97.2786 574.113,-102.691 575.5,-95.83"/>
</g>
<!-- Node6 -->
<g id="node7" class="node"><title>Node6</title>
<g id="a_node7"><a xlink:href="class_fifty_one_1_1_pipeline_1_1_engines_1_1_caching_1_1_data_keyed_cache_base.html" target="_top" xlink:title=" ">
<polygon fill="none" stroke="black" points="681,-55.5 681,-96.5 834,-96.5 834,-55.5 681,-55.5"/>
<text text-anchor="start" x="689" y="-84.5" font-family="Helvetica,sans-Serif" font-size="10.00">FiftyOne.Pipeline.Engines.</text>
<text text-anchor="start" x="689" y="-73.5" font-family="Helvetica,sans-Serif" font-size="10.00">Caching.DataKeyedCacheBase</text>
<text text-anchor="middle" x="757.5" y="-62.5" font-family="Helvetica,sans-Serif" font-size="10.00">&lt; IElementData &gt;</text>
</a>
</g>
</g>
<!-- Node2&#45;&gt;Node6 -->
<g id="edge6" class="edge"><title>Node2&#45;&gt;Node6</title>
<path fill="none" stroke="orange" stroke-dasharray="5,2" d="M575.032,-79.3358C609.358,-78.7048 648.05,-77.9936 680.861,-77.3904"/>
<polygon fill="orange" stroke="orange" points="574.939,-75.8368 565.005,-79.5201 575.068,-82.8356 574.939,-75.8368"/>
<text text-anchor="middle" x="623" y="-83" font-family="Helvetica,sans-Serif" font-size="10.00"> &lt; IElementData &gt;</text>
</g>
<!-- Node4 -->
<g id="node5" class="node"><title>Node4</title>
<g id="a_node5"><a xlink:href="class_fifty_one_1_1_pipeline_1_1_engines_1_1_trackers_1_1_tracker_base.html" target="_top" xlink:title=" ">
<polygon fill="none" stroke="black" points="935,-121 935,-151 1108,-151 1108,-121 935,-121"/>
<text text-anchor="start" x="943" y="-139" font-family="Helvetica,sans-Serif" font-size="10.00">FiftyOne.Pipeline.Engines.</text>
<text text-anchor="middle" x="1021.5" y="-128" font-family="Helvetica,sans-Serif" font-size="10.00">Trackers.TrackerBase&lt; DateTime?&gt;</text>
</a>
</g>
</g>
<!-- Node3&#45;&gt;Node4 -->
<g id="edge4" class="edge"><title>Node3&#45;&gt;Node4</title>
<path fill="none" stroke="orange" stroke-dasharray="5,2" d="M830.515,-136C862.798,-136 901.123,-136 934.866,-136"/>
<polygon fill="orange" stroke="orange" points="830.259,-132.5 820.259,-136 830.259,-139.5 830.259,-132.5"/>
<text text-anchor="middle" x="884.5" y="-139" font-family="Helvetica,sans-Serif" font-size="10.00"> &lt; DateTime?&gt;</text>
</g>
<!-- Node5 -->
<g id="node6" class="node"><title>Node5</title>
<g id="a_node6"><a xlink:href="class_fifty_one_1_1_pipeline_1_1_engines_1_1_fifty_one_1_1_trackers_1_1_share_usage_tracker.html" target="_top" xlink:title="A tracker used by share usage to attempt to avoid repeatedly sending data relating to the same user s...">
<polygon fill="none" stroke="black" points="1145,-121 1145,-151 1327,-151 1327,-121 1145,-121"/>
<text text-anchor="start" x="1153" y="-139" font-family="Helvetica,sans-Serif" font-size="10.00">FiftyOne.Pipeline.Engines.</text>
<text text-anchor="middle" x="1236" y="-128" font-family="Helvetica,sans-Serif" font-size="10.00">FiftyOne.Trackers.ShareUsageTracker</text>
</a>
</g>
</g>
<!-- Node4&#45;&gt;Node5 -->
<g id="edge5" class="edge"><title>Node4&#45;&gt;Node5</title>
<path fill="none" stroke="midnightblue" d="M1118.02,-136C1126.93,-136 1135.94,-136 1144.8,-136"/>
<polygon fill="midnightblue" stroke="midnightblue" points="1118.01,-132.5 1108.01,-136 1118.01,-139.5 1118.01,-132.5"/>
</g>
<!-- Node7 -->
<g id="node8" class="node"><title>Node7</title>
<g id="a_node8"><a xlink:href="class_fifty_one_1_1_pipeline_1_1_engines_1_1_caching_1_1_default_flow_cache.html" target="_top" xlink:title="The default &#39;flow cache&#39; implementation.">
<polygon fill="none" stroke="black" points="955,-30 955,-60 1088,-60 1088,-30 955,-30"/>
<text text-anchor="start" x="963" y="-48" font-family="Helvetica,sans-Serif" font-size="10.00">FiftyOne.Pipeline.Engines.</text>
<text text-anchor="middle" x="1021.5" y="-37" font-family="Helvetica,sans-Serif" font-size="10.00">Caching.DefaultFlowCache</text>
</a>
</g>
</g>
<!-- Node6&#45;&gt;Node7 -->
<g id="edge7" class="edge"><title>Node6&#45;&gt;Node7</title>
<path fill="none" stroke="midnightblue" d="M844.258,-65.853C880.155,-61.6058 921.218,-56.7472 954.672,-52.7888"/>
<polygon fill="midnightblue" stroke="midnightblue" points="843.801,-62.3827 834.281,-67.0335 844.623,-69.3342 843.801,-62.3827"/>
</g>
<!-- Node9 -->
<g id="node10" class="node"><title>Node9</title>
<g id="a_node10"><a xlink:href="interface_fifty_one_1_1_pipeline_1_1_engines_1_1_caching_1_1_i_flow_cache.html" target="_top" xlink:title="Represents a &#39;flow cache&#39; A flow cache is a cache that is used to cache results from individual flow ...">
<polygon fill="none" stroke="black" points="691.5,-6 691.5,-36 823.5,-36 823.5,-6 691.5,-6"/>
<text text-anchor="start" x="699.5" y="-24" font-family="Helvetica,sans-Serif" font-size="10.00">FiftyOne.Pipeline.Engines.</text>
<text text-anchor="middle" x="757.5" y="-13" font-family="Helvetica,sans-Serif" font-size="10.00">Caching.IFlowCache</text>
</a>
</g>
</g>
<!-- Node8&#45;&gt;Node9 -->
<g id="edge9" class="edge"><title>Node8&#45;&gt;Node9</title>
<path fill="none" stroke="midnightblue" d="M560.588,-21C601.704,-21 651.95,-21 691.263,-21"/>
<polygon fill="midnightblue" stroke="midnightblue" points="560.344,-17.5001 550.344,-21 560.344,-24.5001 560.344,-17.5001"/>
</g>
<!-- Node9&#45;&gt;Node7 -->
<g id="edge10" class="edge"><title>Node9&#45;&gt;Node7</title>
<path fill="none" stroke="midnightblue" d="M833.659,-27.8847C871.92,-31.3896 918,-35.6107 954.825,-38.984"/>
<polygon fill="midnightblue" stroke="midnightblue" points="833.878,-24.3903 823.601,-26.9634 833.24,-31.3611 833.878,-24.3903"/>
</g>
</g>
</svg>
