<?xml version="1.0" encoding="UTF-8" standalone="no"?>
<!DOCTYPE svg PUBLIC "-//W3C//DTD SVG 1.1//EN"
 "http://www.w3.org/Graphics/SVG/1.1/DTD/svg11.dtd">
<!-- Generated by graphviz version 2.38.0 (20140413.2041)
 -->
<!-- Title: FiftyOne.Pipeline.Engines.Caching.IFlowCache Pages: 1 -->
<svg width="159pt" height="332pt"
 viewBox="0.00 0.00 159.00 332.00" xmlns="http://www.w3.org/2000/svg" xmlns:xlink="http://www.w3.org/1999/xlink">
<g id="graph0" class="graph" transform="scale(1 1) rotate(0) translate(4 328)">
<title>FiftyOne.Pipeline.Engines.Caching.IFlowCache</title>
<!-- Node0 -->
<g id="node1" class="node"><title>Node0</title>
<g id="a_node1"><a xlink:title="Represents a &#39;flow cache&#39; A flow cache is a cache that is used to cache results from individual flow ...">
<polygon fill="#bfbfbf" stroke="black" points="5,-68.5 5,-98.5 137,-98.5 137,-68.5 5,-68.5"/>
<text text-anchor="start" x="13" y="-86.5" font-family="Helvetica,sans-Serif" font-size="10.00">FiftyOne.Pipeline.Engines.</text>
<text text-anchor="middle" x="71" y="-75.5" font-family="Helvetica,sans-Serif" font-size="10.00">Caching.IFlowCache</text>
</a>
</g>
</g>
<!-- Node4 -->
<g id="node5" class="node"><title>Node4</title>
<g id="a_node5"><a xlink:href="class_fifty_one_1_1_pipeline_1_1_engines_1_1_caching_1_1_default_flow_cache.html" target="_top" xlink:title="The default &#39;flow cache&#39; implementation.">
<polygon fill="none" stroke="black" points="4.5,-0.5 4.5,-30.5 137.5,-30.5 137.5,-0.5 4.5,-0.5"/>
<text text-anchor="start" x="12.5" y="-18.5" font-family="Helvetica,sans-Serif" font-size="10.00">FiftyOne.Pipeline.Engines.</text>
<text text-anchor="middle" x="71" y="-7.5" font-family="Helvetica,sans-Serif" font-size="10.00">Caching.DefaultFlowCache</text>
</a>
</g>
</g>
<!-- Node0&#45;&gt;Node4 -->
<g id="edge4" class="edge"><title>Node0&#45;&gt;Node4</title>
<path fill="none" stroke="midnightblue" d="M71,-58.0322C71,-48.8606 71,-38.7449 71,-30.7931"/>
<polygon fill="midnightblue" stroke="midnightblue" points="67.5001,-58.1789 71,-68.179 74.5001,-58.179 67.5001,-58.1789"/>
</g>
<!-- Node1 -->
<g id="node2" class="node"><title>Node1</title>
<g id="a_node2"><a xlink:href="interface_fifty_one_1_1_pipeline_1_1_engines_1_1_caching_1_1_i_data_keyed_cache.html" target="_top" xlink:title=" ">
<polygon fill="none" stroke="black" points="0,-136.5 0,-166.5 142,-166.5 142,-136.5 0,-136.5"/>
<text text-anchor="start" x="8" y="-154.5" font-family="Helvetica,sans-Serif" font-size="10.00">IDataKeyedCache&lt; IElement</text>
<text text-anchor="middle" x="71" y="-143.5" font-family="Helvetica,sans-Serif" font-size="10.00">Data &gt;</text>
</a>
</g>
</g>
<!-- Node1&#45;&gt;Node0 -->
<g id="edge1" class="edge"><title>Node1&#45;&gt;Node0</title>
<path fill="none" stroke="midnightblue" d="M71,-126.032C71,-116.861 71,-106.745 71,-98.7931"/>
<polygon fill="midnightblue" stroke="midnightblue" points="67.5001,-126.179 71,-136.179 74.5001,-126.179 67.5001,-126.179"/>
</g>
<!-- Node2 -->
<g id="node3" class="node"><title>Node2</title>
<g id="a_node3"><a xlink:href="interface_fifty_one_1_1_pipeline_1_1_engines_1_1_caching_1_1_i_data_keyed_cache.html" target="_top" xlink:title="Represents a put cache where the key is a IFlowData instance.">
<polygon fill="none" stroke="black" points="4.5,-214.5 4.5,-255.5 137.5,-255.5 137.5,-214.5 4.5,-214.5"/>
<text text-anchor="start" x="12.5" y="-243.5" font-family="Helvetica,sans-Serif" font-size="10.00">FiftyOne.Pipeline.Engines.</text>
<text text-anchor="start" x="12.5" y="-232.5" font-family="Helvetica,sans-Serif" font-size="10.00">Caching.IDataKeyedCache</text>
<text text-anchor="middle" x="71" y="-221.5" font-family="Helvetica,sans-Serif" font-size="10.00">&lt; TValue &gt;</text>
</a>
</g>
</g>
<!-- Node2&#45;&gt;Node1 -->
<g id="edge2" class="edge"><title>Node2&#45;&gt;Node1</title>
<path fill="none" stroke="orange" stroke-dasharray="5,2" d="M71,-204.025C71,-191.258 71,-176.97 71,-166.685"/>
<polygon fill="orange" stroke="orange" points="67.5001,-204.271 71,-214.271 74.5001,-204.271 67.5001,-204.271"/>
<text text-anchor="middle" x="111" y="-188" font-family="Helvetica,sans-Serif" font-size="10.00"> &lt; IElementData &gt;</text>
</g>
<!-- Node3 -->
<g id="node4" class="node"><title>Node3</title>
<g id="a_node4"><a xlink:title=" ">
<polygon fill="none" stroke="#bfbfbf" points="13,-293.5 13,-323.5 129,-323.5 129,-293.5 13,-293.5"/>
<text text-anchor="start" x="21" y="-311.5" font-family="Helvetica,sans-Serif" font-size="10.00">IPutCache&lt; IFlowData,</text>
<text text-anchor="middle" x="71" y="-300.5" font-family="Helvetica,sans-Serif" font-size="10.00"> TValue &gt;</text>
</a>
</g>
</g>
<!-- Node3&#45;&gt;Node2 -->
<g id="edge3" class="edge"><title>Node3&#45;&gt;Node2</title>
<path fill="none" stroke="midnightblue" d="M71,-283.101C71,-274.098 71,-264.024 71,-255.51"/>
<polygon fill="midnightblue" stroke="midnightblue" points="67.5001,-283.374 71,-293.374 74.5001,-283.374 67.5001,-283.374"/>
</g>
</g>
</svg>
