<?xml version="1.0" encoding="UTF-8" standalone="no"?>
<!DOCTYPE svg PUBLIC "-//W3C//DTD SVG 1.1//EN"
 "http://www.w3.org/Graphics/SVG/1.1/DTD/svg11.dtd">
<!-- Generated by graphviz version 2.38.0 (20140413.2041)
 -->
<!-- Title: FiftyOne.Pipeline.JsonBuilder.FlowElement.IJsonBuilderElement Pages: 1 -->
<svg width="226pt" height="275pt"
 viewBox="0.00 0.00 226.00 275.00" xmlns="http://www.w3.org/2000/svg" xmlns:xlink="http://www.w3.org/1999/xlink">
<g id="graph0" class="graph" transform="scale(1 1) rotate(0) translate(4 271)">
<title>FiftyOne.Pipeline.JsonBuilder.FlowElement.IJsonBuilderElement</title>
<!-- Node0 -->
<g id="node1" class="node"><title>Node0</title>
<g id="a_node1"><a xlink:title=" ">
<polygon fill="#bfbfbf" stroke="black" points="6,-68.5 6,-98.5 170,-98.5 170,-68.5 6,-68.5"/>
<text text-anchor="start" x="14" y="-86.5" font-family="Helvetica,sans-Serif" font-size="10.00">FiftyOne.Pipeline.JsonBuilder.</text>
<text text-anchor="middle" x="88" y="-75.5" font-family="Helvetica,sans-Serif" font-size="10.00">FlowElement.IJsonBuilderElement</text>
</a>
</g>
</g>
<!-- Node3 -->
<g id="node4" class="node"><title>Node3</title>
<g id="a_node4"><a xlink:href="class_fifty_one_1_1_pipeline_1_1_json_builder_1_1_flow_element_1_1_json_builder_element.html" target="_top" xlink:title="The JsonBuilderElement takes accessible properties and adds the property key:values to the Json objec...">
<polygon fill="none" stroke="black" points="7,-0.5 7,-30.5 169,-30.5 169,-0.5 7,-0.5"/>
<text text-anchor="start" x="15" y="-18.5" font-family="Helvetica,sans-Serif" font-size="10.00">FiftyOne.Pipeline.JsonBuilder.</text>
<text text-anchor="middle" x="88" y="-7.5" font-family="Helvetica,sans-Serif" font-size="10.00">FlowElement.JsonBuilderElement</text>
</a>
</g>
</g>
<!-- Node0&#45;&gt;Node3 -->
<g id="edge3" class="edge"><title>Node0&#45;&gt;Node3</title>
<path fill="none" stroke="midnightblue" d="M88,-58.0322C88,-48.8606 88,-38.7449 88,-30.7931"/>
<polygon fill="midnightblue" stroke="midnightblue" points="84.5001,-58.1789 88,-68.179 91.5001,-58.179 84.5001,-58.1789"/>
</g>
<!-- Node1 -->
<g id="node2" class="node"><title>Node1</title>
<g id="a_node2"><a xlink:href="interface_fifty_one_1_1_pipeline_1_1_core_1_1_flow_elements_1_1_i_flow_element.html" target="_top" xlink:title=" ">
<polygon fill="none" stroke="black" points="0,-136.5 0,-177.5 176,-177.5 176,-136.5 0,-136.5"/>
<text text-anchor="start" x="8" y="-165.5" font-family="Helvetica,sans-Serif" font-size="10.00">IFlowElement&lt; IJsonBuilder</text>
<text text-anchor="start" x="8" y="-154.5" font-family="Helvetica,sans-Serif" font-size="10.00">ElementData, IElementPropertyMeta</text>
<text text-anchor="middle" x="88" y="-143.5" font-family="Helvetica,sans-Serif" font-size="10.00">Data &gt;</text>
</a>
</g>
</g>
<!-- Node1&#45;&gt;Node0 -->
<g id="edge1" class="edge"><title>Node1&#45;&gt;Node0</title>
<path fill="none" stroke="midnightblue" d="M88,-126.158C88,-116.687 88,-106.647 88,-98.7972"/>
<polygon fill="midnightblue" stroke="midnightblue" points="84.5001,-126.462 88,-136.462 91.5001,-126.462 84.5001,-126.462"/>
</g>
<!-- Node2 -->
<g id="node3" class="node"><title>Node2</title>
<g id="a_node3"><a xlink:href="interface_fifty_one_1_1_pipeline_1_1_core_1_1_flow_elements_1_1_i_flow_element.html" target="_top" xlink:title="IFlowElement is the basic building block of a pipeline.">
<polygon fill="none" stroke="black" points="19.5,-236.5 19.5,-266.5 156.5,-266.5 156.5,-236.5 19.5,-236.5"/>
<text text-anchor="start" x="27.5" y="-254.5" font-family="Helvetica,sans-Serif" font-size="10.00">FiftyOne.Pipeline.Core.Flow</text>
<text text-anchor="middle" x="88" y="-243.5" font-family="Helvetica,sans-Serif" font-size="10.00">Elements.IFlowElement</text>
</a>
</g>
</g>
<!-- Node2&#45;&gt;Node1 -->
<g id="edge2" class="edge"><title>Node2&#45;&gt;Node1</title>
<path fill="none" stroke="orange" stroke-dasharray="5,2" d="M88,-226.282C88,-211.138 88,-191.882 88,-177.682"/>
<polygon fill="orange" stroke="orange" points="84.5001,-226.451 88,-236.451 91.5001,-226.451 84.5001,-226.451"/>
<text text-anchor="start" x="88" y="-210" font-family="Helvetica,sans-Serif" font-size="10.00"> &lt; IJsonBuilderElementData,</text>
<text text-anchor="middle" x="153" y="-199" font-family="Helvetica,sans-Serif" font-size="10.00"> IElementPropertyMetaData &gt;</text>
</g>
</g>
</svg>
