<?xml version="1.0" encoding="UTF-8" standalone="no"?>
<!DOCTYPE svg PUBLIC "-//W3C//DTD SVG 1.1//EN"
 "http://www.w3.org/Graphics/SVG/1.1/DTD/svg11.dtd">
<!-- Generated by graphviz version 2.38.0 (20140413.2041)
 -->
<!-- Title: FiftyOne.Pipeline.Core.Data.IData Pages: 1 -->
<svg width="762pt" height="335pt"
 viewBox="0.00 0.00 762.00 334.50" xmlns="http://www.w3.org/2000/svg" xmlns:xlink="http://www.w3.org/1999/xlink">
<g id="graph0" class="graph" transform="scale(1 1) rotate(0) translate(4 330.5)">
<title>FiftyOne.Pipeline.Core.Data.IData</title>
<!-- Node0 -->
<g id="node1" class="node"><title>Node0</title>
<g id="a_node1"><a xlink:title="Represents property values">
<polygon fill="#bfbfbf" stroke="black" points="0,-95.5 0,-125.5 140,-125.5 140,-95.5 0,-95.5"/>
<text text-anchor="start" x="8" y="-113.5" font-family="Helvetica,sans-Serif" font-size="10.00">FiftyOne.Pipeline.Core.Data.</text>
<text text-anchor="middle" x="70" y="-102.5" font-family="Helvetica,sans-Serif" font-size="10.00">IData</text>
</a>
</g>
</g>
<!-- Node1 -->
<g id="node2" class="node"><title>Node1</title>
<g id="a_node2"><a xlink:href="class_fifty_one_1_1_pipeline_1_1_core_1_1_data_1_1_data_base.html" target="_top" xlink:title="This class stores data values as key/value pairs where the key is a string and the value can be any t...">
<polygon fill="none" stroke="black" points="176,-95.5 176,-125.5 316,-125.5 316,-95.5 176,-95.5"/>
<text text-anchor="start" x="184" y="-113.5" font-family="Helvetica,sans-Serif" font-size="10.00">FiftyOne.Pipeline.Core.Data.</text>
<text text-anchor="middle" x="246" y="-102.5" font-family="Helvetica,sans-Serif" font-size="10.00">DataBase</text>
</a>
</g>
</g>
<!-- Node0&#45;&gt;Node1 -->
<g id="edge1" class="edge"><title>Node0&#45;&gt;Node1</title>
<path fill="none" stroke="midnightblue" d="M150.035,-110.5C158.625,-110.5 167.319,-110.5 175.779,-110.5"/>
<polygon fill="midnightblue" stroke="midnightblue" points="150.019,-107 140.019,-110.5 150.019,-114 150.019,-107"/>
</g>
<!-- Node9 -->
<g id="node10" class="node"><title>Node9</title>
<g id="a_node10"><a xlink:href="interface_fifty_one_1_1_pipeline_1_1_core_1_1_data_1_1_i_element_data.html" target="_top" xlink:title="Represents property values that have be determined by a specific FlowElement based on the supplied ev...">
<polygon fill="none" stroke="black" points="176,-159.5 176,-189.5 316,-189.5 316,-159.5 176,-159.5"/>
<text text-anchor="start" x="184" y="-177.5" font-family="Helvetica,sans-Serif" font-size="10.00">FiftyOne.Pipeline.Core.Data.</text>
<text text-anchor="middle" x="246" y="-166.5" font-family="Helvetica,sans-Serif" font-size="10.00">IElementData</text>
</a>
</g>
</g>
<!-- Node0&#45;&gt;Node9 -->
<g id="edge9" class="edge"><title>Node0&#45;&gt;Node9</title>
<path fill="none" stroke="midnightblue" d="M121.221,-128.972C147.543,-138.654 179.37,-150.36 204.159,-159.478"/>
<polygon fill="midnightblue" stroke="midnightblue" points="122.389,-125.672 111.795,-125.505 119.972,-132.242 122.389,-125.672"/>
</g>
<!-- Node15 -->
<g id="node16" class="node"><title>Node15</title>
<g id="a_node16"><a xlink:href="interface_fifty_one_1_1_pipeline_1_1_core_1_1_data_1_1_i_evidence.html" target="_top" xlink:title="Interface to the evidence that is passed in to a Pipeline as part of a FlowData object">
<polygon fill="none" stroke="black" points="176,-16.5 176,-46.5 316,-46.5 316,-16.5 176,-16.5"/>
<text text-anchor="start" x="184" y="-34.5" font-family="Helvetica,sans-Serif" font-size="10.00">FiftyOne.Pipeline.Core.Data.</text>
<text text-anchor="middle" x="246" y="-23.5" font-family="Helvetica,sans-Serif" font-size="10.00">IEvidence</text>
</a>
</g>
</g>
<!-- Node0&#45;&gt;Node15 -->
<g id="edge21" class="edge"><title>Node0&#45;&gt;Node15</title>
<path fill="none" stroke="midnightblue" d="M113.578,-91.1685C143.798,-77.4479 183.791,-59.2902 211.69,-46.6236"/>
<polygon fill="midnightblue" stroke="midnightblue" points="111.796,-88.1337 104.138,-95.4548 114.69,-94.5075 111.796,-88.1337"/>
</g>
<!-- Node2 -->
<g id="node3" class="node"><title>Node2</title>
<g id="a_node3"><a xlink:href="class_fifty_one_1_1_pipeline_1_1_core_1_1_data_1_1_element_data_base.html" target="_top" xlink:title="This class stores property values that have be determined by a specific FlowElement based on the supp...">
<polygon fill="none" stroke="black" points="363.5,-159.5 363.5,-189.5 503.5,-189.5 503.5,-159.5 363.5,-159.5"/>
<text text-anchor="start" x="371.5" y="-177.5" font-family="Helvetica,sans-Serif" font-size="10.00">FiftyOne.Pipeline.Core.Data.</text>
<text text-anchor="middle" x="433.5" y="-166.5" font-family="Helvetica,sans-Serif" font-size="10.00">ElementDataBase</text>
</a>
</g>
</g>
<!-- Node1&#45;&gt;Node2 -->
<g id="edge2" class="edge"><title>Node1&#45;&gt;Node2</title>
<path fill="none" stroke="midnightblue" d="M295.732,-129.23C313.382,-135.846 333.518,-143.203 352,-149.5 361.835,-152.851 372.407,-156.266 382.55,-159.452"/>
<polygon fill="midnightblue" stroke="midnightblue" points="296.8,-125.892 286.208,-125.641 294.332,-132.442 296.8,-125.892"/>
</g>
<!-- Node8 -->
<g id="node9" class="node"><title>Node8</title>
<g id="a_node9"><a xlink:href="class_fifty_one_1_1_pipeline_1_1_core_1_1_data_1_1_evidence.html" target="_top" xlink:title="This class contains the evidence that is passed in to a Pipeline as part of a FlowData object">
<polygon fill="none" stroke="black" points="363.5,-0.5 363.5,-30.5 503.5,-30.5 503.5,-0.5 363.5,-0.5"/>
<text text-anchor="start" x="371.5" y="-18.5" font-family="Helvetica,sans-Serif" font-size="10.00">FiftyOne.Pipeline.Core.Data.</text>
<text text-anchor="middle" x="433.5" y="-7.5" font-family="Helvetica,sans-Serif" font-size="10.00">Evidence</text>
</a>
</g>
</g>
<!-- Node1&#45;&gt;Node8 -->
<g id="edge8" class="edge"><title>Node1&#45;&gt;Node8</title>
<path fill="none" stroke="midnightblue" d="M273.85,-88.9597C294.283,-73.4329 323.633,-52.9295 352,-39.5 358.986,-36.1927 366.53,-33.2262 374.101,-30.601"/>
<polygon fill="midnightblue" stroke="midnightblue" points="271.446,-86.3938 265.668,-95.2742 275.723,-91.9354 271.446,-86.3938"/>
</g>
<!-- Node3 -->
<g id="node4" class="node"><title>Node3</title>
<g id="a_node4"><a xlink:href="class_fifty_one_1_1_pipeline_1_1_engines_1_1_data_1_1_aspect_data_base.html" target="_top" xlink:title="Base class for element data instances that are generated by an IAspectEngine.">
<polygon fill="none" stroke="black" points="586.5,-238.5 586.5,-268.5 718.5,-268.5 718.5,-238.5 586.5,-238.5"/>
<text text-anchor="start" x="594.5" y="-256.5" font-family="Helvetica,sans-Serif" font-size="10.00">FiftyOne.Pipeline.Engines.</text>
<text text-anchor="middle" x="652.5" y="-245.5" font-family="Helvetica,sans-Serif" font-size="10.00">Data.AspectDataBase</text>
</a>
</g>
</g>
<!-- Node2&#45;&gt;Node3 -->
<g id="edge3" class="edge"><title>Node2&#45;&gt;Node3</title>
<path fill="none" stroke="midnightblue" d="M497.524,-192.674C503.455,-194.569 509.356,-196.526 515,-198.5 550.091,-210.77 589.387,-226.86 616.773,-238.463"/>
<polygon fill="midnightblue" stroke="midnightblue" points="498.143,-189.201 487.554,-189.551 496.051,-195.88 498.143,-189.201"/>
</g>
<!-- Node4 -->
<g id="node5" class="node"><title>Node4</title>
<g id="a_node5"><a xlink:href="class_fifty_one_1_1_pipeline_1_1_ip_splitter_1_1_split_ip_data.html" target="_top" xlink:title=" ">
<polygon fill="none" stroke="black" points="585,-165.5 585,-195.5 720,-195.5 720,-165.5 585,-165.5"/>
<text text-anchor="start" x="593" y="-183.5" font-family="Helvetica,sans-Serif" font-size="10.00">FiftyOne.Pipeline.IpSplitter.</text>
<text text-anchor="middle" x="652.5" y="-172.5" font-family="Helvetica,sans-Serif" font-size="10.00">SplitIpData</text>
</a>
</g>
</g>
<!-- Node2&#45;&gt;Node4 -->
<g id="edge4" class="edge"><title>Node2&#45;&gt;Node4</title>
<path fill="none" stroke="midnightblue" d="M513.939,-176.696C537.193,-177.339 562.37,-178.036 584.751,-178.654"/>
<polygon fill="midnightblue" stroke="midnightblue" points="513.85,-173.193 503.757,-176.415 513.656,-180.19 513.85,-173.193"/>
</g>
<!-- Node5 -->
<g id="node6" class="node"><title>Node5</title>
<g id="a_node6"><a xlink:href="class_fifty_one_1_1_pipeline_1_1_java_script_builder_1_1_data_1_1_java_script_builder_element_data.html" target="_top" xlink:title=" ">
<polygon fill="none" stroke="black" points="551,-110.5 551,-140.5 754,-140.5 754,-110.5 551,-110.5"/>
<text text-anchor="start" x="559" y="-128.5" font-family="Helvetica,sans-Serif" font-size="10.00">FiftyOne.Pipeline.JavaScript</text>
<text text-anchor="middle" x="652.5" y="-117.5" font-family="Helvetica,sans-Serif" font-size="10.00">Builder.Data.JavaScriptBuilderElementData</text>
</a>
</g>
</g>
<!-- Node2&#45;&gt;Node5 -->
<g id="edge5" class="edge"><title>Node2&#45;&gt;Node5</title>
<path fill="none" stroke="midnightblue" d="M510.929,-157.242C535.108,-151.782 561.622,-145.795 585.044,-140.506"/>
<polygon fill="midnightblue" stroke="midnightblue" points="510.065,-153.849 501.082,-159.465 511.607,-160.677 510.065,-153.849"/>
</g>
<!-- Node6 -->
<g id="node7" class="node"><title>Node6</title>
<g id="a_node7"><a xlink:href="class_fifty_one_1_1_pipeline_1_1_json_builder_1_1_data_1_1_json_builder_element_data.html" target="_top" xlink:title="JsonBuilderElement data class.">
<polygon fill="none" stroke="black" points="579,-58.5 579,-88.5 726,-88.5 726,-58.5 579,-58.5"/>
<text text-anchor="start" x="587" y="-76.5" font-family="Helvetica,sans-Serif" font-size="10.00">FiftyOne.Pipeline.JsonBuilder.</text>
<text text-anchor="middle" x="652.5" y="-65.5" font-family="Helvetica,sans-Serif" font-size="10.00">Data.JsonBuilderElementData</text>
</a>
</g>
</g>
<!-- Node2&#45;&gt;Node6 -->
<g id="edge6" class="edge"><title>Node2&#45;&gt;Node6</title>
<path fill="none" stroke="midnightblue" d="M506.551,-154.815C509.487,-153.179 512.319,-151.411 515,-149.5 537.007,-133.817 528.694,-115.754 551,-100.5 559.426,-94.7379 569.028,-90.2041 578.876,-86.637"/>
<polygon fill="midnightblue" stroke="midnightblue" points="504.871,-151.741 497.483,-159.335 507.994,-158.006 504.871,-151.741"/>
</g>
<!-- Node7 -->
<g id="node8" class="node"><title>Node7</title>
<g id="a_node8"><a xlink:href="class_fifty_one_1_1_pipeline_1_1_math_1_1_math_data.html" target="_top" xlink:title=" ">
<polygon fill="none" stroke="black" points="572,-300 572,-319 733,-319 733,-300 572,-300"/>
<text text-anchor="middle" x="652.5" y="-307" font-family="Helvetica,sans-Serif" font-size="10.00">FiftyOne.Pipeline.Math.MathData</text>
</a>
</g>
</g>
<!-- Node2&#45;&gt;Node7 -->
<g id="edge7" class="edge"><title>Node2&#45;&gt;Node7</title>
<path fill="none" stroke="midnightblue" d="M510.764,-195.108C512.227,-196.182 513.642,-197.312 515,-198.5 544.342,-224.175 521.779,-252.686 551,-278.5 562.426,-288.594 577.091,-295.401 591.665,-299.992"/>
<polygon fill="midnightblue" stroke="midnightblue" points="512.247,-191.907 501.918,-189.55 508.523,-197.834 512.247,-191.907"/>
</g>
<!-- Node9&#45;&gt;Node2 -->
<g id="edge10" class="edge"><title>Node9&#45;&gt;Node2</title>
<path fill="none" stroke="midnightblue" d="M326.328,-174.5C338.651,-174.5 351.296,-174.5 363.369,-174.5"/>
<polygon fill="midnightblue" stroke="midnightblue" points="326.073,-171 316.073,-174.5 326.073,-178 326.073,-171"/>
</g>
<!-- Node10 -->
<g id="node11" class="node"><title>Node10</title>
<g id="a_node11"><a xlink:href="interface_fifty_one_1_1_pipeline_1_1_engines_1_1_data_1_1_i_aspect_data.html" target="_top" xlink:title="Represents an ElementData instance that is generated by an IAspectEngine.">
<polygon fill="none" stroke="black" points="367.5,-257.5 367.5,-287.5 499.5,-287.5 499.5,-257.5 367.5,-257.5"/>
<text text-anchor="start" x="375.5" y="-275.5" font-family="Helvetica,sans-Serif" font-size="10.00">FiftyOne.Pipeline.Engines.</text>
<text text-anchor="middle" x="433.5" y="-264.5" font-family="Helvetica,sans-Serif" font-size="10.00">Data.IAspectData</text>
</a>
</g>
</g>
<!-- Node9&#45;&gt;Node10 -->
<g id="edge11" class="edge"><title>Node9&#45;&gt;Node10</title>
<path fill="none" stroke="midnightblue" d="M272.779,-195.797C293.221,-211.823 323.069,-233.37 352,-247.5 359.627,-251.225 367.93,-254.545 376.211,-257.453"/>
<polygon fill="midnightblue" stroke="midnightblue" points="274.897,-193.009 264.892,-189.52 270.538,-198.486 274.897,-193.009"/>
</g>
<!-- Node11 -->
<g id="node12" class="node"><title>Node11</title>
<g id="a_node12"><a xlink:href="interface_fifty_one_1_1_pipeline_1_1_ip_splitter_1_1_i_split_ip_data.html" target="_top" xlink:title=" ">
<polygon fill="none" stroke="black" points="366,-208.5 366,-238.5 501,-238.5 501,-208.5 366,-208.5"/>
<text text-anchor="start" x="374" y="-226.5" font-family="Helvetica,sans-Serif" font-size="10.00">FiftyOne.Pipeline.IpSplitter.</text>
<text text-anchor="middle" x="433.5" y="-215.5" font-family="Helvetica,sans-Serif" font-size="10.00">ISplitIpData</text>
</a>
</g>
</g>
<!-- Node9&#45;&gt;Node11 -->
<g id="edge13" class="edge"><title>Node9&#45;&gt;Node11</title>
<path fill="none" stroke="midnightblue" d="M313.715,-192.123C334.01,-197.484 356.114,-203.323 375.691,-208.494"/>
<polygon fill="midnightblue" stroke="midnightblue" points="314.479,-188.705 303.917,-189.535 312.691,-195.473 314.479,-188.705"/>
</g>
<!-- Node12 -->
<g id="node13" class="node"><title>Node12</title>
<g id="a_node13"><a xlink:href="interface_fifty_one_1_1_pipeline_1_1_java_script_builder_1_1_data_1_1_i_java_script_builder_element_data.html" target="_top" xlink:title=" ">
<polygon fill="none" stroke="black" points="359,-99 359,-140 508,-140 508,-99 359,-99"/>
<text text-anchor="start" x="367" y="-128" font-family="Helvetica,sans-Serif" font-size="10.00">FiftyOne.Pipeline.JavaScript</text>
<text text-anchor="start" x="367" y="-117" font-family="Helvetica,sans-Serif" font-size="10.00">Builder.Data.IJavaScriptBuilder</text>
<text text-anchor="middle" x="433.5" y="-106" font-family="Helvetica,sans-Serif" font-size="10.00">ElementData</text>
</a>
</g>
</g>
<!-- Node9&#45;&gt;Node12 -->
<g id="edge15" class="edge"><title>Node9&#45;&gt;Node12</title>
<path fill="none" stroke="midnightblue" d="M307.369,-156.601C325.165,-151.324 344.781,-145.508 363.097,-140.078"/>
<polygon fill="midnightblue" stroke="midnightblue" points="306.281,-153.273 297.689,-159.471 308.271,-159.984 306.281,-153.273"/>
</g>
<!-- Node13 -->
<g id="node14" class="node"><title>Node13</title>
<g id="a_node14"><a xlink:href="interface_fifty_one_1_1_pipeline_1_1_json_builder_1_1_data_1_1_i_json_builder_element_data.html" target="_top" xlink:title=" ">
<polygon fill="none" stroke="black" points="359,-49.5 359,-79.5 508,-79.5 508,-49.5 359,-49.5"/>
<text text-anchor="start" x="367" y="-67.5" font-family="Helvetica,sans-Serif" font-size="10.00">FiftyOne.Pipeline.JsonBuilder.</text>
<text text-anchor="middle" x="433.5" y="-56.5" font-family="Helvetica,sans-Serif" font-size="10.00">Data.IJsonBuilderElementData</text>
</a>
</g>
</g>
<!-- Node9&#45;&gt;Node13 -->
<g id="edge17" class="edge"><title>Node9&#45;&gt;Node13</title>
<path fill="none" stroke="midnightblue" d="M287.399,-154.432C297.242,-148.66 307.403,-141.9 316,-134.5 335.412,-117.791 330.841,-103.932 352,-89.5 357.682,-85.6244 363.991,-82.3292 370.506,-79.5319"/>
<polygon fill="midnightblue" stroke="midnightblue" points="285.496,-151.487 278.502,-159.445 288.933,-157.585 285.496,-151.487"/>
</g>
<!-- Node14 -->
<g id="node15" class="node"><title>Node14</title>
<g id="a_node15"><a xlink:href="interface_fifty_one_1_1_pipeline_1_1_math_1_1_i_math_data.html" target="_top" xlink:title=" ">
<polygon fill="none" stroke="black" points="352,-307 352,-326 515,-326 515,-307 352,-307"/>
<text text-anchor="middle" x="433.5" y="-314" font-family="Helvetica,sans-Serif" font-size="10.00">FiftyOne.Pipeline.Math.IMathData</text>
</a>
</g>
</g>
<!-- Node9&#45;&gt;Node14 -->
<g id="edge19" class="edge"><title>Node9&#45;&gt;Node14</title>
<path fill="none" stroke="midnightblue" d="M260.854,-198.495C278.4,-226.659 311.305,-272.663 352,-297.5 358.374,-301.39 365.479,-304.484 372.757,-306.944"/>
<polygon fill="midnightblue" stroke="midnightblue" points="263.686,-196.415 255.504,-189.684 257.703,-200.049 263.686,-196.415"/>
</g>
<!-- Node10&#45;&gt;Node3 -->
<g id="edge12" class="edge"><title>Node10&#45;&gt;Node3</title>
<path fill="none" stroke="midnightblue" d="M509.764,-265.91C534.734,-263.724 562.304,-261.31 586.439,-259.197"/>
<polygon fill="midnightblue" stroke="midnightblue" points="509.264,-262.44 499.607,-266.799 509.874,-269.414 509.264,-262.44"/>
</g>
<!-- Node11&#45;&gt;Node4 -->
<g id="edge14" class="edge"><title>Node11&#45;&gt;Node4</title>
<path fill="none" stroke="midnightblue" d="M511.203,-208.301C535.18,-203.55 561.429,-198.348 584.67,-193.743"/>
<polygon fill="midnightblue" stroke="midnightblue" points="510.211,-204.929 501.082,-210.306 511.571,-211.796 510.211,-204.929"/>
</g>
<!-- Node12&#45;&gt;Node5 -->
<g id="edge16" class="edge"><title>Node12&#45;&gt;Node5</title>
<path fill="none" stroke="midnightblue" d="M518.308,-121.817C528.9,-122.11 539.823,-122.412 550.644,-122.711"/>
<polygon fill="midnightblue" stroke="midnightblue" points="518.362,-118.318 508.269,-121.54 518.169,-125.315 518.362,-118.318"/>
</g>
<!-- Node13&#45;&gt;Node6 -->
<g id="edge18" class="edge"><title>Node13&#45;&gt;Node6</title>
<path fill="none" stroke="midnightblue" d="M518.527,-67.985C538.371,-68.808 559.369,-69.6789 578.671,-70.4794"/>
<polygon fill="midnightblue" stroke="midnightblue" points="518.406,-64.477 508.269,-67.5595 518.115,-71.471 518.406,-64.477"/>
</g>
<!-- Node14&#45;&gt;Node7 -->
<g id="edge20" class="edge"><title>Node14&#45;&gt;Node7</title>
<path fill="none" stroke="midnightblue" d="M525.338,-313.57C540.738,-313.073 556.624,-312.561 571.713,-312.074"/>
<polygon fill="midnightblue" stroke="midnightblue" points="525.185,-310.073 515.303,-313.893 525.41,-317.069 525.185,-310.073"/>
</g>
<!-- Node15&#45;&gt;Node8 -->
<g id="edge22" class="edge"><title>Node15&#45;&gt;Node8</title>
<path fill="none" stroke="midnightblue" d="M326.328,-24.6577C338.651,-23.5948 351.296,-22.5041 363.369,-21.4628"/>
<polygon fill="midnightblue" stroke="midnightblue" points="325.736,-21.1957 316.073,-25.5422 326.337,-28.1698 325.736,-21.1957"/>
</g>
</g>
</svg>
