<?xml version="1.0" encoding="UTF-8" standalone="no"?>
<!DOCTYPE svg PUBLIC "-//W3C//DTD SVG 1.1//EN"
 "http://www.w3.org/Graphics/SVG/1.1/DTD/svg11.dtd">
<!-- Generated by graphviz version 2.38.0 (20140413.2041)
 -->
<!-- Title: FiftyOne.Pipeline.Core.Data.IElementPropertyMetaData Pages: 1 -->
<svg width="558pt" height="100pt"
 viewBox="0.00 0.00 558.00 99.50" xmlns="http://www.w3.org/2000/svg" xmlns:xlink="http://www.w3.org/1999/xlink">
<g id="graph0" class="graph" transform="scale(1 1) rotate(0) translate(4 95.5)">
<title>FiftyOne.Pipeline.Core.Data.IElementPropertyMetaData</title>
<!-- Node0 -->
<g id="node1" class="node"><title>Node0</title>
<g id="a_node1"><a xlink:title=" ">
<polygon fill="#bfbfbf" stroke="black" points="0,-36 0,-66 140,-66 140,-36 0,-36"/>
<text text-anchor="start" x="8" y="-54" font-family="Helvetica,sans-Serif" font-size="10.00">FiftyOne.Pipeline.Core.Data.</text>
<text text-anchor="middle" x="70" y="-43" font-family="Helvetica,sans-Serif" font-size="10.00">IElementPropertyMetaData</text>
</a>
</g>
</g>
<!-- Node1 -->
<g id="node2" class="node"><title>Node1</title>
<g id="a_node2"><a xlink:href="class_fifty_one_1_1_pipeline_1_1_core_1_1_data_1_1_element_property_meta_data.html" target="_top" xlink:title="Meta&#45;data relating to properties that are populated by Flow Elements.">
<polygon fill="none" stroke="black" points="182,-61 182,-91 322,-91 322,-61 182,-61"/>
<text text-anchor="start" x="190" y="-79" font-family="Helvetica,sans-Serif" font-size="10.00">FiftyOne.Pipeline.Core.Data.</text>
<text text-anchor="middle" x="252" y="-68" font-family="Helvetica,sans-Serif" font-size="10.00">ElementPropertyMetaData</text>
</a>
</g>
</g>
<!-- Node0&#45;&gt;Node1 -->
<g id="edge1" class="edge"><title>Node0&#45;&gt;Node1</title>
<path fill="none" stroke="midnightblue" d="M150.119,-61.9888C160.678,-63.4552 171.439,-64.9498 181.81,-66.3902"/>
<polygon fill="midnightblue" stroke="midnightblue" points="150.464,-58.5032 140.078,-60.5942 149.501,-65.4366 150.464,-58.5032"/>
</g>
<!-- Node3 -->
<g id="node4" class="node"><title>Node3</title>
<g id="a_node4"><a xlink:href="interface_fifty_one_1_1_pipeline_1_1_engines_1_1_data_1_1_i_aspect_property_meta_data.html" target="_top" xlink:title=" ">
<polygon fill="none" stroke="black" points="176,-12 176,-42 328,-42 328,-12 176,-12"/>
<text text-anchor="start" x="184" y="-30" font-family="Helvetica,sans-Serif" font-size="10.00">FiftyOne.Pipeline.Engines.</text>
<text text-anchor="middle" x="252" y="-19" font-family="Helvetica,sans-Serif" font-size="10.00">Data.IAspectPropertyMetaData</text>
</a>
</g>
</g>
<!-- Node0&#45;&gt;Node3 -->
<g id="edge3" class="edge"><title>Node0&#45;&gt;Node3</title>
<path fill="none" stroke="midnightblue" d="M150.048,-40.4602C158.61,-39.3186 167.306,-38.1591 175.821,-37.0239"/>
<polygon fill="midnightblue" stroke="midnightblue" points="149.528,-36.9986 140.078,-41.7896 150.453,-43.9372 149.528,-36.9986"/>
</g>
<!-- Node2 -->
<g id="node3" class="node"><title>Node2</title>
<g id="a_node3"><a xlink:href="class_fifty_one_1_1_pipeline_1_1_engines_1_1_data_1_1_aspect_property_meta_data.html" target="_top" xlink:title="Meta&#45;data relating to properties that are populated by Aspect Engines.">
<polygon fill="none" stroke="black" points="382.5,-61 382.5,-91 531.5,-91 531.5,-61 382.5,-61"/>
<text text-anchor="start" x="390.5" y="-79" font-family="Helvetica,sans-Serif" font-size="10.00">FiftyOne.Pipeline.Engines.</text>
<text text-anchor="middle" x="457" y="-68" font-family="Helvetica,sans-Serif" font-size="10.00">Data.AspectPropertyMetaData</text>
</a>
</g>
</g>
<!-- Node1&#45;&gt;Node2 -->
<g id="edge2" class="edge"><title>Node1&#45;&gt;Node2</title>
<path fill="none" stroke="midnightblue" d="M332.166,-76C348.678,-76 366.019,-76 382.322,-76"/>
<polygon fill="midnightblue" stroke="midnightblue" points="332.01,-72.5001 322.01,-76 332.01,-79.5001 332.01,-72.5001"/>
</g>
<!-- Node3&#45;&gt;Node2 -->
<g id="edge4" class="edge"><title>Node3&#45;&gt;Node2</title>
<path fill="none" stroke="midnightblue" d="M325.102,-44.4038C347.558,-49.8243 372.116,-55.752 393.832,-60.9938"/>
<polygon fill="midnightblue" stroke="midnightblue" points="325.828,-40.9788 315.286,-42.0346 324.186,-47.7834 325.828,-40.9788"/>
</g>
<!-- Node4 -->
<g id="node5" class="node"><title>Node4</title>
<g id="a_node5"><a xlink:href="interface_fifty_one_1_1_pipeline_1_1_engines_1_1_fifty_one_1_1_data_1_1_i_fifty_one_aspect_property_meta_data.html" target="_top" xlink:title="51Degrees specific meta data.">
<polygon fill="none" stroke="black" points="364,-0.5 364,-41.5 550,-41.5 550,-0.5 364,-0.5"/>
<text text-anchor="start" x="372" y="-29.5" font-family="Helvetica,sans-Serif" font-size="10.00">FiftyOne.Pipeline.Engines.</text>
<text text-anchor="start" x="372" y="-18.5" font-family="Helvetica,sans-Serif" font-size="10.00">FiftyOne.Data.IFiftyOneAspectProperty</text>
<text text-anchor="middle" x="457" y="-7.5" font-family="Helvetica,sans-Serif" font-size="10.00">MetaData</text>
</a>
</g>
</g>
<!-- Node3&#45;&gt;Node4 -->
<g id="edge5" class="edge"><title>Node3&#45;&gt;Node4</title>
<path fill="none" stroke="midnightblue" d="M338.21,-24.4815C346.646,-24.2321 355.236,-23.9783 363.738,-23.7269"/>
<polygon fill="midnightblue" stroke="midnightblue" points="337.905,-20.9889 328.013,-24.7829 338.112,-27.9858 337.905,-20.9889"/>
</g>
</g>
</svg>
