<?xml version="1.0" encoding="UTF-8" standalone="no"?>
<!DOCTYPE svg PUBLIC "-//W3C//DTD SVG 1.1//EN"
 "http://www.w3.org/Graphics/SVG/1.1/DTD/svg11.dtd">
<!-- Generated by graphviz version 2.38.0 (20140413.2041)
 -->
<!-- Title: FiftyOne.Pipeline.Engines.FlowElements.IOnPremiseAspectEngine Pages: 1 -->
<svg width="1168pt" height="99pt"
 viewBox="0.00 0.00 1168.00 99.00" xmlns="http://www.w3.org/2000/svg" xmlns:xlink="http://www.w3.org/1999/xlink">
<g id="graph0" class="graph" transform="scale(1 1) rotate(0) translate(4 95)">
<title>FiftyOne.Pipeline.Engines.FlowElements.IOnPremiseAspectEngine</title>
<!-- Node0 -->
<g id="node1" class="node"><title>Node0</title>
<g id="a_node1"><a xlink:title=" ">
<polygon fill="#bfbfbf" stroke="black" points="117,-42 117,-72 310,-72 310,-42 117,-42"/>
<text text-anchor="start" x="125" y="-60" font-family="Helvetica,sans-Serif" font-size="10.00">FiftyOne.Pipeline.Engines.</text>
<text text-anchor="middle" x="213.5" y="-49" font-family="Helvetica,sans-Serif" font-size="10.00">FlowElements.IOnPremiseAspectEngine</text>
</a>
</g>
</g>
<!-- Node2 -->
<g id="node3" class="node"><title>Node2</title>
<g id="a_node3"><a xlink:href="interface_fifty_one_1_1_pipeline_1_1_engines_1_1_fifty_one_1_1_flow_elements_1_1_i_fifty_one_aspect_engine.html" target="_top" xlink:title="51Degrees specific Engine interface.">
<polygon fill="none" stroke="black" points="556,-49.5 556,-90.5 716,-90.5 716,-49.5 556,-49.5"/>
<text text-anchor="start" x="564" y="-78.5" font-family="Helvetica,sans-Serif" font-size="10.00">FiftyOne.Pipeline.Engines.</text>
<text text-anchor="start" x="564" y="-67.5" font-family="Helvetica,sans-Serif" font-size="10.00">FiftyOne.FlowElements.IFiftyOne</text>
<text text-anchor="middle" x="636" y="-56.5" font-family="Helvetica,sans-Serif" font-size="10.00">AspectEngine</text>
</a>
</g>
</g>
<!-- Node0&#45;&gt;Node2 -->
<g id="edge2" class="edge"><title>Node0&#45;&gt;Node2</title>
<path fill="none" stroke="midnightblue" d="M320.352,-60.2725C393.54,-62.5351 489.344,-65.497 555.923,-67.5553"/>
<polygon fill="midnightblue" stroke="midnightblue" points="320.284,-56.7688 310.181,-59.958 320.068,-63.7655 320.284,-56.7688"/>
</g>
<!-- Node4 -->
<g id="node5" class="node"><title>Node4</title>
<g id="a_node5"><a xlink:href="class_fifty_one_1_1_pipeline_1_1_engines_1_1_flow_elements_1_1_on_premise_aspect_engine_base.html" target="_top" xlink:title="Base class for 51Degrees on&#45;premise aspect engines.">
<polygon fill="none" stroke="black" points="347,-0.5 347,-41.5 538,-41.5 538,-0.5 347,-0.5"/>
<text text-anchor="start" x="355" y="-29.5" font-family="Helvetica,sans-Serif" font-size="10.00">FiftyOne.Pipeline.Engines.</text>
<text text-anchor="start" x="355" y="-18.5" font-family="Helvetica,sans-Serif" font-size="10.00">FlowElements.OnPremiseAspectEngine</text>
<text text-anchor="middle" x="442.5" y="-7.5" font-family="Helvetica,sans-Serif" font-size="10.00">Base&lt; T, TMeta &gt;</text>
</a>
</g>
</g>
<!-- Node0&#45;&gt;Node4 -->
<g id="edge4" class="edge"><title>Node0&#45;&gt;Node4</title>
<path fill="none" stroke="midnightblue" d="M319.067,-40.4167C328.268,-38.9575 337.548,-37.4857 346.664,-36.0401"/>
<polygon fill="midnightblue" stroke="midnightblue" points="318.453,-36.9702 309.125,-41.9934 319.55,-43.8838 318.453,-36.9702"/>
</g>
<!-- Node1 -->
<g id="node2" class="node"><title>Node1</title>
<g id="a_node2"><a xlink:href="interface_fifty_one_1_1_pipeline_1_1_engines_1_1_flow_elements_1_1_i_aspect_engine.html" target="_top" xlink:title="Interface representing 51Degrees on&#45;premise aspect engines.">
<polygon fill="none" stroke="black" points="0,-47.5 0,-66.5 80,-66.5 80,-47.5 0,-47.5"/>
<text text-anchor="middle" x="40" y="-54.5" font-family="Helvetica,sans-Serif" font-size="10.00">IAspectEngine</text>
</a>
</g>
</g>
<!-- Node1&#45;&gt;Node0 -->
<g id="edge1" class="edge"><title>Node1&#45;&gt;Node0</title>
<path fill="none" stroke="midnightblue" d="M90.5701,-57C98.902,-57 107.792,-57 116.831,-57"/>
<polygon fill="midnightblue" stroke="midnightblue" points="90.3456,-53.5001 80.3456,-57 90.3455,-60.5001 90.3456,-53.5001"/>
</g>
<!-- Node3 -->
<g id="node4" class="node"><title>Node3</title>
<g id="a_node4"><a xlink:href="class_fifty_one_1_1_pipeline_1_1_engines_1_1_fifty_one_1_1_flow_elements_1_1_fifty_one_on_premise_aspect_engine_base.html" target="_top" xlink:title="51Degrees specific Engine base class.">
<polygon fill="none" stroke="black" points="988,-30.5 988,-71.5 1160,-71.5 1160,-30.5 988,-30.5"/>
<text text-anchor="start" x="996" y="-59.5" font-family="Helvetica,sans-Serif" font-size="10.00">FiftyOne.Pipeline.Engines.</text>
<text text-anchor="start" x="996" y="-48.5" font-family="Helvetica,sans-Serif" font-size="10.00">FiftyOne.FlowElements.FiftyOne</text>
<text text-anchor="middle" x="1074" y="-37.5" font-family="Helvetica,sans-Serif" font-size="10.00">OnPremiseAspectEngineBase&lt; T &gt;</text>
</a>
</g>
</g>
<!-- Node2&#45;&gt;Node3 -->
<g id="edge3" class="edge"><title>Node2&#45;&gt;Node3</title>
<path fill="none" stroke="midnightblue" d="M726.31,-66.108C802.829,-62.7735 912.296,-58.0032 987.649,-54.7194"/>
<polygon fill="midnightblue" stroke="midnightblue" points="726.047,-62.6161 716.209,-66.5482 726.352,-69.6094 726.047,-62.6161"/>
</g>
<!-- Node5 -->
<g id="node6" class="node"><title>Node5</title>
<g id="a_node6"><a xlink:href="class_fifty_one_1_1_pipeline_1_1_engines_1_1_flow_elements_1_1_on_premise_aspect_engine_base.html" target="_top" xlink:title=" ">
<polygon fill="none" stroke="black" points="734,-0.5 734,-41.5 951,-41.5 951,-0.5 734,-0.5"/>
<text text-anchor="start" x="742" y="-29.5" font-family="Helvetica,sans-Serif" font-size="10.00">FiftyOne.Pipeline.Engines.</text>
<text text-anchor="start" x="742" y="-18.5" font-family="Helvetica,sans-Serif" font-size="10.00">FlowElements.OnPremiseAspectEngine</text>
<text text-anchor="middle" x="842.5" y="-7.5" font-family="Helvetica,sans-Serif" font-size="10.00">Base&lt; T, IFiftyOneAspectPropertyMetaData &gt;</text>
</a>
</g>
</g>
<!-- Node4&#45;&gt;Node5 -->
<g id="edge5" class="edge"><title>Node4&#45;&gt;Node5</title>
<path fill="none" stroke="orange" stroke-dasharray="5,2" d="M548.219,-18.1152C550.839,-18.0727 553.436,-18.0342 556,-18 627.105,-17.0521 644.894,-17.1502 716,-18 721.775,-18.069 727.699,-18.1559 733.68,-18.2562"/>
<polygon fill="orange" stroke="orange" points="547.96,-14.6191 538.024,-18.2966 548.085,-21.618 547.96,-14.6191"/>
<text text-anchor="start" x="571" y="-32" font-family="Helvetica,sans-Serif" font-size="10.00"> &lt; T, IFiftyOneAspectProperty</text>
<text text-anchor="middle" x="636" y="-21" font-family="Helvetica,sans-Serif" font-size="10.00">MetaData &gt;</text>
</g>
<!-- Node5&#45;&gt;Node3 -->
<g id="edge6" class="edge"><title>Node5&#45;&gt;Node3</title>
<path fill="none" stroke="midnightblue" d="M961.334,-36.4031C970.315,-37.5771 979.271,-38.7479 987.982,-39.8866"/>
<polygon fill="midnightblue" stroke="midnightblue" points="961.563,-32.9034 951.194,-35.0777 960.656,-39.8444 961.563,-32.9034"/>
</g>
</g>
</svg>
