<?xml version="1.0" encoding="UTF-8" standalone="no"?>
<!DOCTYPE svg PUBLIC "-//W3C//DTD SVG 1.1//EN"
 "http://www.w3.org/Graphics/SVG/1.1/DTD/svg11.dtd">
<!-- Generated by graphviz version 2.38.0 (20140413.2041)
 -->
<!-- Title: FiftyOne.Pipeline.Engines.Data.IAspectEngineDataFile Pages: 1 -->
<svg width="629pt" height="88pt"
 viewBox="0.00 0.00 629.00 88.00" xmlns="http://www.w3.org/2000/svg" xmlns:xlink="http://www.w3.org/1999/xlink">
<g id="graph0" class="graph" transform="scale(1 1) rotate(0) translate(4 84)">
<title>FiftyOne.Pipeline.Engines.Data.IAspectEngineDataFile</title>
<!-- Node0 -->
<g id="node1" class="node"><title>Node0</title>
<g id="a_node1"><a xlink:title="Interface for the details of a data file used by an Aspect engine.">
<polygon fill="#bfbfbf" stroke="black" points="103,-24.5 103,-54.5 242,-54.5 242,-24.5 103,-24.5"/>
<text text-anchor="start" x="111" y="-42.5" font-family="Helvetica,sans-Serif" font-size="10.00">FiftyOne.Pipeline.Engines.</text>
<text text-anchor="middle" x="172.5" y="-31.5" font-family="Helvetica,sans-Serif" font-size="10.00">Data.IAspectEngineDataFile</text>
</a>
</g>
</g>
<!-- Node2 -->
<g id="node3" class="node"><title>Node2</title>
<g id="a_node3"><a xlink:href="class_fifty_one_1_1_pipeline_1_1_engines_1_1_data_1_1_aspect_engine_data_file.html" target="_top" xlink:title="This class contains all configuration and run&#45;time state information that is associated with a partic...">
<polygon fill="none" stroke="black" points="287,-49.5 287,-79.5 424,-79.5 424,-49.5 287,-49.5"/>
<text text-anchor="start" x="295" y="-67.5" font-family="Helvetica,sans-Serif" font-size="10.00">FiftyOne.Pipeline.Engines.</text>
<text text-anchor="middle" x="355.5" y="-56.5" font-family="Helvetica,sans-Serif" font-size="10.00">Data.AspectEngineDataFile</text>
</a>
</g>
</g>
<!-- Node0&#45;&gt;Node2 -->
<g id="edge2" class="edge"><title>Node0&#45;&gt;Node2</title>
<path fill="none" stroke="midnightblue" d="M252.215,-50.3723C263.725,-51.9621 275.494,-53.5876 286.759,-55.1436"/>
<polygon fill="midnightblue" stroke="midnightblue" points="252.571,-46.8883 242.186,-48.9871 251.613,-53.8225 252.571,-46.8883"/>
</g>
<!-- Node4 -->
<g id="node5" class="node"><title>Node4</title>
<g id="a_node5"><a xlink:href="interface_fifty_one_1_1_pipeline_1_1_engines_1_1_fifty_one_1_1_data_1_1_i_fifty_one_data_file.html" target="_top" xlink:title=" ">
<polygon fill="none" stroke="black" points="278,-0.5 278,-30.5 433,-30.5 433,-0.5 278,-0.5"/>
<text text-anchor="start" x="286" y="-18.5" font-family="Helvetica,sans-Serif" font-size="10.00">FiftyOne.Pipeline.Engines.</text>
<text text-anchor="middle" x="355.5" y="-7.5" font-family="Helvetica,sans-Serif" font-size="10.00">FiftyOne.Data.IFiftyOneDataFile</text>
</a>
</g>
</g>
<!-- Node0&#45;&gt;Node4 -->
<g id="edge4" class="edge"><title>Node0&#45;&gt;Node4</title>
<path fill="none" stroke="midnightblue" d="M252.163,-29.0696C260.734,-27.9331 269.449,-26.7775 277.993,-25.6445"/>
<polygon fill="midnightblue" stroke="midnightblue" points="251.64,-25.6082 242.186,-30.3924 252.56,-32.5475 251.64,-25.6082"/>
</g>
<!-- Node1 -->
<g id="node2" class="node"><title>Node1</title>
<g id="a_node2"><a xlink:title=" ">
<polygon fill="none" stroke="#bfbfbf" points="0,-30 0,-49 67,-49 67,-30 0,-30"/>
<text text-anchor="middle" x="33.5" y="-37" font-family="Helvetica,sans-Serif" font-size="10.00">IDisposable</text>
</a>
</g>
</g>
<!-- Node1&#45;&gt;Node0 -->
<g id="edge1" class="edge"><title>Node1&#45;&gt;Node0</title>
<path fill="none" stroke="midnightblue" d="M77.564,-39.5C85.6359,-39.5 94.2571,-39.5 102.881,-39.5"/>
<polygon fill="midnightblue" stroke="midnightblue" points="77.3149,-36.0001 67.3149,-39.5 77.3149,-43.0001 77.3149,-36.0001"/>
</g>
<!-- Node3 -->
<g id="node4" class="node"><title>Node3</title>
<g id="a_node4"><a xlink:href="class_fifty_one_1_1_pipeline_1_1_engines_1_1_fifty_one_1_1_data_1_1_fifty_one_data_file.html" target="_top" xlink:title=" ">
<polygon fill="none" stroke="black" points="469,-24.5 469,-54.5 621,-54.5 621,-24.5 469,-24.5"/>
<text text-anchor="start" x="477" y="-42.5" font-family="Helvetica,sans-Serif" font-size="10.00">FiftyOne.Pipeline.Engines.</text>
<text text-anchor="middle" x="545" y="-31.5" font-family="Helvetica,sans-Serif" font-size="10.00">FiftyOne.Data.FiftyOneDataFile</text>
</a>
</g>
</g>
<!-- Node2&#45;&gt;Node3 -->
<g id="edge3" class="edge"><title>Node2&#45;&gt;Node3</title>
<path fill="none" stroke="midnightblue" d="M434.152,-54.1465C445.602,-52.6197 457.383,-51.0489 468.783,-49.5289"/>
<polygon fill="midnightblue" stroke="midnightblue" points="433.641,-50.6834 424.192,-55.4744 434.567,-57.622 433.641,-50.6834"/>
</g>
<!-- Node4&#45;&gt;Node3 -->
<g id="edge5" class="edge"><title>Node4&#45;&gt;Node3</title>
<path fill="none" stroke="midnightblue" d="M443.103,-26.5852C451.727,-27.689 460.432,-28.8033 468.924,-29.8903"/>
<polygon fill="midnightblue" stroke="midnightblue" points="443.397,-23.0944 433.034,-25.2963 442.509,-30.0377 443.397,-23.0944"/>
</g>
</g>
</svg>
