<?xml version="1.0" encoding="UTF-8" standalone="no"?>
<!DOCTYPE svg PUBLIC "-//W3C//DTD SVG 1.1//EN"
 "http://www.w3.org/Graphics/SVG/1.1/DTD/svg11.dtd">
<!-- Generated by graphviz version 2.38.0 (20140413.2041)
 -->
<!-- Title: FiftyOne.Pipeline.Core.FlowElements.IFlowElement Pages: 1 -->
<svg width="916pt" height="170pt"
 viewBox="0.00 0.00 916.00 170.00" xmlns="http://www.w3.org/2000/svg" xmlns:xlink="http://www.w3.org/1999/xlink">
<g id="graph0" class="graph" transform="scale(1 1) rotate(0) translate(4 166)">
<title>FiftyOne.Pipeline.Core.FlowElements.IFlowElement</title>
<!-- Node0 -->
<g id="node1" class="node"><title>Node0</title>
<g id="a_node1"><a xlink:title="IFlowElement is the basic building block of a pipeline.">
<polygon fill="#bfbfbf" stroke="black" points="0,-89 0,-119 137,-119 137,-89 0,-89"/>
<text text-anchor="start" x="8" y="-107" font-family="Helvetica,sans-Serif" font-size="10.00">FiftyOne.Pipeline.Core.Flow</text>
<text text-anchor="middle" x="68.5" y="-96" font-family="Helvetica,sans-Serif" font-size="10.00">Elements.IFlowElement</text>
</a>
</g>
</g>
<!-- Node1 -->
<g id="node2" class="node"><title>Node1</title>
<g id="a_node2"><a xlink:href="interface_fifty_one_1_1_pipeline_1_1_core_1_1_flow_elements_1_1_i_flow_element.html" target="_top" xlink:title="Generic interface that extends IFlowElement with the ability to return a ITypedKey&lt;T&gt; that will allow...">
<polygon fill="none" stroke="black" points="337,-120.5 337,-161.5 474,-161.5 474,-120.5 337,-120.5"/>
<text text-anchor="start" x="345" y="-149.5" font-family="Helvetica,sans-Serif" font-size="10.00">FiftyOne.Pipeline.Core.Flow</text>
<text text-anchor="start" x="345" y="-138.5" font-family="Helvetica,sans-Serif" font-size="10.00">Elements.IFlowElement&lt; T,</text>
<text text-anchor="middle" x="405.5" y="-127.5" font-family="Helvetica,sans-Serif" font-size="10.00"> TMeta &gt;</text>
</a>
</g>
</g>
<!-- Node0&#45;&gt;Node1 -->
<g id="edge1" class="edge"><title>Node0&#45;&gt;Node1</title>
<path fill="none" stroke="midnightblue" d="M147.401,-106.798C204.769,-111.794 282.007,-120.411 336.809,-127.978"/>
<polygon fill="midnightblue" stroke="midnightblue" points="147.553,-103.299 137.292,-105.939 146.96,-110.274 147.553,-103.299"/>
</g>
<!-- Node0&#45;&gt;Node1 -->
<g id="edge6" class="edge"><title>Node0&#45;&gt;Node1</title>
<path fill="none" stroke="midnightblue" d="M147.401,-118.41C204.769,-126.086 282.007,-134.53 336.809,-139.069"/>
<polygon fill="midnightblue" stroke="midnightblue" points="147.672,-114.914 137.292,-117.036 146.73,-121.851 147.672,-114.914"/>
</g>
<!-- Node2 -->
<g id="node3" class="node"><title>Node2</title>
<g id="a_node3"><a xlink:href="interface_fifty_one_1_1_pipeline_1_1_engines_1_1_flow_elements_1_1_i_aspect_engine.html" target="_top" xlink:title="Interface representing 51Degrees on&#45;premise aspect engines.">
<polygon fill="none" stroke="black" points="333.5,-60.5 333.5,-101.5 477.5,-101.5 477.5,-60.5 333.5,-60.5"/>
<text text-anchor="start" x="341.5" y="-89.5" font-family="Helvetica,sans-Serif" font-size="10.00">FiftyOne.Pipeline.Engines.</text>
<text text-anchor="start" x="341.5" y="-78.5" font-family="Helvetica,sans-Serif" font-size="10.00">FlowElements.IAspectEngine</text>
<text text-anchor="middle" x="405.5" y="-67.5" font-family="Helvetica,sans-Serif" font-size="10.00">&lt; T, TMeta &gt;</text>
</a>
</g>
</g>
<!-- Node0&#45;&gt;Node2 -->
<g id="edge2" class="edge"><title>Node0&#45;&gt;Node2</title>
<path fill="none" stroke="midnightblue" d="M147.547,-98.6416C203.699,-94.7864 278.831,-89.628 333.34,-85.8856"/>
<polygon fill="midnightblue" stroke="midnightblue" points="147.029,-95.1688 137.292,-99.3456 147.509,-102.152 147.029,-95.1688"/>
</g>
<!-- Node3 -->
<g id="node4" class="node"><title>Node3</title>
<g id="a_node4"><a xlink:href="interface_fifty_one_1_1_pipeline_1_1_core_1_1_flow_elements_1_1_i_flow_element.html" target="_top" xlink:title=" ">
<polygon fill="none" stroke="black" points="303,-0.5 303,-41.5 508,-41.5 508,-0.5 303,-0.5"/>
<text text-anchor="start" x="311" y="-29.5" font-family="Helvetica,sans-Serif" font-size="10.00">FiftyOne.Pipeline.Core.Flow</text>
<text text-anchor="start" x="311" y="-18.5" font-family="Helvetica,sans-Serif" font-size="10.00">Elements.IFlowElement&lt; IJsonBuilder</text>
<text text-anchor="middle" x="405.5" y="-7.5" font-family="Helvetica,sans-Serif" font-size="10.00">ElementData, IElementPropertyMetaData &gt;</text>
</a>
</g>
</g>
<!-- Node0&#45;&gt;Node3 -->
<g id="edge3" class="edge"><title>Node0&#45;&gt;Node3</title>
<path fill="none" stroke="orange" stroke-dasharray="5,2" d="M104.993,-84.2234C120.026,-76.5817 137.976,-68.3962 155,-63 202.525,-47.9358 256.952,-37.9734 302.82,-31.5502"/>
<polygon fill="orange" stroke="orange" points="103.298,-81.1597 96.0435,-88.8813 106.53,-87.369 103.298,-81.1597"/>
<text text-anchor="start" x="155" y="-77" font-family="Helvetica,sans-Serif" font-size="10.00"> &lt; IJsonBuilderElementData,</text>
<text text-anchor="middle" x="220" y="-66" font-family="Helvetica,sans-Serif" font-size="10.00"> IElementPropertyMetaData &gt;</text>
</g>
<!-- Node4 -->
<g id="node5" class="node"><title>Node4</title>
<g id="a_node5"><a xlink:href="interface_fifty_one_1_1_pipeline_1_1_json_builder_1_1_flow_element_1_1_i_json_builder_element.html" target="_top" xlink:title=" ">
<polygon fill="none" stroke="black" points="545,-6 545,-36 709,-36 709,-6 545,-6"/>
<text text-anchor="start" x="553" y="-24" font-family="Helvetica,sans-Serif" font-size="10.00">FiftyOne.Pipeline.JsonBuilder.</text>
<text text-anchor="middle" x="627" y="-13" font-family="Helvetica,sans-Serif" font-size="10.00">FlowElement.IJsonBuilderElement</text>
</a>
</g>
</g>
<!-- Node3&#45;&gt;Node4 -->
<g id="edge4" class="edge"><title>Node3&#45;&gt;Node4</title>
<path fill="none" stroke="midnightblue" d="M518.263,-21C527.164,-21 536.047,-21 544.679,-21"/>
<polygon fill="midnightblue" stroke="midnightblue" points="518.218,-17.5001 508.218,-21 518.218,-24.5001 518.218,-17.5001"/>
</g>
<!-- Node5 -->
<g id="node6" class="node"><title>Node5</title>
<g id="a_node6"><a xlink:href="class_fifty_one_1_1_pipeline_1_1_json_builder_1_1_flow_element_1_1_json_builder_element.html" target="_top" xlink:title="The JsonBuilderElement takes accessible properties and adds the property key:values to the Json objec...">
<polygon fill="none" stroke="black" points="746,-6 746,-36 908,-36 908,-6 746,-6"/>
<text text-anchor="start" x="754" y="-24" font-family="Helvetica,sans-Serif" font-size="10.00">FiftyOne.Pipeline.JsonBuilder.</text>
<text text-anchor="middle" x="827" y="-13" font-family="Helvetica,sans-Serif" font-size="10.00">FlowElement.JsonBuilderElement</text>
</a>
</g>
</g>
<!-- Node4&#45;&gt;Node5 -->
<g id="edge5" class="edge"><title>Node4&#45;&gt;Node5</title>
<path fill="none" stroke="midnightblue" d="M719.161,-21C728.113,-21 737.152,-21 745.981,-21"/>
<polygon fill="midnightblue" stroke="midnightblue" points="719.106,-17.5001 709.105,-21 719.105,-24.5001 719.106,-17.5001"/>
</g>
</g>
</svg>
