<?xml version="1.0" encoding="UTF-8" standalone="no"?>
<!DOCTYPE svg PUBLIC "-//W3C//DTD SVG 1.1//EN"
 "http://www.w3.org/Graphics/SVG/1.1/DTD/svg11.dtd">
<!-- Generated by graphviz version 2.38.0 (20140413.2041)
 -->
<!-- Title: FiftyOne.Pipeline.Core.Data.IElementData Pages: 1 -->
<svg width="661pt" height="286pt"
 viewBox="0.00 0.00 661.00 285.50" xmlns="http://www.w3.org/2000/svg" xmlns:xlink="http://www.w3.org/1999/xlink">
<g id="graph0" class="graph" transform="scale(1 1) rotate(0) translate(4 281.5)">
<title>FiftyOne.Pipeline.Core.Data.IElementData</title>
<!-- Node0 -->
<g id="node1" class="node"><title>Node0</title>
<g id="a_node1"><a xlink:title="Represents property values that have be determined by a specific FlowElement based on the supplied ev...">
<polygon fill="#bfbfbf" stroke="black" points="75,-121 75,-151 215,-151 215,-121 75,-121"/>
<text text-anchor="start" x="83" y="-139" font-family="Helvetica,sans-Serif" font-size="10.00">FiftyOne.Pipeline.Core.Data.</text>
<text text-anchor="middle" x="145" y="-128" font-family="Helvetica,sans-Serif" font-size="10.00">IElementData</text>
</a>
</g>
</g>
<!-- Node2 -->
<g id="node3" class="node"><title>Node2</title>
<g id="a_node3"><a xlink:href="class_fifty_one_1_1_pipeline_1_1_core_1_1_data_1_1_element_data_base.html" target="_top" xlink:title="This class stores property values that have be determined by a specific FlowElement based on the supp...">
<polygon fill="none" stroke="black" points="262.5,-149 262.5,-179 402.5,-179 402.5,-149 262.5,-149"/>
<text text-anchor="start" x="270.5" y="-167" font-family="Helvetica,sans-Serif" font-size="10.00">FiftyOne.Pipeline.Core.Data.</text>
<text text-anchor="middle" x="332.5" y="-156" font-family="Helvetica,sans-Serif" font-size="10.00">ElementDataBase</text>
</a>
</g>
</g>
<!-- Node0&#45;&gt;Node2 -->
<g id="edge2" class="edge"><title>Node0&#45;&gt;Node2</title>
<path fill="none" stroke="midnightblue" d="M225.328,-147.974C237.651,-149.834 250.296,-151.743 262.369,-153.565"/>
<polygon fill="midnightblue" stroke="midnightblue" points="225.484,-144.458 215.073,-146.426 224.439,-151.38 225.484,-144.458"/>
</g>
<!-- Node8 -->
<g id="node9" class="node"><title>Node8</title>
<g id="a_node9"><a xlink:href="interface_fifty_one_1_1_pipeline_1_1_engines_1_1_data_1_1_i_aspect_data.html" target="_top" xlink:title="Represents an ElementData instance that is generated by an IAspectEngine.">
<polygon fill="none" stroke="black" points="266.5,-247 266.5,-277 398.5,-277 398.5,-247 266.5,-247"/>
<text text-anchor="start" x="274.5" y="-265" font-family="Helvetica,sans-Serif" font-size="10.00">FiftyOne.Pipeline.Engines.</text>
<text text-anchor="middle" x="332.5" y="-254" font-family="Helvetica,sans-Serif" font-size="10.00">Data.IAspectData</text>
</a>
</g>
</g>
<!-- Node0&#45;&gt;Node8 -->
<g id="edge8" class="edge"><title>Node0&#45;&gt;Node8</title>
<path fill="none" stroke="midnightblue" d="M164.409,-159.14C183.725,-181.976 216.087,-216.377 251,-237 257.426,-240.796 264.487,-244.071 271.674,-246.884"/>
<polygon fill="midnightblue" stroke="midnightblue" points="166.982,-156.759 157.903,-151.297 161.594,-161.228 166.982,-156.759"/>
</g>
<!-- Node9 -->
<g id="node10" class="node"><title>Node9</title>
<g id="a_node10"><a xlink:href="interface_fifty_one_1_1_pipeline_1_1_ip_splitter_1_1_i_split_ip_data.html" target="_top" xlink:title=" ">
<polygon fill="none" stroke="black" points="265,-198 265,-228 400,-228 400,-198 265,-198"/>
<text text-anchor="start" x="273" y="-216" font-family="Helvetica,sans-Serif" font-size="10.00">FiftyOne.Pipeline.IpSplitter.</text>
<text text-anchor="middle" x="332.5" y="-205" font-family="Helvetica,sans-Serif" font-size="10.00">ISplitIpData</text>
</a>
</g>
</g>
<!-- Node0&#45;&gt;Node9 -->
<g id="edge10" class="edge"><title>Node0&#45;&gt;Node9</title>
<path fill="none" stroke="midnightblue" d="M182.546,-155.886C202.438,-166.251 227.684,-178.674 251,-188 259.832,-191.532 269.369,-194.883 278.683,-197.916"/>
<polygon fill="midnightblue" stroke="midnightblue" points="184.005,-152.699 173.526,-151.136 180.744,-158.892 184.005,-152.699"/>
</g>
<!-- Node10 -->
<g id="node11" class="node"><title>Node10</title>
<g id="a_node11"><a xlink:href="interface_fifty_one_1_1_pipeline_1_1_java_script_builder_1_1_data_1_1_i_java_script_builder_element_data.html" target="_top" xlink:title=" ">
<polygon fill="none" stroke="black" points="258,-88.5 258,-129.5 407,-129.5 407,-88.5 258,-88.5"/>
<text text-anchor="start" x="266" y="-117.5" font-family="Helvetica,sans-Serif" font-size="10.00">FiftyOne.Pipeline.JavaScript</text>
<text text-anchor="start" x="266" y="-106.5" font-family="Helvetica,sans-Serif" font-size="10.00">Builder.Data.IJavaScriptBuilder</text>
<text text-anchor="middle" x="332.5" y="-95.5" font-family="Helvetica,sans-Serif" font-size="10.00">ElementData</text>
</a>
</g>
</g>
<!-- Node0&#45;&gt;Node10 -->
<g id="edge12" class="edge"><title>Node0&#45;&gt;Node10</title>
<path fill="none" stroke="midnightblue" d="M225.291,-124.459C236.048,-122.893 247.052,-121.292 257.707,-119.741"/>
<polygon fill="midnightblue" stroke="midnightblue" points="224.465,-121.042 215.073,-125.946 225.473,-127.969 224.465,-121.042"/>
</g>
<!-- Node11 -->
<g id="node12" class="node"><title>Node11</title>
<g id="a_node12"><a xlink:href="interface_fifty_one_1_1_pipeline_1_1_json_builder_1_1_data_1_1_i_json_builder_element_data.html" target="_top" xlink:title=" ">
<polygon fill="none" stroke="black" points="258,-39 258,-69 407,-69 407,-39 258,-39"/>
<text text-anchor="start" x="266" y="-57" font-family="Helvetica,sans-Serif" font-size="10.00">FiftyOne.Pipeline.JsonBuilder.</text>
<text text-anchor="middle" x="332.5" y="-46" font-family="Helvetica,sans-Serif" font-size="10.00">Data.IJsonBuilderElementData</text>
</a>
</g>
</g>
<!-- Node0&#45;&gt;Node11 -->
<g id="edge14" class="edge"><title>Node0&#45;&gt;Node11</title>
<path fill="none" stroke="midnightblue" d="M179.178,-115.806C199.435,-104.034 226.141,-89.4877 251,-79 259.494,-75.4163 268.683,-72.0824 277.71,-69.0924"/>
<polygon fill="midnightblue" stroke="midnightblue" points="177.199,-112.909 170.354,-120.996 180.748,-118.943 177.199,-112.909"/>
</g>
<!-- Node12 -->
<g id="node13" class="node"><title>Node12</title>
<g id="a_node13"><a xlink:href="interface_fifty_one_1_1_pipeline_1_1_math_1_1_i_math_data.html" target="_top" xlink:title=" ">
<polygon fill="none" stroke="black" points="251,-0.5 251,-19.5 414,-19.5 414,-0.5 251,-0.5"/>
<text text-anchor="middle" x="332.5" y="-7.5" font-family="Helvetica,sans-Serif" font-size="10.00">FiftyOne.Pipeline.Math.IMathData</text>
</a>
</g>
</g>
<!-- Node0&#45;&gt;Node12 -->
<g id="edge16" class="edge"><title>Node0&#45;&gt;Node12</title>
<path fill="none" stroke="midnightblue" d="M162.327,-112.863C180.947,-88.2535 213.683,-50.0362 251,-29 257.88,-25.1217 265.519,-22.0328 273.274,-19.5732"/>
<polygon fill="midnightblue" stroke="midnightblue" points="159.478,-110.829 156.345,-120.95 165.106,-114.992 159.478,-110.829"/>
</g>
<!-- Node1 -->
<g id="node2" class="node"><title>Node1</title>
<g id="a_node2"><a xlink:href="interface_fifty_one_1_1_pipeline_1_1_core_1_1_data_1_1_i_data.html" target="_top" xlink:title="Represents property values">
<polygon fill="none" stroke="black" points="0,-126.5 0,-145.5 39,-145.5 39,-126.5 0,-126.5"/>
<text text-anchor="middle" x="19.5" y="-133.5" font-family="Helvetica,sans-Serif" font-size="10.00">IData</text>
</a>
</g>
</g>
<!-- Node1&#45;&gt;Node0 -->
<g id="edge1" class="edge"><title>Node1&#45;&gt;Node0</title>
<path fill="none" stroke="midnightblue" d="M49.4601,-136C57.1875,-136 65.88,-136 74.7826,-136"/>
<polygon fill="midnightblue" stroke="midnightblue" points="49.257,-132.5 39.257,-136 49.257,-139.5 49.257,-132.5"/>
</g>
<!-- Node3 -->
<g id="node4" class="node"><title>Node3</title>
<g id="a_node4"><a xlink:href="class_fifty_one_1_1_pipeline_1_1_engines_1_1_data_1_1_aspect_data_base.html" target="_top" xlink:title="Base class for element data instances that are generated by an IAspectEngine.">
<polygon fill="none" stroke="black" points="485.5,-234 485.5,-264 617.5,-264 617.5,-234 485.5,-234"/>
<text text-anchor="start" x="493.5" y="-252" font-family="Helvetica,sans-Serif" font-size="10.00">FiftyOne.Pipeline.Engines.</text>
<text text-anchor="middle" x="551.5" y="-241" font-family="Helvetica,sans-Serif" font-size="10.00">Data.AspectDataBase</text>
</a>
</g>
</g>
<!-- Node2&#45;&gt;Node3 -->
<g id="edge3" class="edge"><title>Node2&#45;&gt;Node3</title>
<path fill="none" stroke="midnightblue" d="M397.158,-182.135C402.885,-184.02 408.569,-185.987 414,-188 451.116,-201.759 492.45,-220.772 519.806,-233.897"/>
<polygon fill="midnightblue" stroke="midnightblue" points="398.107,-178.764 387.516,-179.044 395.97,-185.429 398.107,-178.764"/>
</g>
<!-- Node4 -->
<g id="node5" class="node"><title>Node4</title>
<g id="a_node5"><a xlink:href="class_fifty_one_1_1_pipeline_1_1_ip_splitter_1_1_split_ip_data.html" target="_top" xlink:title=" ">
<polygon fill="none" stroke="black" points="484,-161 484,-191 619,-191 619,-161 484,-161"/>
<text text-anchor="start" x="492" y="-179" font-family="Helvetica,sans-Serif" font-size="10.00">FiftyOne.Pipeline.IpSplitter.</text>
<text text-anchor="middle" x="551.5" y="-168" font-family="Helvetica,sans-Serif" font-size="10.00">SplitIpData</text>
</a>
</g>
</g>
<!-- Node2&#45;&gt;Node4 -->
<g id="edge4" class="edge"><title>Node2&#45;&gt;Node4</title>
<path fill="none" stroke="midnightblue" d="M412.939,-168.393C436.193,-169.679 461.37,-171.071 483.751,-172.309"/>
<polygon fill="midnightblue" stroke="midnightblue" points="412.935,-164.887 402.757,-167.83 412.548,-171.877 412.935,-164.887"/>
</g>
<!-- Node5 -->
<g id="node6" class="node"><title>Node5</title>
<g id="a_node6"><a xlink:href="class_fifty_one_1_1_pipeline_1_1_java_script_builder_1_1_data_1_1_java_script_builder_element_data.html" target="_top" xlink:title=" ">
<polygon fill="none" stroke="black" points="450,-103 450,-133 653,-133 653,-103 450,-103"/>
<text text-anchor="start" x="458" y="-121" font-family="Helvetica,sans-Serif" font-size="10.00">FiftyOne.Pipeline.JavaScript</text>
<text text-anchor="middle" x="551.5" y="-110" font-family="Helvetica,sans-Serif" font-size="10.00">Builder.Data.JavaScriptBuilderElementData</text>
</a>
</g>
</g>
<!-- Node2&#45;&gt;Node5 -->
<g id="edge5" class="edge"><title>Node2&#45;&gt;Node5</title>
<path fill="none" stroke="midnightblue" d="M412.692,-147.213C434.611,-142.566 458.254,-137.554 479.664,-133.016"/>
<polygon fill="midnightblue" stroke="midnightblue" points="411.814,-143.821 402.757,-149.319 413.265,-150.669 411.814,-143.821"/>
</g>
<!-- Node6 -->
<g id="node7" class="node"><title>Node6</title>
<g id="a_node7"><a xlink:href="class_fifty_one_1_1_pipeline_1_1_json_builder_1_1_data_1_1_json_builder_element_data.html" target="_top" xlink:title="JsonBuilderElement data class.">
<polygon fill="none" stroke="black" points="478,-50 478,-80 625,-80 625,-50 478,-50"/>
<text text-anchor="start" x="486" y="-68" font-family="Helvetica,sans-Serif" font-size="10.00">FiftyOne.Pipeline.JsonBuilder.</text>
<text text-anchor="middle" x="551.5" y="-57" font-family="Helvetica,sans-Serif" font-size="10.00">Data.JsonBuilderElementData</text>
</a>
</g>
</g>
<!-- Node2&#45;&gt;Node6 -->
<g id="edge6" class="edge"><title>Node2&#45;&gt;Node6</title>
<path fill="none" stroke="midnightblue" d="M404.999,-144.472C408.124,-142.792 411.143,-140.971 414,-139 435.369,-124.257 428.417,-107.427 450,-93 458.433,-87.3633 467.985,-82.8528 477.764,-79.2456"/>
<polygon fill="midnightblue" stroke="midnightblue" points="403.429,-141.344 395.951,-148.849 406.477,-147.645 403.429,-141.344"/>
</g>
<!-- Node7 -->
<g id="node8" class="node"><title>Node7</title>
<g id="a_node8"><a xlink:href="class_fifty_one_1_1_pipeline_1_1_math_1_1_math_data.html" target="_top" xlink:title=" ">
<polygon fill="none" stroke="black" points="471,-4.5 471,-23.5 632,-23.5 632,-4.5 471,-4.5"/>
<text text-anchor="middle" x="551.5" y="-11.5" font-family="Helvetica,sans-Serif" font-size="10.00">FiftyOne.Pipeline.Math.MathData</text>
</a>
</g>
</g>
<!-- Node2&#45;&gt;Node7 -->
<g id="edge7" class="edge"><title>Node2&#45;&gt;Node7</title>
<path fill="none" stroke="midnightblue" d="M409.242,-143.074C410.9,-141.795 412.491,-140.439 414,-139 447.885,-106.692 415.35,-71.486 450,-40 458.07,-32.6673 467.938,-27.3483 478.304,-23.5008"/>
<polygon fill="midnightblue" stroke="midnightblue" points="406.894,-140.428 400.45,-148.837 410.732,-146.282 406.894,-140.428"/>
</g>
<!-- Node8&#45;&gt;Node3 -->
<g id="edge9" class="edge"><title>Node8&#45;&gt;Node3</title>
<path fill="none" stroke="midnightblue" d="M408.764,-257.491C433.734,-255.995 461.304,-254.344 485.439,-252.898"/>
<polygon fill="midnightblue" stroke="midnightblue" points="408.38,-254.008 398.607,-258.1 408.799,-260.995 408.38,-254.008"/>
</g>
<!-- Node9&#45;&gt;Node4 -->
<g id="edge11" class="edge"><title>Node9&#45;&gt;Node4</title>
<path fill="none" stroke="midnightblue" d="M410.203,-199.922C434.18,-195.833 460.429,-191.358 483.67,-187.395"/>
<polygon fill="midnightblue" stroke="midnightblue" points="409.351,-196.516 400.082,-201.647 410.528,-203.417 409.351,-196.516"/>
</g>
<!-- Node10&#45;&gt;Node5 -->
<g id="edge13" class="edge"><title>Node10&#45;&gt;Node5</title>
<path fill="none" stroke="midnightblue" d="M417.308,-112.476C427.9,-112.915 438.823,-113.368 449.644,-113.817"/>
<polygon fill="midnightblue" stroke="midnightblue" points="417.406,-108.977 407.269,-112.06 417.115,-115.971 417.406,-108.977"/>
</g>
<!-- Node11&#45;&gt;Node6 -->
<g id="edge15" class="edge"><title>Node11&#45;&gt;Node6</title>
<path fill="none" stroke="midnightblue" d="M417.527,-58.2594C437.371,-59.2654 458.369,-60.3297 477.671,-61.3082"/>
<polygon fill="midnightblue" stroke="midnightblue" points="417.433,-54.7503 407.269,-57.7394 417.079,-61.7413 417.433,-54.7503"/>
</g>
<!-- Node12&#45;&gt;Node7 -->
<g id="edge17" class="edge"><title>Node12&#45;&gt;Node7</title>
<path fill="none" stroke="midnightblue" d="M424.338,-11.6744C439.738,-11.9583 455.624,-12.2511 470.713,-12.5293"/>
<polygon fill="midnightblue" stroke="midnightblue" points="424.366,-8.17445 414.303,-11.4895 424.237,-15.1733 424.366,-8.17445"/>
</g>
</g>
</svg>
