<?xml version="1.0" encoding="UTF-8" standalone="no"?>
<!DOCTYPE svg PUBLIC "-//W3C//DTD SVG 1.1//EN"
 "http://www.w3.org/Graphics/SVG/1.1/DTD/svg11.dtd">
<!-- Generated by graphviz version 2.38.0 (20140413.2041)
 -->
<!-- Title: FiftyOne.Pipeline.Engines.FiftyOne.Data.IFiftyOneDataFile Pages: 1 -->
<svg width="163pt" height="218pt"
 viewBox="0.00 0.00 163.00 218.00" xmlns="http://www.w3.org/2000/svg" xmlns:xlink="http://www.w3.org/1999/xlink">
<g id="graph0" class="graph" transform="scale(1 1) rotate(0) translate(4 214)">
<title>FiftyOne.Pipeline.Engines.FiftyOne.Data.IFiftyOneDataFile</title>
<!-- Node0 -->
<g id="node1" class="node"><title>Node0</title>
<g id="a_node1"><a xlink:title=" ">
<polygon fill="#bfbfbf" stroke="black" points="0,-67.5 0,-97.5 155,-97.5 155,-67.5 0,-67.5"/>
<text text-anchor="start" x="8" y="-85.5" font-family="Helvetica,sans-Serif" font-size="10.00">FiftyOne.Pipeline.Engines.</text>
<text text-anchor="middle" x="77.5" y="-74.5" font-family="Helvetica,sans-Serif" font-size="10.00">FiftyOne.Data.IFiftyOneDataFile</text>
</a>
</g>
</g>
<!-- Node3 -->
<g id="node4" class="node"><title>Node3</title>
<g id="a_node4"><a xlink:href="class_fifty_one_1_1_pipeline_1_1_engines_1_1_fifty_one_1_1_data_1_1_fifty_one_data_file.html" target="_top" xlink:title=" ">
<polygon fill="none" stroke="black" points="1.5,-0.5 1.5,-30.5 153.5,-30.5 153.5,-0.5 1.5,-0.5"/>
<text text-anchor="start" x="9.5" y="-18.5" font-family="Helvetica,sans-Serif" font-size="10.00">FiftyOne.Pipeline.Engines.</text>
<text text-anchor="middle" x="77.5" y="-7.5" font-family="Helvetica,sans-Serif" font-size="10.00">FiftyOne.Data.FiftyOneDataFile</text>
</a>
</g>
</g>
<!-- Node0&#45;&gt;Node3 -->
<g id="edge3" class="edge"><title>Node0&#45;&gt;Node3</title>
<path fill="none" stroke="midnightblue" d="M77.5,-57.1081C77.5,-48.1539 77.5,-38.3227 77.5,-30.5765"/>
<polygon fill="midnightblue" stroke="midnightblue" points="74.0001,-57.3959 77.5,-67.396 81.0001,-57.396 74.0001,-57.3959"/>
</g>
<!-- Node1 -->
<g id="node2" class="node"><title>Node1</title>
<g id="a_node2"><a xlink:href="interface_fifty_one_1_1_pipeline_1_1_engines_1_1_data_1_1_i_aspect_engine_data_file.html" target="_top" xlink:title="Interface for the details of a data file used by an Aspect engine.">
<polygon fill="none" stroke="black" points="19.5,-134.5 19.5,-153.5 135.5,-153.5 135.5,-134.5 19.5,-134.5"/>
<text text-anchor="middle" x="77.5" y="-141.5" font-family="Helvetica,sans-Serif" font-size="10.00">IAspectEngineDataFile</text>
</a>
</g>
</g>
<!-- Node1&#45;&gt;Node0 -->
<g id="edge1" class="edge"><title>Node1&#45;&gt;Node0</title>
<path fill="none" stroke="midnightblue" d="M77.5,-124.235C77.5,-115.586 77.5,-105.497 77.5,-97.523"/>
<polygon fill="midnightblue" stroke="midnightblue" points="74.0001,-124.475 77.5,-134.475 81.0001,-124.475 74.0001,-124.475"/>
</g>
<!-- Node2 -->
<g id="node3" class="node"><title>Node2</title>
<g id="a_node3"><a xlink:title=" ">
<polygon fill="none" stroke="#bfbfbf" points="44,-190.5 44,-209.5 111,-209.5 111,-190.5 44,-190.5"/>
<text text-anchor="middle" x="77.5" y="-197.5" font-family="Helvetica,sans-Serif" font-size="10.00">IDisposable</text>
</a>
</g>
</g>
<!-- Node2&#45;&gt;Node1 -->
<g id="edge2" class="edge"><title>Node2&#45;&gt;Node1</title>
<path fill="none" stroke="midnightblue" d="M77.5,-179.805C77.5,-170.91 77.5,-160.78 77.5,-153.751"/>
<polygon fill="midnightblue" stroke="midnightblue" points="74.0001,-180.083 77.5,-190.083 81.0001,-180.083 74.0001,-180.083"/>
</g>
</g>
</svg>
