<?xml version="1.0" encoding="UTF-8" standalone="no"?>
<!DOCTYPE svg PUBLIC "-//W3C//DTD SVG 1.1//EN"
 "http://www.w3.org/Graphics/SVG/1.1/DTD/svg11.dtd">
<!-- Generated by graphviz version 2.43.0 (0)
 -->
<!-- Title: FiftyOne.Pipeline.Core.Exceptions.PipelineTemporarilyUnavailableException Pages: 1 -->
<svg width="228pt" height="151pt"
 viewBox="0.00 0.00 228.00 151.00" xmlns="http://www.w3.org/2000/svg" xmlns:xlink="http://www.w3.org/1999/xlink">
<g id="graph0" class="graph" transform="scale(1 1) rotate(0) translate(4 147)">
<title>FiftyOne.Pipeline.Core.Exceptions.PipelineTemporarilyUnavailableException</title>
<!-- Node3 -->
<g id="node1" class="node">
<title>Node3</title>
<g id="a_node1"><a xlink:title="Indicates that pipeline refused to process Data.IFlowData based on the internal state of some flow el...">
<polygon fill="#bfbfbf" stroke="black" points="0,-0.5 0,-30.5 220,-30.5 220,-0.5 0,-0.5"/>
<text text-anchor="start" x="8" y="-18.5" font-family="Helvetica,sans-Serif" font-size="10.00">FiftyOne.Pipeline.Core.Exceptions.</text>
<text text-anchor="middle" x="110" y="-7.5" font-family="Helvetica,sans-Serif" font-size="10.00">PipelineTemporarilyUnavailableException</text>
</a>
</g>
</g>
<!-- Node4 -->
<g id="node2" class="node">
<title>Node4</title>
<g id="a_node2"><a xlink:href="class_fifty_one_1_1_pipeline_1_1_core_1_1_exceptions_1_1_pipeline_exception.html" target="_top" xlink:title="Base class for all exceptions thrown by Pipeline API components">
<polygon fill="none" stroke="black" points="58,-67.5 58,-86.5 162,-86.5 162,-67.5 58,-67.5"/>
<text text-anchor="middle" x="110" y="-74.5" font-family="Helvetica,sans-Serif" font-size="10.00">PipelineException</text>
</a>
</g>
</g>
<!-- Node4&#45;&gt;Node3 -->
<g id="edge1" class="edge">
<title>Node4&#45;&gt;Node3</title>
<path fill="none" stroke="midnightblue" d="M110,-57.23C110,-48.59 110,-38.5 110,-30.52"/>
<polygon fill="midnightblue" stroke="midnightblue" points="106.5,-57.48 110,-67.48 113.5,-57.48 106.5,-57.48"/>
</g>
<!-- Node5 -->
<g id="node3" class="node">
<title>Node5</title>
<g id="a_node3"><a xlink:title=" ">
<polygon fill="none" stroke="#bfbfbf" points="77.5,-123.5 77.5,-142.5 142.5,-142.5 142.5,-123.5 77.5,-123.5"/>
<text text-anchor="middle" x="110" y="-130.5" font-family="Helvetica,sans-Serif" font-size="10.00">Exception</text>
</a>
</g>
</g>
<!-- Node5&#45;&gt;Node4 -->
<g id="edge2" class="edge">
<title>Node5&#45;&gt;Node4</title>
<path fill="none" stroke="midnightblue" d="M110,-112.8C110,-103.91 110,-93.78 110,-86.75"/>
<polygon fill="midnightblue" stroke="midnightblue" points="106.5,-113.08 110,-123.08 113.5,-113.08 106.5,-113.08"/>
</g>
</g>
</svg>
