<?xml version="1.0" encoding="UTF-8" standalone="no"?>
<!DOCTYPE svg PUBLIC "-//W3C//DTD SVG 1.1//EN"
 "http://www.w3.org/Graphics/SVG/1.1/DTD/svg11.dtd">
<!-- Generated by graphviz version 2.43.0 (0)
 -->
<!-- Title: FiftyOne.Pipeline.Core.Exceptions.PipelineException Pages: 1 -->
<svg width="549pt" height="186pt"
 viewBox="0.00 0.00 549.00 186.00" xmlns="http://www.w3.org/2000/svg" xmlns:xlink="http://www.w3.org/1999/xlink">
<g id="graph0" class="graph" transform="scale(1 1) rotate(0) translate(4 182)">
<title>FiftyOne.Pipeline.Core.Exceptions.PipelineException</title>
<!-- Node0 -->
<g id="node1" class="node">
<title>Node0</title>
<g id="a_node1"><a xlink:title="Base class for all exceptions thrown by Pipeline API components">
<polygon fill="#bfbfbf" stroke="black" points="101,-73.5 101,-103.5 285,-103.5 285,-73.5 101,-73.5"/>
<text text-anchor="start" x="109" y="-91.5" font-family="Helvetica,sans-Serif" font-size="10.00">FiftyOne.Pipeline.Core.Exceptions.</text>
<text text-anchor="middle" x="193" y="-80.5" font-family="Helvetica,sans-Serif" font-size="10.00">PipelineException</text>
</a>
</g>
</g>
<!-- Node2 -->
<g id="node3" class="node">
<title>Node2</title>
<g id="a_node3"><a xlink:href="class_fifty_one_1_1_pipeline_1_1_core_1_1_exceptions_1_1_pipeline_configuration_exception.html" target="_top" xlink:title="Exception that is thrown when the configuration options provided to PipelineBuilder are invalid See t...">
<polygon fill="none" stroke="black" points="339,-147.5 339,-177.5 523,-177.5 523,-147.5 339,-147.5"/>
<text text-anchor="start" x="347" y="-165.5" font-family="Helvetica,sans-Serif" font-size="10.00">FiftyOne.Pipeline.Core.Exceptions.</text>
<text text-anchor="middle" x="431" y="-154.5" font-family="Helvetica,sans-Serif" font-size="10.00">PipelineConfigurationException</text>
</a>
</g>
</g>
<!-- Node0&#45;&gt;Node2 -->
<g id="edge2" class="edge">
<title>Node0&#45;&gt;Node2</title>
<path fill="none" stroke="midnightblue" d="M237.27,-107.51C261.55,-117.67 292.59,-129.84 321,-138.5 331.66,-141.75 343.03,-144.75 354.25,-147.45"/>
<polygon fill="midnightblue" stroke="midnightblue" points="238.55,-104.25 227.98,-103.58 235.82,-110.7 238.55,-104.25"/>
</g>
<!-- Node3 -->
<g id="node4" class="node">
<title>Node3</title>
<g id="a_node4"><a xlink:href="class_fifty_one_1_1_pipeline_1_1_core_1_1_exceptions_1_1_pipeline_data_exception.html" target="_top" xlink:title="Exception that can be thrown when the available data does not match that which is expected.">
<polygon fill="none" stroke="black" points="339,-98.5 339,-128.5 523,-128.5 523,-98.5 339,-98.5"/>
<text text-anchor="start" x="347" y="-116.5" font-family="Helvetica,sans-Serif" font-size="10.00">FiftyOne.Pipeline.Core.Exceptions.</text>
<text text-anchor="middle" x="431" y="-105.5" font-family="Helvetica,sans-Serif" font-size="10.00">PipelineDataException</text>
</a>
</g>
</g>
<!-- Node0&#45;&gt;Node3 -->
<g id="edge3" class="edge">
<title>Node0&#45;&gt;Node3</title>
<path fill="none" stroke="midnightblue" d="M295.24,-99.23C309.79,-100.77 324.67,-102.34 339,-103.86"/>
<polygon fill="midnightblue" stroke="midnightblue" points="295.56,-95.74 285.24,-98.17 294.82,-102.7 295.56,-95.74"/>
</g>
<!-- Node4 -->
<g id="node5" class="node">
<title>Node4</title>
<g id="a_node5"><a xlink:href="class_fifty_one_1_1_pipeline_1_1_core_1_1_exceptions_1_1_pipeline_temporarily_unavailable_exception.html" target="_top" xlink:title="Indicates that pipeline refused to process Data.IFlowData based on the internal state of some flow el...">
<polygon fill="none" stroke="black" points="321,-49.5 321,-79.5 541,-79.5 541,-49.5 321,-49.5"/>
<text text-anchor="start" x="329" y="-67.5" font-family="Helvetica,sans-Serif" font-size="10.00">FiftyOne.Pipeline.Core.Exceptions.</text>
<text text-anchor="middle" x="431" y="-56.5" font-family="Helvetica,sans-Serif" font-size="10.00">PipelineTemporarilyUnavailableException</text>
</a>
</g>
</g>
<!-- Node0&#45;&gt;Node4 -->
<g id="edge4" class="edge">
<title>Node0&#45;&gt;Node4</title>
<path fill="none" stroke="midnightblue" d="M295.45,-78.18C303.87,-77.33 312.41,-76.46 320.88,-75.6"/>
<polygon fill="midnightblue" stroke="midnightblue" points="294.84,-74.73 285.24,-79.22 295.55,-81.69 294.84,-74.73"/>
</g>
<!-- Node5 -->
<g id="node6" class="node">
<title>Node5</title>
<g id="a_node6"><a xlink:href="class_fifty_one_1_1_pipeline_1_1_core_1_1_exceptions_1_1_properties_not_yet_loaded_exception.html" target="_top" xlink:title="Thrown by FlowElements.IFlowElement.Properties to indicate that properties are not available yet but ...">
<polygon fill="none" stroke="black" points="339,-0.5 339,-30.5 523,-30.5 523,-0.5 339,-0.5"/>
<text text-anchor="start" x="347" y="-18.5" font-family="Helvetica,sans-Serif" font-size="10.00">FiftyOne.Pipeline.Core.Exceptions.</text>
<text text-anchor="middle" x="431" y="-7.5" font-family="Helvetica,sans-Serif" font-size="10.00">PropertiesNotYetLoadedException</text>
</a>
</g>
</g>
<!-- Node0&#45;&gt;Node5 -->
<g id="edge5" class="edge">
<title>Node0&#45;&gt;Node5</title>
<path fill="none" stroke="midnightblue" d="M238.07,-69.6C262.25,-59.72 292.93,-47.95 321,-39.5 331.76,-36.26 343.24,-33.26 354.56,-30.55"/>
<polygon fill="midnightblue" stroke="midnightblue" points="236.72,-66.37 228.81,-73.42 239.39,-72.84 236.72,-66.37"/>
</g>
<!-- Node1 -->
<g id="node2" class="node">
<title>Node1</title>
<g id="a_node2"><a xlink:title=" ">
<polygon fill="none" stroke="#bfbfbf" points="0,-79 0,-98 65,-98 65,-79 0,-79"/>
<text text-anchor="middle" x="32.5" y="-86" font-family="Helvetica,sans-Serif" font-size="10.00">Exception</text>
</a>
</g>
</g>
<!-- Node1&#45;&gt;Node0 -->
<g id="edge1" class="edge">
<title>Node1&#45;&gt;Node0</title>
<path fill="none" stroke="midnightblue" d="M75.32,-88.5C83.34,-88.5 92.02,-88.5 100.91,-88.5"/>
<polygon fill="midnightblue" stroke="midnightblue" points="75.19,-85 65.19,-88.5 75.19,-92 75.19,-85"/>
</g>
</g>
</svg>
