<?xml version="1.0" encoding="UTF-8" standalone="no"?>
<!DOCTYPE svg PUBLIC "-//W3C//DTD SVG 1.1//EN"
 "http://www.w3.org/Graphics/SVG/1.1/DTD/svg11.dtd">
<!-- Generated by graphviz version 2.43.0 (0)
 -->
<!-- Title: FiftyOne.Pipeline.Core.Exceptions.PipelineException Pages: 1 -->
<svg width="513pt" height="88pt"
 viewBox="0.00 0.00 513.00 88.00" xmlns="http://www.w3.org/2000/svg" xmlns:xlink="http://www.w3.org/1999/xlink">
<g id="graph0" class="graph" transform="scale(1 1) rotate(0) translate(4 84)">
<title>FiftyOne.Pipeline.Core.Exceptions.PipelineException</title>
<!-- Node0 -->
<g id="node1" class="node">
<title>Node0</title>
<g id="a_node1"><a xlink:title="Base class for all exceptions thrown by Pipeline API components">
<polygon fill="#bfbfbf" stroke="black" points="101,-24.5 101,-54.5 285,-54.5 285,-24.5 101,-24.5"/>
<text text-anchor="start" x="109" y="-42.5" font-family="Helvetica,sans-Serif" font-size="10.00">FiftyOne.Pipeline.Core.Exceptions.</text>
<text text-anchor="middle" x="193" y="-31.5" font-family="Helvetica,sans-Serif" font-size="10.00">PipelineException</text>
</a>
</g>
</g>
<!-- Node2 -->
<g id="node3" class="node">
<title>Node2</title>
<g id="a_node3"><a xlink:href="class_fifty_one_1_1_pipeline_1_1_core_1_1_exceptions_1_1_pipeline_configuration_exception.html" target="_top" xlink:title="Exception that is thrown when the configuration options provided to PipelineBuilder are invalid See t...">
<polygon fill="none" stroke="black" points="321,-49.5 321,-79.5 505,-79.5 505,-49.5 321,-49.5"/>
<text text-anchor="start" x="329" y="-67.5" font-family="Helvetica,sans-Serif" font-size="10.00">FiftyOne.Pipeline.Core.Exceptions.</text>
<text text-anchor="middle" x="413" y="-56.5" font-family="Helvetica,sans-Serif" font-size="10.00">PipelineConfigurationException</text>
</a>
</g>
</g>
<!-- Node0&#45;&gt;Node2 -->
<g id="edge2" class="edge">
<title>Node0&#45;&gt;Node2</title>
<path fill="none" stroke="midnightblue" d="M295.19,-51.1C303.74,-52.08 312.36,-53.07 320.83,-54.04"/>
<polygon fill="midnightblue" stroke="midnightblue" points="295.52,-47.62 285.19,-49.96 294.72,-54.57 295.52,-47.62"/>
</g>
<!-- Node3 -->
<g id="node4" class="node">
<title>Node3</title>
<g id="a_node4"><a xlink:href="class_fifty_one_1_1_pipeline_1_1_core_1_1_exceptions_1_1_pipeline_data_exception.html" target="_top" xlink:title="Exception that can be thrown when the available data does not match that which is expected.">
<polygon fill="none" stroke="black" points="321,-0.5 321,-30.5 505,-30.5 505,-0.5 321,-0.5"/>
<text text-anchor="start" x="329" y="-18.5" font-family="Helvetica,sans-Serif" font-size="10.00">FiftyOne.Pipeline.Core.Exceptions.</text>
<text text-anchor="middle" x="413" y="-7.5" font-family="Helvetica,sans-Serif" font-size="10.00">PipelineDataException</text>
</a>
</g>
</g>
<!-- Node0&#45;&gt;Node3 -->
<g id="edge3" class="edge">
<title>Node0&#45;&gt;Node3</title>
<path fill="none" stroke="midnightblue" d="M295.19,-28.36C303.74,-27.42 312.36,-26.47 320.83,-25.54"/>
<polygon fill="midnightblue" stroke="midnightblue" points="294.75,-24.89 285.19,-29.46 295.51,-31.85 294.75,-24.89"/>
</g>
<!-- Node1 -->
<g id="node2" class="node">
<title>Node1</title>
<g id="a_node2"><a xlink:title=" ">
<polygon fill="none" stroke="#bfbfbf" points="0,-30 0,-49 65,-49 65,-30 0,-30"/>
<text text-anchor="middle" x="32.5" y="-37" font-family="Helvetica,sans-Serif" font-size="10.00">Exception</text>
</a>
</g>
</g>
<!-- Node1&#45;&gt;Node0 -->
<g id="edge1" class="edge">
<title>Node1&#45;&gt;Node0</title>
<path fill="none" stroke="midnightblue" d="M75.32,-39.5C83.34,-39.5 92.02,-39.5 100.91,-39.5"/>
<polygon fill="midnightblue" stroke="midnightblue" points="75.19,-36 65.19,-39.5 75.19,-43 75.19,-36"/>
</g>
</g>
</svg>
