<?xml version="1.0" encoding="UTF-8" standalone="no"?>
<!DOCTYPE svg PUBLIC "-//W3C//DTD SVG 1.1//EN"
 "http://www.w3.org/Graphics/SVG/1.1/DTD/svg11.dtd">
<!-- Generated by graphviz version 2.43.0 (0)
 -->
<!-- Title: FiftyOne.Pipeline.Core.FlowElements.FlowElementBase&lt; T, TMeta &gt; Pages: 1 -->
<svg width="1954pt" height="661pt"
 viewBox="0.00 0.00 1954.00 660.50" xmlns="http://www.w3.org/2000/svg" xmlns:xlink="http://www.w3.org/1999/xlink">
<g id="graph0" class="graph" transform="scale(1 1) rotate(0) translate(4 656.5)">
<title>FiftyOne.Pipeline.Core.FlowElements.FlowElementBase&lt; T, TMeta &gt;</title>
<!-- Node0 -->
<g id="node1" class="node">
<title>Node0</title>
<g id="a_node1"><a xlink:title="Abstract base class for Flow Elements.">
<polygon fill="#bfbfbf" stroke="black" points="442,-294 442,-335 595,-335 595,-294 442,-294"/>
<text text-anchor="start" x="450" y="-323" font-family="Helvetica,sans-Serif" font-size="10.00">FiftyOne.Pipeline.Core.Flow</text>
<text text-anchor="start" x="450" y="-312" font-family="Helvetica,sans-Serif" font-size="10.00">Elements.FlowElementBase</text>
<text text-anchor="middle" x="518.5" y="-301" font-family="Helvetica,sans-Serif" font-size="10.00">&lt; T, TMeta &gt;</text>
</a>
</g>
</g>
<!-- Node3 -->
<g id="node4" class="node">
<title>Node3</title>
<g id="a_node4"><a xlink:href="class_fifty_one_1_1_pipeline_1_1_engines_1_1_flow_elements_1_1_aspect_engine_base.html" target="_top" xlink:title="Base class for 51Degrees aspect engines.">
<polygon fill="none" stroke="black" points="837.5,-572.5 837.5,-624.5 973.5,-624.5 973.5,-572.5 837.5,-572.5"/>
<text text-anchor="start" x="845.5" y="-612.5" font-family="Helvetica,sans-Serif" font-size="10.00">FiftyOne::Pipeline</text>
<text text-anchor="start" x="845.5" y="-601.5" font-family="Helvetica,sans-Serif" font-size="10.00">::Engines::FlowElements</text>
<text text-anchor="start" x="845.5" y="-590.5" font-family="Helvetica,sans-Serif" font-size="10.00">::AspectEngineBase&lt; T,</text>
<text text-anchor="middle" x="905.5" y="-579.5" font-family="Helvetica,sans-Serif" font-size="10.00"> TMeta &gt;</text>
</a>
</g>
</g>
<!-- Node0&#45;&gt;Node3 -->
<g id="edge3" class="edge">
<title>Node0&#45;&gt;Node3</title>
<path fill="none" stroke="midnightblue" d="M522.15,-345.42C528.33,-396.89 548.49,-499.6 613,-551.5 676.31,-602.43 772.96,-608.31 837.41,-605.4"/>
<polygon fill="midnightblue" stroke="midnightblue" points="525.61,-344.81 521.03,-335.25 518.65,-345.57 525.61,-344.81"/>
</g>
<!-- Node9 -->
<g id="node10" class="node">
<title>Node9</title>
<g id="a_node10"><a xlink:href="class_fifty_one_1_1_pipeline_1_1_core_1_1_flow_elements_1_1_flow_element_base.html" target="_top" xlink:title=" ">
<polygon fill="none" stroke="black" points="823.5,-501.5 823.5,-553.5 987.5,-553.5 987.5,-501.5 823.5,-501.5"/>
<text text-anchor="start" x="831.5" y="-541.5" font-family="Helvetica,sans-Serif" font-size="10.00">FiftyOne.Pipeline.Core.Flow</text>
<text text-anchor="start" x="831.5" y="-530.5" font-family="Helvetica,sans-Serif" font-size="10.00">Elements.FlowElementBase</text>
<text text-anchor="start" x="831.5" y="-519.5" font-family="Helvetica,sans-Serif" font-size="10.00">&lt; IJsonBuilderElementData,</text>
<text text-anchor="middle" x="905.5" y="-508.5" font-family="Helvetica,sans-Serif" font-size="10.00"> IElementPropertyMetaData &gt;</text>
</a>
</g>
</g>
<!-- Node0&#45;&gt;Node9 -->
<g id="edge9" class="edge">
<title>Node0&#45;&gt;Node9</title>
<path fill="none" stroke="orange" stroke-dasharray="5,2" d="M529.08,-344.75C542.1,-380.66 568.94,-439.58 613,-470.5 674.62,-513.75 760.77,-526.21 823.42,-528.93"/>
<polygon fill="orange" stroke="orange" points="532.37,-343.56 525.77,-335.27 525.77,-345.86 532.37,-343.56"/>
<text text-anchor="start" x="626" y="-539.5" font-family="Helvetica,sans-Serif" font-size="10.00"> &lt; IJsonBuilderElementData,</text>
<text text-anchor="middle" x="700" y="-528.5" font-family="Helvetica,sans-Serif" font-size="10.00"> IElementPropertyMetaData &gt;</text>
</g>
<!-- Node11 -->
<g id="node12" class="node">
<title>Node11</title>
<g id="a_node12"><a xlink:href="class_fifty_one_1_1_pipeline_1_1_core_1_1_flow_elements_1_1_flow_element_base.html" target="_top" xlink:title=" ">
<polygon fill="none" stroke="black" points="808.5,-430.5 808.5,-482.5 1002.5,-482.5 1002.5,-430.5 808.5,-430.5"/>
<text text-anchor="start" x="816.5" y="-470.5" font-family="Helvetica,sans-Serif" font-size="10.00">FiftyOne.Pipeline.Core.Flow</text>
<text text-anchor="start" x="816.5" y="-459.5" font-family="Helvetica,sans-Serif" font-size="10.00">Elements.FlowElementBase</text>
<text text-anchor="start" x="816.5" y="-448.5" font-family="Helvetica,sans-Serif" font-size="10.00">&lt; IMathData, IElementPropertyMeta</text>
<text text-anchor="middle" x="905.5" y="-437.5" font-family="Helvetica,sans-Serif" font-size="10.00">Data &gt;</text>
</a>
</g>
</g>
<!-- Node0&#45;&gt;Node11 -->
<g id="edge11" class="edge">
<title>Node0&#45;&gt;Node11</title>
<path fill="none" stroke="orange" stroke-dasharray="5,2" d="M544.43,-342.46C561.89,-360.32 586.73,-382.48 613,-395.5 674.04,-425.75 749.46,-441.02 808.29,-448.72"/>
<polygon fill="orange" stroke="orange" points="546.85,-339.93 537.41,-335.11 541.79,-344.76 546.85,-339.93"/>
<text text-anchor="start" x="621.5" y="-458.5" font-family="Helvetica,sans-Serif" font-size="10.00"> &lt; IMathData, IElementProperty</text>
<text text-anchor="middle" x="700" y="-447.5" font-family="Helvetica,sans-Serif" font-size="10.00">MetaData &gt;</text>
</g>
<!-- Node13 -->
<g id="node14" class="node">
<title>Node13</title>
<g id="a_node14"><a xlink:href="class_fifty_one_1_1_pipeline_1_1_core_1_1_flow_elements_1_1_flow_element_base.html" target="_top" xlink:title=" ">
<polygon fill="none" stroke="black" points="807,-359.5 807,-411.5 1004,-411.5 1004,-359.5 807,-359.5"/>
<text text-anchor="start" x="815" y="-399.5" font-family="Helvetica,sans-Serif" font-size="10.00">FiftyOne.Pipeline.Core.Flow</text>
<text text-anchor="start" x="815" y="-388.5" font-family="Helvetica,sans-Serif" font-size="10.00">Elements.FlowElementBase</text>
<text text-anchor="start" x="815" y="-377.5" font-family="Helvetica,sans-Serif" font-size="10.00">&lt; CookieData, ElementPropertyMeta</text>
<text text-anchor="middle" x="905.5" y="-366.5" font-family="Helvetica,sans-Serif" font-size="10.00">Data &gt;</text>
</a>
</g>
</g>
<!-- Node0&#45;&gt;Node13 -->
<g id="edge13" class="edge">
<title>Node0&#45;&gt;Node13</title>
<path fill="none" stroke="orange" stroke-dasharray="5,2" d="M599.78,-337.48C604.24,-338.55 608.67,-339.57 613,-340.5 677.08,-354.3 749.95,-365.55 806.81,-373.35"/>
<polygon fill="orange" stroke="orange" points="600.54,-334.06 589.99,-335.05 598.85,-340.86 600.54,-334.06"/>
<text text-anchor="start" x="620" y="-383.5" font-family="Helvetica,sans-Serif" font-size="10.00"> &lt; CookieData, ElementProperty</text>
<text text-anchor="middle" x="700" y="-372.5" font-family="Helvetica,sans-Serif" font-size="10.00">MetaData &gt;</text>
</g>
<!-- Node14 -->
<g id="node15" class="node">
<title>Node14</title>
<g id="a_node15"><a xlink:href="class_fifty_one_1_1_pipeline_1_1_core_1_1_flow_elements_1_1_flow_element_base.html" target="_top" xlink:title=" ">
<polygon fill="none" stroke="black" points="813,-288.5 813,-340.5 998,-340.5 998,-288.5 813,-288.5"/>
<text text-anchor="start" x="821" y="-328.5" font-family="Helvetica,sans-Serif" font-size="10.00">FiftyOne.Pipeline.Core.Flow</text>
<text text-anchor="start" x="821" y="-317.5" font-family="Helvetica,sans-Serif" font-size="10.00">Elements.FlowElementBase</text>
<text text-anchor="start" x="821" y="-306.5" font-family="Helvetica,sans-Serif" font-size="10.00">&lt; IElementData, IElementProperty</text>
<text text-anchor="middle" x="905.5" y="-295.5" font-family="Helvetica,sans-Serif" font-size="10.00">MetaData &gt;</text>
</a>
</g>
</g>
<!-- Node0&#45;&gt;Node14 -->
<g id="edge14" class="edge">
<title>Node0&#45;&gt;Node14</title>
<path fill="none" stroke="orange" stroke-dasharray="5,2" d="M605.19,-314.5C666.82,-314.5 749.82,-314.5 812.78,-314.5"/>
<polygon fill="orange" stroke="orange" points="605.1,-311 595.1,-314.5 605.1,-318 605.1,-311"/>
<text text-anchor="start" x="634.5" y="-328.5" font-family="Helvetica,sans-Serif" font-size="10.00"> &lt; IElementData, IElement</text>
<text text-anchor="middle" x="700" y="-317.5" font-family="Helvetica,sans-Serif" font-size="10.00">PropertyMetaData &gt;</text>
</g>
<!-- Node19 -->
<g id="node20" class="node">
<title>Node19</title>
<g id="a_node20"><a xlink:href="class_fifty_one_1_1_pipeline_1_1_core_1_1_flow_elements_1_1_flow_element_base.html" target="_top" xlink:title=" ">
<polygon fill="none" stroke="black" points="815,-217.5 815,-269.5 996,-269.5 996,-217.5 815,-217.5"/>
<text text-anchor="start" x="823" y="-257.5" font-family="Helvetica,sans-Serif" font-size="10.00">FiftyOne.Pipeline.Core.Flow</text>
<text text-anchor="start" x="823" y="-246.5" font-family="Helvetica,sans-Serif" font-size="10.00">Elements.FlowElementBase</text>
<text text-anchor="start" x="823" y="-235.5" font-family="Helvetica,sans-Serif" font-size="10.00">&lt; IJavaScriptBuilderElementData,</text>
<text text-anchor="middle" x="905.5" y="-224.5" font-family="Helvetica,sans-Serif" font-size="10.00"> IElementPropertyMetaData &gt;</text>
</a>
</g>
</g>
<!-- Node0&#45;&gt;Node19 -->
<g id="edge19" class="edge">
<title>Node0&#45;&gt;Node19</title>
<path fill="none" stroke="orange" stroke-dasharray="5,2" d="M599.78,-291.52C604.24,-290.45 608.67,-289.43 613,-288.5 680.08,-274.05 756.8,-262.4 814.69,-254.57"/>
<polygon fill="orange" stroke="orange" points="598.85,-288.14 589.99,-293.95 600.54,-294.94 598.85,-288.14"/>
<text text-anchor="start" x="613" y="-302.5" font-family="Helvetica,sans-Serif" font-size="10.00"> &lt; IJavaScriptBuilderElement</text>
<text text-anchor="middle" x="700" y="-291.5" font-family="Helvetica,sans-Serif" font-size="10.00">Data, IElementPropertyMetaData &gt;</text>
</g>
<!-- Node21 -->
<g id="node22" class="node">
<title>Node21</title>
<g id="a_node22"><a xlink:href="class_fifty_one_1_1_pipeline_1_1_core_1_1_flow_elements_1_1_flow_element_base.html" target="_top" xlink:title=" ">
<polygon fill="none" stroke="black" points="805,-146.5 805,-198.5 1006,-198.5 1006,-146.5 805,-146.5"/>
<text text-anchor="start" x="813" y="-186.5" font-family="Helvetica,sans-Serif" font-size="10.00">FiftyOne.Pipeline.Core.Flow</text>
<text text-anchor="start" x="813" y="-175.5" font-family="Helvetica,sans-Serif" font-size="10.00">Elements.FlowElementBase</text>
<text text-anchor="start" x="813" y="-164.5" font-family="Helvetica,sans-Serif" font-size="10.00">&lt; ISetHeadersData, IElementProperty</text>
<text text-anchor="middle" x="905.5" y="-153.5" font-family="Helvetica,sans-Serif" font-size="10.00">MetaData &gt;</text>
</a>
</g>
</g>
<!-- Node0&#45;&gt;Node21 -->
<g id="edge21" class="edge">
<title>Node0&#45;&gt;Node21</title>
<path fill="none" stroke="orange" stroke-dasharray="5,2" d="M544.43,-286.54C561.89,-268.68 586.73,-246.52 613,-233.5 672.88,-203.83 746.6,-188.57 804.92,-180.73"/>
<polygon fill="orange" stroke="orange" points="541.79,-284.24 537.41,-293.89 546.85,-289.07 541.79,-284.24"/>
<text text-anchor="start" x="626" y="-247.5" font-family="Helvetica,sans-Serif" font-size="10.00"> &lt; ISetHeadersData,</text>
<text text-anchor="middle" x="700" y="-236.5" font-family="Helvetica,sans-Serif" font-size="10.00"> IElementPropertyMetaData &gt;</text>
</g>
<!-- Node23 -->
<g id="node24" class="node">
<title>Node23</title>
<g id="a_node24"><a xlink:href="class_fifty_one_1_1_pipeline_1_1_core_1_1_flow_elements_1_1_flow_element_base.html" target="_top" xlink:title=" ">
<polygon fill="none" stroke="black" points="813,-75.5 813,-127.5 998,-127.5 998,-75.5 813,-75.5"/>
<text text-anchor="start" x="821" y="-115.5" font-family="Helvetica,sans-Serif" font-size="10.00">FiftyOne.Pipeline.Core.Flow</text>
<text text-anchor="start" x="821" y="-104.5" font-family="Helvetica,sans-Serif" font-size="10.00">Elements.FlowElementBase</text>
<text text-anchor="start" x="821" y="-93.5" font-family="Helvetica,sans-Serif" font-size="10.00">&lt; IStarSignData, IElementProperty</text>
<text text-anchor="middle" x="905.5" y="-82.5" font-family="Helvetica,sans-Serif" font-size="10.00">MetaData &gt;</text>
</a>
</g>
</g>
<!-- Node0&#45;&gt;Node23 -->
<g id="edge23" class="edge">
<title>Node0&#45;&gt;Node23</title>
<path fill="none" stroke="orange" stroke-dasharray="5,2" d="M529.08,-284.25C542.1,-248.34 568.94,-189.42 613,-158.5 671.25,-117.62 751.4,-104.25 812.92,-100.61"/>
<polygon fill="orange" stroke="orange" points="525.77,-283.14 525.77,-293.73 532.37,-285.44 525.77,-283.14"/>
<text text-anchor="start" x="634.5" y="-172.5" font-family="Helvetica,sans-Serif" font-size="10.00"> &lt; IStarSignData, IElement</text>
<text text-anchor="middle" x="700" y="-161.5" font-family="Helvetica,sans-Serif" font-size="10.00">PropertyMetaData &gt;</text>
</g>
<!-- Node26 -->
<g id="node27" class="node">
<title>Node26</title>
<g id="a_node27"><a xlink:href="class_fifty_one_1_1_pipeline_1_1_core_1_1_flow_elements_1_1_flow_element_base.html" target="_top" xlink:title=" ">
<polygon fill="none" stroke="black" points="817.5,-0.5 817.5,-52.5 993.5,-52.5 993.5,-0.5 817.5,-0.5"/>
<text text-anchor="start" x="825.5" y="-40.5" font-family="Helvetica,sans-Serif" font-size="10.00">FiftyOne.Pipeline.Core.Flow</text>
<text text-anchor="start" x="825.5" y="-29.5" font-family="Helvetica,sans-Serif" font-size="10.00">Elements.FlowElementBase</text>
<text text-anchor="start" x="825.5" y="-18.5" font-family="Helvetica,sans-Serif" font-size="10.00">&lt; ISplitIpData, IElementProperty</text>
<text text-anchor="middle" x="905.5" y="-7.5" font-family="Helvetica,sans-Serif" font-size="10.00">MetaData &gt;</text>
</a>
</g>
</g>
<!-- Node0&#45;&gt;Node26 -->
<g id="edge26" class="edge">
<title>Node0&#45;&gt;Node26</title>
<path fill="none" stroke="orange" stroke-dasharray="5,2" d="M522.23,-283.67C528.51,-232.34 548.83,-129.83 613,-77.5 669.84,-31.15 753.93,-20.63 817.2,-20.4"/>
<polygon fill="orange" stroke="orange" points="518.73,-283.49 521.09,-293.82 525.68,-284.27 518.73,-283.49"/>
<text text-anchor="start" x="639.5" y="-91.5" font-family="Helvetica,sans-Serif" font-size="10.00"> &lt; ISplitIpData, IElement</text>
<text text-anchor="middle" x="700" y="-80.5" font-family="Helvetica,sans-Serif" font-size="10.00">PropertyMetaData &gt;</text>
</g>
<!-- Node1 -->
<g id="node2" class="node">
<title>Node1</title>
<g id="a_node2"><a xlink:href="interface_fifty_one_1_1_pipeline_1_1_core_1_1_flow_elements_1_1_i_flow_element.html" target="_top" xlink:title=" ">
<polygon fill="none" stroke="black" points="256,-305 256,-324 405,-324 405,-305 256,-305"/>
<text text-anchor="middle" x="330.5" y="-312" font-family="Helvetica,sans-Serif" font-size="10.00">IFlowElement&lt; T, TMeta &gt;</text>
</a>
</g>
</g>
<!-- Node1&#45;&gt;Node0 -->
<g id="edge1" class="edge">
<title>Node1&#45;&gt;Node0</title>
<path fill="none" stroke="midnightblue" d="M415.3,-314.5C424.12,-314.5 433.05,-314.5 441.78,-314.5"/>
<polygon fill="midnightblue" stroke="midnightblue" points="415.01,-311 405.01,-314.5 415.01,-318 415.01,-311"/>
</g>
<!-- Node2 -->
<g id="node3" class="node">
<title>Node2</title>
<g id="a_node3"><a xlink:href="interface_fifty_one_1_1_pipeline_1_1_core_1_1_flow_elements_1_1_i_flow_element.html" target="_top" xlink:title="IFlowElement is the basic building block of a pipeline.">
<polygon fill="none" stroke="black" points="0,-299.5 0,-329.5 151,-329.5 151,-299.5 0,-299.5"/>
<text text-anchor="start" x="8" y="-317.5" font-family="Helvetica,sans-Serif" font-size="10.00">FiftyOne.Pipeline.Core.Flow</text>
<text text-anchor="middle" x="75.5" y="-306.5" font-family="Helvetica,sans-Serif" font-size="10.00">Elements.IFlowElement</text>
</a>
</g>
</g>
<!-- Node2&#45;&gt;Node1 -->
<g id="edge2" class="edge">
<title>Node2&#45;&gt;Node1</title>
<path fill="none" stroke="orange" stroke-dasharray="5,2" d="M161.29,-314.5C191.95,-314.5 226.3,-314.5 255.93,-314.5"/>
<polygon fill="orange" stroke="orange" points="161.04,-311 151.04,-314.5 161.04,-318 161.04,-311"/>
<text text-anchor="middle" x="203.5" y="-317.5" font-family="Helvetica,sans-Serif" font-size="10.00"> &lt; T, TMeta &gt;</text>
</g>
<!-- Node4 -->
<g id="node5" class="node">
<title>Node4</title>
<g id="a_node5"><a xlink:href="class_fifty_one_1_1_pipeline_1_1_engines_1_1_flow_elements_1_1_on_premise_aspect_engine_base.html" target="_top" xlink:title="Base class for 51Degrees on&#45;premise aspect engines.">
<polygon fill="none" stroke="black" points="1067.5,-572.5 1067.5,-624.5 1233.5,-624.5 1233.5,-572.5 1067.5,-572.5"/>
<text text-anchor="start" x="1075.5" y="-612.5" font-family="Helvetica,sans-Serif" font-size="10.00">FiftyOne::Pipeline</text>
<text text-anchor="start" x="1075.5" y="-601.5" font-family="Helvetica,sans-Serif" font-size="10.00">::Engines::FlowElements</text>
<text text-anchor="start" x="1075.5" y="-590.5" font-family="Helvetica,sans-Serif" font-size="10.00">::OnPremiseAspectEngineBase</text>
<text text-anchor="middle" x="1150.5" y="-579.5" font-family="Helvetica,sans-Serif" font-size="10.00">&lt; T, TMeta &gt;</text>
</a>
</g>
</g>
<!-- Node3&#45;&gt;Node4 -->
<g id="edge4" class="edge">
<title>Node3&#45;&gt;Node4</title>
<path fill="none" stroke="midnightblue" d="M983.57,-598.5C1010.17,-598.5 1040.07,-598.5 1067.09,-598.5"/>
<polygon fill="midnightblue" stroke="midnightblue" points="983.54,-595 973.54,-598.5 983.54,-602 983.54,-595"/>
</g>
<!-- Node5 -->
<g id="node6" class="node">
<title>Node5</title>
<g id="a_node6"><a xlink:href="class_fifty_one_1_1_pipeline_1_1_engines_1_1_flow_elements_1_1_on_premise_aspect_engine_base.html" target="_top" xlink:title=" ">
<polygon fill="none" stroke="black" points="1439,-611 1439,-652 1700,-652 1700,-611 1439,-611"/>
<text text-anchor="start" x="1447" y="-640" font-family="Helvetica,sans-Serif" font-size="10.00">FiftyOne.Pipeline.Engines.</text>
<text text-anchor="start" x="1447" y="-629" font-family="Helvetica,sans-Serif" font-size="10.00">FlowElements.OnPremiseAspectEngine</text>
<text text-anchor="middle" x="1569.5" y="-618" font-family="Helvetica,sans-Serif" font-size="10.00">Base&lt; IStarSignData, IAspectPropertyMetaData &gt;</text>
</a>
</g>
</g>
<!-- Node4&#45;&gt;Node5 -->
<g id="edge5" class="edge">
<title>Node4&#45;&gt;Node5</title>
<path fill="none" stroke="orange" stroke-dasharray="5,2" d="M1244,-605.82C1301.24,-610.35 1375.59,-616.23 1438.68,-621.23"/>
<polygon fill="orange" stroke="orange" points="1244.13,-602.32 1233.89,-605.02 1243.58,-609.3 1244.13,-602.32"/>
<text text-anchor="start" x="1286.5" y="-632.5" font-family="Helvetica,sans-Serif" font-size="10.00"> &lt; IStarSignData, IAspect</text>
<text text-anchor="middle" x="1348.5" y="-621.5" font-family="Helvetica,sans-Serif" font-size="10.00">PropertyMetaData &gt;</text>
</g>
<!-- Node7 -->
<g id="node8" class="node">
<title>Node7</title>
<g id="a_node8"><a xlink:href="class_fifty_one_1_1_pipeline_1_1_engines_1_1_flow_elements_1_1_on_premise_aspect_engine_base.html" target="_top" xlink:title=" ">
<polygon fill="none" stroke="black" points="1449,-551 1449,-592 1690,-592 1690,-551 1449,-551"/>
<text text-anchor="start" x="1457" y="-580" font-family="Helvetica,sans-Serif" font-size="10.00">FiftyOne.Pipeline.Engines.</text>
<text text-anchor="start" x="1457" y="-569" font-family="Helvetica,sans-Serif" font-size="10.00">FlowElements.OnPremiseAspectEngine</text>
<text text-anchor="middle" x="1569.5" y="-558" font-family="Helvetica,sans-Serif" font-size="10.00">Base&lt; T, IFiftyOneAspectPropertyMetaData &gt;</text>
</a>
</g>
</g>
<!-- Node4&#45;&gt;Node7 -->
<g id="edge7" class="edge">
<title>Node4&#45;&gt;Node7</title>
<path fill="none" stroke="orange" stroke-dasharray="5,2" d="M1243.67,-583.99C1254.55,-582.63 1265.51,-581.42 1276,-580.5 1332.69,-575.55 1395.76,-573.2 1448.78,-572.14"/>
<polygon fill="orange" stroke="orange" points="1243.19,-580.52 1233.72,-585.28 1244.09,-587.46 1243.19,-580.52"/>
<text text-anchor="start" x="1276" y="-594.5" font-family="Helvetica,sans-Serif" font-size="10.00"> &lt; T, IFiftyOneAspectProperty</text>
<text text-anchor="middle" x="1348.5" y="-583.5" font-family="Helvetica,sans-Serif" font-size="10.00">MetaData &gt;</text>
</g>
<!-- Node6 -->
<g id="node7" class="node">
<title>Node6</title>
<g id="a_node7"><a xlink:href="class_examples_1_1_on_premise_engine_1_1_flow_elements_1_1_simple_on_premise_engine.html" target="_top" xlink:title="[class] [constructor]">
<polygon fill="none" stroke="black" points="1737,-616.5 1737,-646.5 1946,-646.5 1946,-616.5 1737,-616.5"/>
<text text-anchor="start" x="1745" y="-634.5" font-family="Helvetica,sans-Serif" font-size="10.00">Examples.OnPremiseEngine.</text>
<text text-anchor="middle" x="1841.5" y="-623.5" font-family="Helvetica,sans-Serif" font-size="10.00">FlowElements.SimpleOnPremiseEngine</text>
</a>
</g>
</g>
<!-- Node5&#45;&gt;Node6 -->
<g id="edge6" class="edge">
<title>Node5&#45;&gt;Node6</title>
<path fill="none" stroke="midnightblue" d="M1710.62,-631.5C1719.36,-631.5 1728.07,-631.5 1736.61,-631.5"/>
<polygon fill="midnightblue" stroke="midnightblue" points="1710.36,-628 1700.36,-631.5 1710.36,-635 1710.36,-628"/>
</g>
<!-- Node8 -->
<g id="node9" class="node">
<title>Node8</title>
<g id="a_node9"><a xlink:href="class_fifty_one_1_1_pipeline_1_1_engines_1_1_fifty_one_1_1_flow_elements_1_1_fifty_one_on_premise_aspect_engine_base.html" target="_top" xlink:title="51Degrees specific Engine base class.">
<polygon fill="none" stroke="black" points="1747.5,-551 1747.5,-592 1935.5,-592 1935.5,-551 1747.5,-551"/>
<text text-anchor="start" x="1755.5" y="-580" font-family="Helvetica,sans-Serif" font-size="10.00">FiftyOne.Pipeline.Engines.</text>
<text text-anchor="start" x="1755.5" y="-569" font-family="Helvetica,sans-Serif" font-size="10.00">FiftyOne.FlowElements.FiftyOne</text>
<text text-anchor="middle" x="1841.5" y="-558" font-family="Helvetica,sans-Serif" font-size="10.00">OnPremiseAspectEngineBase&lt; T &gt;</text>
</a>
</g>
</g>
<!-- Node7&#45;&gt;Node8 -->
<g id="edge8" class="edge">
<title>Node7&#45;&gt;Node8</title>
<path fill="none" stroke="midnightblue" d="M1700.48,-571.5C1716.3,-571.5 1732.21,-571.5 1747.34,-571.5"/>
<polygon fill="midnightblue" stroke="midnightblue" points="1700.11,-568 1690.11,-571.5 1700.1,-575 1700.11,-568"/>
</g>
<!-- Node10 -->
<g id="node11" class="node">
<title>Node10</title>
<g id="a_node11"><a xlink:href="class_fifty_one_1_1_pipeline_1_1_json_builder_1_1_flow_element_1_1_json_builder_element.html" target="_top" xlink:title="The JsonBuilderElement takes accessible properties and adds the property key:values to the Json objec...">
<polygon fill="none" stroke="black" points="1061,-512.5 1061,-542.5 1240,-542.5 1240,-512.5 1061,-512.5"/>
<text text-anchor="start" x="1069" y="-530.5" font-family="Helvetica,sans-Serif" font-size="10.00">FiftyOne.Pipeline.JsonBuilder.</text>
<text text-anchor="middle" x="1150.5" y="-519.5" font-family="Helvetica,sans-Serif" font-size="10.00">FlowElement.JsonBuilderElement</text>
</a>
</g>
</g>
<!-- Node9&#45;&gt;Node10 -->
<g id="edge10" class="edge">
<title>Node9&#45;&gt;Node10</title>
<path fill="none" stroke="midnightblue" d="M997.77,-527.5C1018.4,-527.5 1040.28,-527.5 1060.8,-527.5"/>
<polygon fill="midnightblue" stroke="midnightblue" points="997.75,-524 987.75,-527.5 997.75,-531 997.75,-524"/>
</g>
<!-- Node12 -->
<g id="node13" class="node">
<title>Node12</title>
<g id="a_node13"><a xlink:href="class_fifty_one_1_1_pipeline_1_1_math_1_1_math_element.html" target="_top" xlink:title=" ">
<polygon fill="none" stroke="black" points="1073,-441.5 1073,-471.5 1228,-471.5 1228,-441.5 1073,-441.5"/>
<text text-anchor="start" x="1081" y="-459.5" font-family="Helvetica,sans-Serif" font-size="10.00">FiftyOne.Pipeline.Math.Math</text>
<text text-anchor="middle" x="1150.5" y="-448.5" font-family="Helvetica,sans-Serif" font-size="10.00">Element</text>
</a>
</g>
</g>
<!-- Node11&#45;&gt;Node12 -->
<g id="edge12" class="edge">
<title>Node11&#45;&gt;Node12</title>
<path fill="none" stroke="midnightblue" d="M1012.74,-456.5C1032.97,-456.5 1053.78,-456.5 1072.86,-456.5"/>
<polygon fill="midnightblue" stroke="midnightblue" points="1012.54,-453 1002.54,-456.5 1012.54,-460 1012.54,-453"/>
</g>
<!-- Node15 -->
<g id="node16" class="node">
<title>Node15</title>
<g id="a_node16"><a xlink:href="class_fifty_one_1_1_pipeline_1_1_core_1_1_flow_elements_1_1_parallel_elements.html" target="_top" xlink:title="ParallelElements executes it&#39;s child IFlowElement objects in parallel.">
<polygon fill="none" stroke="black" points="1075,-390.5 1075,-420.5 1226,-420.5 1226,-390.5 1075,-390.5"/>
<text text-anchor="start" x="1083" y="-408.5" font-family="Helvetica,sans-Serif" font-size="10.00">FiftyOne.Pipeline.Core.Flow</text>
<text text-anchor="middle" x="1150.5" y="-397.5" font-family="Helvetica,sans-Serif" font-size="10.00">Elements.ParallelElements</text>
</a>
</g>
</g>
<!-- Node14&#45;&gt;Node15 -->
<g id="edge15" class="edge">
<title>Node14&#45;&gt;Node15</title>
<path fill="none" stroke="midnightblue" d="M995.3,-344.87C998.96,-346.67 1002.54,-348.55 1006,-350.5 1024.43,-360.91 1023.99,-371.18 1043,-380.5 1052.98,-385.39 1063.95,-389.35 1074.95,-392.55"/>
<polygon fill="midnightblue" stroke="midnightblue" points="996.61,-341.61 986.07,-340.54 993.64,-347.95 996.61,-341.61"/>
</g>
<!-- Node16 -->
<g id="node17" class="node">
<title>Node16</title>
<g id="a_node17"><a xlink:href="class_fifty_one_1_1_pipeline_1_1_engines_1_1_fifty_one_1_1_flow_elements_1_1_sequence_element.html" target="_top" xlink:title="Sequence element establishes session and sequence evidence in the pipeline.">
<polygon fill="none" stroke="black" points="1061,-330 1061,-371 1240,-371 1240,-330 1061,-330"/>
<text text-anchor="start" x="1069" y="-359" font-family="Helvetica,sans-Serif" font-size="10.00">FiftyOne.Pipeline.Engines.</text>
<text text-anchor="start" x="1069" y="-348" font-family="Helvetica,sans-Serif" font-size="10.00">FiftyOne.FlowElements.Sequence</text>
<text text-anchor="middle" x="1150.5" y="-337" font-family="Helvetica,sans-Serif" font-size="10.00">Element</text>
</a>
</g>
</g>
<!-- Node14&#45;&gt;Node16 -->
<g id="edge16" class="edge">
<title>Node14&#45;&gt;Node16</title>
<path fill="none" stroke="midnightblue" d="M1008.24,-329.57C1025.73,-332.16 1043.77,-334.84 1060.88,-337.37"/>
<polygon fill="midnightblue" stroke="midnightblue" points="1008.43,-326.06 998.02,-328.06 1007.4,-332.99 1008.43,-326.06"/>
</g>
<!-- Node17 -->
<g id="node18" class="node">
<title>Node17</title>
<g id="a_node18"><a xlink:href="class_fifty_one_1_1_pipeline_1_1_engines_1_1_fifty_one_1_1_flow_elements_1_1_share_usage_base.html" target="_top" xlink:title="Abstract base class for ShareUsage elements.">
<polygon fill="none" stroke="black" points="1043,-280.5 1043,-310.5 1258,-310.5 1258,-280.5 1043,-280.5"/>
<text text-anchor="start" x="1051" y="-298.5" font-family="Helvetica,sans-Serif" font-size="10.00">FiftyOne.Pipeline.Engines.</text>
<text text-anchor="middle" x="1150.5" y="-287.5" font-family="Helvetica,sans-Serif" font-size="10.00">FiftyOne.FlowElements.ShareUsageBase</text>
</a>
</g>
</g>
<!-- Node14&#45;&gt;Node17 -->
<g id="edge17" class="edge">
<title>Node14&#45;&gt;Node17</title>
<path fill="none" stroke="midnightblue" d="M1008.07,-306.56C1019.6,-305.66 1031.37,-304.74 1042.95,-303.83"/>
<polygon fill="midnightblue" stroke="midnightblue" points="1007.72,-303.08 998.02,-307.34 1008.26,-310.05 1007.72,-303.08"/>
</g>
<!-- Node18 -->
<g id="node19" class="node">
<title>Node18</title>
<g id="a_node19"><a xlink:href="class_fifty_one_1_1_pipeline_1_1_engines_1_1_fifty_one_1_1_flow_elements_1_1_share_usage_element.html" target="_top" xlink:title="Flow element that sends usage data to 51Degrees for analysis.">
<polygon fill="none" stroke="black" points="1474,-275 1474,-316 1665,-316 1665,-275 1474,-275"/>
<text text-anchor="start" x="1482" y="-304" font-family="Helvetica,sans-Serif" font-size="10.00">FiftyOne.Pipeline.Engines.</text>
<text text-anchor="start" x="1482" y="-293" font-family="Helvetica,sans-Serif" font-size="10.00">FiftyOne.FlowElements.ShareUsage</text>
<text text-anchor="middle" x="1569.5" y="-282" font-family="Helvetica,sans-Serif" font-size="10.00">Element</text>
</a>
</g>
</g>
<!-- Node17&#45;&gt;Node18 -->
<g id="edge18" class="edge">
<title>Node17&#45;&gt;Node18</title>
<path fill="none" stroke="midnightblue" d="M1268.36,-295.5C1333.26,-295.5 1412.94,-295.5 1473.89,-295.5"/>
<polygon fill="midnightblue" stroke="midnightblue" points="1268.08,-292 1258.08,-295.5 1268.08,-299 1268.08,-292"/>
</g>
<!-- Node20 -->
<g id="node21" class="node">
<title>Node20</title>
<g id="a_node21"><a xlink:href="class_fifty_one_1_1_pipeline_1_1_java_script_builder_1_1_flow_element_1_1_java_script_builder_element.html" target="_top" xlink:title="JavaScript Builder Element generates a JavaScript include to be run on the client device.">
<polygon fill="none" stroke="black" points="1049,-220 1049,-261 1252,-261 1252,-220 1049,-220"/>
<text text-anchor="start" x="1057" y="-249" font-family="Helvetica,sans-Serif" font-size="10.00">FiftyOne.Pipeline.JavaScript</text>
<text text-anchor="start" x="1057" y="-238" font-family="Helvetica,sans-Serif" font-size="10.00">Builder.FlowElement.JavaScriptBuilder</text>
<text text-anchor="middle" x="1150.5" y="-227" font-family="Helvetica,sans-Serif" font-size="10.00">Element</text>
</a>
</g>
</g>
<!-- Node19&#45;&gt;Node20 -->
<g id="edge20" class="edge">
<title>Node19&#45;&gt;Node20</title>
<path fill="none" stroke="midnightblue" d="M1006.37,-242.27C1020.31,-242.09 1034.65,-241.92 1048.61,-241.75"/>
<polygon fill="midnightblue" stroke="midnightblue" points="1006.25,-238.77 996.29,-242.39 1006.34,-245.77 1006.25,-238.77"/>
</g>
<!-- Node22 -->
<g id="node23" class="node">
<title>Node22</title>
<g id="a_node23"><a xlink:href="class_fifty_one_1_1_pipeline_1_1_engines_1_1_fifty_one_1_1_flow_elements_1_1_set_headers_element.html" target="_top" xlink:title="This element is used to determine the values for HTTP headers that other elements in the pipeline wan...">
<polygon fill="none" stroke="black" points="1056.5,-155 1056.5,-196 1244.5,-196 1244.5,-155 1056.5,-155"/>
<text text-anchor="start" x="1064.5" y="-184" font-family="Helvetica,sans-Serif" font-size="10.00">FiftyOne.Pipeline.Engines.</text>
<text text-anchor="start" x="1064.5" y="-173" font-family="Helvetica,sans-Serif" font-size="10.00">FiftyOne.FlowElements.SetHeaders</text>
<text text-anchor="middle" x="1150.5" y="-162" font-family="Helvetica,sans-Serif" font-size="10.00">Element</text>
</a>
</g>
</g>
<!-- Node21&#45;&gt;Node22 -->
<g id="edge22" class="edge">
<title>Node21&#45;&gt;Node22</title>
<path fill="none" stroke="midnightblue" d="M1016.24,-173.85C1029.65,-174.02 1043.25,-174.19 1056.38,-174.35"/>
<polygon fill="midnightblue" stroke="midnightblue" points="1016.08,-170.35 1006.04,-173.73 1015.99,-177.35 1016.08,-170.35"/>
</g>
<!-- Node24 -->
<g id="node25" class="node">
<title>Node24</title>
<g id="a_node25"><a xlink:href="class_examples_1_1_client_side_evidence_1_1_shared_1_1_simple_client_side_element.html" target="_top" xlink:title="[class] [constructor]">
<polygon fill="none" stroke="black" points="1062,-105.5 1062,-135.5 1239,-135.5 1239,-105.5 1062,-105.5"/>
<text text-anchor="start" x="1070" y="-123.5" font-family="Helvetica,sans-Serif" font-size="10.00">Examples.ClientSideEvidence.</text>
<text text-anchor="middle" x="1150.5" y="-112.5" font-family="Helvetica,sans-Serif" font-size="10.00">Shared.SimpleClientSideElement</text>
</a>
</g>
</g>
<!-- Node23&#45;&gt;Node24 -->
<g id="edge24" class="edge">
<title>Node23&#45;&gt;Node24</title>
<path fill="none" stroke="midnightblue" d="M1008.38,-109.47C1026.09,-110.85 1044.38,-112.28 1061.68,-113.63"/>
<polygon fill="midnightblue" stroke="midnightblue" points="1008.26,-105.95 998.02,-108.66 1007.72,-112.92 1008.26,-105.95"/>
</g>
<!-- Node25 -->
<g id="node26" class="node">
<title>Node25</title>
<g id="a_node26"><a xlink:href="class_examples_1_1_custom_flow_element_1_1_flow_elements_1_1_simple_flow_element.html" target="_top" xlink:title="[class] [constructor]">
<polygon fill="none" stroke="black" points="1057.5,-56.5 1057.5,-86.5 1243.5,-86.5 1243.5,-56.5 1057.5,-56.5"/>
<text text-anchor="start" x="1065.5" y="-74.5" font-family="Helvetica,sans-Serif" font-size="10.00">Examples.CustomFlowElement.</text>
<text text-anchor="middle" x="1150.5" y="-63.5" font-family="Helvetica,sans-Serif" font-size="10.00">FlowElements.SimpleFlowElement</text>
</a>
</g>
</g>
<!-- Node23&#45;&gt;Node25 -->
<g id="edge25" class="edge">
<title>Node23&#45;&gt;Node25</title>
<path fill="none" stroke="midnightblue" d="M1008.1,-88.96C1024.4,-86.94 1041.19,-84.87 1057.25,-82.89"/>
<polygon fill="midnightblue" stroke="midnightblue" points="1007.52,-85.5 998.02,-90.2 1008.38,-92.45 1007.52,-85.5"/>
</g>
<!-- Node27 -->
<g id="node28" class="node">
<title>Node27</title>
<g id="a_node28"><a xlink:href="class_fifty_one_1_1_pipeline_1_1_ip_splitter_1_1_ip_splitter_element.html" target="_top" xlink:title=" ">
<polygon fill="none" stroke="black" points="1076,-7.5 1076,-37.5 1225,-37.5 1225,-7.5 1076,-7.5"/>
<text text-anchor="start" x="1084" y="-25.5" font-family="Helvetica,sans-Serif" font-size="10.00">FiftyOne.Pipeline.IpSplitter.</text>
<text text-anchor="middle" x="1150.5" y="-14.5" font-family="Helvetica,sans-Serif" font-size="10.00">IpSplitterElement</text>
</a>
</g>
</g>
<!-- Node26&#45;&gt;Node27 -->
<g id="edge27" class="edge">
<title>Node26&#45;&gt;Node27</title>
<path fill="none" stroke="midnightblue" d="M1003.76,-24.9C1027.81,-24.5 1053.18,-24.09 1075.9,-23.71"/>
<polygon fill="midnightblue" stroke="midnightblue" points="1003.48,-21.4 993.54,-25.07 1003.6,-28.4 1003.48,-21.4"/>
</g>
</g>
</svg>
